<svg width="348" height="462" viewBox="0 0 348 462" fill="none" xmlns="http://www.w3.org/2000/svg">
<g filter="url(#filter0_d_18_3679)">
<rect x="34" y="29" width="280" height="394" rx="20" fill="#F2F2F2"/>
<rect x="34.5" y="29.5" width="279" height="393" rx="19.5" stroke="#D2D2D2"/>
</g>
<path d="M90.0625 323.811H83.4375V327.123H90.0625V323.811Z" fill="#254EFB"/>
<path d="M93.375 323.811H90.0625V327.123H93.375V323.811Z" fill="#63A0F9"/>
<path d="M106.625 323.811H93.375V327.123H106.625V323.811Z" fill="#254EFB"/>
<path d="M109.938 323.811H106.625V327.123H109.938V323.811Z" fill="#63A0F9"/>
<path d="M116.562 323.811H109.938V327.123H116.562V323.811Z" fill="#254EFB"/>
<path d="M90.0625 327.123H80.125V330.436H90.0625V327.123Z" fill="#254EFB"/>
<path d="M93.375 327.123H90.0625V330.436H93.375V327.123Z" fill="#63A0F9"/>
<path d="M106.625 327.123H93.375V330.436H106.625V327.123Z" fill="#254EFB"/>
<path d="M109.938 327.123H106.625V330.436H109.938V327.123Z" fill="#63A0F9"/>
<path d="M119.875 327.123H109.938V330.436H119.875V327.123Z" fill="#254EFB"/>
<path d="M86.75 330.436H76.8125V333.748H86.75V330.436Z" fill="#254EFB"/>
<path d="M90.0625 330.436H86.75V333.748H90.0625V330.436Z" fill="#63A0F9"/>
<path d="M109.938 330.436H90.0625V333.748H109.938V330.436Z" fill="#254EFB"/>
<path d="M113.25 330.436H109.938V333.748H113.25V330.436Z" fill="#63A0F9"/>
<path d="M123.188 330.436H113.25V333.748H123.188V330.436Z" fill="#254EFB"/>
<path d="M86.75 333.748H73.5V337.061H86.75V333.748Z" fill="#254EFB"/>
<path d="M90.0625 333.748H86.75V337.061H90.0625V333.748Z" fill="#63A0F9"/>
<path d="M109.938 333.748H90.0625V337.061H109.938V333.748Z" fill="#254EFB"/>
<path d="M113.25 333.748H109.938V337.061H113.25V333.748Z" fill="#63A0F9"/>
<path d="M126.5 333.748H113.25V337.061H126.5V333.748Z" fill="#254EFB"/>
<path d="M83.4375 337.061H70.1875V340.373H83.4375V337.061Z" fill="#254EFB"/>
<path d="M86.75 337.061H83.4375V340.373H86.75V337.061Z" fill="white"/>
<path d="M113.25 337.061H86.75V340.373H113.25V337.061Z" fill="#254EFB"/>
<path d="M116.562 337.061H113.25V340.373H116.562V337.061Z" fill="#63A0F9"/>
<path d="M129.812 337.061H116.562V340.373H129.812V337.061Z" fill="#254EFB"/>
<path d="M73.5 340.373H66.875V343.686H73.5V340.373Z" fill="#63A0F9"/>
<path d="M76.8125 340.373H73.5V343.686H76.8125V340.373Z" fill="white"/>
<path d="M80.125 340.373H76.8125V343.686H80.125V340.373Z" fill="#63A0F9"/>
<path d="M90.0625 340.373H80.125V343.686H90.0625V340.373Z" fill="white"/>
<path d="M93.375 340.373H90.0625V343.686H93.375V340.373Z" fill="#63A0F9"/>
<path d="M96.6875 340.373H93.375V343.686H96.6875V340.373Z" fill="white"/>
<path d="M133.125 340.373H96.6875V343.686H133.125V340.373Z" fill="#63A0F9"/>
<path d="M83.4375 343.686H66.875V346.998H83.4375V343.686Z" fill="#254EFB"/>
<path d="M86.75 343.686H83.4375V346.998H86.75V343.686Z" fill="white"/>
<path d="M113.25 343.686H86.75V346.998H113.25V343.686Z" fill="#254EFB"/>
<path d="M116.562 343.686H113.25V346.998H116.562V343.686Z" fill="#63A0F9"/>
<path d="M133.125 343.686H116.562V346.998H133.125V343.686Z" fill="#254EFB"/>
<path d="M83.4375 346.998H66.875V350.311H83.4375V346.998Z" fill="#254EFB"/>
<path d="M86.75 346.998H83.4375V350.311H86.75V346.998Z" fill="#63A0F9"/>
<path d="M113.25 346.998H86.75V350.311H113.25V346.998Z" fill="#254EFB"/>
<path d="M116.562 346.998H113.25V350.311H116.562V346.998Z" fill="#63A0F9"/>
<path d="M133.125 346.998H116.562V350.311H133.125V346.998Z" fill="#254EFB"/>
<path d="M83.4375 350.311H66.875V353.623H83.4375V350.311Z" fill="#254EFB"/>
<path d="M86.75 350.311H83.4375V353.623H86.75V350.311Z" fill="#63A0F9"/>
<path d="M113.25 350.311H86.75V353.623H113.25V350.311Z" fill="#254EFB"/>
<path d="M116.562 350.311H113.25V353.623H116.562V350.311Z" fill="#63A0F9"/>
<path d="M133.125 350.311H116.562V353.623H133.125V350.311Z" fill="#254EFB"/>
<path d="M83.4375 353.623H66.875V356.936H83.4375V353.623Z" fill="#254EFB"/>
<path d="M86.75 353.623H83.4375V356.936H86.75V353.623Z" fill="#63A0F9"/>
<path d="M113.25 353.623H86.75V356.936H113.25V353.623Z" fill="#254EFB"/>
<path d="M116.562 353.623H113.25V356.936H116.562V353.623Z" fill="#63A0F9"/>
<path d="M133.125 353.623H116.562V356.936H133.125V353.623Z" fill="#254EFB"/>
<path d="M133.125 356.936H66.875V360.248H133.125V356.936Z" fill="#63A0F9"/>
<path d="M86.75 360.249H70.1875V363.561H86.75V360.249Z" fill="#254EFB"/>
<path d="M90.0625 360.249H86.75V363.561H90.0625V360.249Z" fill="#63A0F9"/>
<path d="M109.938 360.249H90.0625V363.561H109.938V360.249Z" fill="#254EFB"/>
<path d="M113.25 360.249H109.938V363.561H113.25V360.249Z" fill="#63A0F9"/>
<path d="M129.812 360.249H113.25V363.561H129.812V360.249Z" fill="#254EFB"/>
<path d="M86.75 363.561H73.5V366.874H86.75V363.561Z" fill="#254EFB"/>
<path d="M90.0625 363.561H86.75V366.874H90.0625V363.561Z" fill="#63A0F9"/>
<path d="M109.938 363.561H90.0625V366.874H109.938V363.561Z" fill="#254EFB"/>
<path d="M113.25 363.561H109.938V366.874H113.25V363.561Z" fill="#63A0F9"/>
<path d="M126.5 363.561H113.25V366.874H126.5V363.561Z" fill="#254EFB"/>
<path d="M90.0625 366.874H76.8125V370.186H90.0625V366.874Z" fill="#254EFB"/>
<path d="M93.375 366.874H90.0625V370.186H93.375V366.874Z" fill="#63A0F9"/>
<path d="M106.625 366.874H93.375V370.186H106.625V366.874Z" fill="#254EFB"/>
<path d="M109.938 366.874H106.625V370.186H109.938V366.874Z" fill="#63A0F9"/>
<path d="M123.188 366.874H109.938V370.186H123.188V366.874Z" fill="#254EFB"/>
<path d="M90.0625 370.186H80.125V373.499H90.0625V370.186Z" fill="#254EFB"/>
<path d="M93.375 370.186H90.0625V373.499H93.375V370.186Z" fill="#63A0F9"/>
<path d="M106.625 370.186H93.375V373.499H106.625V370.186Z" fill="#254EFB"/>
<path d="M109.938 370.186H106.625V373.499H109.938V370.186Z" fill="#63A0F9"/>
<path d="M119.875 370.186H109.938V373.499H119.875V370.186Z" fill="#254EFB"/>
<path d="M90.0625 373.499H83.4375V376.811H90.0625V373.499Z" fill="#254EFB"/>
<path d="M93.375 373.499H90.0625V376.811H93.375V373.499Z" fill="#63A0F9"/>
<path d="M106.625 373.499H93.375V376.811H106.625V373.499Z" fill="#254EFB"/>
<path d="M109.938 373.499H106.625V376.811H109.938V373.499Z" fill="#63A0F9"/>
<path d="M116.562 373.499H109.938V376.811H116.562V373.499Z" fill="#254EFB"/>
<path d="M93.375 376.811H86.75V380.124H93.375V376.811Z" fill="#254EFB"/>
<path d="M96.6875 376.811H93.375V380.124H96.6875V376.811Z" fill="#63A0F9"/>
<path d="M103.312 376.811H96.6875V380.124H103.312V376.811Z" fill="#254EFB"/>
<path d="M106.625 376.811H103.312V380.124H106.625V376.811Z" fill="#63A0F9"/>
<path d="M113.25 376.811H106.625V380.124H113.25V376.811Z" fill="#254EFB"/>
<path d="M93.375 380.124H90.0625V383.436H93.375V380.124Z" fill="#254EFB"/>
<path d="M96.6875 380.124H93.375V383.436H96.6875V380.124Z" fill="#63A0F9"/>
<path d="M103.312 380.124H96.6875V383.436H103.312V380.124Z" fill="#254EFB"/>
<path d="M106.625 380.124H103.312V383.436H106.625V380.124Z" fill="#63A0F9"/>
<path d="M109.938 380.124H106.625V383.436H109.938V380.124Z" fill="#254EFB"/>
<path d="M96.6875 383.436H93.375V386.749H96.6875V383.436Z" fill="#63A0F9"/>
<path d="M103.312 383.436H96.6875V386.749H103.312V383.436Z" fill="#254EFB"/>
<path d="M106.625 383.436H103.312V386.749H106.625V383.436Z" fill="#63A0F9"/>
<path d="M103.312 386.749H96.6875V390.061H103.312V386.749Z" fill="#254EFB"/>
<path d="M240.062 59.8109H233.438V63.1234H240.062V59.8109Z" fill="#254EFB"/>
<path d="M243.375 59.8109H240.062V63.1234H243.375V59.8109Z" fill="#63A0F9"/>
<path d="M256.625 59.8109H243.375V63.1234H256.625V59.8109Z" fill="#254EFB"/>
<path d="M259.938 59.8109H256.625V63.1234H259.938V59.8109Z" fill="#63A0F9"/>
<path d="M266.562 59.8109H259.938V63.1234H266.562V59.8109Z" fill="#254EFB"/>
<path d="M240.062 63.1234H230.125V66.4359H240.062V63.1234Z" fill="#254EFB"/>
<path d="M243.375 63.1234H240.062V66.4359H243.375V63.1234Z" fill="#63A0F9"/>
<path d="M256.625 63.1234H243.375V66.4359H256.625V63.1234Z" fill="#254EFB"/>
<path d="M259.938 63.1234H256.625V66.4359H259.938V63.1234Z" fill="#63A0F9"/>
<path d="M269.875 63.1234H259.938V66.4359H269.875V63.1234Z" fill="#254EFB"/>
<path d="M236.75 66.4359H226.812V69.7484H236.75V66.4359Z" fill="#254EFB"/>
<path d="M240.062 66.4359H236.75V69.7484H240.062V66.4359Z" fill="#63A0F9"/>
<path d="M259.938 66.4359H240.062V69.7484H259.938V66.4359Z" fill="#254EFB"/>
<path d="M263.25 66.4359H259.938V69.7484H263.25V66.4359Z" fill="#63A0F9"/>
<path d="M273.188 66.4359H263.25V69.7484H273.188V66.4359Z" fill="#254EFB"/>
<path d="M236.75 69.7484H223.5V73.0609H236.75V69.7484Z" fill="#254EFB"/>
<path d="M240.062 69.7484H236.75V73.0609H240.062V69.7484Z" fill="#63A0F9"/>
<path d="M259.938 69.7484H240.062V73.0609H259.938V69.7484Z" fill="#254EFB"/>
<path d="M263.25 69.7484H259.938V73.0609H263.25V69.7484Z" fill="#63A0F9"/>
<path d="M276.5 69.7484H263.25V73.0609H276.5V69.7484Z" fill="#254EFB"/>
<path d="M233.438 73.0609H220.188V76.3734H233.438V73.0609Z" fill="#254EFB"/>
<path d="M236.75 73.0609H233.438V76.3734H236.75V73.0609Z" fill="white"/>
<path d="M263.25 73.0609H236.75V76.3734H263.25V73.0609Z" fill="#254EFB"/>
<path d="M266.562 73.0609H263.25V76.3734H266.562V73.0609Z" fill="#63A0F9"/>
<path d="M279.812 73.0609H266.562V76.3734H279.812V73.0609Z" fill="#254EFB"/>
<path d="M223.5 76.3734H216.875V79.6859H223.5V76.3734Z" fill="#63A0F9"/>
<path d="M226.812 76.3734H223.5V79.6859H226.812V76.3734Z" fill="white"/>
<path d="M230.125 76.3734H226.812V79.6859H230.125V76.3734Z" fill="#63A0F9"/>
<path d="M240.062 76.3734H230.125V79.6859H240.062V76.3734Z" fill="white"/>
<path d="M243.375 76.3734H240.062V79.6859H243.375V76.3734Z" fill="#63A0F9"/>
<path d="M246.688 76.3734H243.375V79.6859H246.688V76.3734Z" fill="white"/>
<path d="M283.125 76.3734H246.688V79.6859H283.125V76.3734Z" fill="#63A0F9"/>
<path d="M233.438 79.6859H216.875V82.9984H233.438V79.6859Z" fill="#254EFB"/>
<path d="M236.75 79.6859H233.438V82.9984H236.75V79.6859Z" fill="white"/>
<path d="M263.25 79.6859H236.75V82.9984H263.25V79.6859Z" fill="#254EFB"/>
<path d="M266.562 79.6859H263.25V82.9984H266.562V79.6859Z" fill="#63A0F9"/>
<path d="M283.125 79.6859H266.562V82.9984H283.125V79.6859Z" fill="#254EFB"/>
<path d="M233.438 82.9984H216.875V86.3109H233.438V82.9984Z" fill="#254EFB"/>
<path d="M236.75 82.9984H233.438V86.3109H236.75V82.9984Z" fill="#63A0F9"/>
<path d="M263.25 82.9984H236.75V86.3109H263.25V82.9984Z" fill="#254EFB"/>
<path d="M266.562 82.9984H263.25V86.3109H266.562V82.9984Z" fill="#63A0F9"/>
<path d="M283.125 82.9984H266.562V86.3109H283.125V82.9984Z" fill="#254EFB"/>
<path d="M233.438 86.3109H216.875V89.6234H233.438V86.3109Z" fill="#254EFB"/>
<path d="M236.75 86.3109H233.438V89.6234H236.75V86.3109Z" fill="#63A0F9"/>
<path d="M263.25 86.3109H236.75V89.6234H263.25V86.3109Z" fill="#254EFB"/>
<path d="M266.562 86.3109H263.25V89.6234H266.562V86.3109Z" fill="#63A0F9"/>
<path d="M283.125 86.3109H266.562V89.6234H283.125V86.3109Z" fill="#254EFB"/>
<path d="M233.438 89.6234H216.875V92.9359H233.438V89.6234Z" fill="#254EFB"/>
<path d="M236.75 89.6234H233.438V92.9359H236.75V89.6234Z" fill="#63A0F9"/>
<path d="M263.25 89.6234H236.75V92.9359H263.25V89.6234Z" fill="#254EFB"/>
<path d="M266.562 89.6234H263.25V92.9359H266.562V89.6234Z" fill="#63A0F9"/>
<path d="M283.125 89.6234H266.562V92.9359H283.125V89.6234Z" fill="#254EFB"/>
<path d="M283.125 92.9359H216.875V96.2484H283.125V92.9359Z" fill="#63A0F9"/>
<path d="M236.75 96.2484H220.188V99.5609H236.75V96.2484Z" fill="#254EFB"/>
<path d="M240.062 96.2484H236.75V99.5609H240.062V96.2484Z" fill="#63A0F9"/>
<path d="M259.938 96.2484H240.062V99.5609H259.938V96.2484Z" fill="#254EFB"/>
<path d="M263.25 96.2484H259.938V99.5609H263.25V96.2484Z" fill="#63A0F9"/>
<path d="M279.812 96.2484H263.25V99.5609H279.812V96.2484Z" fill="#254EFB"/>
<path d="M236.75 99.5609H223.5V102.873H236.75V99.5609Z" fill="#254EFB"/>
<path d="M240.062 99.5609H236.75V102.873H240.062V99.5609Z" fill="#63A0F9"/>
<path d="M259.938 99.5609H240.062V102.873H259.938V99.5609Z" fill="#254EFB"/>
<path d="M263.25 99.5609H259.938V102.873H263.25V99.5609Z" fill="#63A0F9"/>
<path d="M276.5 99.5609H263.25V102.873H276.5V99.5609Z" fill="#254EFB"/>
<path d="M240.062 102.873H226.812V106.186H240.062V102.873Z" fill="#254EFB"/>
<path d="M243.375 102.873H240.062V106.186H243.375V102.873Z" fill="#63A0F9"/>
<path d="M256.625 102.873H243.375V106.186H256.625V102.873Z" fill="#254EFB"/>
<path d="M259.938 102.873H256.625V106.186H259.938V102.873Z" fill="#63A0F9"/>
<path d="M273.188 102.873H259.938V106.186H273.188V102.873Z" fill="#254EFB"/>
<path d="M240.062 106.186H230.125V109.498H240.062V106.186Z" fill="#254EFB"/>
<path d="M243.375 106.186H240.062V109.498H243.375V106.186Z" fill="#63A0F9"/>
<path d="M256.625 106.186H243.375V109.498H256.625V106.186Z" fill="#254EFB"/>
<path d="M259.938 106.186H256.625V109.498H259.938V106.186Z" fill="#63A0F9"/>
<path d="M269.875 106.186H259.938V109.498H269.875V106.186Z" fill="#254EFB"/>
<path d="M240.062 109.498H233.438V112.811H240.062V109.498Z" fill="#254EFB"/>
<path d="M243.375 109.498H240.062V112.811H243.375V109.498Z" fill="#63A0F9"/>
<path d="M256.625 109.498H243.375V112.811H256.625V109.498Z" fill="#254EFB"/>
<path d="M259.938 109.498H256.625V112.811H259.938V109.498Z" fill="#63A0F9"/>
<path d="M266.562 109.498H259.938V112.811H266.562V109.498Z" fill="#254EFB"/>
<path d="M243.375 112.811H236.75V116.123H243.375V112.811Z" fill="#254EFB"/>
<path d="M246.688 112.811H243.375V116.123H246.688V112.811Z" fill="#63A0F9"/>
<path d="M253.312 112.811H246.688V116.123H253.312V112.811Z" fill="#254EFB"/>
<path d="M256.625 112.811H253.312V116.123H256.625V112.811Z" fill="#63A0F9"/>
<path d="M263.25 112.811H256.625V116.123H263.25V112.811Z" fill="#254EFB"/>
<path d="M243.375 116.123H240.062V119.436H243.375V116.123Z" fill="#254EFB"/>
<path d="M246.688 116.123H243.375V119.436H246.688V116.123Z" fill="#63A0F9"/>
<path d="M253.312 116.123H246.688V119.436H253.312V116.123Z" fill="#254EFB"/>
<path d="M256.625 116.123H253.312V119.436H256.625V116.123Z" fill="#63A0F9"/>
<path d="M259.938 116.123H256.625V119.436H259.938V116.123Z" fill="#254EFB"/>
<path d="M246.688 119.436H243.375V122.748H246.688V119.436Z" fill="#63A0F9"/>
<path d="M253.312 119.436H246.688V122.748H253.312V119.436Z" fill="#254EFB"/>
<path d="M256.625 119.436H253.312V122.748H256.625V119.436Z" fill="#63A0F9"/>
<path d="M253.312 122.748H246.688V126.061H253.312V122.748Z" fill="#254EFB"/>
<path d="M94.875 68.6562C98.2865 68.6562 101.411 69.2552 104.25 70.4531C107.115 71.625 109.602 73.4089 111.711 75.8047C113.846 78.2005 115.487 81.1953 116.633 84.7891C117.805 88.3568 118.391 92.5234 118.391 97.2891V97.3672C118.391 103.539 117.44 108.839 115.539 113.266C113.638 117.667 110.93 121.052 107.414 123.422C103.898 125.792 99.6797 126.977 94.7578 126.977C91.138 126.977 87.8568 126.326 84.9141 125.023C81.9974 123.721 79.5885 121.951 77.6875 119.711C75.7865 117.445 74.5495 114.854 73.9766 111.938L73.8984 111.586H85.5391L85.6562 111.898C86.125 113.018 86.776 114.008 87.6094 114.867C88.4688 115.727 89.4974 116.404 90.6953 116.898C91.8932 117.367 93.2604 117.602 94.7969 117.602C97.5573 117.602 99.8099 116.807 101.555 115.219C103.299 113.63 104.615 111.495 105.5 108.812C106.411 106.104 106.932 103.096 107.062 99.7891C107.089 99.3984 107.102 99.0208 107.102 98.6562C107.128 98.2656 107.141 97.875 107.141 97.4844L105.344 88.1094C105.344 86.2083 104.888 84.5026 103.977 82.9922C103.065 81.4557 101.828 80.2448 100.266 79.3594C98.7031 78.474 96.9583 78.0312 95.0312 78.0312C93.1042 78.0312 91.3594 78.474 89.7969 79.3594C88.2344 80.2188 86.9844 81.4036 86.0469 82.9141C85.1094 84.3984 84.6406 86.0781 84.6406 87.9531V88.0312C84.6406 89.9844 85.0833 91.7161 85.9688 93.2266C86.8802 94.7109 88.1042 95.8828 89.6406 96.7422C91.2031 97.5755 92.9609 97.9922 94.9141 97.9922C96.8932 97.9922 98.6641 97.5755 100.227 96.7422C101.815 95.9089 103.065 94.75 103.977 93.2656C104.888 91.7812 105.344 90.0755 105.344 88.1484V88.1094H107.727V97.6406H106.906C106.151 99.3854 105.057 100.948 103.625 102.328C102.193 103.682 100.448 104.75 98.3906 105.531C96.3594 106.312 94.0677 106.703 91.5156 106.703C87.8958 106.703 84.7057 105.922 81.9453 104.359C79.1849 102.771 77.0234 100.596 75.4609 97.8359C73.9245 95.0755 73.1562 91.9375 73.1562 88.4219V88.3438C73.1562 84.5156 74.0938 81.1172 75.9688 78.1484C77.8438 75.1797 80.4089 72.862 83.6641 71.1953C86.9453 69.5026 90.6823 68.6562 94.875 68.6562Z" fill="#254EFB"/>
<path d="M251.875 327.905C255.286 327.905 258.411 328.504 261.25 329.702C264.115 330.873 266.602 332.657 268.711 335.053C270.846 337.449 272.487 340.444 273.633 344.037C274.805 347.605 275.391 351.772 275.391 356.537V356.616C275.391 362.787 274.44 368.087 272.539 372.514C270.638 376.915 267.93 380.3 264.414 382.67C260.898 385.04 256.68 386.225 251.758 386.225C248.138 386.225 244.857 385.574 241.914 384.272C238.997 382.97 236.589 381.199 234.688 378.959C232.786 376.694 231.549 374.103 230.977 371.186L230.898 370.834H242.539L242.656 371.147C243.125 372.267 243.776 373.256 244.609 374.116C245.469 374.975 246.497 375.652 247.695 376.147C248.893 376.616 250.26 376.85 251.797 376.85C254.557 376.85 256.81 376.056 258.555 374.467C260.299 372.879 261.615 370.743 262.5 368.061C263.411 365.353 263.932 362.345 264.062 359.037C264.089 358.647 264.102 358.269 264.102 357.905C264.128 357.514 264.141 357.123 264.141 356.733L262.344 347.358C262.344 345.457 261.888 343.751 260.977 342.241C260.065 340.704 258.828 339.493 257.266 338.608C255.703 337.722 253.958 337.28 252.031 337.28C250.104 337.28 248.359 337.722 246.797 338.608C245.234 339.467 243.984 340.652 243.047 342.162C242.109 343.647 241.641 345.327 241.641 347.202V347.28C241.641 349.233 242.083 350.965 242.969 352.475C243.88 353.959 245.104 355.131 246.641 355.991C248.203 356.824 249.961 357.241 251.914 357.241C253.893 357.241 255.664 356.824 257.227 355.991C258.815 355.157 260.065 353.998 260.977 352.514C261.888 351.03 262.344 349.324 262.344 347.397V347.358H264.727V356.889H263.906C263.151 358.634 262.057 360.196 260.625 361.577C259.193 362.931 257.448 363.998 255.391 364.78C253.359 365.561 251.068 365.952 248.516 365.952C244.896 365.952 241.706 365.17 238.945 363.608C236.185 362.019 234.023 359.845 232.461 357.084C230.924 354.324 230.156 351.186 230.156 347.67V347.592C230.156 343.764 231.094 340.366 232.969 337.397C234.844 334.428 237.409 332.11 240.664 330.444C243.945 328.751 247.682 327.905 251.875 327.905Z" fill="#254EFB"/>
<defs>
<filter id="filter0_d_18_3679" x="0" y="0" width="348" height="462" filterUnits="userSpaceOnUse" color-interpolation-filters="sRGB">
<feFlood flood-opacity="0" result="BackgroundImageFix"/>
<feColorMatrix in="SourceAlpha" type="matrix" values="0 0 0 0 0 0 0 0 0 0 0 0 0 0 0 0 0 0 127 0" result="hardAlpha"/>
<feOffset dy="5"/>
<feGaussianBlur stdDeviation="17"/>
<feColorMatrix type="matrix" values="0 0 0 0 0 0 0 0 0 0 0 0 0 0 0 0 0 0 0.1 0"/>
<feBlend mode="normal" in2="BackgroundImageFix" result="effect1_dropShadow_18_3679"/>
<feBlend mode="normal" in="SourceGraphic" in2="effect1_dropShadow_18_3679" result="shape"/>
</filter>
</defs>
</svg>
