<svg width="348" height="463" viewBox="0 0 348 463" fill="none" xmlns="http://www.w3.org/2000/svg">
<g filter="url(#filter0_d_18_2560)">
<rect x="34" y="29.2484" width="280" height="394" rx="20" fill="#F2F2F2"/>
<rect x="34.5" y="29.7484" width="279" height="393" rx="19.5" stroke="#D2D2D2"/>
</g>
<path d="M90.0625 324.059H83.4375V327.372H90.0625V324.059Z" fill="#254EFB"/>
<path d="M93.375 324.059H90.0625V327.372H93.375V324.059Z" fill="#63A0F9"/>
<path d="M106.625 324.059H93.375V327.372H106.625V324.059Z" fill="#254EFB"/>
<path d="M109.938 324.059H106.625V327.372H109.938V324.059Z" fill="#63A0F9"/>
<path d="M116.562 324.059H109.938V327.372H116.562V324.059Z" fill="#254EFB"/>
<path d="M90.0625 327.372H80.125V330.684H90.0625V327.372Z" fill="#254EFB"/>
<path d="M93.375 327.372H90.0625V330.684H93.375V327.372Z" fill="#63A0F9"/>
<path d="M106.625 327.372H93.375V330.684H106.625V327.372Z" fill="#254EFB"/>
<path d="M109.938 327.372H106.625V330.684H109.938V327.372Z" fill="#63A0F9"/>
<path d="M119.875 327.372H109.938V330.684H119.875V327.372Z" fill="#254EFB"/>
<path d="M86.75 330.684H76.8125V333.997H86.75V330.684Z" fill="#254EFB"/>
<path d="M90.0625 330.684H86.75V333.997H90.0625V330.684Z" fill="#63A0F9"/>
<path d="M109.938 330.684H90.0625V333.997H109.938V330.684Z" fill="#254EFB"/>
<path d="M113.25 330.684H109.938V333.997H113.25V330.684Z" fill="#63A0F9"/>
<path d="M123.188 330.684H113.25V333.997H123.188V330.684Z" fill="#254EFB"/>
<path d="M86.75 333.997H73.5V337.309H86.75V333.997Z" fill="#254EFB"/>
<path d="M90.0625 333.997H86.75V337.309H90.0625V333.997Z" fill="#63A0F9"/>
<path d="M109.938 333.997H90.0625V337.309H109.938V333.997Z" fill="#254EFB"/>
<path d="M113.25 333.997H109.938V337.309H113.25V333.997Z" fill="#63A0F9"/>
<path d="M126.5 333.997H113.25V337.309H126.5V333.997Z" fill="#254EFB"/>
<path d="M83.4375 337.309H70.1875V340.622H83.4375V337.309Z" fill="#254EFB"/>
<path d="M86.75 337.309H83.4375V340.622H86.75V337.309Z" fill="white"/>
<path d="M113.25 337.309H86.75V340.622H113.25V337.309Z" fill="#254EFB"/>
<path d="M116.562 337.309H113.25V340.622H116.562V337.309Z" fill="#63A0F9"/>
<path d="M129.812 337.309H116.562V340.622H129.812V337.309Z" fill="#254EFB"/>
<path d="M73.5 340.622H66.875V343.934H73.5V340.622Z" fill="#63A0F9"/>
<path d="M76.8125 340.622H73.5V343.934H76.8125V340.622Z" fill="white"/>
<path d="M80.125 340.622H76.8125V343.934H80.125V340.622Z" fill="#63A0F9"/>
<path d="M90.0625 340.622H80.125V343.934H90.0625V340.622Z" fill="white"/>
<path d="M93.375 340.622H90.0625V343.934H93.375V340.622Z" fill="#63A0F9"/>
<path d="M96.6875 340.622H93.375V343.934H96.6875V340.622Z" fill="white"/>
<path d="M133.125 340.622H96.6875V343.934H133.125V340.622Z" fill="#63A0F9"/>
<path d="M83.4375 343.934H66.875V347.247H83.4375V343.934Z" fill="#254EFB"/>
<path d="M86.75 343.934H83.4375V347.247H86.75V343.934Z" fill="white"/>
<path d="M113.25 343.934H86.75V347.247H113.25V343.934Z" fill="#254EFB"/>
<path d="M116.562 343.934H113.25V347.247H116.562V343.934Z" fill="#63A0F9"/>
<path d="M133.125 343.934H116.562V347.247H133.125V343.934Z" fill="#254EFB"/>
<path d="M83.4375 347.247H66.875V350.559H83.4375V347.247Z" fill="#254EFB"/>
<path d="M86.75 347.247H83.4375V350.559H86.75V347.247Z" fill="#63A0F9"/>
<path d="M113.25 347.247H86.75V350.559H113.25V347.247Z" fill="#254EFB"/>
<path d="M116.562 347.247H113.25V350.559H116.562V347.247Z" fill="#63A0F9"/>
<path d="M133.125 347.247H116.562V350.559H133.125V347.247Z" fill="#254EFB"/>
<path d="M83.4375 350.559H66.875V353.872H83.4375V350.559Z" fill="#254EFB"/>
<path d="M86.75 350.559H83.4375V353.872H86.75V350.559Z" fill="#63A0F9"/>
<path d="M113.25 350.559H86.75V353.872H113.25V350.559Z" fill="#254EFB"/>
<path d="M116.562 350.559H113.25V353.872H116.562V350.559Z" fill="#63A0F9"/>
<path d="M133.125 350.559H116.562V353.872H133.125V350.559Z" fill="#254EFB"/>
<path d="M83.4375 353.872H66.875V357.184H83.4375V353.872Z" fill="#254EFB"/>
<path d="M86.75 353.872H83.4375V357.184H86.75V353.872Z" fill="#63A0F9"/>
<path d="M113.25 353.872H86.75V357.184H113.25V353.872Z" fill="#254EFB"/>
<path d="M116.562 353.872H113.25V357.184H116.562V353.872Z" fill="#63A0F9"/>
<path d="M133.125 353.872H116.562V357.184H133.125V353.872Z" fill="#254EFB"/>
<path d="M133.125 357.184H66.875V360.497H133.125V357.184Z" fill="#63A0F9"/>
<path d="M86.75 360.497H70.1875V363.809H86.75V360.497Z" fill="#254EFB"/>
<path d="M90.0625 360.497H86.75V363.809H90.0625V360.497Z" fill="#63A0F9"/>
<path d="M109.938 360.497H90.0625V363.809H109.938V360.497Z" fill="#254EFB"/>
<path d="M113.25 360.497H109.938V363.809H113.25V360.497Z" fill="#63A0F9"/>
<path d="M129.812 360.497H113.25V363.809H129.812V360.497Z" fill="#254EFB"/>
<path d="M86.75 363.809H73.5V367.122H86.75V363.809Z" fill="#254EFB"/>
<path d="M90.0625 363.809H86.75V367.122H90.0625V363.809Z" fill="#63A0F9"/>
<path d="M109.938 363.809H90.0625V367.122H109.938V363.809Z" fill="#254EFB"/>
<path d="M113.25 363.809H109.938V367.122H113.25V363.809Z" fill="#63A0F9"/>
<path d="M126.5 363.809H113.25V367.122H126.5V363.809Z" fill="#254EFB"/>
<path d="M90.0625 367.122H76.8125V370.434H90.0625V367.122Z" fill="#254EFB"/>
<path d="M93.375 367.122H90.0625V370.434H93.375V367.122Z" fill="#63A0F9"/>
<path d="M106.625 367.122H93.375V370.434H106.625V367.122Z" fill="#254EFB"/>
<path d="M109.938 367.122H106.625V370.434H109.938V367.122Z" fill="#63A0F9"/>
<path d="M123.188 367.122H109.938V370.434H123.188V367.122Z" fill="#254EFB"/>
<path d="M90.0625 370.434H80.125V373.747H90.0625V370.434Z" fill="#254EFB"/>
<path d="M93.375 370.434H90.0625V373.747H93.375V370.434Z" fill="#63A0F9"/>
<path d="M106.625 370.434H93.375V373.747H106.625V370.434Z" fill="#254EFB"/>
<path d="M109.938 370.434H106.625V373.747H109.938V370.434Z" fill="#63A0F9"/>
<path d="M119.875 370.434H109.938V373.747H119.875V370.434Z" fill="#254EFB"/>
<path d="M90.0625 373.747H83.4375V377.059H90.0625V373.747Z" fill="#254EFB"/>
<path d="M93.375 373.747H90.0625V377.059H93.375V373.747Z" fill="#63A0F9"/>
<path d="M106.625 373.747H93.375V377.059H106.625V373.747Z" fill="#254EFB"/>
<path d="M109.938 373.747H106.625V377.059H109.938V373.747Z" fill="#63A0F9"/>
<path d="M116.562 373.747H109.938V377.059H116.562V373.747Z" fill="#254EFB"/>
<path d="M93.375 377.059H86.75V380.372H93.375V377.059Z" fill="#254EFB"/>
<path d="M96.6875 377.059H93.375V380.372H96.6875V377.059Z" fill="#63A0F9"/>
<path d="M103.312 377.059H96.6875V380.372H103.312V377.059Z" fill="#254EFB"/>
<path d="M106.625 377.059H103.312V380.372H106.625V377.059Z" fill="#63A0F9"/>
<path d="M113.25 377.059H106.625V380.372H113.25V377.059Z" fill="#254EFB"/>
<path d="M93.375 380.372H90.0625V383.684H93.375V380.372Z" fill="#254EFB"/>
<path d="M96.6875 380.372H93.375V383.684H96.6875V380.372Z" fill="#63A0F9"/>
<path d="M103.312 380.372H96.6875V383.684H103.312V380.372Z" fill="#254EFB"/>
<path d="M106.625 380.372H103.312V383.684H106.625V380.372Z" fill="#63A0F9"/>
<path d="M109.938 380.372H106.625V383.684H109.938V380.372Z" fill="#254EFB"/>
<path d="M96.6875 383.684H93.375V386.997H96.6875V383.684Z" fill="#63A0F9"/>
<path d="M103.312 383.684H96.6875V386.997H103.312V383.684Z" fill="#254EFB"/>
<path d="M106.625 383.684H103.312V386.997H106.625V383.684Z" fill="#63A0F9"/>
<path d="M103.312 386.997H96.6875V390.309H103.312V386.997Z" fill="#254EFB"/>
<path d="M240.062 60.0593H233.438V63.3718H240.062V60.0593Z" fill="#254EFB"/>
<path d="M243.375 60.0593H240.062V63.3718H243.375V60.0593Z" fill="#63A0F9"/>
<path d="M256.625 60.0593H243.375V63.3718H256.625V60.0593Z" fill="#254EFB"/>
<path d="M259.938 60.0593H256.625V63.3718H259.938V60.0593Z" fill="#63A0F9"/>
<path d="M266.562 60.0593H259.938V63.3718H266.562V60.0593Z" fill="#254EFB"/>
<path d="M240.062 63.3718H230.125V66.6843H240.062V63.3718Z" fill="#254EFB"/>
<path d="M243.375 63.3718H240.062V66.6843H243.375V63.3718Z" fill="#63A0F9"/>
<path d="M256.625 63.3718H243.375V66.6843H256.625V63.3718Z" fill="#254EFB"/>
<path d="M259.938 63.3718H256.625V66.6843H259.938V63.3718Z" fill="#63A0F9"/>
<path d="M269.875 63.3718H259.938V66.6843H269.875V63.3718Z" fill="#254EFB"/>
<path d="M236.75 66.6843H226.812V69.9968H236.75V66.6843Z" fill="#254EFB"/>
<path d="M240.062 66.6843H236.75V69.9968H240.062V66.6843Z" fill="#63A0F9"/>
<path d="M259.938 66.6843H240.062V69.9968H259.938V66.6843Z" fill="#254EFB"/>
<path d="M263.25 66.6843H259.938V69.9968H263.25V66.6843Z" fill="#63A0F9"/>
<path d="M273.188 66.6843H263.25V69.9968H273.188V66.6843Z" fill="#254EFB"/>
<path d="M236.75 69.9968H223.5V73.3093H236.75V69.9968Z" fill="#254EFB"/>
<path d="M240.062 69.9968H236.75V73.3093H240.062V69.9968Z" fill="#63A0F9"/>
<path d="M259.938 69.9968H240.062V73.3093H259.938V69.9968Z" fill="#254EFB"/>
<path d="M263.25 69.9968H259.938V73.3093H263.25V69.9968Z" fill="#63A0F9"/>
<path d="M276.5 69.9968H263.25V73.3093H276.5V69.9968Z" fill="#254EFB"/>
<path d="M233.438 73.3093H220.188V76.6218H233.438V73.3093Z" fill="#254EFB"/>
<path d="M236.75 73.3093H233.438V76.6218H236.75V73.3093Z" fill="white"/>
<path d="M263.25 73.3093H236.75V76.6218H263.25V73.3093Z" fill="#254EFB"/>
<path d="M266.562 73.3093H263.25V76.6218H266.562V73.3093Z" fill="#63A0F9"/>
<path d="M279.812 73.3093H266.562V76.6218H279.812V73.3093Z" fill="#254EFB"/>
<path d="M223.5 76.6218H216.875V79.9343H223.5V76.6218Z" fill="#63A0F9"/>
<path d="M226.812 76.6218H223.5V79.9343H226.812V76.6218Z" fill="white"/>
<path d="M230.125 76.6218H226.812V79.9343H230.125V76.6218Z" fill="#63A0F9"/>
<path d="M240.062 76.6218H230.125V79.9343H240.062V76.6218Z" fill="white"/>
<path d="M243.375 76.6218H240.062V79.9343H243.375V76.6218Z" fill="#63A0F9"/>
<path d="M246.688 76.6218H243.375V79.9343H246.688V76.6218Z" fill="white"/>
<path d="M283.125 76.6218H246.688V79.9343H283.125V76.6218Z" fill="#63A0F9"/>
<path d="M233.438 79.9343H216.875V83.2468H233.438V79.9343Z" fill="#254EFB"/>
<path d="M236.75 79.9343H233.438V83.2468H236.75V79.9343Z" fill="white"/>
<path d="M263.25 79.9343H236.75V83.2468H263.25V79.9343Z" fill="#254EFB"/>
<path d="M266.562 79.9343H263.25V83.2468H266.562V79.9343Z" fill="#63A0F9"/>
<path d="M283.125 79.9343H266.562V83.2468H283.125V79.9343Z" fill="#254EFB"/>
<path d="M233.438 83.2468H216.875V86.5593H233.438V83.2468Z" fill="#254EFB"/>
<path d="M236.75 83.2468H233.438V86.5593H236.75V83.2468Z" fill="#63A0F9"/>
<path d="M263.25 83.2468H236.75V86.5593H263.25V83.2468Z" fill="#254EFB"/>
<path d="M266.562 83.2468H263.25V86.5593H266.562V83.2468Z" fill="#63A0F9"/>
<path d="M283.125 83.2468H266.562V86.5593H283.125V83.2468Z" fill="#254EFB"/>
<path d="M233.438 86.5593H216.875V89.8718H233.438V86.5593Z" fill="#254EFB"/>
<path d="M236.75 86.5593H233.438V89.8718H236.75V86.5593Z" fill="#63A0F9"/>
<path d="M263.25 86.5593H236.75V89.8718H263.25V86.5593Z" fill="#254EFB"/>
<path d="M266.562 86.5593H263.25V89.8718H266.562V86.5593Z" fill="#63A0F9"/>
<path d="M283.125 86.5593H266.562V89.8718H283.125V86.5593Z" fill="#254EFB"/>
<path d="M233.438 89.8718H216.875V93.1843H233.438V89.8718Z" fill="#254EFB"/>
<path d="M236.75 89.8718H233.438V93.1843H236.75V89.8718Z" fill="#63A0F9"/>
<path d="M263.25 89.8718H236.75V93.1843H263.25V89.8718Z" fill="#254EFB"/>
<path d="M266.562 89.8718H263.25V93.1843H266.562V89.8718Z" fill="#63A0F9"/>
<path d="M283.125 89.8718H266.562V93.1843H283.125V89.8718Z" fill="#254EFB"/>
<path d="M283.125 93.1843H216.875V96.4968H283.125V93.1843Z" fill="#63A0F9"/>
<path d="M236.75 96.4968H220.188V99.8093H236.75V96.4968Z" fill="#254EFB"/>
<path d="M240.062 96.4968H236.75V99.8093H240.062V96.4968Z" fill="#63A0F9"/>
<path d="M259.938 96.4968H240.062V99.8093H259.938V96.4968Z" fill="#254EFB"/>
<path d="M263.25 96.4968H259.938V99.8093H263.25V96.4968Z" fill="#63A0F9"/>
<path d="M279.812 96.4968H263.25V99.8093H279.812V96.4968Z" fill="#254EFB"/>
<path d="M236.75 99.8093H223.5V103.122H236.75V99.8093Z" fill="#254EFB"/>
<path d="M240.062 99.8093H236.75V103.122H240.062V99.8093Z" fill="#63A0F9"/>
<path d="M259.938 99.8093H240.062V103.122H259.938V99.8093Z" fill="#254EFB"/>
<path d="M263.25 99.8093H259.938V103.122H263.25V99.8093Z" fill="#63A0F9"/>
<path d="M276.5 99.8093H263.25V103.122H276.5V99.8093Z" fill="#254EFB"/>
<path d="M240.062 103.122H226.812V106.434H240.062V103.122Z" fill="#254EFB"/>
<path d="M243.375 103.122H240.062V106.434H243.375V103.122Z" fill="#63A0F9"/>
<path d="M256.625 103.122H243.375V106.434H256.625V103.122Z" fill="#254EFB"/>
<path d="M259.938 103.122H256.625V106.434H259.938V103.122Z" fill="#63A0F9"/>
<path d="M273.188 103.122H259.938V106.434H273.188V103.122Z" fill="#254EFB"/>
<path d="M240.062 106.434H230.125V109.747H240.062V106.434Z" fill="#254EFB"/>
<path d="M243.375 106.434H240.062V109.747H243.375V106.434Z" fill="#63A0F9"/>
<path d="M256.625 106.434H243.375V109.747H256.625V106.434Z" fill="#254EFB"/>
<path d="M259.938 106.434H256.625V109.747H259.938V106.434Z" fill="#63A0F9"/>
<path d="M269.875 106.434H259.938V109.747H269.875V106.434Z" fill="#254EFB"/>
<path d="M240.062 109.747H233.438V113.059H240.062V109.747Z" fill="#254EFB"/>
<path d="M243.375 109.747H240.062V113.059H243.375V109.747Z" fill="#63A0F9"/>
<path d="M256.625 109.747H243.375V113.059H256.625V109.747Z" fill="#254EFB"/>
<path d="M259.938 109.747H256.625V113.059H259.938V109.747Z" fill="#63A0F9"/>
<path d="M266.562 109.747H259.938V113.059H266.562V109.747Z" fill="#254EFB"/>
<path d="M243.375 113.059H236.75V116.372H243.375V113.059Z" fill="#254EFB"/>
<path d="M246.688 113.059H243.375V116.372H246.688V113.059Z" fill="#63A0F9"/>
<path d="M253.312 113.059H246.688V116.372H253.312V113.059Z" fill="#254EFB"/>
<path d="M256.625 113.059H253.312V116.372H256.625V113.059Z" fill="#63A0F9"/>
<path d="M263.25 113.059H256.625V116.372H263.25V113.059Z" fill="#254EFB"/>
<path d="M243.375 116.372H240.062V119.684H243.375V116.372Z" fill="#254EFB"/>
<path d="M246.688 116.372H243.375V119.684H246.688V116.372Z" fill="#63A0F9"/>
<path d="M253.312 116.372H246.688V119.684H253.312V116.372Z" fill="#254EFB"/>
<path d="M256.625 116.372H253.312V119.684H256.625V116.372Z" fill="#63A0F9"/>
<path d="M259.938 116.372H256.625V119.684H259.938V116.372Z" fill="#254EFB"/>
<path d="M246.688 119.684H243.375V122.997H246.688V119.684Z" fill="#63A0F9"/>
<path d="M253.312 119.684H246.688V122.997H253.312V119.684Z" fill="#254EFB"/>
<path d="M256.625 119.684H253.312V122.997H256.625V119.684Z" fill="#63A0F9"/>
<path d="M253.312 122.997H246.688V126.309H253.312V122.997Z" fill="#254EFB"/>
<path d="M95.5 127.225C89.9271 127.225 85.0964 126.04 81.0078 123.67C76.9453 121.3 73.8073 117.941 71.5938 113.592C69.4062 109.217 68.3125 104.048 68.3125 98.0844V98.0062C68.3125 92.0166 69.4193 86.8474 71.6328 82.4984C73.8464 78.1495 76.9844 74.8031 81.0469 72.4594C85.1354 70.0896 89.9531 68.9047 95.5 68.9047C101.073 68.9047 105.891 70.0896 109.953 72.4594C114.016 74.8291 117.154 78.1885 119.367 82.5375C121.581 86.8604 122.688 92.0166 122.688 98.0062V98.0844C122.688 104.048 121.581 109.217 119.367 113.592C117.154 117.941 114.016 121.3 109.953 123.67C105.917 126.04 101.099 127.225 95.5 127.225ZM95.5 117.225C98.625 117.225 101.307 116.444 103.547 114.881C105.812 113.293 107.557 111.066 108.781 108.202C110.005 105.337 110.617 101.965 110.617 98.0844V98.0062C110.617 94.0739 109.992 90.6885 108.742 87.85C107.518 84.9854 105.773 82.7849 103.508 81.2484C101.242 79.6859 98.5729 78.9047 95.5 78.9047C92.4271 78.9047 89.7578 79.6729 87.4922 81.2094C85.2266 82.7458 83.4688 84.9463 82.2188 87.8109C80.9688 90.6495 80.3438 94.0479 80.3438 98.0062V98.0844C80.3438 101.991 80.9557 105.376 82.1797 108.241C83.4297 111.105 85.1875 113.319 87.4531 114.881C89.7188 116.444 92.401 117.225 95.5 117.225ZM109.562 131.522L92.1406 106.912H103.352L120.773 131.522H109.562Z" fill="#254EFB"/>
<path d="M252.5 386.473C246.927 386.473 242.096 385.288 238.008 382.919C233.945 380.549 230.807 377.19 228.594 372.841C226.406 368.466 225.312 363.296 225.312 357.333V357.255C225.312 351.265 226.419 346.096 228.633 341.747C230.846 337.398 233.984 334.052 238.047 331.708C242.135 329.338 246.953 328.153 252.5 328.153C258.073 328.153 262.891 329.338 266.953 331.708C271.016 334.078 274.154 337.437 276.367 341.786C278.581 346.109 279.688 351.265 279.688 357.255V357.333C279.688 363.296 278.581 368.466 276.367 372.841C274.154 377.19 271.016 380.549 266.953 382.919C262.917 385.288 258.099 386.473 252.5 386.473ZM252.5 376.473C255.625 376.473 258.307 375.692 260.547 374.13C262.812 372.541 264.557 370.315 265.781 367.45C267.005 364.585 267.617 361.213 267.617 357.333V357.255C267.617 353.322 266.992 349.937 265.742 347.098C264.518 344.234 262.773 342.033 260.508 340.497C258.242 338.934 255.573 338.153 252.5 338.153C249.427 338.153 246.758 338.921 244.492 340.458C242.227 341.994 240.469 344.195 239.219 347.059C237.969 349.898 237.344 353.296 237.344 357.255V357.333C237.344 361.239 237.956 364.624 239.18 367.489C240.43 370.354 242.188 372.567 244.453 374.13C246.719 375.692 249.401 376.473 252.5 376.473ZM266.562 390.77L249.141 366.161H260.352L277.773 390.77H266.562Z" fill="#254EFB"/>
<path d="M134.938 169.278H128.344V175.872H134.938V169.278Z" fill="#254EFB"/>
<path d="M220.656 169.278H134.938V175.872H220.656V169.278Z" fill="#EFF2FA"/>
<path d="M134.938 175.872H128.344V182.466H134.938V175.872Z" fill="#254EFB"/>
<path d="M174.5 175.872H134.938V182.466H174.5V175.872Z" fill="#EFF2FA"/>
<path d="M207.469 175.872H174.5V182.466H207.469V175.872Z" fill="#F3322C"/>
<path d="M220.656 175.872H207.469V182.466H220.656V175.872Z" fill="#EFF2FA"/>
<path d="M141.531 182.466H121.75V189.059H141.531V182.466Z" fill="#254EFB"/>
<path d="M174.5 182.466H141.531V189.059H174.5V182.466Z" fill="#EFF2FA"/>
<path d="M233.844 182.466H174.5V189.059H233.844V182.466Z" fill="#F3322C"/>
<path d="M247.031 182.466H233.844V189.059H247.031V182.466Z" fill="#B92B3C"/>
<path d="M141.531 189.059H121.75V195.653H141.531V189.059Z" fill="#254EFB"/>
<path d="M200.875 189.059H141.531V195.653H200.875V189.059Z" fill="#EFF2FA"/>
<path d="M233.844 189.059H200.875V195.653H233.844V189.059Z" fill="#F3322C"/>
<path d="M247.031 189.059H233.844V195.653H247.031V189.059Z" fill="#B92B3C"/>
<path d="M141.531 195.653H121.75V202.247H141.531V195.653Z" fill="#254EFB"/>
<path d="M227.25 195.653H141.531V202.247H227.25V195.653Z" fill="#2B83F6"/>
<path d="M141.531 202.247H121.75V208.841H141.531V202.247Z" fill="#254EFB"/>
<path d="M148.125 202.247H141.531V208.841H148.125V202.247Z" fill="#2B83F6"/>
<path d="M154.719 202.247H148.125V208.841H154.719V202.247Z" fill="#EFF2FA"/>
<path d="M161.312 202.247H154.719V208.841H161.312V202.247Z" fill="#2B83F6"/>
<path d="M174.5 202.247H161.312V208.841H174.5V202.247Z" fill="#EFF2FA"/>
<path d="M181.094 202.247H174.5V208.841H181.094V202.247Z" fill="#2B83F6"/>
<path d="M207.469 202.247H181.094V208.841H207.469V202.247Z" fill="#EFF2FA"/>
<path d="M214.062 202.247H207.469V208.841H214.062V202.247Z" fill="#2B83F6"/>
<path d="M220.656 202.247H214.062V208.841H220.656V202.247Z" fill="#EFF2FA"/>
<path d="M227.25 202.247H220.656V208.841H227.25V202.247Z" fill="#2B83F6"/>
<path d="M141.531 208.841H121.75V215.434H141.531V208.841Z" fill="#254EFB"/>
<path d="M227.25 208.841H141.531V215.434H227.25V208.841Z" fill="#2B83F6"/>
<path d="M141.531 215.434H121.75V222.028H141.531V215.434Z" fill="#254EFB"/>
<path d="M227.25 215.434H141.531V222.028H227.25V215.434Z" fill="#2B83F6"/>
<path d="M141.531 222.028H121.75V228.622H141.531V222.028Z" fill="#254EFB"/>
<path d="M227.25 222.028H141.531V228.622H227.25V222.028Z" fill="#2B83F6"/>
<path d="M141.531 228.622H121.75V235.216H141.531V228.622Z" fill="#254EFB"/>
<path d="M227.25 228.622H141.531V235.216H227.25V228.622Z" fill="#2B83F6"/>
<path d="M141.531 235.216H121.75V241.809H141.531V235.216Z" fill="#254EFB"/>
<path d="M227.25 235.216H141.531V241.809H227.25V235.216Z" fill="#2B83F6"/>
<path d="M141.531 241.809H121.75V248.403H141.531V241.809Z" fill="#254EFB"/>
<path d="M227.25 241.809H141.531V248.403H227.25V241.809Z" fill="#2B83F6"/>
<path d="M141.531 248.403H121.75V254.997H141.531V248.403Z" fill="#254EFB"/>
<path d="M227.25 248.403H141.531V254.997H227.25V248.403Z" fill="#2B83F6"/>
<path d="M141.531 254.997H121.75V261.591H141.531V254.997Z" fill="#254EFB"/>
<path d="M227.25 254.997H141.531V261.591H227.25V254.997Z" fill="#2B83F6"/>
<path d="M141.531 261.591H121.75V268.184H141.531V261.591Z" fill="#254EFB"/>
<path d="M227.25 261.591H141.531V268.184H227.25V261.591Z" fill="#2B83F6"/>
<path d="M141.531 268.184H121.75V274.778H141.531V268.184Z" fill="#9CB4B8"/>
<path d="M227.25 268.184H141.531V274.778H227.25V268.184Z" fill="#EFF2FA"/>
<path d="M141.531 274.778H121.75V281.372H141.531V274.778Z" fill="#254EFB"/>
<path d="M227.25 274.778H141.531V281.372H227.25V274.778Z" fill="#2B83F6"/>
<path d="M141.531 281.372H121.75V287.966H141.531V281.372Z" fill="#254EFB"/>
<path d="M227.25 281.372H141.531V287.966H227.25V281.372Z" fill="#2B83F6"/>
<defs>
<filter id="filter0_d_18_2560" x="0" y="0.248413" width="348" height="462" filterUnits="userSpaceOnUse" color-interpolation-filters="sRGB">
<feFlood flood-opacity="0" result="BackgroundImageFix"/>
<feColorMatrix in="SourceAlpha" type="matrix" values="0 0 0 0 0 0 0 0 0 0 0 0 0 0 0 0 0 0 127 0" result="hardAlpha"/>
<feOffset dy="5"/>
<feGaussianBlur stdDeviation="17"/>
<feColorMatrix type="matrix" values="0 0 0 0 0 0 0 0 0 0 0 0 0 0 0 0 0 0 0.1 0"/>
<feBlend mode="normal" in2="BackgroundImageFix" result="effect1_dropShadow_18_2560"/>
<feBlend mode="normal" in="SourceGraphic" in2="effect1_dropShadow_18_2560" result="shape"/>
</filter>
</defs>
</svg>
