<svg width="348" height="462" viewBox="0 0 348 462" fill="none" xmlns="http://www.w3.org/2000/svg">
<g filter="url(#filter0_d_18_6883)">
<rect x="34" y="29" width="280" height="394" rx="20" fill="#F2F2F2"/>
<rect x="34.5" y="29.5" width="279" height="393" rx="19.5" stroke="#D2D2D2"/>
</g>
<path d="M90.0625 323.811H83.4375V327.123H90.0625V323.811Z" fill="#254EFB"/>
<path d="M93.375 323.811H90.0625V327.123H93.375V323.811Z" fill="#63A0F9"/>
<path d="M106.625 323.811H93.375V327.123H106.625V323.811Z" fill="#254EFB"/>
<path d="M109.938 323.811H106.625V327.123H109.938V323.811Z" fill="#63A0F9"/>
<path d="M116.562 323.811H109.938V327.123H116.562V323.811Z" fill="#254EFB"/>
<path d="M90.0625 327.123H80.125V330.436H90.0625V327.123Z" fill="#254EFB"/>
<path d="M93.375 327.123H90.0625V330.436H93.375V327.123Z" fill="#63A0F9"/>
<path d="M106.625 327.123H93.375V330.436H106.625V327.123Z" fill="#254EFB"/>
<path d="M109.938 327.123H106.625V330.436H109.938V327.123Z" fill="#63A0F9"/>
<path d="M119.875 327.123H109.938V330.436H119.875V327.123Z" fill="#254EFB"/>
<path d="M86.75 330.436H76.8125V333.748H86.75V330.436Z" fill="#254EFB"/>
<path d="M90.0625 330.436H86.75V333.748H90.0625V330.436Z" fill="#63A0F9"/>
<path d="M109.938 330.436H90.0625V333.748H109.938V330.436Z" fill="#254EFB"/>
<path d="M113.25 330.436H109.938V333.748H113.25V330.436Z" fill="#63A0F9"/>
<path d="M123.188 330.436H113.25V333.748H123.188V330.436Z" fill="#254EFB"/>
<path d="M86.75 333.748H73.5V337.061H86.75V333.748Z" fill="#254EFB"/>
<path d="M90.0625 333.748H86.75V337.061H90.0625V333.748Z" fill="#63A0F9"/>
<path d="M109.938 333.748H90.0625V337.061H109.938V333.748Z" fill="#254EFB"/>
<path d="M113.25 333.748H109.938V337.061H113.25V333.748Z" fill="#63A0F9"/>
<path d="M126.5 333.748H113.25V337.061H126.5V333.748Z" fill="#254EFB"/>
<path d="M83.4375 337.061H70.1875V340.373H83.4375V337.061Z" fill="#254EFB"/>
<path d="M86.75 337.061H83.4375V340.373H86.75V337.061Z" fill="white"/>
<path d="M113.25 337.061H86.75V340.373H113.25V337.061Z" fill="#254EFB"/>
<path d="M116.562 337.061H113.25V340.373H116.562V337.061Z" fill="#63A0F9"/>
<path d="M129.812 337.061H116.562V340.373H129.812V337.061Z" fill="#254EFB"/>
<path d="M73.5 340.373H66.875V343.686H73.5V340.373Z" fill="#63A0F9"/>
<path d="M76.8125 340.373H73.5V343.686H76.8125V340.373Z" fill="white"/>
<path d="M80.125 340.373H76.8125V343.686H80.125V340.373Z" fill="#63A0F9"/>
<path d="M90.0625 340.373H80.125V343.686H90.0625V340.373Z" fill="white"/>
<path d="M93.375 340.373H90.0625V343.686H93.375V340.373Z" fill="#63A0F9"/>
<path d="M96.6875 340.373H93.375V343.686H96.6875V340.373Z" fill="white"/>
<path d="M133.125 340.373H96.6875V343.686H133.125V340.373Z" fill="#63A0F9"/>
<path d="M83.4375 343.686H66.875V346.998H83.4375V343.686Z" fill="#254EFB"/>
<path d="M86.75 343.686H83.4375V346.998H86.75V343.686Z" fill="white"/>
<path d="M113.25 343.686H86.75V346.998H113.25V343.686Z" fill="#254EFB"/>
<path d="M116.562 343.686H113.25V346.998H116.562V343.686Z" fill="#63A0F9"/>
<path d="M133.125 343.686H116.562V346.998H133.125V343.686Z" fill="#254EFB"/>
<path d="M83.4375 346.998H66.875V350.311H83.4375V346.998Z" fill="#254EFB"/>
<path d="M86.75 346.998H83.4375V350.311H86.75V346.998Z" fill="#63A0F9"/>
<path d="M113.25 346.998H86.75V350.311H113.25V346.998Z" fill="#254EFB"/>
<path d="M116.562 346.998H113.25V350.311H116.562V346.998Z" fill="#63A0F9"/>
<path d="M133.125 346.998H116.562V350.311H133.125V346.998Z" fill="#254EFB"/>
<path d="M83.4375 350.311H66.875V353.623H83.4375V350.311Z" fill="#254EFB"/>
<path d="M86.75 350.311H83.4375V353.623H86.75V350.311Z" fill="#63A0F9"/>
<path d="M113.25 350.311H86.75V353.623H113.25V350.311Z" fill="#254EFB"/>
<path d="M116.562 350.311H113.25V353.623H116.562V350.311Z" fill="#63A0F9"/>
<path d="M133.125 350.311H116.562V353.623H133.125V350.311Z" fill="#254EFB"/>
<path d="M83.4375 353.623H66.875V356.936H83.4375V353.623Z" fill="#254EFB"/>
<path d="M86.75 353.623H83.4375V356.936H86.75V353.623Z" fill="#63A0F9"/>
<path d="M113.25 353.623H86.75V356.936H113.25V353.623Z" fill="#254EFB"/>
<path d="M116.562 353.623H113.25V356.936H116.562V353.623Z" fill="#63A0F9"/>
<path d="M133.125 353.623H116.562V356.936H133.125V353.623Z" fill="#254EFB"/>
<path d="M133.125 356.936H66.875V360.248H133.125V356.936Z" fill="#63A0F9"/>
<path d="M86.75 360.249H70.1875V363.561H86.75V360.249Z" fill="#254EFB"/>
<path d="M90.0625 360.249H86.75V363.561H90.0625V360.249Z" fill="#63A0F9"/>
<path d="M109.938 360.249H90.0625V363.561H109.938V360.249Z" fill="#254EFB"/>
<path d="M113.25 360.249H109.938V363.561H113.25V360.249Z" fill="#63A0F9"/>
<path d="M129.812 360.249H113.25V363.561H129.812V360.249Z" fill="#254EFB"/>
<path d="M86.75 363.561H73.5V366.874H86.75V363.561Z" fill="#254EFB"/>
<path d="M90.0625 363.561H86.75V366.874H90.0625V363.561Z" fill="#63A0F9"/>
<path d="M109.938 363.561H90.0625V366.874H109.938V363.561Z" fill="#254EFB"/>
<path d="M113.25 363.561H109.938V366.874H113.25V363.561Z" fill="#63A0F9"/>
<path d="M126.5 363.561H113.25V366.874H126.5V363.561Z" fill="#254EFB"/>
<path d="M90.0625 366.874H76.8125V370.186H90.0625V366.874Z" fill="#254EFB"/>
<path d="M93.375 366.874H90.0625V370.186H93.375V366.874Z" fill="#63A0F9"/>
<path d="M106.625 366.874H93.375V370.186H106.625V366.874Z" fill="#254EFB"/>
<path d="M109.938 366.874H106.625V370.186H109.938V366.874Z" fill="#63A0F9"/>
<path d="M123.188 366.874H109.938V370.186H123.188V366.874Z" fill="#254EFB"/>
<path d="M90.0625 370.186H80.125V373.499H90.0625V370.186Z" fill="#254EFB"/>
<path d="M93.375 370.186H90.0625V373.499H93.375V370.186Z" fill="#63A0F9"/>
<path d="M106.625 370.186H93.375V373.499H106.625V370.186Z" fill="#254EFB"/>
<path d="M109.938 370.186H106.625V373.499H109.938V370.186Z" fill="#63A0F9"/>
<path d="M119.875 370.186H109.938V373.499H119.875V370.186Z" fill="#254EFB"/>
<path d="M90.0625 373.499H83.4375V376.811H90.0625V373.499Z" fill="#254EFB"/>
<path d="M93.375 373.499H90.0625V376.811H93.375V373.499Z" fill="#63A0F9"/>
<path d="M106.625 373.499H93.375V376.811H106.625V373.499Z" fill="#254EFB"/>
<path d="M109.938 373.499H106.625V376.811H109.938V373.499Z" fill="#63A0F9"/>
<path d="M116.562 373.499H109.938V376.811H116.562V373.499Z" fill="#254EFB"/>
<path d="M93.375 376.811H86.75V380.124H93.375V376.811Z" fill="#254EFB"/>
<path d="M96.6875 376.811H93.375V380.124H96.6875V376.811Z" fill="#63A0F9"/>
<path d="M103.312 376.811H96.6875V380.124H103.312V376.811Z" fill="#254EFB"/>
<path d="M106.625 376.811H103.312V380.124H106.625V376.811Z" fill="#63A0F9"/>
<path d="M113.25 376.811H106.625V380.124H113.25V376.811Z" fill="#254EFB"/>
<path d="M93.375 380.124H90.0625V383.436H93.375V380.124Z" fill="#254EFB"/>
<path d="M96.6875 380.124H93.375V383.436H96.6875V380.124Z" fill="#63A0F9"/>
<path d="M103.312 380.124H96.6875V383.436H103.312V380.124Z" fill="#254EFB"/>
<path d="M106.625 380.124H103.312V383.436H106.625V380.124Z" fill="#63A0F9"/>
<path d="M109.938 380.124H106.625V383.436H109.938V380.124Z" fill="#254EFB"/>
<path d="M96.6875 383.436H93.375V386.749H96.6875V383.436Z" fill="#63A0F9"/>
<path d="M103.312 383.436H96.6875V386.749H103.312V383.436Z" fill="#254EFB"/>
<path d="M106.625 383.436H103.312V386.749H106.625V383.436Z" fill="#63A0F9"/>
<path d="M103.312 386.749H96.6875V390.061H103.312V386.749Z" fill="#254EFB"/>
<path d="M240.062 59.8109H233.438V63.1234H240.062V59.8109Z" fill="#254EFB"/>
<path d="M243.375 59.8109H240.062V63.1234H243.375V59.8109Z" fill="#63A0F9"/>
<path d="M256.625 59.8109H243.375V63.1234H256.625V59.8109Z" fill="#254EFB"/>
<path d="M259.938 59.8109H256.625V63.1234H259.938V59.8109Z" fill="#63A0F9"/>
<path d="M266.562 59.8109H259.938V63.1234H266.562V59.8109Z" fill="#254EFB"/>
<path d="M240.062 63.1234H230.125V66.4359H240.062V63.1234Z" fill="#254EFB"/>
<path d="M243.375 63.1234H240.062V66.4359H243.375V63.1234Z" fill="#63A0F9"/>
<path d="M256.625 63.1234H243.375V66.4359H256.625V63.1234Z" fill="#254EFB"/>
<path d="M259.938 63.1234H256.625V66.4359H259.938V63.1234Z" fill="#63A0F9"/>
<path d="M269.875 63.1234H259.938V66.4359H269.875V63.1234Z" fill="#254EFB"/>
<path d="M236.75 66.4359H226.812V69.7484H236.75V66.4359Z" fill="#254EFB"/>
<path d="M240.062 66.4359H236.75V69.7484H240.062V66.4359Z" fill="#63A0F9"/>
<path d="M259.938 66.4359H240.062V69.7484H259.938V66.4359Z" fill="#254EFB"/>
<path d="M263.25 66.4359H259.938V69.7484H263.25V66.4359Z" fill="#63A0F9"/>
<path d="M273.188 66.4359H263.25V69.7484H273.188V66.4359Z" fill="#254EFB"/>
<path d="M236.75 69.7484H223.5V73.0609H236.75V69.7484Z" fill="#254EFB"/>
<path d="M240.062 69.7484H236.75V73.0609H240.062V69.7484Z" fill="#63A0F9"/>
<path d="M259.938 69.7484H240.062V73.0609H259.938V69.7484Z" fill="#254EFB"/>
<path d="M263.25 69.7484H259.938V73.0609H263.25V69.7484Z" fill="#63A0F9"/>
<path d="M276.5 69.7484H263.25V73.0609H276.5V69.7484Z" fill="#254EFB"/>
<path d="M233.438 73.0609H220.188V76.3734H233.438V73.0609Z" fill="#254EFB"/>
<path d="M236.75 73.0609H233.438V76.3734H236.75V73.0609Z" fill="white"/>
<path d="M263.25 73.0609H236.75V76.3734H263.25V73.0609Z" fill="#254EFB"/>
<path d="M266.562 73.0609H263.25V76.3734H266.562V73.0609Z" fill="#63A0F9"/>
<path d="M279.812 73.0609H266.562V76.3734H279.812V73.0609Z" fill="#254EFB"/>
<path d="M223.5 76.3734H216.875V79.6859H223.5V76.3734Z" fill="#63A0F9"/>
<path d="M226.812 76.3734H223.5V79.6859H226.812V76.3734Z" fill="white"/>
<path d="M230.125 76.3734H226.812V79.6859H230.125V76.3734Z" fill="#63A0F9"/>
<path d="M240.062 76.3734H230.125V79.6859H240.062V76.3734Z" fill="white"/>
<path d="M243.375 76.3734H240.062V79.6859H243.375V76.3734Z" fill="#63A0F9"/>
<path d="M246.688 76.3734H243.375V79.6859H246.688V76.3734Z" fill="white"/>
<path d="M283.125 76.3734H246.688V79.6859H283.125V76.3734Z" fill="#63A0F9"/>
<path d="M233.438 79.6859H216.875V82.9984H233.438V79.6859Z" fill="#254EFB"/>
<path d="M236.75 79.6859H233.438V82.9984H236.75V79.6859Z" fill="white"/>
<path d="M263.25 79.6859H236.75V82.9984H263.25V79.6859Z" fill="#254EFB"/>
<path d="M266.562 79.6859H263.25V82.9984H266.562V79.6859Z" fill="#63A0F9"/>
<path d="M283.125 79.6859H266.562V82.9984H283.125V79.6859Z" fill="#254EFB"/>
<path d="M233.438 82.9984H216.875V86.3109H233.438V82.9984Z" fill="#254EFB"/>
<path d="M236.75 82.9984H233.438V86.3109H236.75V82.9984Z" fill="#63A0F9"/>
<path d="M263.25 82.9984H236.75V86.3109H263.25V82.9984Z" fill="#254EFB"/>
<path d="M266.562 82.9984H263.25V86.3109H266.562V82.9984Z" fill="#63A0F9"/>
<path d="M283.125 82.9984H266.562V86.3109H283.125V82.9984Z" fill="#254EFB"/>
<path d="M233.438 86.3109H216.875V89.6234H233.438V86.3109Z" fill="#254EFB"/>
<path d="M236.75 86.3109H233.438V89.6234H236.75V86.3109Z" fill="#63A0F9"/>
<path d="M263.25 86.3109H236.75V89.6234H263.25V86.3109Z" fill="#254EFB"/>
<path d="M266.562 86.3109H263.25V89.6234H266.562V86.3109Z" fill="#63A0F9"/>
<path d="M283.125 86.3109H266.562V89.6234H283.125V86.3109Z" fill="#254EFB"/>
<path d="M233.438 89.6234H216.875V92.9359H233.438V89.6234Z" fill="#254EFB"/>
<path d="M236.75 89.6234H233.438V92.9359H236.75V89.6234Z" fill="#63A0F9"/>
<path d="M263.25 89.6234H236.75V92.9359H263.25V89.6234Z" fill="#254EFB"/>
<path d="M266.562 89.6234H263.25V92.9359H266.562V89.6234Z" fill="#63A0F9"/>
<path d="M283.125 89.6234H266.562V92.9359H283.125V89.6234Z" fill="#254EFB"/>
<path d="M283.125 92.9359H216.875V96.2484H283.125V92.9359Z" fill="#63A0F9"/>
<path d="M236.75 96.2484H220.188V99.5609H236.75V96.2484Z" fill="#254EFB"/>
<path d="M240.062 96.2484H236.75V99.5609H240.062V96.2484Z" fill="#63A0F9"/>
<path d="M259.938 96.2484H240.062V99.5609H259.938V96.2484Z" fill="#254EFB"/>
<path d="M263.25 96.2484H259.938V99.5609H263.25V96.2484Z" fill="#63A0F9"/>
<path d="M279.812 96.2484H263.25V99.5609H279.812V96.2484Z" fill="#254EFB"/>
<path d="M236.75 99.5609H223.5V102.873H236.75V99.5609Z" fill="#254EFB"/>
<path d="M240.062 99.5609H236.75V102.873H240.062V99.5609Z" fill="#63A0F9"/>
<path d="M259.938 99.5609H240.062V102.873H259.938V99.5609Z" fill="#254EFB"/>
<path d="M263.25 99.5609H259.938V102.873H263.25V99.5609Z" fill="#63A0F9"/>
<path d="M276.5 99.5609H263.25V102.873H276.5V99.5609Z" fill="#254EFB"/>
<path d="M240.062 102.873H226.812V106.186H240.062V102.873Z" fill="#254EFB"/>
<path d="M243.375 102.873H240.062V106.186H243.375V102.873Z" fill="#63A0F9"/>
<path d="M256.625 102.873H243.375V106.186H256.625V102.873Z" fill="#254EFB"/>
<path d="M259.938 102.873H256.625V106.186H259.938V102.873Z" fill="#63A0F9"/>
<path d="M273.188 102.873H259.938V106.186H273.188V102.873Z" fill="#254EFB"/>
<path d="M240.062 106.186H230.125V109.498H240.062V106.186Z" fill="#254EFB"/>
<path d="M243.375 106.186H240.062V109.498H243.375V106.186Z" fill="#63A0F9"/>
<path d="M256.625 106.186H243.375V109.498H256.625V106.186Z" fill="#254EFB"/>
<path d="M259.938 106.186H256.625V109.498H259.938V106.186Z" fill="#63A0F9"/>
<path d="M269.875 106.186H259.938V109.498H269.875V106.186Z" fill="#254EFB"/>
<path d="M240.062 109.498H233.438V112.811H240.062V109.498Z" fill="#254EFB"/>
<path d="M243.375 109.498H240.062V112.811H243.375V109.498Z" fill="#63A0F9"/>
<path d="M256.625 109.498H243.375V112.811H256.625V109.498Z" fill="#254EFB"/>
<path d="M259.938 109.498H256.625V112.811H259.938V109.498Z" fill="#63A0F9"/>
<path d="M266.562 109.498H259.938V112.811H266.562V109.498Z" fill="#254EFB"/>
<path d="M243.375 112.811H236.75V116.123H243.375V112.811Z" fill="#254EFB"/>
<path d="M246.688 112.811H243.375V116.123H246.688V112.811Z" fill="#63A0F9"/>
<path d="M253.312 112.811H246.688V116.123H253.312V112.811Z" fill="#254EFB"/>
<path d="M256.625 112.811H253.312V116.123H256.625V112.811Z" fill="#63A0F9"/>
<path d="M263.25 112.811H256.625V116.123H263.25V112.811Z" fill="#254EFB"/>
<path d="M243.375 116.123H240.062V119.436H243.375V116.123Z" fill="#254EFB"/>
<path d="M246.688 116.123H243.375V119.436H246.688V116.123Z" fill="#63A0F9"/>
<path d="M253.312 116.123H246.688V119.436H253.312V116.123Z" fill="#254EFB"/>
<path d="M256.625 116.123H253.312V119.436H256.625V116.123Z" fill="#63A0F9"/>
<path d="M259.938 116.123H256.625V119.436H259.938V116.123Z" fill="#254EFB"/>
<path d="M246.688 119.436H243.375V122.748H246.688V119.436Z" fill="#63A0F9"/>
<path d="M253.312 119.436H246.688V122.748H253.312V119.436Z" fill="#254EFB"/>
<path d="M256.625 119.436H253.312V122.748H256.625V119.436Z" fill="#63A0F9"/>
<path d="M253.312 122.748H246.688V126.061H253.312V122.748Z" fill="#254EFB"/>
<path d="M95.2656 126.977C90.9948 126.977 87.2708 126.286 84.0938 124.906C80.9167 123.5 78.3906 121.56 76.5156 119.086C74.6667 116.612 73.612 113.76 73.3516 110.531L73.3125 110.023H84.5625L84.6406 110.453C84.8229 111.807 85.3568 113.018 86.2422 114.086C87.1536 115.128 88.3646 115.961 89.875 116.586C91.4115 117.185 93.1953 117.484 95.2266 117.484C97.2578 117.484 99.0156 117.159 100.5 116.508C101.984 115.831 103.13 114.906 103.938 113.734C104.771 112.536 105.188 111.169 105.188 109.633V109.555C105.188 106.846 104.237 104.776 102.336 103.344C100.435 101.911 97.7786 101.195 94.3672 101.195H87.9219V92.7969H94.2109C96.1901 92.7969 97.9089 92.4714 99.3672 91.8203C100.826 91.1693 101.945 90.2708 102.727 89.125C103.534 87.9531 103.938 86.612 103.938 85.1016V85.0234C103.938 83.487 103.586 82.1849 102.883 81.1172C102.206 80.0234 101.203 79.1901 99.875 78.6172C98.5729 78.0182 96.9974 77.7188 95.1484 77.7188C93.3255 77.7188 91.7109 78.0182 90.3047 78.6172C88.8984 79.2161 87.7786 80.0625 86.9453 81.1562C86.112 82.224 85.6042 83.487 85.4219 84.9453L85.3828 85.2969H74.5625L74.6016 84.8281C74.862 81.5469 75.8646 78.7083 77.6094 76.3125C79.3802 73.8906 81.763 72.0156 84.7578 70.6875C87.7526 69.3333 91.2161 68.6562 95.1484 68.6562C99.2109 68.6562 102.727 69.2812 105.695 70.5312C108.69 71.7552 111.008 73.474 112.648 75.6875C114.289 77.901 115.109 80.4922 115.109 83.4609V83.5391C115.109 85.8828 114.589 87.9401 113.547 89.7109C112.505 91.4818 111.086 92.9401 109.289 94.0859C107.518 95.2318 105.539 96.0391 103.352 96.5078V96.7422C107.544 97.1328 110.891 98.487 113.391 100.805C115.917 103.122 117.18 106.195 117.18 110.023V110.102C117.18 113.461 116.268 116.404 114.445 118.93C112.622 121.456 110.07 123.435 106.789 124.867C103.508 126.273 99.6667 126.977 95.2656 126.977Z" fill="#254EFB"/>
<path d="M252.266 386.225C247.995 386.225 244.271 385.535 241.094 384.155C237.917 382.748 235.391 380.808 233.516 378.334C231.667 375.86 230.612 373.009 230.352 369.78L230.312 369.272H241.562L241.641 369.702C241.823 371.056 242.357 372.267 243.242 373.334C244.154 374.376 245.365 375.209 246.875 375.834C248.411 376.433 250.195 376.733 252.227 376.733C254.258 376.733 256.016 376.407 257.5 375.756C258.984 375.079 260.13 374.155 260.938 372.983C261.771 371.785 262.188 370.418 262.188 368.881V368.803C262.188 366.095 261.237 364.024 259.336 362.592C257.435 361.16 254.779 360.444 251.367 360.444H244.922V352.045H251.211C253.19 352.045 254.909 351.72 256.367 351.069C257.826 350.418 258.945 349.519 259.727 348.373C260.534 347.202 260.938 345.86 260.938 344.35V344.272C260.938 342.735 260.586 341.433 259.883 340.366C259.206 339.272 258.203 338.439 256.875 337.866C255.573 337.267 253.997 336.967 252.148 336.967C250.326 336.967 248.711 337.267 247.305 337.866C245.898 338.465 244.779 339.311 243.945 340.405C243.112 341.472 242.604 342.735 242.422 344.194L242.383 344.545H231.562L231.602 344.077C231.862 340.795 232.865 337.957 234.609 335.561C236.38 333.139 238.763 331.264 241.758 329.936C244.753 328.582 248.216 327.905 252.148 327.905C256.211 327.905 259.727 328.53 262.695 329.78C265.69 331.004 268.008 332.722 269.648 334.936C271.289 337.149 272.109 339.741 272.109 342.709V342.787C272.109 345.131 271.589 347.189 270.547 348.959C269.505 350.73 268.086 352.189 266.289 353.334C264.518 354.48 262.539 355.287 260.352 355.756V355.991C264.544 356.381 267.891 357.735 270.391 360.053C272.917 362.371 274.18 365.444 274.18 369.272V369.35C274.18 372.709 273.268 375.652 271.445 378.178C269.622 380.704 267.07 382.683 263.789 384.116C260.508 385.522 256.667 386.225 252.266 386.225Z" fill="#254EFB"/>
<defs>
<filter id="filter0_d_18_6883" x="0" y="0" width="348" height="462" filterUnits="userSpaceOnUse" color-interpolation-filters="sRGB">
<feFlood flood-opacity="0" result="BackgroundImageFix"/>
<feColorMatrix in="SourceAlpha" type="matrix" values="0 0 0 0 0 0 0 0 0 0 0 0 0 0 0 0 0 0 127 0" result="hardAlpha"/>
<feOffset dy="5"/>
<feGaussianBlur stdDeviation="17"/>
<feColorMatrix type="matrix" values="0 0 0 0 0 0 0 0 0 0 0 0 0 0 0 0 0 0 0.1 0"/>
<feBlend mode="normal" in2="BackgroundImageFix" result="effect1_dropShadow_18_6883"/>
<feBlend mode="normal" in="SourceGraphic" in2="effect1_dropShadow_18_6883" result="shape"/>
</filter>
</defs>
</svg>
