<svg width="348" height="463" viewBox="0 0 348 463" fill="none" xmlns="http://www.w3.org/2000/svg">
<g filter="url(#filter0_d_18_1985)">
<rect x="34" y="29.2484" width="280" height="394" rx="20" fill="#F2F2F2"/>
<rect x="34.5" y="29.7484" width="279" height="393" rx="19.5" stroke="#D2D2D2"/>
</g>
<path d="M90.0625 324.059H83.4375V327.372H90.0625V324.059Z" fill="#254EFB"/>
<path d="M93.375 324.059H90.0625V327.372H93.375V324.059Z" fill="#63A0F9"/>
<path d="M106.625 324.059H93.375V327.372H106.625V324.059Z" fill="#254EFB"/>
<path d="M109.938 324.059H106.625V327.372H109.938V324.059Z" fill="#63A0F9"/>
<path d="M116.562 324.059H109.938V327.372H116.562V324.059Z" fill="#254EFB"/>
<path d="M90.0625 327.372H80.125V330.684H90.0625V327.372Z" fill="#254EFB"/>
<path d="M93.375 327.372H90.0625V330.684H93.375V327.372Z" fill="#63A0F9"/>
<path d="M106.625 327.372H93.375V330.684H106.625V327.372Z" fill="#254EFB"/>
<path d="M109.938 327.372H106.625V330.684H109.938V327.372Z" fill="#63A0F9"/>
<path d="M119.875 327.372H109.938V330.684H119.875V327.372Z" fill="#254EFB"/>
<path d="M86.75 330.684H76.8125V333.997H86.75V330.684Z" fill="#254EFB"/>
<path d="M90.0625 330.684H86.75V333.997H90.0625V330.684Z" fill="#63A0F9"/>
<path d="M109.938 330.684H90.0625V333.997H109.938V330.684Z" fill="#254EFB"/>
<path d="M113.25 330.684H109.938V333.997H113.25V330.684Z" fill="#63A0F9"/>
<path d="M123.188 330.684H113.25V333.997H123.188V330.684Z" fill="#254EFB"/>
<path d="M86.75 333.997H73.5V337.309H86.75V333.997Z" fill="#254EFB"/>
<path d="M90.0625 333.997H86.75V337.309H90.0625V333.997Z" fill="#63A0F9"/>
<path d="M109.938 333.997H90.0625V337.309H109.938V333.997Z" fill="#254EFB"/>
<path d="M113.25 333.997H109.938V337.309H113.25V333.997Z" fill="#63A0F9"/>
<path d="M126.5 333.997H113.25V337.309H126.5V333.997Z" fill="#254EFB"/>
<path d="M83.4375 337.309H70.1875V340.622H83.4375V337.309Z" fill="#254EFB"/>
<path d="M86.75 337.309H83.4375V340.622H86.75V337.309Z" fill="white"/>
<path d="M113.25 337.309H86.75V340.622H113.25V337.309Z" fill="#254EFB"/>
<path d="M116.562 337.309H113.25V340.622H116.562V337.309Z" fill="#63A0F9"/>
<path d="M129.812 337.309H116.562V340.622H129.812V337.309Z" fill="#254EFB"/>
<path d="M73.5 340.622H66.875V343.934H73.5V340.622Z" fill="#63A0F9"/>
<path d="M76.8125 340.622H73.5V343.934H76.8125V340.622Z" fill="white"/>
<path d="M80.125 340.622H76.8125V343.934H80.125V340.622Z" fill="#63A0F9"/>
<path d="M90.0625 340.622H80.125V343.934H90.0625V340.622Z" fill="white"/>
<path d="M93.375 340.622H90.0625V343.934H93.375V340.622Z" fill="#63A0F9"/>
<path d="M96.6875 340.622H93.375V343.934H96.6875V340.622Z" fill="white"/>
<path d="M133.125 340.622H96.6875V343.934H133.125V340.622Z" fill="#63A0F9"/>
<path d="M83.4375 343.934H66.875V347.247H83.4375V343.934Z" fill="#254EFB"/>
<path d="M86.75 343.934H83.4375V347.247H86.75V343.934Z" fill="white"/>
<path d="M113.25 343.934H86.75V347.247H113.25V343.934Z" fill="#254EFB"/>
<path d="M116.562 343.934H113.25V347.247H116.562V343.934Z" fill="#63A0F9"/>
<path d="M133.125 343.934H116.562V347.247H133.125V343.934Z" fill="#254EFB"/>
<path d="M83.4375 347.247H66.875V350.559H83.4375V347.247Z" fill="#254EFB"/>
<path d="M86.75 347.247H83.4375V350.559H86.75V347.247Z" fill="#63A0F9"/>
<path d="M113.25 347.247H86.75V350.559H113.25V347.247Z" fill="#254EFB"/>
<path d="M116.562 347.247H113.25V350.559H116.562V347.247Z" fill="#63A0F9"/>
<path d="M133.125 347.247H116.562V350.559H133.125V347.247Z" fill="#254EFB"/>
<path d="M83.4375 350.559H66.875V353.872H83.4375V350.559Z" fill="#254EFB"/>
<path d="M86.75 350.559H83.4375V353.872H86.75V350.559Z" fill="#63A0F9"/>
<path d="M113.25 350.559H86.75V353.872H113.25V350.559Z" fill="#254EFB"/>
<path d="M116.562 350.559H113.25V353.872H116.562V350.559Z" fill="#63A0F9"/>
<path d="M133.125 350.559H116.562V353.872H133.125V350.559Z" fill="#254EFB"/>
<path d="M83.4375 353.872H66.875V357.184H83.4375V353.872Z" fill="#254EFB"/>
<path d="M86.75 353.872H83.4375V357.184H86.75V353.872Z" fill="#63A0F9"/>
<path d="M113.25 353.872H86.75V357.184H113.25V353.872Z" fill="#254EFB"/>
<path d="M116.562 353.872H113.25V357.184H116.562V353.872Z" fill="#63A0F9"/>
<path d="M133.125 353.872H116.562V357.184H133.125V353.872Z" fill="#254EFB"/>
<path d="M133.125 357.184H66.875V360.497H133.125V357.184Z" fill="#63A0F9"/>
<path d="M86.75 360.497H70.1875V363.809H86.75V360.497Z" fill="#254EFB"/>
<path d="M90.0625 360.497H86.75V363.809H90.0625V360.497Z" fill="#63A0F9"/>
<path d="M109.938 360.497H90.0625V363.809H109.938V360.497Z" fill="#254EFB"/>
<path d="M113.25 360.497H109.938V363.809H113.25V360.497Z" fill="#63A0F9"/>
<path d="M129.812 360.497H113.25V363.809H129.812V360.497Z" fill="#254EFB"/>
<path d="M86.75 363.809H73.5V367.122H86.75V363.809Z" fill="#254EFB"/>
<path d="M90.0625 363.809H86.75V367.122H90.0625V363.809Z" fill="#63A0F9"/>
<path d="M109.938 363.809H90.0625V367.122H109.938V363.809Z" fill="#254EFB"/>
<path d="M113.25 363.809H109.938V367.122H113.25V363.809Z" fill="#63A0F9"/>
<path d="M126.5 363.809H113.25V367.122H126.5V363.809Z" fill="#254EFB"/>
<path d="M90.0625 367.122H76.8125V370.434H90.0625V367.122Z" fill="#254EFB"/>
<path d="M93.375 367.122H90.0625V370.434H93.375V367.122Z" fill="#63A0F9"/>
<path d="M106.625 367.122H93.375V370.434H106.625V367.122Z" fill="#254EFB"/>
<path d="M109.938 367.122H106.625V370.434H109.938V367.122Z" fill="#63A0F9"/>
<path d="M123.188 367.122H109.938V370.434H123.188V367.122Z" fill="#254EFB"/>
<path d="M90.0625 370.434H80.125V373.747H90.0625V370.434Z" fill="#254EFB"/>
<path d="M93.375 370.434H90.0625V373.747H93.375V370.434Z" fill="#63A0F9"/>
<path d="M106.625 370.434H93.375V373.747H106.625V370.434Z" fill="#254EFB"/>
<path d="M109.938 370.434H106.625V373.747H109.938V370.434Z" fill="#63A0F9"/>
<path d="M119.875 370.434H109.938V373.747H119.875V370.434Z" fill="#254EFB"/>
<path d="M90.0625 373.747H83.4375V377.059H90.0625V373.747Z" fill="#254EFB"/>
<path d="M93.375 373.747H90.0625V377.059H93.375V373.747Z" fill="#63A0F9"/>
<path d="M106.625 373.747H93.375V377.059H106.625V373.747Z" fill="#254EFB"/>
<path d="M109.938 373.747H106.625V377.059H109.938V373.747Z" fill="#63A0F9"/>
<path d="M116.562 373.747H109.938V377.059H116.562V373.747Z" fill="#254EFB"/>
<path d="M93.375 377.059H86.75V380.372H93.375V377.059Z" fill="#254EFB"/>
<path d="M96.6875 377.059H93.375V380.372H96.6875V377.059Z" fill="#63A0F9"/>
<path d="M103.312 377.059H96.6875V380.372H103.312V377.059Z" fill="#254EFB"/>
<path d="M106.625 377.059H103.312V380.372H106.625V377.059Z" fill="#63A0F9"/>
<path d="M113.25 377.059H106.625V380.372H113.25V377.059Z" fill="#254EFB"/>
<path d="M93.375 380.372H90.0625V383.684H93.375V380.372Z" fill="#254EFB"/>
<path d="M96.6875 380.372H93.375V383.684H96.6875V380.372Z" fill="#63A0F9"/>
<path d="M103.312 380.372H96.6875V383.684H103.312V380.372Z" fill="#254EFB"/>
<path d="M106.625 380.372H103.312V383.684H106.625V380.372Z" fill="#63A0F9"/>
<path d="M109.938 380.372H106.625V383.684H109.938V380.372Z" fill="#254EFB"/>
<path d="M96.6875 383.684H93.375V386.997H96.6875V383.684Z" fill="#63A0F9"/>
<path d="M103.312 383.684H96.6875V386.997H103.312V383.684Z" fill="#254EFB"/>
<path d="M106.625 383.684H103.312V386.997H106.625V383.684Z" fill="#63A0F9"/>
<path d="M103.312 386.997H96.6875V390.309H103.312V386.997Z" fill="#254EFB"/>
<path d="M240.062 60.0593H233.438V63.3718H240.062V60.0593Z" fill="#254EFB"/>
<path d="M243.375 60.0593H240.062V63.3718H243.375V60.0593Z" fill="#63A0F9"/>
<path d="M256.625 60.0593H243.375V63.3718H256.625V60.0593Z" fill="#254EFB"/>
<path d="M259.938 60.0593H256.625V63.3718H259.938V60.0593Z" fill="#63A0F9"/>
<path d="M266.562 60.0593H259.938V63.3718H266.562V60.0593Z" fill="#254EFB"/>
<path d="M240.062 63.3718H230.125V66.6843H240.062V63.3718Z" fill="#254EFB"/>
<path d="M243.375 63.3718H240.062V66.6843H243.375V63.3718Z" fill="#63A0F9"/>
<path d="M256.625 63.3718H243.375V66.6843H256.625V63.3718Z" fill="#254EFB"/>
<path d="M259.938 63.3718H256.625V66.6843H259.938V63.3718Z" fill="#63A0F9"/>
<path d="M269.875 63.3718H259.938V66.6843H269.875V63.3718Z" fill="#254EFB"/>
<path d="M236.75 66.6843H226.812V69.9968H236.75V66.6843Z" fill="#254EFB"/>
<path d="M240.062 66.6843H236.75V69.9968H240.062V66.6843Z" fill="#63A0F9"/>
<path d="M259.938 66.6843H240.062V69.9968H259.938V66.6843Z" fill="#254EFB"/>
<path d="M263.25 66.6843H259.938V69.9968H263.25V66.6843Z" fill="#63A0F9"/>
<path d="M273.188 66.6843H263.25V69.9968H273.188V66.6843Z" fill="#254EFB"/>
<path d="M236.75 69.9968H223.5V73.3093H236.75V69.9968Z" fill="#254EFB"/>
<path d="M240.062 69.9968H236.75V73.3093H240.062V69.9968Z" fill="#63A0F9"/>
<path d="M259.938 69.9968H240.062V73.3093H259.938V69.9968Z" fill="#254EFB"/>
<path d="M263.25 69.9968H259.938V73.3093H263.25V69.9968Z" fill="#63A0F9"/>
<path d="M276.5 69.9968H263.25V73.3093H276.5V69.9968Z" fill="#254EFB"/>
<path d="M233.438 73.3093H220.188V76.6218H233.438V73.3093Z" fill="#254EFB"/>
<path d="M236.75 73.3093H233.438V76.6218H236.75V73.3093Z" fill="white"/>
<path d="M263.25 73.3093H236.75V76.6218H263.25V73.3093Z" fill="#254EFB"/>
<path d="M266.562 73.3093H263.25V76.6218H266.562V73.3093Z" fill="#63A0F9"/>
<path d="M279.812 73.3093H266.562V76.6218H279.812V73.3093Z" fill="#254EFB"/>
<path d="M223.5 76.6218H216.875V79.9343H223.5V76.6218Z" fill="#63A0F9"/>
<path d="M226.812 76.6218H223.5V79.9343H226.812V76.6218Z" fill="white"/>
<path d="M230.125 76.6218H226.812V79.9343H230.125V76.6218Z" fill="#63A0F9"/>
<path d="M240.062 76.6218H230.125V79.9343H240.062V76.6218Z" fill="white"/>
<path d="M243.375 76.6218H240.062V79.9343H243.375V76.6218Z" fill="#63A0F9"/>
<path d="M246.688 76.6218H243.375V79.9343H246.688V76.6218Z" fill="white"/>
<path d="M283.125 76.6218H246.688V79.9343H283.125V76.6218Z" fill="#63A0F9"/>
<path d="M233.438 79.9343H216.875V83.2468H233.438V79.9343Z" fill="#254EFB"/>
<path d="M236.75 79.9343H233.438V83.2468H236.75V79.9343Z" fill="white"/>
<path d="M263.25 79.9343H236.75V83.2468H263.25V79.9343Z" fill="#254EFB"/>
<path d="M266.562 79.9343H263.25V83.2468H266.562V79.9343Z" fill="#63A0F9"/>
<path d="M283.125 79.9343H266.562V83.2468H283.125V79.9343Z" fill="#254EFB"/>
<path d="M233.438 83.2468H216.875V86.5593H233.438V83.2468Z" fill="#254EFB"/>
<path d="M236.75 83.2468H233.438V86.5593H236.75V83.2468Z" fill="#63A0F9"/>
<path d="M263.25 83.2468H236.75V86.5593H263.25V83.2468Z" fill="#254EFB"/>
<path d="M266.562 83.2468H263.25V86.5593H266.562V83.2468Z" fill="#63A0F9"/>
<path d="M283.125 83.2468H266.562V86.5593H283.125V83.2468Z" fill="#254EFB"/>
<path d="M233.438 86.5593H216.875V89.8718H233.438V86.5593Z" fill="#254EFB"/>
<path d="M236.75 86.5593H233.438V89.8718H236.75V86.5593Z" fill="#63A0F9"/>
<path d="M263.25 86.5593H236.75V89.8718H263.25V86.5593Z" fill="#254EFB"/>
<path d="M266.562 86.5593H263.25V89.8718H266.562V86.5593Z" fill="#63A0F9"/>
<path d="M283.125 86.5593H266.562V89.8718H283.125V86.5593Z" fill="#254EFB"/>
<path d="M233.438 89.8718H216.875V93.1843H233.438V89.8718Z" fill="#254EFB"/>
<path d="M236.75 89.8718H233.438V93.1843H236.75V89.8718Z" fill="#63A0F9"/>
<path d="M263.25 89.8718H236.75V93.1843H263.25V89.8718Z" fill="#254EFB"/>
<path d="M266.562 89.8718H263.25V93.1843H266.562V89.8718Z" fill="#63A0F9"/>
<path d="M283.125 89.8718H266.562V93.1843H283.125V89.8718Z" fill="#254EFB"/>
<path d="M283.125 93.1843H216.875V96.4968H283.125V93.1843Z" fill="#63A0F9"/>
<path d="M236.75 96.4968H220.188V99.8093H236.75V96.4968Z" fill="#254EFB"/>
<path d="M240.062 96.4968H236.75V99.8093H240.062V96.4968Z" fill="#63A0F9"/>
<path d="M259.938 96.4968H240.062V99.8093H259.938V96.4968Z" fill="#254EFB"/>
<path d="M263.25 96.4968H259.938V99.8093H263.25V96.4968Z" fill="#63A0F9"/>
<path d="M279.812 96.4968H263.25V99.8093H279.812V96.4968Z" fill="#254EFB"/>
<path d="M236.75 99.8093H223.5V103.122H236.75V99.8093Z" fill="#254EFB"/>
<path d="M240.062 99.8093H236.75V103.122H240.062V99.8093Z" fill="#63A0F9"/>
<path d="M259.938 99.8093H240.062V103.122H259.938V99.8093Z" fill="#254EFB"/>
<path d="M263.25 99.8093H259.938V103.122H263.25V99.8093Z" fill="#63A0F9"/>
<path d="M276.5 99.8093H263.25V103.122H276.5V99.8093Z" fill="#254EFB"/>
<path d="M240.062 103.122H226.812V106.434H240.062V103.122Z" fill="#254EFB"/>
<path d="M243.375 103.122H240.062V106.434H243.375V103.122Z" fill="#63A0F9"/>
<path d="M256.625 103.122H243.375V106.434H256.625V103.122Z" fill="#254EFB"/>
<path d="M259.938 103.122H256.625V106.434H259.938V103.122Z" fill="#63A0F9"/>
<path d="M273.188 103.122H259.938V106.434H273.188V103.122Z" fill="#254EFB"/>
<path d="M240.062 106.434H230.125V109.747H240.062V106.434Z" fill="#254EFB"/>
<path d="M243.375 106.434H240.062V109.747H243.375V106.434Z" fill="#63A0F9"/>
<path d="M256.625 106.434H243.375V109.747H256.625V106.434Z" fill="#254EFB"/>
<path d="M259.938 106.434H256.625V109.747H259.938V106.434Z" fill="#63A0F9"/>
<path d="M269.875 106.434H259.938V109.747H269.875V106.434Z" fill="#254EFB"/>
<path d="M240.062 109.747H233.438V113.059H240.062V109.747Z" fill="#254EFB"/>
<path d="M243.375 109.747H240.062V113.059H243.375V109.747Z" fill="#63A0F9"/>
<path d="M256.625 109.747H243.375V113.059H256.625V109.747Z" fill="#254EFB"/>
<path d="M259.938 109.747H256.625V113.059H259.938V109.747Z" fill="#63A0F9"/>
<path d="M266.562 109.747H259.938V113.059H266.562V109.747Z" fill="#254EFB"/>
<path d="M243.375 113.059H236.75V116.372H243.375V113.059Z" fill="#254EFB"/>
<path d="M246.688 113.059H243.375V116.372H246.688V113.059Z" fill="#63A0F9"/>
<path d="M253.312 113.059H246.688V116.372H253.312V113.059Z" fill="#254EFB"/>
<path d="M256.625 113.059H253.312V116.372H256.625V113.059Z" fill="#63A0F9"/>
<path d="M263.25 113.059H256.625V116.372H263.25V113.059Z" fill="#254EFB"/>
<path d="M243.375 116.372H240.062V119.684H243.375V116.372Z" fill="#254EFB"/>
<path d="M246.688 116.372H243.375V119.684H246.688V116.372Z" fill="#63A0F9"/>
<path d="M253.312 116.372H246.688V119.684H253.312V116.372Z" fill="#254EFB"/>
<path d="M256.625 116.372H253.312V119.684H256.625V116.372Z" fill="#63A0F9"/>
<path d="M259.938 116.372H256.625V119.684H259.938V116.372Z" fill="#254EFB"/>
<path d="M246.688 119.684H243.375V122.997H246.688V119.684Z" fill="#63A0F9"/>
<path d="M253.312 119.684H246.688V122.997H253.312V119.684Z" fill="#254EFB"/>
<path d="M256.625 119.684H253.312V122.997H256.625V119.684Z" fill="#63A0F9"/>
<path d="M253.312 122.997H246.688V126.309H253.312V122.997Z" fill="#254EFB"/>
<path d="M93.3906 127.225C90.474 127.225 87.8568 126.821 85.5391 126.014C83.2474 125.181 81.2812 123.996 79.6406 122.459C78 120.923 76.737 119.087 75.8516 116.952C74.9661 114.79 74.4844 112.381 74.4062 109.725L74.3672 109.373H85.8125L85.8516 109.608C85.9297 111.066 86.2552 112.355 86.8281 113.475C87.4271 114.595 88.2604 115.467 89.3281 116.092C90.4219 116.717 91.737 117.03 93.2734 117.03C95.7474 117.03 97.6354 116.287 98.9375 114.803C100.24 113.319 100.891 111.157 100.891 108.319V69.8812H112.688V108.436C112.688 112.368 111.919 115.741 110.383 118.553C108.872 121.366 106.685 123.514 103.82 124.998C100.956 126.483 97.4792 127.225 93.3906 127.225Z" fill="#254EFB"/>
<path d="M250.391 386.473C247.474 386.473 244.857 386.07 242.539 385.262C240.247 384.429 238.281 383.244 236.641 381.708C235 380.171 233.737 378.335 232.852 376.2C231.966 374.038 231.484 371.63 231.406 368.973L231.367 368.622H242.812L242.852 368.856C242.93 370.315 243.255 371.604 243.828 372.723C244.427 373.843 245.26 374.716 246.328 375.341C247.422 375.966 248.737 376.278 250.273 376.278C252.747 376.278 254.635 375.536 255.938 374.052C257.24 372.567 257.891 370.406 257.891 367.567V329.13H269.688V367.684C269.688 371.617 268.919 374.989 267.383 377.802C265.872 380.614 263.685 382.762 260.82 384.247C257.956 385.731 254.479 386.473 250.391 386.473Z" fill="#254EFB"/>
<path d="M178.5 167.997H169.5V172.497H178.5V167.997Z" fill="#343235"/>
<path d="M178.5 172.497H169.5V176.997H178.5V172.497Z" fill="#343235"/>
<path d="M192 176.997H156V181.497H192V176.997Z" fill="#343235"/>
<path d="M201 181.497H147V185.997H201V181.497Z" fill="#343235"/>
<path d="M205.5 185.997H142.5V190.497H205.5V185.997Z" fill="#343235"/>
<path d="M210 190.497H138V194.997H210V190.497Z" fill="#62616D"/>
<path d="M174 194.997H138V199.497H174V194.997Z" fill="#62616D"/>
<path d="M178.5 194.997H174V199.497H178.5V194.997Z" fill="#FFFDF2"/>
<path d="M183 194.997H178.5V199.497H183V194.997Z" fill="#62616D"/>
<path d="M196.5 194.997H183V199.497H196.5V194.997Z" fill="#FFFDF2"/>
<path d="M210 194.997H196.5V199.497H210V194.997Z" fill="#62616D"/>
<path d="M210 199.497H138V203.997H210V199.497Z" fill="#62616D"/>
<path d="M205.5 203.997H142.5V208.497H205.5V203.997Z" fill="#2B83F6"/>
<path d="M205.5 208.497H142.5V212.997H205.5V208.497Z" fill="#2B83F6"/>
<path d="M210 212.997H138V217.497H210V212.997Z" fill="#2B83F6"/>
<path d="M210 217.497H138V221.997H210V217.497Z" fill="#2B83F6"/>
<path d="M210 221.997H138V226.497H210V221.997Z" fill="#2B83F6"/>
<path d="M214.5 226.497H133.5V230.997H214.5V226.497Z" fill="#2B83F6"/>
<path d="M214.5 230.997H133.5V235.497H214.5V230.997Z" fill="#2B83F6"/>
<path d="M214.5 235.497H133.5V239.997H214.5V235.497Z" fill="#2B83F6"/>
<path d="M219 239.997H129V244.497H219V239.997Z" fill="#2B83F6"/>
<path d="M219 244.497H129V248.997H219V244.497Z" fill="#2B83F6"/>
<path d="M219 248.997H129V253.497H219V248.997Z" fill="#2B83F6"/>
<path d="M223.5 253.497H124.5V257.997H223.5V253.497Z" fill="#2B83F6"/>
<path d="M129 257.997H124.5V262.497H129V257.997Z" fill="#2B83F6"/>
<path d="M138 257.997H133.5V262.497H138V257.997Z" fill="#2B83F6"/>
<path d="M214.5 257.997H210V262.497H214.5V257.997Z" fill="#2B83F6"/>
<path d="M223.5 257.997H219V262.497H223.5V257.997Z" fill="#2B83F6"/>
<path d="M142.5 262.497H124.5V266.997H142.5V262.497Z" fill="#2B83F6"/>
<path d="M223.5 262.497H205.5V266.997H223.5V262.497Z" fill="#2B83F6"/>
<path d="M124.5 266.997H120V271.497H124.5V266.997Z" fill="#2B83F6"/>
<path d="M133.5 266.997H129V271.497H133.5V266.997Z" fill="#2B83F6"/>
<path d="M142.5 266.997H138V271.497H142.5V266.997Z" fill="#2B83F6"/>
<path d="M210 266.997H205.5V271.497H210V266.997Z" fill="#2B83F6"/>
<path d="M219 266.997H214.5V271.497H219V266.997Z" fill="#2B83F6"/>
<path d="M228 266.997H223.5V271.497H228V266.997Z" fill="#2B83F6"/>
<path d="M129 275.997H124.5V280.497H129V275.997Z" fill="#2B83F6"/>
<path d="M138 275.997H133.5V280.497H138V275.997Z" fill="#2B83F6"/>
<path d="M214.5 275.997H210V280.497H214.5V275.997Z" fill="#2B83F6"/>
<path d="M223.5 275.997H219V280.497H223.5V275.997Z" fill="#2B83F6"/>
<defs>
<filter id="filter0_d_18_1985" x="0" y="0.248413" width="348" height="462" filterUnits="userSpaceOnUse" color-interpolation-filters="sRGB">
<feFlood flood-opacity="0" result="BackgroundImageFix"/>
<feColorMatrix in="SourceAlpha" type="matrix" values="0 0 0 0 0 0 0 0 0 0 0 0 0 0 0 0 0 0 127 0" result="hardAlpha"/>
<feOffset dy="5"/>
<feGaussianBlur stdDeviation="17"/>
<feColorMatrix type="matrix" values="0 0 0 0 0 0 0 0 0 0 0 0 0 0 0 0 0 0 0.1 0"/>
<feBlend mode="normal" in2="BackgroundImageFix" result="effect1_dropShadow_18_1985"/>
<feBlend mode="normal" in="SourceGraphic" in2="effect1_dropShadow_18_1985" result="shape"/>
</filter>
</defs>
</svg>
