<svg width="348" height="462" viewBox="0 0 348 462" fill="none" xmlns="http://www.w3.org/2000/svg">
<g filter="url(#filter0_d_18_5281)">
<rect x="34" y="29" width="280" height="394" rx="20" fill="#F2F2F2"/>
<rect x="34.5" y="29.5" width="279" height="393" rx="19.5" stroke="#D2D2D2"/>
</g>
<path d="M90.0625 323.811H83.4375V327.123H90.0625V323.811Z" fill="#254EFB"/>
<path d="M93.375 323.811H90.0625V327.123H93.375V323.811Z" fill="#63A0F9"/>
<path d="M106.625 323.811H93.375V327.123H106.625V323.811Z" fill="#254EFB"/>
<path d="M109.938 323.811H106.625V327.123H109.938V323.811Z" fill="#63A0F9"/>
<path d="M116.562 323.811H109.938V327.123H116.562V323.811Z" fill="#254EFB"/>
<path d="M90.0625 327.123H80.125V330.436H90.0625V327.123Z" fill="#254EFB"/>
<path d="M93.375 327.123H90.0625V330.436H93.375V327.123Z" fill="#63A0F9"/>
<path d="M106.625 327.123H93.375V330.436H106.625V327.123Z" fill="#254EFB"/>
<path d="M109.938 327.123H106.625V330.436H109.938V327.123Z" fill="#63A0F9"/>
<path d="M119.875 327.123H109.938V330.436H119.875V327.123Z" fill="#254EFB"/>
<path d="M86.75 330.436H76.8125V333.748H86.75V330.436Z" fill="#254EFB"/>
<path d="M90.0625 330.436H86.75V333.748H90.0625V330.436Z" fill="#63A0F9"/>
<path d="M109.938 330.436H90.0625V333.748H109.938V330.436Z" fill="#254EFB"/>
<path d="M113.25 330.436H109.938V333.748H113.25V330.436Z" fill="#63A0F9"/>
<path d="M123.188 330.436H113.25V333.748H123.188V330.436Z" fill="#254EFB"/>
<path d="M86.75 333.748H73.5V337.061H86.75V333.748Z" fill="#254EFB"/>
<path d="M90.0625 333.748H86.75V337.061H90.0625V333.748Z" fill="#63A0F9"/>
<path d="M109.938 333.748H90.0625V337.061H109.938V333.748Z" fill="#254EFB"/>
<path d="M113.25 333.748H109.938V337.061H113.25V333.748Z" fill="#63A0F9"/>
<path d="M126.5 333.748H113.25V337.061H126.5V333.748Z" fill="#254EFB"/>
<path d="M83.4375 337.061H70.1875V340.373H83.4375V337.061Z" fill="#254EFB"/>
<path d="M86.75 337.061H83.4375V340.373H86.75V337.061Z" fill="white"/>
<path d="M113.25 337.061H86.75V340.373H113.25V337.061Z" fill="#254EFB"/>
<path d="M116.562 337.061H113.25V340.373H116.562V337.061Z" fill="#63A0F9"/>
<path d="M129.812 337.061H116.562V340.373H129.812V337.061Z" fill="#254EFB"/>
<path d="M73.5 340.373H66.875V343.686H73.5V340.373Z" fill="#63A0F9"/>
<path d="M76.8125 340.373H73.5V343.686H76.8125V340.373Z" fill="white"/>
<path d="M80.125 340.373H76.8125V343.686H80.125V340.373Z" fill="#63A0F9"/>
<path d="M90.0625 340.373H80.125V343.686H90.0625V340.373Z" fill="white"/>
<path d="M93.375 340.373H90.0625V343.686H93.375V340.373Z" fill="#63A0F9"/>
<path d="M96.6875 340.373H93.375V343.686H96.6875V340.373Z" fill="white"/>
<path d="M133.125 340.373H96.6875V343.686H133.125V340.373Z" fill="#63A0F9"/>
<path d="M83.4375 343.686H66.875V346.998H83.4375V343.686Z" fill="#254EFB"/>
<path d="M86.75 343.686H83.4375V346.998H86.75V343.686Z" fill="white"/>
<path d="M113.25 343.686H86.75V346.998H113.25V343.686Z" fill="#254EFB"/>
<path d="M116.562 343.686H113.25V346.998H116.562V343.686Z" fill="#63A0F9"/>
<path d="M133.125 343.686H116.562V346.998H133.125V343.686Z" fill="#254EFB"/>
<path d="M83.4375 346.998H66.875V350.311H83.4375V346.998Z" fill="#254EFB"/>
<path d="M86.75 346.998H83.4375V350.311H86.75V346.998Z" fill="#63A0F9"/>
<path d="M113.25 346.998H86.75V350.311H113.25V346.998Z" fill="#254EFB"/>
<path d="M116.562 346.998H113.25V350.311H116.562V346.998Z" fill="#63A0F9"/>
<path d="M133.125 346.998H116.562V350.311H133.125V346.998Z" fill="#254EFB"/>
<path d="M83.4375 350.311H66.875V353.623H83.4375V350.311Z" fill="#254EFB"/>
<path d="M86.75 350.311H83.4375V353.623H86.75V350.311Z" fill="#63A0F9"/>
<path d="M113.25 350.311H86.75V353.623H113.25V350.311Z" fill="#254EFB"/>
<path d="M116.562 350.311H113.25V353.623H116.562V350.311Z" fill="#63A0F9"/>
<path d="M133.125 350.311H116.562V353.623H133.125V350.311Z" fill="#254EFB"/>
<path d="M83.4375 353.623H66.875V356.936H83.4375V353.623Z" fill="#254EFB"/>
<path d="M86.75 353.623H83.4375V356.936H86.75V353.623Z" fill="#63A0F9"/>
<path d="M113.25 353.623H86.75V356.936H113.25V353.623Z" fill="#254EFB"/>
<path d="M116.562 353.623H113.25V356.936H116.562V353.623Z" fill="#63A0F9"/>
<path d="M133.125 353.623H116.562V356.936H133.125V353.623Z" fill="#254EFB"/>
<path d="M133.125 356.936H66.875V360.248H133.125V356.936Z" fill="#63A0F9"/>
<path d="M86.75 360.249H70.1875V363.561H86.75V360.249Z" fill="#254EFB"/>
<path d="M90.0625 360.249H86.75V363.561H90.0625V360.249Z" fill="#63A0F9"/>
<path d="M109.938 360.249H90.0625V363.561H109.938V360.249Z" fill="#254EFB"/>
<path d="M113.25 360.249H109.938V363.561H113.25V360.249Z" fill="#63A0F9"/>
<path d="M129.812 360.249H113.25V363.561H129.812V360.249Z" fill="#254EFB"/>
<path d="M86.75 363.561H73.5V366.874H86.75V363.561Z" fill="#254EFB"/>
<path d="M90.0625 363.561H86.75V366.874H90.0625V363.561Z" fill="#63A0F9"/>
<path d="M109.938 363.561H90.0625V366.874H109.938V363.561Z" fill="#254EFB"/>
<path d="M113.25 363.561H109.938V366.874H113.25V363.561Z" fill="#63A0F9"/>
<path d="M126.5 363.561H113.25V366.874H126.5V363.561Z" fill="#254EFB"/>
<path d="M90.0625 366.874H76.8125V370.186H90.0625V366.874Z" fill="#254EFB"/>
<path d="M93.375 366.874H90.0625V370.186H93.375V366.874Z" fill="#63A0F9"/>
<path d="M106.625 366.874H93.375V370.186H106.625V366.874Z" fill="#254EFB"/>
<path d="M109.938 366.874H106.625V370.186H109.938V366.874Z" fill="#63A0F9"/>
<path d="M123.188 366.874H109.938V370.186H123.188V366.874Z" fill="#254EFB"/>
<path d="M90.0625 370.186H80.125V373.499H90.0625V370.186Z" fill="#254EFB"/>
<path d="M93.375 370.186H90.0625V373.499H93.375V370.186Z" fill="#63A0F9"/>
<path d="M106.625 370.186H93.375V373.499H106.625V370.186Z" fill="#254EFB"/>
<path d="M109.938 370.186H106.625V373.499H109.938V370.186Z" fill="#63A0F9"/>
<path d="M119.875 370.186H109.938V373.499H119.875V370.186Z" fill="#254EFB"/>
<path d="M90.0625 373.499H83.4375V376.811H90.0625V373.499Z" fill="#254EFB"/>
<path d="M93.375 373.499H90.0625V376.811H93.375V373.499Z" fill="#63A0F9"/>
<path d="M106.625 373.499H93.375V376.811H106.625V373.499Z" fill="#254EFB"/>
<path d="M109.938 373.499H106.625V376.811H109.938V373.499Z" fill="#63A0F9"/>
<path d="M116.562 373.499H109.938V376.811H116.562V373.499Z" fill="#254EFB"/>
<path d="M93.375 376.811H86.75V380.124H93.375V376.811Z" fill="#254EFB"/>
<path d="M96.6875 376.811H93.375V380.124H96.6875V376.811Z" fill="#63A0F9"/>
<path d="M103.312 376.811H96.6875V380.124H103.312V376.811Z" fill="#254EFB"/>
<path d="M106.625 376.811H103.312V380.124H106.625V376.811Z" fill="#63A0F9"/>
<path d="M113.25 376.811H106.625V380.124H113.25V376.811Z" fill="#254EFB"/>
<path d="M93.375 380.124H90.0625V383.436H93.375V380.124Z" fill="#254EFB"/>
<path d="M96.6875 380.124H93.375V383.436H96.6875V380.124Z" fill="#63A0F9"/>
<path d="M103.312 380.124H96.6875V383.436H103.312V380.124Z" fill="#254EFB"/>
<path d="M106.625 380.124H103.312V383.436H106.625V380.124Z" fill="#63A0F9"/>
<path d="M109.938 380.124H106.625V383.436H109.938V380.124Z" fill="#254EFB"/>
<path d="M96.6875 383.436H93.375V386.749H96.6875V383.436Z" fill="#63A0F9"/>
<path d="M103.312 383.436H96.6875V386.749H103.312V383.436Z" fill="#254EFB"/>
<path d="M106.625 383.436H103.312V386.749H106.625V383.436Z" fill="#63A0F9"/>
<path d="M103.312 386.749H96.6875V390.061H103.312V386.749Z" fill="#254EFB"/>
<path d="M240.062 59.8109H233.438V63.1234H240.062V59.8109Z" fill="#254EFB"/>
<path d="M243.375 59.8109H240.062V63.1234H243.375V59.8109Z" fill="#63A0F9"/>
<path d="M256.625 59.8109H243.375V63.1234H256.625V59.8109Z" fill="#254EFB"/>
<path d="M259.938 59.8109H256.625V63.1234H259.938V59.8109Z" fill="#63A0F9"/>
<path d="M266.562 59.8109H259.938V63.1234H266.562V59.8109Z" fill="#254EFB"/>
<path d="M240.062 63.1234H230.125V66.4359H240.062V63.1234Z" fill="#254EFB"/>
<path d="M243.375 63.1234H240.062V66.4359H243.375V63.1234Z" fill="#63A0F9"/>
<path d="M256.625 63.1234H243.375V66.4359H256.625V63.1234Z" fill="#254EFB"/>
<path d="M259.938 63.1234H256.625V66.4359H259.938V63.1234Z" fill="#63A0F9"/>
<path d="M269.875 63.1234H259.938V66.4359H269.875V63.1234Z" fill="#254EFB"/>
<path d="M236.75 66.4359H226.812V69.7484H236.75V66.4359Z" fill="#254EFB"/>
<path d="M240.062 66.4359H236.75V69.7484H240.062V66.4359Z" fill="#63A0F9"/>
<path d="M259.938 66.4359H240.062V69.7484H259.938V66.4359Z" fill="#254EFB"/>
<path d="M263.25 66.4359H259.938V69.7484H263.25V66.4359Z" fill="#63A0F9"/>
<path d="M273.188 66.4359H263.25V69.7484H273.188V66.4359Z" fill="#254EFB"/>
<path d="M236.75 69.7484H223.5V73.0609H236.75V69.7484Z" fill="#254EFB"/>
<path d="M240.062 69.7484H236.75V73.0609H240.062V69.7484Z" fill="#63A0F9"/>
<path d="M259.938 69.7484H240.062V73.0609H259.938V69.7484Z" fill="#254EFB"/>
<path d="M263.25 69.7484H259.938V73.0609H263.25V69.7484Z" fill="#63A0F9"/>
<path d="M276.5 69.7484H263.25V73.0609H276.5V69.7484Z" fill="#254EFB"/>
<path d="M233.438 73.0609H220.188V76.3734H233.438V73.0609Z" fill="#254EFB"/>
<path d="M236.75 73.0609H233.438V76.3734H236.75V73.0609Z" fill="white"/>
<path d="M263.25 73.0609H236.75V76.3734H263.25V73.0609Z" fill="#254EFB"/>
<path d="M266.562 73.0609H263.25V76.3734H266.562V73.0609Z" fill="#63A0F9"/>
<path d="M279.812 73.0609H266.562V76.3734H279.812V73.0609Z" fill="#254EFB"/>
<path d="M223.5 76.3734H216.875V79.6859H223.5V76.3734Z" fill="#63A0F9"/>
<path d="M226.812 76.3734H223.5V79.6859H226.812V76.3734Z" fill="white"/>
<path d="M230.125 76.3734H226.812V79.6859H230.125V76.3734Z" fill="#63A0F9"/>
<path d="M240.062 76.3734H230.125V79.6859H240.062V76.3734Z" fill="white"/>
<path d="M243.375 76.3734H240.062V79.6859H243.375V76.3734Z" fill="#63A0F9"/>
<path d="M246.688 76.3734H243.375V79.6859H246.688V76.3734Z" fill="white"/>
<path d="M283.125 76.3734H246.688V79.6859H283.125V76.3734Z" fill="#63A0F9"/>
<path d="M233.438 79.6859H216.875V82.9984H233.438V79.6859Z" fill="#254EFB"/>
<path d="M236.75 79.6859H233.438V82.9984H236.75V79.6859Z" fill="white"/>
<path d="M263.25 79.6859H236.75V82.9984H263.25V79.6859Z" fill="#254EFB"/>
<path d="M266.562 79.6859H263.25V82.9984H266.562V79.6859Z" fill="#63A0F9"/>
<path d="M283.125 79.6859H266.562V82.9984H283.125V79.6859Z" fill="#254EFB"/>
<path d="M233.438 82.9984H216.875V86.3109H233.438V82.9984Z" fill="#254EFB"/>
<path d="M236.75 82.9984H233.438V86.3109H236.75V82.9984Z" fill="#63A0F9"/>
<path d="M263.25 82.9984H236.75V86.3109H263.25V82.9984Z" fill="#254EFB"/>
<path d="M266.562 82.9984H263.25V86.3109H266.562V82.9984Z" fill="#63A0F9"/>
<path d="M283.125 82.9984H266.562V86.3109H283.125V82.9984Z" fill="#254EFB"/>
<path d="M233.438 86.3109H216.875V89.6234H233.438V86.3109Z" fill="#254EFB"/>
<path d="M236.75 86.3109H233.438V89.6234H236.75V86.3109Z" fill="#63A0F9"/>
<path d="M263.25 86.3109H236.75V89.6234H263.25V86.3109Z" fill="#254EFB"/>
<path d="M266.562 86.3109H263.25V89.6234H266.562V86.3109Z" fill="#63A0F9"/>
<path d="M283.125 86.3109H266.562V89.6234H283.125V86.3109Z" fill="#254EFB"/>
<path d="M233.438 89.6234H216.875V92.9359H233.438V89.6234Z" fill="#254EFB"/>
<path d="M236.75 89.6234H233.438V92.9359H236.75V89.6234Z" fill="#63A0F9"/>
<path d="M263.25 89.6234H236.75V92.9359H263.25V89.6234Z" fill="#254EFB"/>
<path d="M266.562 89.6234H263.25V92.9359H266.562V89.6234Z" fill="#63A0F9"/>
<path d="M283.125 89.6234H266.562V92.9359H283.125V89.6234Z" fill="#254EFB"/>
<path d="M283.125 92.9359H216.875V96.2484H283.125V92.9359Z" fill="#63A0F9"/>
<path d="M236.75 96.2484H220.188V99.5609H236.75V96.2484Z" fill="#254EFB"/>
<path d="M240.062 96.2484H236.75V99.5609H240.062V96.2484Z" fill="#63A0F9"/>
<path d="M259.938 96.2484H240.062V99.5609H259.938V96.2484Z" fill="#254EFB"/>
<path d="M263.25 96.2484H259.938V99.5609H263.25V96.2484Z" fill="#63A0F9"/>
<path d="M279.812 96.2484H263.25V99.5609H279.812V96.2484Z" fill="#254EFB"/>
<path d="M236.75 99.5609H223.5V102.873H236.75V99.5609Z" fill="#254EFB"/>
<path d="M240.062 99.5609H236.75V102.873H240.062V99.5609Z" fill="#63A0F9"/>
<path d="M259.938 99.5609H240.062V102.873H259.938V99.5609Z" fill="#254EFB"/>
<path d="M263.25 99.5609H259.938V102.873H263.25V99.5609Z" fill="#63A0F9"/>
<path d="M276.5 99.5609H263.25V102.873H276.5V99.5609Z" fill="#254EFB"/>
<path d="M240.062 102.873H226.812V106.186H240.062V102.873Z" fill="#254EFB"/>
<path d="M243.375 102.873H240.062V106.186H243.375V102.873Z" fill="#63A0F9"/>
<path d="M256.625 102.873H243.375V106.186H256.625V102.873Z" fill="#254EFB"/>
<path d="M259.938 102.873H256.625V106.186H259.938V102.873Z" fill="#63A0F9"/>
<path d="M273.188 102.873H259.938V106.186H273.188V102.873Z" fill="#254EFB"/>
<path d="M240.062 106.186H230.125V109.498H240.062V106.186Z" fill="#254EFB"/>
<path d="M243.375 106.186H240.062V109.498H243.375V106.186Z" fill="#63A0F9"/>
<path d="M256.625 106.186H243.375V109.498H256.625V106.186Z" fill="#254EFB"/>
<path d="M259.938 106.186H256.625V109.498H259.938V106.186Z" fill="#63A0F9"/>
<path d="M269.875 106.186H259.938V109.498H269.875V106.186Z" fill="#254EFB"/>
<path d="M240.062 109.498H233.438V112.811H240.062V109.498Z" fill="#254EFB"/>
<path d="M243.375 109.498H240.062V112.811H243.375V109.498Z" fill="#63A0F9"/>
<path d="M256.625 109.498H243.375V112.811H256.625V109.498Z" fill="#254EFB"/>
<path d="M259.938 109.498H256.625V112.811H259.938V109.498Z" fill="#63A0F9"/>
<path d="M266.562 109.498H259.938V112.811H266.562V109.498Z" fill="#254EFB"/>
<path d="M243.375 112.811H236.75V116.123H243.375V112.811Z" fill="#254EFB"/>
<path d="M246.688 112.811H243.375V116.123H246.688V112.811Z" fill="#63A0F9"/>
<path d="M253.312 112.811H246.688V116.123H253.312V112.811Z" fill="#254EFB"/>
<path d="M256.625 112.811H253.312V116.123H256.625V112.811Z" fill="#63A0F9"/>
<path d="M263.25 112.811H256.625V116.123H263.25V112.811Z" fill="#254EFB"/>
<path d="M243.375 116.123H240.062V119.436H243.375V116.123Z" fill="#254EFB"/>
<path d="M246.688 116.123H243.375V119.436H246.688V116.123Z" fill="#63A0F9"/>
<path d="M253.312 116.123H246.688V119.436H253.312V116.123Z" fill="#254EFB"/>
<path d="M256.625 116.123H253.312V119.436H256.625V116.123Z" fill="#63A0F9"/>
<path d="M259.938 116.123H256.625V119.436H259.938V116.123Z" fill="#254EFB"/>
<path d="M246.688 119.436H243.375V122.748H246.688V119.436Z" fill="#63A0F9"/>
<path d="M253.312 119.436H246.688V122.748H253.312V119.436Z" fill="#254EFB"/>
<path d="M256.625 119.436H253.312V122.748H256.625V119.436Z" fill="#63A0F9"/>
<path d="M253.312 122.748H246.688V126.061H253.312V122.748Z" fill="#254EFB"/>
<path d="M96.125 126.977C92.7135 126.977 89.5755 126.378 86.7109 125.18C83.8724 123.982 81.3854 122.198 79.25 119.828C77.1406 117.432 75.5 114.451 74.3281 110.883C73.1823 107.289 72.6094 103.096 72.6094 98.3047V98.2266C72.6094 92.0807 73.5599 86.7943 75.4609 82.3672C77.362 77.9401 80.0703 74.5547 83.5859 72.2109C87.1276 69.8411 91.3464 68.6562 96.2422 68.6562C99.888 68.6562 103.169 69.3073 106.086 70.6094C109.003 71.8854 111.411 73.6562 113.312 75.9219C115.24 78.1875 116.477 80.7656 117.023 83.6562L117.102 84.0469H105.461L105.344 83.6953C104.875 82.5495 104.211 81.5599 103.352 80.7266C102.518 79.8672 101.503 79.2031 100.305 78.7344C99.1068 78.2396 97.7396 77.9922 96.2031 77.9922C93.4688 77.9922 91.2161 78.7865 89.4453 80.375C87.7005 81.9635 86.3854 84.099 85.5 86.7812C84.6146 89.4635 84.0938 92.4714 83.9375 95.8047C83.9115 96.1953 83.8854 96.5859 83.8594 96.9766C83.8594 97.3672 83.8594 97.7578 83.8594 98.1484L85.6562 107.523C85.6562 109.398 86.112 111.104 87.0234 112.641C87.9349 114.151 89.1719 115.362 90.7344 116.273C92.2969 117.159 94.0417 117.602 95.9688 117.602C97.8958 117.602 99.6406 117.159 101.203 116.273C102.766 115.388 104.016 114.203 104.953 112.719C105.891 111.208 106.359 109.529 106.359 107.68V107.602C106.359 105.648 105.904 103.917 104.992 102.406C104.107 100.896 102.883 99.724 101.32 98.8906C99.7839 98.0312 98.0391 97.6016 96.0859 97.6016C94.1328 97.6016 92.362 98.0312 90.7734 98.8906C89.1849 99.724 87.9349 100.883 87.0234 102.367C86.112 103.852 85.6562 105.544 85.6562 107.445V107.523H83.2734V97.9531H84.0938C84.849 96.2083 85.9427 94.6589 87.375 93.3047C88.8333 91.9505 90.5781 90.8828 92.6094 90.1016C94.6667 89.2943 96.9583 88.8906 99.4844 88.8906C103.13 88.8906 106.32 89.6849 109.055 91.2734C111.815 92.8359 113.964 94.9974 115.5 97.7578C117.062 100.518 117.844 103.656 117.844 107.172V107.25C117.844 111.104 116.906 114.516 115.031 117.484C113.156 120.427 110.578 122.745 107.297 124.438C104.042 126.13 100.318 126.977 96.125 126.977Z" fill="#254EFB"/>
<path d="M253.125 386.225C249.714 386.225 246.576 385.626 243.711 384.428C240.872 383.23 238.385 381.446 236.25 379.077C234.141 376.681 232.5 373.699 231.328 370.131C230.182 366.537 229.609 362.345 229.609 357.553V357.475C229.609 351.329 230.56 346.043 232.461 341.616C234.362 337.189 237.07 333.803 240.586 331.459C244.128 329.09 248.346 327.905 253.242 327.905C256.888 327.905 260.169 328.556 263.086 329.858C266.003 331.134 268.411 332.905 270.312 335.17C272.24 337.436 273.477 340.014 274.023 342.905L274.102 343.295H262.461L262.344 342.944C261.875 341.798 261.211 340.808 260.352 339.975C259.518 339.116 258.503 338.452 257.305 337.983C256.107 337.488 254.74 337.241 253.203 337.241C250.469 337.241 248.216 338.035 246.445 339.623C244.701 341.212 243.385 343.347 242.5 346.03C241.615 348.712 241.094 351.72 240.938 355.053C240.911 355.444 240.885 355.834 240.859 356.225C240.859 356.616 240.859 357.006 240.859 357.397L242.656 366.772C242.656 368.647 243.112 370.353 244.023 371.889C244.935 373.399 246.172 374.61 247.734 375.522C249.297 376.407 251.042 376.85 252.969 376.85C254.896 376.85 256.641 376.407 258.203 375.522C259.766 374.636 261.016 373.452 261.953 371.967C262.891 370.457 263.359 368.777 263.359 366.928V366.85C263.359 364.897 262.904 363.165 261.992 361.655C261.107 360.144 259.883 358.972 258.32 358.139C256.784 357.28 255.039 356.85 253.086 356.85C251.133 356.85 249.362 357.28 247.773 358.139C246.185 358.972 244.935 360.131 244.023 361.616C243.112 363.1 242.656 364.793 242.656 366.694V366.772H240.273V357.202H241.094C241.849 355.457 242.943 353.907 244.375 352.553C245.833 351.199 247.578 350.131 249.609 349.35C251.667 348.543 253.958 348.139 256.484 348.139C260.13 348.139 263.32 348.933 266.055 350.522C268.815 352.084 270.964 354.246 272.5 357.006C274.062 359.767 274.844 362.905 274.844 366.42V366.498C274.844 370.353 273.906 373.764 272.031 376.733C270.156 379.675 267.578 381.993 264.297 383.686C261.042 385.379 257.318 386.225 253.125 386.225Z" fill="#254EFB"/>
<defs>
<filter id="filter0_d_18_5281" x="0" y="0" width="348" height="462" filterUnits="userSpaceOnUse" color-interpolation-filters="sRGB">
<feFlood flood-opacity="0" result="BackgroundImageFix"/>
<feColorMatrix in="SourceAlpha" type="matrix" values="0 0 0 0 0 0 0 0 0 0 0 0 0 0 0 0 0 0 127 0" result="hardAlpha"/>
<feOffset dy="5"/>
<feGaussianBlur stdDeviation="17"/>
<feColorMatrix type="matrix" values="0 0 0 0 0 0 0 0 0 0 0 0 0 0 0 0 0 0 0.1 0"/>
<feBlend mode="normal" in2="BackgroundImageFix" result="effect1_dropShadow_18_5281"/>
<feBlend mode="normal" in="SourceGraphic" in2="effect1_dropShadow_18_5281" result="shape"/>
</filter>
</defs>
</svg>
