<svg width="348" height="462" viewBox="0 0 348 462" fill="none" xmlns="http://www.w3.org/2000/svg">
<g filter="url(#filter0_d_18_1388)">
<rect x="34" y="29" width="280" height="394" rx="20" fill="#F2F2F2"/>
<rect x="34.5" y="29.5" width="279" height="393" rx="19.5" stroke="#D2D2D2"/>
</g>
<path d="M90.0625 323.811H83.4375V327.123H90.0625V323.811Z" fill="#254EFB"/>
<path d="M93.375 323.811H90.0625V327.123H93.375V323.811Z" fill="#63A0F9"/>
<path d="M106.625 323.811H93.375V327.123H106.625V323.811Z" fill="#254EFB"/>
<path d="M109.938 323.811H106.625V327.123H109.938V323.811Z" fill="#63A0F9"/>
<path d="M116.562 323.811H109.938V327.123H116.562V323.811Z" fill="#254EFB"/>
<path d="M90.0625 327.123H80.125V330.436H90.0625V327.123Z" fill="#254EFB"/>
<path d="M93.375 327.123H90.0625V330.436H93.375V327.123Z" fill="#63A0F9"/>
<path d="M106.625 327.123H93.375V330.436H106.625V327.123Z" fill="#254EFB"/>
<path d="M109.938 327.123H106.625V330.436H109.938V327.123Z" fill="#63A0F9"/>
<path d="M119.875 327.123H109.938V330.436H119.875V327.123Z" fill="#254EFB"/>
<path d="M86.75 330.436H76.8125V333.748H86.75V330.436Z" fill="#254EFB"/>
<path d="M90.0625 330.436H86.75V333.748H90.0625V330.436Z" fill="#63A0F9"/>
<path d="M109.938 330.436H90.0625V333.748H109.938V330.436Z" fill="#254EFB"/>
<path d="M113.25 330.436H109.938V333.748H113.25V330.436Z" fill="#63A0F9"/>
<path d="M123.188 330.436H113.25V333.748H123.188V330.436Z" fill="#254EFB"/>
<path d="M86.75 333.748H73.5V337.061H86.75V333.748Z" fill="#254EFB"/>
<path d="M90.0625 333.748H86.75V337.061H90.0625V333.748Z" fill="#63A0F9"/>
<path d="M109.938 333.748H90.0625V337.061H109.938V333.748Z" fill="#254EFB"/>
<path d="M113.25 333.748H109.938V337.061H113.25V333.748Z" fill="#63A0F9"/>
<path d="M126.5 333.748H113.25V337.061H126.5V333.748Z" fill="#254EFB"/>
<path d="M83.4375 337.061H70.1875V340.373H83.4375V337.061Z" fill="#254EFB"/>
<path d="M86.75 337.061H83.4375V340.373H86.75V337.061Z" fill="white"/>
<path d="M113.25 337.061H86.75V340.373H113.25V337.061Z" fill="#254EFB"/>
<path d="M116.562 337.061H113.25V340.373H116.562V337.061Z" fill="#63A0F9"/>
<path d="M129.812 337.061H116.562V340.373H129.812V337.061Z" fill="#254EFB"/>
<path d="M73.5 340.373H66.875V343.686H73.5V340.373Z" fill="#63A0F9"/>
<path d="M76.8125 340.373H73.5V343.686H76.8125V340.373Z" fill="white"/>
<path d="M80.125 340.373H76.8125V343.686H80.125V340.373Z" fill="#63A0F9"/>
<path d="M90.0625 340.373H80.125V343.686H90.0625V340.373Z" fill="white"/>
<path d="M93.375 340.373H90.0625V343.686H93.375V340.373Z" fill="#63A0F9"/>
<path d="M96.6875 340.373H93.375V343.686H96.6875V340.373Z" fill="white"/>
<path d="M133.125 340.373H96.6875V343.686H133.125V340.373Z" fill="#63A0F9"/>
<path d="M83.4375 343.686H66.875V346.998H83.4375V343.686Z" fill="#254EFB"/>
<path d="M86.75 343.686H83.4375V346.998H86.75V343.686Z" fill="white"/>
<path d="M113.25 343.686H86.75V346.998H113.25V343.686Z" fill="#254EFB"/>
<path d="M116.562 343.686H113.25V346.998H116.562V343.686Z" fill="#63A0F9"/>
<path d="M133.125 343.686H116.562V346.998H133.125V343.686Z" fill="#254EFB"/>
<path d="M83.4375 346.998H66.875V350.311H83.4375V346.998Z" fill="#254EFB"/>
<path d="M86.75 346.998H83.4375V350.311H86.75V346.998Z" fill="#63A0F9"/>
<path d="M113.25 346.998H86.75V350.311H113.25V346.998Z" fill="#254EFB"/>
<path d="M116.562 346.998H113.25V350.311H116.562V346.998Z" fill="#63A0F9"/>
<path d="M133.125 346.998H116.562V350.311H133.125V346.998Z" fill="#254EFB"/>
<path d="M83.4375 350.311H66.875V353.623H83.4375V350.311Z" fill="#254EFB"/>
<path d="M86.75 350.311H83.4375V353.623H86.75V350.311Z" fill="#63A0F9"/>
<path d="M113.25 350.311H86.75V353.623H113.25V350.311Z" fill="#254EFB"/>
<path d="M116.562 350.311H113.25V353.623H116.562V350.311Z" fill="#63A0F9"/>
<path d="M133.125 350.311H116.562V353.623H133.125V350.311Z" fill="#254EFB"/>
<path d="M83.4375 353.623H66.875V356.936H83.4375V353.623Z" fill="#254EFB"/>
<path d="M86.75 353.623H83.4375V356.936H86.75V353.623Z" fill="#63A0F9"/>
<path d="M113.25 353.623H86.75V356.936H113.25V353.623Z" fill="#254EFB"/>
<path d="M116.562 353.623H113.25V356.936H116.562V353.623Z" fill="#63A0F9"/>
<path d="M133.125 353.623H116.562V356.936H133.125V353.623Z" fill="#254EFB"/>
<path d="M133.125 356.936H66.875V360.248H133.125V356.936Z" fill="#63A0F9"/>
<path d="M86.75 360.249H70.1875V363.561H86.75V360.249Z" fill="#254EFB"/>
<path d="M90.0625 360.249H86.75V363.561H90.0625V360.249Z" fill="#63A0F9"/>
<path d="M109.938 360.249H90.0625V363.561H109.938V360.249Z" fill="#254EFB"/>
<path d="M113.25 360.249H109.938V363.561H113.25V360.249Z" fill="#63A0F9"/>
<path d="M129.812 360.249H113.25V363.561H129.812V360.249Z" fill="#254EFB"/>
<path d="M86.75 363.561H73.5V366.874H86.75V363.561Z" fill="#254EFB"/>
<path d="M90.0625 363.561H86.75V366.874H90.0625V363.561Z" fill="#63A0F9"/>
<path d="M109.938 363.561H90.0625V366.874H109.938V363.561Z" fill="#254EFB"/>
<path d="M113.25 363.561H109.938V366.874H113.25V363.561Z" fill="#63A0F9"/>
<path d="M126.5 363.561H113.25V366.874H126.5V363.561Z" fill="#254EFB"/>
<path d="M90.0625 366.874H76.8125V370.186H90.0625V366.874Z" fill="#254EFB"/>
<path d="M93.375 366.874H90.0625V370.186H93.375V366.874Z" fill="#63A0F9"/>
<path d="M106.625 366.874H93.375V370.186H106.625V366.874Z" fill="#254EFB"/>
<path d="M109.938 366.874H106.625V370.186H109.938V366.874Z" fill="#63A0F9"/>
<path d="M123.188 366.874H109.938V370.186H123.188V366.874Z" fill="#254EFB"/>
<path d="M90.0625 370.186H80.125V373.499H90.0625V370.186Z" fill="#254EFB"/>
<path d="M93.375 370.186H90.0625V373.499H93.375V370.186Z" fill="#63A0F9"/>
<path d="M106.625 370.186H93.375V373.499H106.625V370.186Z" fill="#254EFB"/>
<path d="M109.938 370.186H106.625V373.499H109.938V370.186Z" fill="#63A0F9"/>
<path d="M119.875 370.186H109.938V373.499H119.875V370.186Z" fill="#254EFB"/>
<path d="M90.0625 373.499H83.4375V376.811H90.0625V373.499Z" fill="#254EFB"/>
<path d="M93.375 373.499H90.0625V376.811H93.375V373.499Z" fill="#63A0F9"/>
<path d="M106.625 373.499H93.375V376.811H106.625V373.499Z" fill="#254EFB"/>
<path d="M109.938 373.499H106.625V376.811H109.938V373.499Z" fill="#63A0F9"/>
<path d="M116.562 373.499H109.938V376.811H116.562V373.499Z" fill="#254EFB"/>
<path d="M93.375 376.811H86.75V380.124H93.375V376.811Z" fill="#254EFB"/>
<path d="M96.6875 376.811H93.375V380.124H96.6875V376.811Z" fill="#63A0F9"/>
<path d="M103.312 376.811H96.6875V380.124H103.312V376.811Z" fill="#254EFB"/>
<path d="M106.625 376.811H103.312V380.124H106.625V376.811Z" fill="#63A0F9"/>
<path d="M113.25 376.811H106.625V380.124H113.25V376.811Z" fill="#254EFB"/>
<path d="M93.375 380.124H90.0625V383.436H93.375V380.124Z" fill="#254EFB"/>
<path d="M96.6875 380.124H93.375V383.436H96.6875V380.124Z" fill="#63A0F9"/>
<path d="M103.312 380.124H96.6875V383.436H103.312V380.124Z" fill="#254EFB"/>
<path d="M106.625 380.124H103.312V383.436H106.625V380.124Z" fill="#63A0F9"/>
<path d="M109.938 380.124H106.625V383.436H109.938V380.124Z" fill="#254EFB"/>
<path d="M96.6875 383.436H93.375V386.749H96.6875V383.436Z" fill="#63A0F9"/>
<path d="M103.312 383.436H96.6875V386.749H103.312V383.436Z" fill="#254EFB"/>
<path d="M106.625 383.436H103.312V386.749H106.625V383.436Z" fill="#63A0F9"/>
<path d="M103.312 386.749H96.6875V390.061H103.312V386.749Z" fill="#254EFB"/>
<path d="M240.062 59.8109H233.438V63.1234H240.062V59.8109Z" fill="#254EFB"/>
<path d="M243.375 59.8109H240.062V63.1234H243.375V59.8109Z" fill="#63A0F9"/>
<path d="M256.625 59.8109H243.375V63.1234H256.625V59.8109Z" fill="#254EFB"/>
<path d="M259.938 59.8109H256.625V63.1234H259.938V59.8109Z" fill="#63A0F9"/>
<path d="M266.562 59.8109H259.938V63.1234H266.562V59.8109Z" fill="#254EFB"/>
<path d="M240.062 63.1234H230.125V66.4359H240.062V63.1234Z" fill="#254EFB"/>
<path d="M243.375 63.1234H240.062V66.4359H243.375V63.1234Z" fill="#63A0F9"/>
<path d="M256.625 63.1234H243.375V66.4359H256.625V63.1234Z" fill="#254EFB"/>
<path d="M259.938 63.1234H256.625V66.4359H259.938V63.1234Z" fill="#63A0F9"/>
<path d="M269.875 63.1234H259.938V66.4359H269.875V63.1234Z" fill="#254EFB"/>
<path d="M236.75 66.4359H226.812V69.7484H236.75V66.4359Z" fill="#254EFB"/>
<path d="M240.062 66.4359H236.75V69.7484H240.062V66.4359Z" fill="#63A0F9"/>
<path d="M259.938 66.4359H240.062V69.7484H259.938V66.4359Z" fill="#254EFB"/>
<path d="M263.25 66.4359H259.938V69.7484H263.25V66.4359Z" fill="#63A0F9"/>
<path d="M273.188 66.4359H263.25V69.7484H273.188V66.4359Z" fill="#254EFB"/>
<path d="M236.75 69.7484H223.5V73.0609H236.75V69.7484Z" fill="#254EFB"/>
<path d="M240.062 69.7484H236.75V73.0609H240.062V69.7484Z" fill="#63A0F9"/>
<path d="M259.938 69.7484H240.062V73.0609H259.938V69.7484Z" fill="#254EFB"/>
<path d="M263.25 69.7484H259.938V73.0609H263.25V69.7484Z" fill="#63A0F9"/>
<path d="M276.5 69.7484H263.25V73.0609H276.5V69.7484Z" fill="#254EFB"/>
<path d="M233.438 73.0609H220.188V76.3734H233.438V73.0609Z" fill="#254EFB"/>
<path d="M236.75 73.0609H233.438V76.3734H236.75V73.0609Z" fill="white"/>
<path d="M263.25 73.0609H236.75V76.3734H263.25V73.0609Z" fill="#254EFB"/>
<path d="M266.562 73.0609H263.25V76.3734H266.562V73.0609Z" fill="#63A0F9"/>
<path d="M279.812 73.0609H266.562V76.3734H279.812V73.0609Z" fill="#254EFB"/>
<path d="M223.5 76.3734H216.875V79.6859H223.5V76.3734Z" fill="#63A0F9"/>
<path d="M226.812 76.3734H223.5V79.6859H226.812V76.3734Z" fill="white"/>
<path d="M230.125 76.3734H226.812V79.6859H230.125V76.3734Z" fill="#63A0F9"/>
<path d="M240.062 76.3734H230.125V79.6859H240.062V76.3734Z" fill="white"/>
<path d="M243.375 76.3734H240.062V79.6859H243.375V76.3734Z" fill="#63A0F9"/>
<path d="M246.688 76.3734H243.375V79.6859H246.688V76.3734Z" fill="white"/>
<path d="M283.125 76.3734H246.688V79.6859H283.125V76.3734Z" fill="#63A0F9"/>
<path d="M233.438 79.6859H216.875V82.9984H233.438V79.6859Z" fill="#254EFB"/>
<path d="M236.75 79.6859H233.438V82.9984H236.75V79.6859Z" fill="white"/>
<path d="M263.25 79.6859H236.75V82.9984H263.25V79.6859Z" fill="#254EFB"/>
<path d="M266.562 79.6859H263.25V82.9984H266.562V79.6859Z" fill="#63A0F9"/>
<path d="M283.125 79.6859H266.562V82.9984H283.125V79.6859Z" fill="#254EFB"/>
<path d="M233.438 82.9984H216.875V86.3109H233.438V82.9984Z" fill="#254EFB"/>
<path d="M236.75 82.9984H233.438V86.3109H236.75V82.9984Z" fill="#63A0F9"/>
<path d="M263.25 82.9984H236.75V86.3109H263.25V82.9984Z" fill="#254EFB"/>
<path d="M266.562 82.9984H263.25V86.3109H266.562V82.9984Z" fill="#63A0F9"/>
<path d="M283.125 82.9984H266.562V86.3109H283.125V82.9984Z" fill="#254EFB"/>
<path d="M233.438 86.3109H216.875V89.6234H233.438V86.3109Z" fill="#254EFB"/>
<path d="M236.75 86.3109H233.438V89.6234H236.75V86.3109Z" fill="#63A0F9"/>
<path d="M263.25 86.3109H236.75V89.6234H263.25V86.3109Z" fill="#254EFB"/>
<path d="M266.562 86.3109H263.25V89.6234H266.562V86.3109Z" fill="#63A0F9"/>
<path d="M283.125 86.3109H266.562V89.6234H283.125V86.3109Z" fill="#254EFB"/>
<path d="M233.438 89.6234H216.875V92.9359H233.438V89.6234Z" fill="#254EFB"/>
<path d="M236.75 89.6234H233.438V92.9359H236.75V89.6234Z" fill="#63A0F9"/>
<path d="M263.25 89.6234H236.75V92.9359H263.25V89.6234Z" fill="#254EFB"/>
<path d="M266.562 89.6234H263.25V92.9359H266.562V89.6234Z" fill="#63A0F9"/>
<path d="M283.125 89.6234H266.562V92.9359H283.125V89.6234Z" fill="#254EFB"/>
<path d="M283.125 92.9359H216.875V96.2484H283.125V92.9359Z" fill="#63A0F9"/>
<path d="M236.75 96.2484H220.188V99.5609H236.75V96.2484Z" fill="#254EFB"/>
<path d="M240.062 96.2484H236.75V99.5609H240.062V96.2484Z" fill="#63A0F9"/>
<path d="M259.938 96.2484H240.062V99.5609H259.938V96.2484Z" fill="#254EFB"/>
<path d="M263.25 96.2484H259.938V99.5609H263.25V96.2484Z" fill="#63A0F9"/>
<path d="M279.812 96.2484H263.25V99.5609H279.812V96.2484Z" fill="#254EFB"/>
<path d="M236.75 99.5609H223.5V102.873H236.75V99.5609Z" fill="#254EFB"/>
<path d="M240.062 99.5609H236.75V102.873H240.062V99.5609Z" fill="#63A0F9"/>
<path d="M259.938 99.5609H240.062V102.873H259.938V99.5609Z" fill="#254EFB"/>
<path d="M263.25 99.5609H259.938V102.873H263.25V99.5609Z" fill="#63A0F9"/>
<path d="M276.5 99.5609H263.25V102.873H276.5V99.5609Z" fill="#254EFB"/>
<path d="M240.062 102.873H226.812V106.186H240.062V102.873Z" fill="#254EFB"/>
<path d="M243.375 102.873H240.062V106.186H243.375V102.873Z" fill="#63A0F9"/>
<path d="M256.625 102.873H243.375V106.186H256.625V102.873Z" fill="#254EFB"/>
<path d="M259.938 102.873H256.625V106.186H259.938V102.873Z" fill="#63A0F9"/>
<path d="M273.188 102.873H259.938V106.186H273.188V102.873Z" fill="#254EFB"/>
<path d="M240.062 106.186H230.125V109.498H240.062V106.186Z" fill="#254EFB"/>
<path d="M243.375 106.186H240.062V109.498H243.375V106.186Z" fill="#63A0F9"/>
<path d="M256.625 106.186H243.375V109.498H256.625V106.186Z" fill="#254EFB"/>
<path d="M259.938 106.186H256.625V109.498H259.938V106.186Z" fill="#63A0F9"/>
<path d="M269.875 106.186H259.938V109.498H269.875V106.186Z" fill="#254EFB"/>
<path d="M240.062 109.498H233.438V112.811H240.062V109.498Z" fill="#254EFB"/>
<path d="M243.375 109.498H240.062V112.811H243.375V109.498Z" fill="#63A0F9"/>
<path d="M256.625 109.498H243.375V112.811H256.625V109.498Z" fill="#254EFB"/>
<path d="M259.938 109.498H256.625V112.811H259.938V109.498Z" fill="#63A0F9"/>
<path d="M266.562 109.498H259.938V112.811H266.562V109.498Z" fill="#254EFB"/>
<path d="M243.375 112.811H236.75V116.123H243.375V112.811Z" fill="#254EFB"/>
<path d="M246.688 112.811H243.375V116.123H246.688V112.811Z" fill="#63A0F9"/>
<path d="M253.312 112.811H246.688V116.123H253.312V112.811Z" fill="#254EFB"/>
<path d="M256.625 112.811H253.312V116.123H256.625V112.811Z" fill="#63A0F9"/>
<path d="M263.25 112.811H256.625V116.123H263.25V112.811Z" fill="#254EFB"/>
<path d="M243.375 116.123H240.062V119.436H243.375V116.123Z" fill="#254EFB"/>
<path d="M246.688 116.123H243.375V119.436H246.688V116.123Z" fill="#63A0F9"/>
<path d="M253.312 116.123H246.688V119.436H253.312V116.123Z" fill="#254EFB"/>
<path d="M256.625 116.123H253.312V119.436H256.625V116.123Z" fill="#63A0F9"/>
<path d="M259.938 116.123H256.625V119.436H259.938V116.123Z" fill="#254EFB"/>
<path d="M246.688 119.436H243.375V122.748H246.688V119.436Z" fill="#63A0F9"/>
<path d="M253.312 119.436H246.688V122.748H253.312V119.436Z" fill="#254EFB"/>
<path d="M256.625 119.436H253.312V122.748H256.625V119.436Z" fill="#63A0F9"/>
<path d="M253.312 122.748H246.688V126.061H253.312V122.748Z" fill="#254EFB"/>
<path d="M68.8984 126L88.5859 69.6328H98.9766V80.5703H95.3828L81.2812 126H68.8984ZM79.4844 112.328L82.375 103.5H108.664L111.555 112.328H79.4844ZM109.719 126L95.6172 80.5703V69.6328H102.453L122.102 126H109.719Z" fill="#254EFB"/>
<path d="M225.898 385.248L245.586 328.881H255.977V339.819H252.383L238.281 385.248H225.898ZM236.484 371.577L239.375 362.748H265.664L268.555 371.577H236.484ZM266.719 385.248L252.617 339.819V328.881H259.453L279.102 385.248H266.719Z" fill="#254EFB"/>
<path d="M242.125 168.311H119.5V175.123H242.125V168.311Z" fill="#C5B9A1"/>
<path d="M242.125 175.123H119.5V181.936H242.125V175.123Z" fill="#C5B9A1"/>
<path d="M133.125 181.936H105.875V188.748H133.125V181.936Z" fill="#C5B9A1"/>
<path d="M139.938 181.936H133.125V188.748H139.938V181.936Z" fill="#FDF8FF"/>
<path d="M153.562 181.936H139.938V188.748H153.562V181.936Z" fill="#1929F4"/>
<path d="M160.375 181.936H153.562V188.748H160.375V181.936Z" fill="#FDF8FF"/>
<path d="M228.5 181.936H160.375V188.748H228.5V181.936Z" fill="#1929F4"/>
<path d="M242.125 181.936H228.5V188.748H242.125V181.936Z" fill="#C5B9A1"/>
<path d="M133.125 188.748H92.25V195.561H133.125V188.748Z" fill="#C5B9A1"/>
<path d="M146.75 188.748H133.125V195.561H146.75V188.748Z" fill="#1929F4"/>
<path d="M153.562 188.748H146.75V195.561H153.562V188.748Z" fill="#FDF8FF"/>
<path d="M228.5 188.748H153.562V195.561H228.5V188.748Z" fill="#1929F4"/>
<path d="M242.125 188.748H228.5V195.561H242.125V188.748Z" fill="#C5B9A1"/>
<path d="M133.125 195.561H92.25V202.373H133.125V195.561Z" fill="#C5B9A1"/>
<path d="M139.938 195.561H133.125V202.373H139.938V195.561Z" fill="#FDF8FF"/>
<path d="M153.562 195.561H139.938V202.373H153.562V195.561Z" fill="#1929F4"/>
<path d="M160.375 195.561H153.562V202.373H160.375V195.561Z" fill="#FDF8FF"/>
<path d="M228.5 195.561H160.375V202.373H228.5V195.561Z" fill="#1929F4"/>
<path d="M242.125 195.561H228.5V202.373H242.125V195.561Z" fill="#C5B9A1"/>
<path d="M133.125 202.373H92.25V209.186H133.125V202.373Z" fill="#C5B9A1"/>
<path d="M228.5 202.373H133.125V209.186H228.5V202.373Z" fill="#1929F4"/>
<path d="M242.125 202.373H228.5V209.186H242.125V202.373Z" fill="#C5B9A1"/>
<path d="M133.125 209.186H92.25V215.998H133.125V209.186Z" fill="#C5B9A1"/>
<path d="M228.5 209.186H133.125V215.998H228.5V209.186Z" fill="#1929F4"/>
<path d="M242.125 209.186H228.5V215.998H242.125V209.186Z" fill="#C5B9A1"/>
<path d="M133.125 215.998H92.25V222.811H133.125V215.998Z" fill="#C5B9A1"/>
<path d="M228.5 215.998H133.125V222.811H228.5V215.998Z" fill="#1929F4"/>
<path d="M242.125 215.998H228.5V222.811H242.125V215.998Z" fill="#C5B9A1"/>
<path d="M133.125 222.811H92.25V229.623H133.125V222.811Z" fill="#C5B9A1"/>
<path d="M228.5 222.811H133.125V229.623H228.5V222.811Z" fill="#1929F4"/>
<path d="M242.125 222.811H228.5V229.623H242.125V222.811Z" fill="#C5B9A1"/>
<path d="M105.875 229.623H92.25V236.436H105.875V229.623Z" fill="#9D8E6E"/>
<path d="M133.125 229.623H105.875V236.436H133.125V229.623Z" fill="#C5B9A1"/>
<path d="M228.5 229.623H133.125V236.436H228.5V229.623Z" fill="#1929F4"/>
<path d="M242.125 229.623H228.5V236.436H242.125V229.623Z" fill="#C5B9A1"/>
<path d="M133.125 236.436H92.25V243.248H133.125V236.436Z" fill="#C5B9A1"/>
<path d="M228.5 236.436H133.125V243.248H228.5V236.436Z" fill="#1929F4"/>
<path d="M242.125 236.436H228.5V243.248H242.125V236.436Z" fill="#C5B9A1"/>
<path d="M105.875 243.248H92.25V250.061H105.875V243.248Z" fill="#9D8E6E"/>
<path d="M133.125 243.248H105.875V250.061H133.125V243.248Z" fill="#C5B9A1"/>
<path d="M228.5 243.248H133.125V250.061H228.5V243.248Z" fill="#1929F4"/>
<path d="M242.125 243.248H228.5V250.061H242.125V243.248Z" fill="#C5B9A1"/>
<path d="M133.125 250.061H92.25V256.873H133.125V250.061Z" fill="#C5B9A1"/>
<path d="M228.5 250.061H133.125V256.873H228.5V250.061Z" fill="#1929F4"/>
<path d="M242.125 250.061H228.5V256.873H242.125V250.061Z" fill="#C5B9A1"/>
<path d="M105.875 256.873H92.25V263.686H105.875V256.873Z" fill="#9D8E6E"/>
<path d="M133.125 256.873H105.875V263.686H133.125V256.873Z" fill="#C5B9A1"/>
<path d="M228.5 256.873H133.125V263.686H228.5V256.873Z" fill="#1929F4"/>
<path d="M242.125 256.873H228.5V263.686H242.125V256.873Z" fill="#C5B9A1"/>
<path d="M180.812 263.686H92.25V270.498H180.812V263.686Z" fill="#C5B9A1"/>
<path d="M187.625 263.686H180.812V270.498H187.625V263.686Z" fill="black"/>
<path d="M194.438 263.686H187.625V270.498H194.438V263.686Z" fill="#C5B9A1"/>
<path d="M201.25 263.686H194.438V270.498H201.25V263.686Z" fill="black"/>
<path d="M242.125 263.686H201.25V270.498H242.125V263.686Z" fill="#C5B9A1"/>
<path d="M174 270.498H105.875V277.311H174V270.498Z" fill="#C5B9A1"/>
<path d="M180.812 270.498H174V277.311H180.812V270.498Z" fill="black"/>
<path d="M187.625 270.498H180.812V277.311H187.625V270.498Z" fill="#C5B9A1"/>
<path d="M194.438 270.498H187.625V277.311H194.438V270.498Z" fill="black"/>
<path d="M201.25 270.498H194.438V277.311H201.25V270.498Z" fill="#C5B9A1"/>
<path d="M208.062 270.498H201.25V277.311H208.062V270.498Z" fill="black"/>
<path d="M242.125 270.498H208.062V277.311H242.125V270.498Z" fill="#C5B9A1"/>
<path d="M242.125 277.311H119.5V284.123H242.125V277.311Z" fill="#C5B9A1"/>
<defs>
<filter id="filter0_d_18_1388" x="0" y="0" width="348" height="462" filterUnits="userSpaceOnUse" color-interpolation-filters="sRGB">
<feFlood flood-opacity="0" result="BackgroundImageFix"/>
<feColorMatrix in="SourceAlpha" type="matrix" values="0 0 0 0 0 0 0 0 0 0 0 0 0 0 0 0 0 0 127 0" result="hardAlpha"/>
<feOffset dy="5"/>
<feGaussianBlur stdDeviation="17"/>
<feColorMatrix type="matrix" values="0 0 0 0 0 0 0 0 0 0 0 0 0 0 0 0 0 0 0.1 0"/>
<feBlend mode="normal" in2="BackgroundImageFix" result="effect1_dropShadow_18_1388"/>
<feBlend mode="normal" in="SourceGraphic" in2="effect1_dropShadow_18_1388" result="shape"/>
</filter>
</defs>
</svg>
