<svg width="348" height="462" viewBox="0 0 348 462" fill="none" xmlns="http://www.w3.org/2000/svg">
<g filter="url(#filter0_d_10_29971)">
<rect x="34" y="29" width="280" height="394" rx="20" fill="#F2F2F2"/>
<rect x="34.5" y="29.5" width="279" height="393" rx="19.5" stroke="#D2D2D2"/>
</g>
<path d="M89 323.248H78.5V326.748H89V323.248Z" fill="#34AC80"/>
<path d="M117 323.248H106.5V326.748H117V323.248Z" fill="#4BEA69"/>
<path d="M92.5 326.748H75V330.248H92.5V326.748Z" fill="#34AC80"/>
<path d="M120.5 326.748H103V330.248H120.5V326.748Z" fill="#4BEA69"/>
<path d="M92.5 330.248H75V333.748H92.5V330.248Z" fill="#34AC80"/>
<path d="M120.5 330.248H103V333.748H120.5V330.248Z" fill="#4BEA69"/>
<path d="M78.5 333.748H68V337.248H78.5V333.748Z" fill="#4BEA69"/>
<path d="M96 333.748H78.5V337.248H96V333.748Z" fill="#34AC80"/>
<path d="M120.5 333.748H99.5V337.248H120.5V333.748Z" fill="#4BEA69"/>
<path d="M127.5 333.748H120.5V337.248H127.5V333.748Z" fill="#34AC80"/>
<path d="M78.5 337.248H64.5V340.748H78.5V337.248Z" fill="#4BEA69"/>
<path d="M99.5 337.248H78.5V340.748H99.5V337.248Z" fill="#34AC80"/>
<path d="M113.5 337.248H99.5V340.748H113.5V337.248Z" fill="#4BEA69"/>
<path d="M131 337.248H113.5V340.748H131V337.248Z" fill="#34AC80"/>
<path d="M82 340.748H64.5V344.248H82V340.748Z" fill="#4BEA69"/>
<path d="M99.5 340.748H82V344.248H99.5V340.748Z" fill="#34AC80"/>
<path d="M110 340.748H99.5V344.248H110V340.748Z" fill="#4BEA69"/>
<path d="M131 340.748H110V344.248H131V340.748Z" fill="#34AC80"/>
<path d="M85.5 344.248H64.5V347.748H85.5V344.248Z" fill="#4BEA69"/>
<path d="M89 344.248H85.5V347.748H89V344.248Z" fill="#068940"/>
<path d="M96 344.248H89V347.748H96V344.248Z" fill="#34AC80"/>
<path d="M106.5 344.248H96V347.748H106.5V344.248Z" fill="#4BEA69"/>
<path d="M110 344.248H106.5V347.748H110V344.248Z" fill="#068940"/>
<path d="M131 344.248H110V347.748H131V344.248Z" fill="#34AC80"/>
<path d="M89 347.748H68V351.248H89V347.748Z" fill="#4BEA69"/>
<path d="M92.5 347.748H89V351.248H92.5V347.748Z" fill="#068940"/>
<path d="M96 347.748H92.5V351.248H96V347.748Z" fill="#34AC80"/>
<path d="M103 347.748H96V351.248H103V347.748Z" fill="#4BEA69"/>
<path d="M106.5 347.748H103V351.248H106.5V347.748Z" fill="#068940"/>
<path d="M127.5 347.748H106.5V351.248H127.5V347.748Z" fill="#34AC80"/>
<path d="M92.5 351.248H75V354.748H92.5V351.248Z" fill="#4BEA69"/>
<path d="M96 351.248H92.5V354.748H96V351.248Z" fill="#068940"/>
<path d="M99.5 351.248H96V354.748H99.5V351.248Z" fill="#4BEA69"/>
<path d="M103 351.248H99.5V354.748H103V351.248Z" fill="#068940"/>
<path d="M120.5 351.248H103V354.748H120.5V351.248Z" fill="#34AC80"/>
<path d="M85.5 354.748H78.5V358.248H85.5V354.748Z" fill="#34AC80"/>
<path d="M96 354.748H85.5V358.248H96V354.748Z" fill="#4BEA69"/>
<path d="M99.5 354.748H96V358.248H99.5V354.748Z" fill="#068940"/>
<path d="M110 354.748H99.5V358.248H110V354.748Z" fill="#4BEA69"/>
<path d="M117 354.748H110V358.248H117V354.748Z" fill="#34AC80"/>
<path d="M92.5 358.248H75V361.748H92.5V358.248Z" fill="#34AC80"/>
<path d="M96 358.248H92.5V361.748H96V358.248Z" fill="#068940"/>
<path d="M99.5 358.248H96V361.748H99.5V358.248Z" fill="#4BEA69"/>
<path d="M103 358.248H99.5V361.748H103V358.248Z" fill="#068940"/>
<path d="M120.5 358.248H103V361.748H120.5V358.248Z" fill="#4BEA69"/>
<path d="M89 361.748H68V365.248H89V361.748Z" fill="#34AC80"/>
<path d="M92.5 361.748H89V365.248H92.5V361.748Z" fill="#068940"/>
<path d="M99.5 361.748H92.5V365.248H99.5V361.748Z" fill="#4BEA69"/>
<path d="M103 361.748H99.5V365.248H103V361.748Z" fill="#34AC80"/>
<path d="M106.5 361.748H103V365.248H106.5V361.748Z" fill="#068940"/>
<path d="M127.5 361.748H106.5V365.248H127.5V361.748Z" fill="#4BEA69"/>
<path d="M85.5 365.248H64.5V368.748H85.5V365.248Z" fill="#34AC80"/>
<path d="M89 365.248H85.5V368.748H89V365.248Z" fill="#068940"/>
<path d="M99.5 365.248H89V368.748H99.5V365.248Z" fill="#4BEA69"/>
<path d="M106.5 365.248H99.5V368.748H106.5V365.248Z" fill="#34AC80"/>
<path d="M110 365.248H106.5V368.748H110V365.248Z" fill="#068940"/>
<path d="M131 365.248H110V368.748H131V365.248Z" fill="#4BEA69"/>
<path d="M85.5 368.748H64.5V372.248H85.5V368.748Z" fill="#34AC80"/>
<path d="M96 368.748H85.5V372.248H96V368.748Z" fill="#4BEA69"/>
<path d="M113.5 368.748H96V372.248H113.5V368.748Z" fill="#34AC80"/>
<path d="M131 368.748H113.5V372.248H131V368.748Z" fill="#4BEA69"/>
<path d="M82 372.248H64.5V375.748H82V372.248Z" fill="#34AC80"/>
<path d="M96 372.248H82V375.748H96V372.248Z" fill="#4BEA69"/>
<path d="M99.5 372.248H96V375.748H99.5V372.248Z" fill="#34AC80"/>
<path d="M117 372.248H99.5V375.748H117V372.248Z" fill="#0B5027"/>
<path d="M131 372.248H117V375.748H131V372.248Z" fill="#4BEA69"/>
<path d="M141.5 372.248H134.5V375.748H141.5V372.248Z" fill="#068940"/>
<path d="M75 375.748H68V379.248H75V375.748Z" fill="#34AC80"/>
<path d="M96 375.748H75V379.248H96V375.748Z" fill="#4BEA69"/>
<path d="M99.5 375.748H96V379.248H99.5V375.748Z" fill="#068940"/>
<path d="M117 375.748H99.5V379.248H117V375.748Z" fill="#34AC80"/>
<path d="M127.5 375.748H117V379.248H127.5V375.748Z" fill="#4BEA69"/>
<path d="M141.5 375.748H127.5V379.248H141.5V375.748Z" fill="#068940"/>
<path d="M92.5 379.248H75V382.748H92.5V379.248Z" fill="#4BEA69"/>
<path d="M103 379.248H92.5V382.748H103V379.248Z" fill="#068940"/>
<path d="M120.5 379.248H103V382.748H120.5V379.248Z" fill="#34AC80"/>
<path d="M138 379.248H120.5V382.748H138V379.248Z" fill="#068940"/>
<path d="M92.5 382.748H75V386.248H92.5V382.748Z" fill="#4BEA69"/>
<path d="M120.5 382.748H103V386.248H120.5V382.748Z" fill="#34AC80"/>
<path d="M89 386.248H78.5V389.748H89V386.248Z" fill="#4BEA69"/>
<path d="M117 386.248H106.5V389.748H117V386.248Z" fill="#34AC80"/>
<path d="M243 59.2484H232.5V62.7484H243V59.2484Z" fill="#34AC80"/>
<path d="M271 59.2484H260.5V62.7484H271V59.2484Z" fill="#4BEA69"/>
<path d="M246.5 62.7484H229V66.2484H246.5V62.7484Z" fill="#34AC80"/>
<path d="M274.5 62.7484H257V66.2484H274.5V62.7484Z" fill="#4BEA69"/>
<path d="M246.5 66.2484H229V69.7484H246.5V66.2484Z" fill="#34AC80"/>
<path d="M274.5 66.2484H257V69.7484H274.5V66.2484Z" fill="#4BEA69"/>
<path d="M232.5 69.7484H222V73.2484H232.5V69.7484Z" fill="#4BEA69"/>
<path d="M250 69.7484H232.5V73.2484H250V69.7484Z" fill="#34AC80"/>
<path d="M274.5 69.7484H253.5V73.2484H274.5V69.7484Z" fill="#4BEA69"/>
<path d="M281.5 69.7484H274.5V73.2484H281.5V69.7484Z" fill="#34AC80"/>
<path d="M232.5 73.2484H218.5V76.7484H232.5V73.2484Z" fill="#4BEA69"/>
<path d="M253.5 73.2484H232.5V76.7484H253.5V73.2484Z" fill="#34AC80"/>
<path d="M267.5 73.2484H253.5V76.7484H267.5V73.2484Z" fill="#4BEA69"/>
<path d="M285 73.2484H267.5V76.7484H285V73.2484Z" fill="#34AC80"/>
<path d="M236 76.7484H218.5V80.2484H236V76.7484Z" fill="#4BEA69"/>
<path d="M253.5 76.7484H236V80.2484H253.5V76.7484Z" fill="#34AC80"/>
<path d="M264 76.7484H253.5V80.2484H264V76.7484Z" fill="#4BEA69"/>
<path d="M285 76.7484H264V80.2484H285V76.7484Z" fill="#34AC80"/>
<path d="M239.5 80.2484H218.5V83.7484H239.5V80.2484Z" fill="#4BEA69"/>
<path d="M243 80.2484H239.5V83.7484H243V80.2484Z" fill="#068940"/>
<path d="M250 80.2484H243V83.7484H250V80.2484Z" fill="#34AC80"/>
<path d="M260.5 80.2484H250V83.7484H260.5V80.2484Z" fill="#4BEA69"/>
<path d="M264 80.2484H260.5V83.7484H264V80.2484Z" fill="#068940"/>
<path d="M285 80.2484H264V83.7484H285V80.2484Z" fill="#34AC80"/>
<path d="M243 83.7484H222V87.2484H243V83.7484Z" fill="#4BEA69"/>
<path d="M246.5 83.7484H243V87.2484H246.5V83.7484Z" fill="#068940"/>
<path d="M250 83.7484H246.5V87.2484H250V83.7484Z" fill="#34AC80"/>
<path d="M257 83.7484H250V87.2484H257V83.7484Z" fill="#4BEA69"/>
<path d="M260.5 83.7484H257V87.2484H260.5V83.7484Z" fill="#068940"/>
<path d="M281.5 83.7484H260.5V87.2484H281.5V83.7484Z" fill="#34AC80"/>
<path d="M246.5 87.2484H229V90.7484H246.5V87.2484Z" fill="#4BEA69"/>
<path d="M250 87.2484H246.5V90.7484H250V87.2484Z" fill="#068940"/>
<path d="M253.5 87.2484H250V90.7484H253.5V87.2484Z" fill="#4BEA69"/>
<path d="M257 87.2484H253.5V90.7484H257V87.2484Z" fill="#068940"/>
<path d="M274.5 87.2484H257V90.7484H274.5V87.2484Z" fill="#34AC80"/>
<path d="M239.5 90.7484H232.5V94.2484H239.5V90.7484Z" fill="#34AC80"/>
<path d="M250 90.7484H239.5V94.2484H250V90.7484Z" fill="#4BEA69"/>
<path d="M253.5 90.7484H250V94.2484H253.5V90.7484Z" fill="#068940"/>
<path d="M264 90.7484H253.5V94.2484H264V90.7484Z" fill="#4BEA69"/>
<path d="M271 90.7484H264V94.2484H271V90.7484Z" fill="#34AC80"/>
<path d="M246.5 94.2484H229V97.7484H246.5V94.2484Z" fill="#34AC80"/>
<path d="M250 94.2484H246.5V97.7484H250V94.2484Z" fill="#068940"/>
<path d="M253.5 94.2484H250V97.7484H253.5V94.2484Z" fill="#4BEA69"/>
<path d="M257 94.2484H253.5V97.7484H257V94.2484Z" fill="#068940"/>
<path d="M274.5 94.2484H257V97.7484H274.5V94.2484Z" fill="#4BEA69"/>
<path d="M243 97.7484H222V101.248H243V97.7484Z" fill="#34AC80"/>
<path d="M246.5 97.7484H243V101.248H246.5V97.7484Z" fill="#068940"/>
<path d="M253.5 97.7484H246.5V101.248H253.5V97.7484Z" fill="#4BEA69"/>
<path d="M257 97.7484H253.5V101.248H257V97.7484Z" fill="#34AC80"/>
<path d="M260.5 97.7484H257V101.248H260.5V97.7484Z" fill="#068940"/>
<path d="M281.5 97.7484H260.5V101.248H281.5V97.7484Z" fill="#4BEA69"/>
<path d="M239.5 101.248H218.5V104.748H239.5V101.248Z" fill="#34AC80"/>
<path d="M243 101.248H239.5V104.748H243V101.248Z" fill="#068940"/>
<path d="M253.5 101.248H243V104.748H253.5V101.248Z" fill="#4BEA69"/>
<path d="M260.5 101.248H253.5V104.748H260.5V101.248Z" fill="#34AC80"/>
<path d="M264 101.248H260.5V104.748H264V101.248Z" fill="#068940"/>
<path d="M285 101.248H264V104.748H285V101.248Z" fill="#4BEA69"/>
<path d="M239.5 104.748H218.5V108.248H239.5V104.748Z" fill="#34AC80"/>
<path d="M250 104.748H239.5V108.248H250V104.748Z" fill="#4BEA69"/>
<path d="M267.5 104.748H250V108.248H267.5V104.748Z" fill="#34AC80"/>
<path d="M285 104.748H267.5V108.248H285V104.748Z" fill="#4BEA69"/>
<path d="M236 108.248H218.5V111.748H236V108.248Z" fill="#34AC80"/>
<path d="M250 108.248H236V111.748H250V108.248Z" fill="#4BEA69"/>
<path d="M253.5 108.248H250V111.748H253.5V108.248Z" fill="#34AC80"/>
<path d="M271 108.248H253.5V111.748H271V108.248Z" fill="#0B5027"/>
<path d="M285 108.248H271V111.748H285V108.248Z" fill="#4BEA69"/>
<path d="M295.5 108.248H288.5V111.748H295.5V108.248Z" fill="#068940"/>
<path d="M229 111.748H222V115.248H229V111.748Z" fill="#34AC80"/>
<path d="M250 111.748H229V115.248H250V111.748Z" fill="#4BEA69"/>
<path d="M253.5 111.748H250V115.248H253.5V111.748Z" fill="#068940"/>
<path d="M271 111.748H253.5V115.248H271V111.748Z" fill="#34AC80"/>
<path d="M281.5 111.748H271V115.248H281.5V111.748Z" fill="#4BEA69"/>
<path d="M295.5 111.748H281.5V115.248H295.5V111.748Z" fill="#068940"/>
<path d="M246.5 115.248H229V118.748H246.5V115.248Z" fill="#4BEA69"/>
<path d="M257 115.248H246.5V118.748H257V115.248Z" fill="#068940"/>
<path d="M274.5 115.248H257V118.748H274.5V115.248Z" fill="#34AC80"/>
<path d="M292 115.248H274.5V118.748H292V115.248Z" fill="#068940"/>
<path d="M246.5 118.748H229V122.248H246.5V118.748Z" fill="#4BEA69"/>
<path d="M274.5 118.748H257V122.248H274.5V118.748Z" fill="#34AC80"/>
<path d="M243 122.248H232.5V125.748H243V122.248Z" fill="#4BEA69"/>
<path d="M271 122.248H260.5V125.748H271V122.248Z" fill="#34AC80"/>
<path d="M95.2656 126.977C90.9948 126.977 87.2708 126.286 84.0938 124.906C80.9167 123.5 78.3906 121.56 76.5156 119.086C74.6667 116.612 73.612 113.76 73.3516 110.531L73.3125 110.023H84.5625L84.6406 110.453C84.8229 111.807 85.3568 113.018 86.2422 114.086C87.1536 115.128 88.3646 115.961 89.875 116.586C91.4115 117.185 93.1953 117.484 95.2266 117.484C97.2578 117.484 99.0156 117.159 100.5 116.508C101.984 115.831 103.13 114.906 103.938 113.734C104.771 112.536 105.188 111.169 105.188 109.633V109.555C105.188 106.846 104.237 104.776 102.336 103.344C100.435 101.911 97.7786 101.195 94.3672 101.195H87.9219V92.7969H94.2109C96.1901 92.7969 97.9089 92.4714 99.3672 91.8203C100.826 91.1693 101.945 90.2708 102.727 89.125C103.534 87.9531 103.938 86.612 103.938 85.1016V85.0234C103.938 83.487 103.586 82.1849 102.883 81.1172C102.206 80.0234 101.203 79.1901 99.875 78.6172C98.5729 78.0182 96.9974 77.7188 95.1484 77.7188C93.3255 77.7188 91.7109 78.0182 90.3047 78.6172C88.8984 79.2161 87.7786 80.0625 86.9453 81.1562C86.112 82.224 85.6042 83.487 85.4219 84.9453L85.3828 85.2969H74.5625L74.6016 84.8281C74.862 81.5469 75.8646 78.7083 77.6094 76.3125C79.3802 73.8906 81.763 72.0156 84.7578 70.6875C87.7526 69.3333 91.2161 68.6562 95.1484 68.6562C99.2109 68.6562 102.727 69.2812 105.695 70.5312C108.69 71.7552 111.008 73.474 112.648 75.6875C114.289 77.901 115.109 80.4922 115.109 83.4609V83.5391C115.109 85.8828 114.589 87.9401 113.547 89.7109C112.505 91.4818 111.086 92.9401 109.289 94.0859C107.518 95.2318 105.539 96.0391 103.352 96.5078V96.7422C107.544 97.1328 110.891 98.487 113.391 100.805C115.917 103.122 117.18 106.195 117.18 110.023V110.102C117.18 113.461 116.268 116.404 114.445 118.93C112.622 121.456 110.07 123.435 106.789 124.867C103.508 126.273 99.6667 126.977 95.2656 126.977Z" fill="#4BEA69"/>
<path d="M252.266 386.225C247.995 386.225 244.271 385.535 241.094 384.155C237.917 382.748 235.391 380.808 233.516 378.334C231.667 375.86 230.612 373.009 230.352 369.78L230.312 369.272H241.562L241.641 369.702C241.823 371.056 242.357 372.267 243.242 373.334C244.154 374.376 245.365 375.209 246.875 375.834C248.411 376.433 250.195 376.733 252.227 376.733C254.258 376.733 256.016 376.407 257.5 375.756C258.984 375.079 260.13 374.155 260.938 372.983C261.771 371.785 262.188 370.418 262.188 368.881V368.803C262.188 366.095 261.237 364.024 259.336 362.592C257.435 361.16 254.779 360.444 251.367 360.444H244.922V352.045H251.211C253.19 352.045 254.909 351.72 256.367 351.069C257.826 350.418 258.945 349.519 259.727 348.373C260.534 347.202 260.938 345.86 260.938 344.35V344.272C260.938 342.735 260.586 341.433 259.883 340.366C259.206 339.272 258.203 338.439 256.875 337.866C255.573 337.267 253.997 336.967 252.148 336.967C250.326 336.967 248.711 337.267 247.305 337.866C245.898 338.465 244.779 339.311 243.945 340.405C243.112 341.472 242.604 342.735 242.422 344.194L242.383 344.545H231.562L231.602 344.077C231.862 340.795 232.865 337.957 234.609 335.561C236.38 333.139 238.763 331.264 241.758 329.936C244.753 328.582 248.216 327.905 252.148 327.905C256.211 327.905 259.727 328.53 262.695 329.78C265.69 331.004 268.008 332.722 269.648 334.936C271.289 337.149 272.109 339.741 272.109 342.709V342.787C272.109 345.131 271.589 347.189 270.547 348.959C269.505 350.73 268.086 352.189 266.289 353.334C264.518 354.48 262.539 355.287 260.352 355.756V355.991C264.544 356.381 267.891 357.735 270.391 360.053C272.917 362.371 274.18 365.444 274.18 369.272V369.35C274.18 372.709 273.268 375.652 271.445 378.178C269.622 380.704 267.07 382.683 263.789 384.116C260.508 385.522 256.667 386.225 252.266 386.225Z" fill="#4BEA69"/>
<defs>
<filter id="filter0_d_10_29971" x="0" y="0" width="348" height="462" filterUnits="userSpaceOnUse" color-interpolation-filters="sRGB">
<feFlood flood-opacity="0" result="BackgroundImageFix"/>
<feColorMatrix in="SourceAlpha" type="matrix" values="0 0 0 0 0 0 0 0 0 0 0 0 0 0 0 0 0 0 127 0" result="hardAlpha"/>
<feOffset dy="5"/>
<feGaussianBlur stdDeviation="17"/>
<feColorMatrix type="matrix" values="0 0 0 0 0 0 0 0 0 0 0 0 0 0 0 0 0 0 0.1 0"/>
<feBlend mode="normal" in2="BackgroundImageFix" result="effect1_dropShadow_10_29971"/>
<feBlend mode="normal" in="SourceGraphic" in2="effect1_dropShadow_10_29971" result="shape"/>
</filter>
</defs>
</svg>
