<svg width="348" height="462" viewBox="0 0 348 462" fill="none" xmlns="http://www.w3.org/2000/svg">
<g filter="url(#filter0_d_10_30505)">
<rect x="34" y="29" width="280" height="394" rx="20" fill="#F2F2F2"/>
<rect x="34.5" y="29.5" width="279" height="393" rx="19.5" stroke="#D2D2D2"/>
</g>
<path d="M89 323.248H78.5V326.748H89V323.248Z" fill="#34AC80"/>
<path d="M117 323.248H106.5V326.748H117V323.248Z" fill="#4BEA69"/>
<path d="M92.5 326.748H75V330.248H92.5V326.748Z" fill="#34AC80"/>
<path d="M120.5 326.748H103V330.248H120.5V326.748Z" fill="#4BEA69"/>
<path d="M92.5 330.248H75V333.748H92.5V330.248Z" fill="#34AC80"/>
<path d="M120.5 330.248H103V333.748H120.5V330.248Z" fill="#4BEA69"/>
<path d="M78.5 333.748H68V337.248H78.5V333.748Z" fill="#4BEA69"/>
<path d="M96 333.748H78.5V337.248H96V333.748Z" fill="#34AC80"/>
<path d="M120.5 333.748H99.5V337.248H120.5V333.748Z" fill="#4BEA69"/>
<path d="M127.5 333.748H120.5V337.248H127.5V333.748Z" fill="#34AC80"/>
<path d="M78.5 337.248H64.5V340.748H78.5V337.248Z" fill="#4BEA69"/>
<path d="M99.5 337.248H78.5V340.748H99.5V337.248Z" fill="#34AC80"/>
<path d="M113.5 337.248H99.5V340.748H113.5V337.248Z" fill="#4BEA69"/>
<path d="M131 337.248H113.5V340.748H131V337.248Z" fill="#34AC80"/>
<path d="M82 340.748H64.5V344.248H82V340.748Z" fill="#4BEA69"/>
<path d="M99.5 340.748H82V344.248H99.5V340.748Z" fill="#34AC80"/>
<path d="M110 340.748H99.5V344.248H110V340.748Z" fill="#4BEA69"/>
<path d="M131 340.748H110V344.248H131V340.748Z" fill="#34AC80"/>
<path d="M85.5 344.248H64.5V347.748H85.5V344.248Z" fill="#4BEA69"/>
<path d="M89 344.248H85.5V347.748H89V344.248Z" fill="#068940"/>
<path d="M96 344.248H89V347.748H96V344.248Z" fill="#34AC80"/>
<path d="M106.5 344.248H96V347.748H106.5V344.248Z" fill="#4BEA69"/>
<path d="M110 344.248H106.5V347.748H110V344.248Z" fill="#068940"/>
<path d="M131 344.248H110V347.748H131V344.248Z" fill="#34AC80"/>
<path d="M89 347.748H68V351.248H89V347.748Z" fill="#4BEA69"/>
<path d="M92.5 347.748H89V351.248H92.5V347.748Z" fill="#068940"/>
<path d="M96 347.748H92.5V351.248H96V347.748Z" fill="#34AC80"/>
<path d="M103 347.748H96V351.248H103V347.748Z" fill="#4BEA69"/>
<path d="M106.5 347.748H103V351.248H106.5V347.748Z" fill="#068940"/>
<path d="M127.5 347.748H106.5V351.248H127.5V347.748Z" fill="#34AC80"/>
<path d="M92.5 351.248H75V354.748H92.5V351.248Z" fill="#4BEA69"/>
<path d="M96 351.248H92.5V354.748H96V351.248Z" fill="#068940"/>
<path d="M99.5 351.248H96V354.748H99.5V351.248Z" fill="#4BEA69"/>
<path d="M103 351.248H99.5V354.748H103V351.248Z" fill="#068940"/>
<path d="M120.5 351.248H103V354.748H120.5V351.248Z" fill="#34AC80"/>
<path d="M85.5 354.748H78.5V358.248H85.5V354.748Z" fill="#34AC80"/>
<path d="M96 354.748H85.5V358.248H96V354.748Z" fill="#4BEA69"/>
<path d="M99.5 354.748H96V358.248H99.5V354.748Z" fill="#068940"/>
<path d="M110 354.748H99.5V358.248H110V354.748Z" fill="#4BEA69"/>
<path d="M117 354.748H110V358.248H117V354.748Z" fill="#34AC80"/>
<path d="M92.5 358.248H75V361.748H92.5V358.248Z" fill="#34AC80"/>
<path d="M96 358.248H92.5V361.748H96V358.248Z" fill="#068940"/>
<path d="M99.5 358.248H96V361.748H99.5V358.248Z" fill="#4BEA69"/>
<path d="M103 358.248H99.5V361.748H103V358.248Z" fill="#068940"/>
<path d="M120.5 358.248H103V361.748H120.5V358.248Z" fill="#4BEA69"/>
<path d="M89 361.748H68V365.248H89V361.748Z" fill="#34AC80"/>
<path d="M92.5 361.748H89V365.248H92.5V361.748Z" fill="#068940"/>
<path d="M99.5 361.748H92.5V365.248H99.5V361.748Z" fill="#4BEA69"/>
<path d="M103 361.748H99.5V365.248H103V361.748Z" fill="#34AC80"/>
<path d="M106.5 361.748H103V365.248H106.5V361.748Z" fill="#068940"/>
<path d="M127.5 361.748H106.5V365.248H127.5V361.748Z" fill="#4BEA69"/>
<path d="M85.5 365.248H64.5V368.748H85.5V365.248Z" fill="#34AC80"/>
<path d="M89 365.248H85.5V368.748H89V365.248Z" fill="#068940"/>
<path d="M99.5 365.248H89V368.748H99.5V365.248Z" fill="#4BEA69"/>
<path d="M106.5 365.248H99.5V368.748H106.5V365.248Z" fill="#34AC80"/>
<path d="M110 365.248H106.5V368.748H110V365.248Z" fill="#068940"/>
<path d="M131 365.248H110V368.748H131V365.248Z" fill="#4BEA69"/>
<path d="M85.5 368.748H64.5V372.248H85.5V368.748Z" fill="#34AC80"/>
<path d="M96 368.748H85.5V372.248H96V368.748Z" fill="#4BEA69"/>
<path d="M113.5 368.748H96V372.248H113.5V368.748Z" fill="#34AC80"/>
<path d="M131 368.748H113.5V372.248H131V368.748Z" fill="#4BEA69"/>
<path d="M82 372.248H64.5V375.748H82V372.248Z" fill="#34AC80"/>
<path d="M96 372.248H82V375.748H96V372.248Z" fill="#4BEA69"/>
<path d="M99.5 372.248H96V375.748H99.5V372.248Z" fill="#34AC80"/>
<path d="M117 372.248H99.5V375.748H117V372.248Z" fill="#0B5027"/>
<path d="M131 372.248H117V375.748H131V372.248Z" fill="#4BEA69"/>
<path d="M141.5 372.248H134.5V375.748H141.5V372.248Z" fill="#068940"/>
<path d="M75 375.748H68V379.248H75V375.748Z" fill="#34AC80"/>
<path d="M96 375.748H75V379.248H96V375.748Z" fill="#4BEA69"/>
<path d="M99.5 375.748H96V379.248H99.5V375.748Z" fill="#068940"/>
<path d="M117 375.748H99.5V379.248H117V375.748Z" fill="#34AC80"/>
<path d="M127.5 375.748H117V379.248H127.5V375.748Z" fill="#4BEA69"/>
<path d="M141.5 375.748H127.5V379.248H141.5V375.748Z" fill="#068940"/>
<path d="M92.5 379.248H75V382.748H92.5V379.248Z" fill="#4BEA69"/>
<path d="M103 379.248H92.5V382.748H103V379.248Z" fill="#068940"/>
<path d="M120.5 379.248H103V382.748H120.5V379.248Z" fill="#34AC80"/>
<path d="M138 379.248H120.5V382.748H138V379.248Z" fill="#068940"/>
<path d="M92.5 382.748H75V386.248H92.5V382.748Z" fill="#4BEA69"/>
<path d="M120.5 382.748H103V386.248H120.5V382.748Z" fill="#34AC80"/>
<path d="M89 386.248H78.5V389.748H89V386.248Z" fill="#4BEA69"/>
<path d="M117 386.248H106.5V389.748H117V386.248Z" fill="#34AC80"/>
<path d="M243 59.2484H232.5V62.7484H243V59.2484Z" fill="#34AC80"/>
<path d="M271 59.2484H260.5V62.7484H271V59.2484Z" fill="#4BEA69"/>
<path d="M246.5 62.7484H229V66.2484H246.5V62.7484Z" fill="#34AC80"/>
<path d="M274.5 62.7484H257V66.2484H274.5V62.7484Z" fill="#4BEA69"/>
<path d="M246.5 66.2484H229V69.7484H246.5V66.2484Z" fill="#34AC80"/>
<path d="M274.5 66.2484H257V69.7484H274.5V66.2484Z" fill="#4BEA69"/>
<path d="M232.5 69.7484H222V73.2484H232.5V69.7484Z" fill="#4BEA69"/>
<path d="M250 69.7484H232.5V73.2484H250V69.7484Z" fill="#34AC80"/>
<path d="M274.5 69.7484H253.5V73.2484H274.5V69.7484Z" fill="#4BEA69"/>
<path d="M281.5 69.7484H274.5V73.2484H281.5V69.7484Z" fill="#34AC80"/>
<path d="M232.5 73.2484H218.5V76.7484H232.5V73.2484Z" fill="#4BEA69"/>
<path d="M253.5 73.2484H232.5V76.7484H253.5V73.2484Z" fill="#34AC80"/>
<path d="M267.5 73.2484H253.5V76.7484H267.5V73.2484Z" fill="#4BEA69"/>
<path d="M285 73.2484H267.5V76.7484H285V73.2484Z" fill="#34AC80"/>
<path d="M236 76.7484H218.5V80.2484H236V76.7484Z" fill="#4BEA69"/>
<path d="M253.5 76.7484H236V80.2484H253.5V76.7484Z" fill="#34AC80"/>
<path d="M264 76.7484H253.5V80.2484H264V76.7484Z" fill="#4BEA69"/>
<path d="M285 76.7484H264V80.2484H285V76.7484Z" fill="#34AC80"/>
<path d="M239.5 80.2484H218.5V83.7484H239.5V80.2484Z" fill="#4BEA69"/>
<path d="M243 80.2484H239.5V83.7484H243V80.2484Z" fill="#068940"/>
<path d="M250 80.2484H243V83.7484H250V80.2484Z" fill="#34AC80"/>
<path d="M260.5 80.2484H250V83.7484H260.5V80.2484Z" fill="#4BEA69"/>
<path d="M264 80.2484H260.5V83.7484H264V80.2484Z" fill="#068940"/>
<path d="M285 80.2484H264V83.7484H285V80.2484Z" fill="#34AC80"/>
<path d="M243 83.7484H222V87.2484H243V83.7484Z" fill="#4BEA69"/>
<path d="M246.5 83.7484H243V87.2484H246.5V83.7484Z" fill="#068940"/>
<path d="M250 83.7484H246.5V87.2484H250V83.7484Z" fill="#34AC80"/>
<path d="M257 83.7484H250V87.2484H257V83.7484Z" fill="#4BEA69"/>
<path d="M260.5 83.7484H257V87.2484H260.5V83.7484Z" fill="#068940"/>
<path d="M281.5 83.7484H260.5V87.2484H281.5V83.7484Z" fill="#34AC80"/>
<path d="M246.5 87.2484H229V90.7484H246.5V87.2484Z" fill="#4BEA69"/>
<path d="M250 87.2484H246.5V90.7484H250V87.2484Z" fill="#068940"/>
<path d="M253.5 87.2484H250V90.7484H253.5V87.2484Z" fill="#4BEA69"/>
<path d="M257 87.2484H253.5V90.7484H257V87.2484Z" fill="#068940"/>
<path d="M274.5 87.2484H257V90.7484H274.5V87.2484Z" fill="#34AC80"/>
<path d="M239.5 90.7484H232.5V94.2484H239.5V90.7484Z" fill="#34AC80"/>
<path d="M250 90.7484H239.5V94.2484H250V90.7484Z" fill="#4BEA69"/>
<path d="M253.5 90.7484H250V94.2484H253.5V90.7484Z" fill="#068940"/>
<path d="M264 90.7484H253.5V94.2484H264V90.7484Z" fill="#4BEA69"/>
<path d="M271 90.7484H264V94.2484H271V90.7484Z" fill="#34AC80"/>
<path d="M246.5 94.2484H229V97.7484H246.5V94.2484Z" fill="#34AC80"/>
<path d="M250 94.2484H246.5V97.7484H250V94.2484Z" fill="#068940"/>
<path d="M253.5 94.2484H250V97.7484H253.5V94.2484Z" fill="#4BEA69"/>
<path d="M257 94.2484H253.5V97.7484H257V94.2484Z" fill="#068940"/>
<path d="M274.5 94.2484H257V97.7484H274.5V94.2484Z" fill="#4BEA69"/>
<path d="M243 97.7484H222V101.248H243V97.7484Z" fill="#34AC80"/>
<path d="M246.5 97.7484H243V101.248H246.5V97.7484Z" fill="#068940"/>
<path d="M253.5 97.7484H246.5V101.248H253.5V97.7484Z" fill="#4BEA69"/>
<path d="M257 97.7484H253.5V101.248H257V97.7484Z" fill="#34AC80"/>
<path d="M260.5 97.7484H257V101.248H260.5V97.7484Z" fill="#068940"/>
<path d="M281.5 97.7484H260.5V101.248H281.5V97.7484Z" fill="#4BEA69"/>
<path d="M239.5 101.248H218.5V104.748H239.5V101.248Z" fill="#34AC80"/>
<path d="M243 101.248H239.5V104.748H243V101.248Z" fill="#068940"/>
<path d="M253.5 101.248H243V104.748H253.5V101.248Z" fill="#4BEA69"/>
<path d="M260.5 101.248H253.5V104.748H260.5V101.248Z" fill="#34AC80"/>
<path d="M264 101.248H260.5V104.748H264V101.248Z" fill="#068940"/>
<path d="M285 101.248H264V104.748H285V101.248Z" fill="#4BEA69"/>
<path d="M239.5 104.748H218.5V108.248H239.5V104.748Z" fill="#34AC80"/>
<path d="M250 104.748H239.5V108.248H250V104.748Z" fill="#4BEA69"/>
<path d="M267.5 104.748H250V108.248H267.5V104.748Z" fill="#34AC80"/>
<path d="M285 104.748H267.5V108.248H285V104.748Z" fill="#4BEA69"/>
<path d="M236 108.248H218.5V111.748H236V108.248Z" fill="#34AC80"/>
<path d="M250 108.248H236V111.748H250V108.248Z" fill="#4BEA69"/>
<path d="M253.5 108.248H250V111.748H253.5V108.248Z" fill="#34AC80"/>
<path d="M271 108.248H253.5V111.748H271V108.248Z" fill="#0B5027"/>
<path d="M285 108.248H271V111.748H285V108.248Z" fill="#4BEA69"/>
<path d="M295.5 108.248H288.5V111.748H295.5V108.248Z" fill="#068940"/>
<path d="M229 111.748H222V115.248H229V111.748Z" fill="#34AC80"/>
<path d="M250 111.748H229V115.248H250V111.748Z" fill="#4BEA69"/>
<path d="M253.5 111.748H250V115.248H253.5V111.748Z" fill="#068940"/>
<path d="M271 111.748H253.5V115.248H271V111.748Z" fill="#34AC80"/>
<path d="M281.5 111.748H271V115.248H281.5V111.748Z" fill="#4BEA69"/>
<path d="M295.5 111.748H281.5V115.248H295.5V111.748Z" fill="#068940"/>
<path d="M246.5 115.248H229V118.748H246.5V115.248Z" fill="#4BEA69"/>
<path d="M257 115.248H246.5V118.748H257V115.248Z" fill="#068940"/>
<path d="M274.5 115.248H257V118.748H274.5V115.248Z" fill="#34AC80"/>
<path d="M292 115.248H274.5V118.748H292V115.248Z" fill="#068940"/>
<path d="M246.5 118.748H229V122.248H246.5V118.748Z" fill="#4BEA69"/>
<path d="M274.5 118.748H257V122.248H274.5V118.748Z" fill="#34AC80"/>
<path d="M243 122.248H232.5V125.748H243V122.248Z" fill="#4BEA69"/>
<path d="M271 122.248H260.5V125.748H271V122.248Z" fill="#34AC80"/>
<path d="M75.3438 126V117.914L95.2656 99.2812C97.7135 97.0156 99.5625 95.1276 100.812 93.6172C102.062 92.1068 102.909 90.7526 103.352 89.5547C103.82 88.3568 104.055 87.1068 104.055 85.8047V85.7266C104.055 84.1901 103.69 82.8359 102.961 81.6641C102.232 80.4661 101.216 79.5286 99.9141 78.8516C98.638 78.1745 97.1667 77.8359 95.5 77.8359C93.5729 77.8359 91.8802 78.2266 90.4219 79.0078C88.9635 79.763 87.8177 80.8177 86.9844 82.1719C86.151 83.5 85.7083 85.0104 85.6562 86.7031L85.6172 87.0547H74.6797V86.7422C74.6797 83.2005 75.5781 80.0755 77.375 77.3672C79.1719 74.6328 81.6328 72.4974 84.7578 70.9609C87.9089 69.4245 91.4635 68.6562 95.4219 68.6562C99.4062 68.6562 102.909 69.3594 105.93 70.7656C108.951 72.1458 111.307 74.0729 113 76.5469C114.693 79.0208 115.539 81.8594 115.539 85.0625V85.1406C115.539 87.4062 115.122 89.5156 114.289 91.4688C113.482 93.3958 112.141 95.4531 110.266 97.6406C108.391 99.8021 105.826 102.38 102.57 105.375L86.2422 120.258L90.7734 112.328V120.258L86.2812 116.625H116.32V126H75.3438Z" fill="#4BEA69"/>
<path d="M232.344 385.248V377.162L252.266 358.53C254.714 356.264 256.562 354.376 257.812 352.866C259.062 351.355 259.909 350.001 260.352 348.803C260.82 347.605 261.055 346.355 261.055 345.053V344.975C261.055 343.439 260.69 342.084 259.961 340.912C259.232 339.715 258.216 338.777 256.914 338.1C255.638 337.423 254.167 337.084 252.5 337.084C250.573 337.084 248.88 337.475 247.422 338.256C245.964 339.011 244.818 340.066 243.984 341.42C243.151 342.748 242.708 344.259 242.656 345.952L242.617 346.303H231.68V345.991C231.68 342.449 232.578 339.324 234.375 336.616C236.172 333.881 238.633 331.746 241.758 330.209C244.909 328.673 248.464 327.905 252.422 327.905C256.406 327.905 259.909 328.608 262.93 330.014C265.951 331.394 268.307 333.321 270 335.795C271.693 338.269 272.539 341.108 272.539 344.311V344.389C272.539 346.655 272.122 348.764 271.289 350.717C270.482 352.644 269.141 354.702 267.266 356.889C265.391 359.05 262.826 361.629 259.57 364.623L243.242 379.506L247.773 371.577V379.506L243.281 375.873H273.32V385.248H232.344Z" fill="#4BEA69"/>
<defs>
<filter id="filter0_d_10_30505" x="0" y="0" width="348" height="462" filterUnits="userSpaceOnUse" color-interpolation-filters="sRGB">
<feFlood flood-opacity="0" result="BackgroundImageFix"/>
<feColorMatrix in="SourceAlpha" type="matrix" values="0 0 0 0 0 0 0 0 0 0 0 0 0 0 0 0 0 0 127 0" result="hardAlpha"/>
<feOffset dy="5"/>
<feGaussianBlur stdDeviation="17"/>
<feColorMatrix type="matrix" values="0 0 0 0 0 0 0 0 0 0 0 0 0 0 0 0 0 0 0.1 0"/>
<feBlend mode="normal" in2="BackgroundImageFix" result="effect1_dropShadow_10_30505"/>
<feBlend mode="normal" in="SourceGraphic" in2="effect1_dropShadow_10_30505" result="shape"/>
</filter>
</defs>
</svg>
