<svg width="348" height="462" viewBox="0 0 348 462" fill="none" xmlns="http://www.w3.org/2000/svg">
<g filter="url(#filter0_d_10_24964)">
<rect x="34" y="29" width="280" height="394" rx="20" fill="#F2F2F2"/>
<rect x="34.5" y="29.5" width="279" height="393" rx="19.5" stroke="#D2D2D2"/>
</g>
<path d="M89 323.248H78.5V326.748H89V323.248Z" fill="#34AC80"/>
<path d="M117 323.248H106.5V326.748H117V323.248Z" fill="#4BEA69"/>
<path d="M92.5 326.748H75V330.248H92.5V326.748Z" fill="#34AC80"/>
<path d="M120.5 326.748H103V330.248H120.5V326.748Z" fill="#4BEA69"/>
<path d="M92.5 330.248H75V333.748H92.5V330.248Z" fill="#34AC80"/>
<path d="M120.5 330.248H103V333.748H120.5V330.248Z" fill="#4BEA69"/>
<path d="M78.5 333.748H68V337.248H78.5V333.748Z" fill="#4BEA69"/>
<path d="M96 333.748H78.5V337.248H96V333.748Z" fill="#34AC80"/>
<path d="M120.5 333.748H99.5V337.248H120.5V333.748Z" fill="#4BEA69"/>
<path d="M127.5 333.748H120.5V337.248H127.5V333.748Z" fill="#34AC80"/>
<path d="M78.5 337.248H64.5V340.748H78.5V337.248Z" fill="#4BEA69"/>
<path d="M99.5 337.248H78.5V340.748H99.5V337.248Z" fill="#34AC80"/>
<path d="M113.5 337.248H99.5V340.748H113.5V337.248Z" fill="#4BEA69"/>
<path d="M131 337.248H113.5V340.748H131V337.248Z" fill="#34AC80"/>
<path d="M82 340.748H64.5V344.248H82V340.748Z" fill="#4BEA69"/>
<path d="M99.5 340.748H82V344.248H99.5V340.748Z" fill="#34AC80"/>
<path d="M110 340.748H99.5V344.248H110V340.748Z" fill="#4BEA69"/>
<path d="M131 340.748H110V344.248H131V340.748Z" fill="#34AC80"/>
<path d="M85.5 344.248H64.5V347.748H85.5V344.248Z" fill="#4BEA69"/>
<path d="M89 344.248H85.5V347.748H89V344.248Z" fill="#068940"/>
<path d="M96 344.248H89V347.748H96V344.248Z" fill="#34AC80"/>
<path d="M106.5 344.248H96V347.748H106.5V344.248Z" fill="#4BEA69"/>
<path d="M110 344.248H106.5V347.748H110V344.248Z" fill="#068940"/>
<path d="M131 344.248H110V347.748H131V344.248Z" fill="#34AC80"/>
<path d="M89 347.748H68V351.248H89V347.748Z" fill="#4BEA69"/>
<path d="M92.5 347.748H89V351.248H92.5V347.748Z" fill="#068940"/>
<path d="M96 347.748H92.5V351.248H96V347.748Z" fill="#34AC80"/>
<path d="M103 347.748H96V351.248H103V347.748Z" fill="#4BEA69"/>
<path d="M106.5 347.748H103V351.248H106.5V347.748Z" fill="#068940"/>
<path d="M127.5 347.748H106.5V351.248H127.5V347.748Z" fill="#34AC80"/>
<path d="M92.5 351.248H75V354.748H92.5V351.248Z" fill="#4BEA69"/>
<path d="M96 351.248H92.5V354.748H96V351.248Z" fill="#068940"/>
<path d="M99.5 351.248H96V354.748H99.5V351.248Z" fill="#4BEA69"/>
<path d="M103 351.248H99.5V354.748H103V351.248Z" fill="#068940"/>
<path d="M120.5 351.248H103V354.748H120.5V351.248Z" fill="#34AC80"/>
<path d="M85.5 354.748H78.5V358.248H85.5V354.748Z" fill="#34AC80"/>
<path d="M96 354.748H85.5V358.248H96V354.748Z" fill="#4BEA69"/>
<path d="M99.5 354.748H96V358.248H99.5V354.748Z" fill="#068940"/>
<path d="M110 354.748H99.5V358.248H110V354.748Z" fill="#4BEA69"/>
<path d="M117 354.748H110V358.248H117V354.748Z" fill="#34AC80"/>
<path d="M92.5 358.248H75V361.748H92.5V358.248Z" fill="#34AC80"/>
<path d="M96 358.248H92.5V361.748H96V358.248Z" fill="#068940"/>
<path d="M99.5 358.248H96V361.748H99.5V358.248Z" fill="#4BEA69"/>
<path d="M103 358.248H99.5V361.748H103V358.248Z" fill="#068940"/>
<path d="M120.5 358.248H103V361.748H120.5V358.248Z" fill="#4BEA69"/>
<path d="M89 361.748H68V365.248H89V361.748Z" fill="#34AC80"/>
<path d="M92.5 361.748H89V365.248H92.5V361.748Z" fill="#068940"/>
<path d="M99.5 361.748H92.5V365.248H99.5V361.748Z" fill="#4BEA69"/>
<path d="M103 361.748H99.5V365.248H103V361.748Z" fill="#34AC80"/>
<path d="M106.5 361.748H103V365.248H106.5V361.748Z" fill="#068940"/>
<path d="M127.5 361.748H106.5V365.248H127.5V361.748Z" fill="#4BEA69"/>
<path d="M85.5 365.248H64.5V368.748H85.5V365.248Z" fill="#34AC80"/>
<path d="M89 365.248H85.5V368.748H89V365.248Z" fill="#068940"/>
<path d="M99.5 365.248H89V368.748H99.5V365.248Z" fill="#4BEA69"/>
<path d="M106.5 365.248H99.5V368.748H106.5V365.248Z" fill="#34AC80"/>
<path d="M110 365.248H106.5V368.748H110V365.248Z" fill="#068940"/>
<path d="M131 365.248H110V368.748H131V365.248Z" fill="#4BEA69"/>
<path d="M85.5 368.748H64.5V372.248H85.5V368.748Z" fill="#34AC80"/>
<path d="M96 368.748H85.5V372.248H96V368.748Z" fill="#4BEA69"/>
<path d="M113.5 368.748H96V372.248H113.5V368.748Z" fill="#34AC80"/>
<path d="M131 368.748H113.5V372.248H131V368.748Z" fill="#4BEA69"/>
<path d="M82 372.248H64.5V375.748H82V372.248Z" fill="#34AC80"/>
<path d="M96 372.248H82V375.748H96V372.248Z" fill="#4BEA69"/>
<path d="M99.5 372.248H96V375.748H99.5V372.248Z" fill="#34AC80"/>
<path d="M117 372.248H99.5V375.748H117V372.248Z" fill="#0B5027"/>
<path d="M131 372.248H117V375.748H131V372.248Z" fill="#4BEA69"/>
<path d="M141.5 372.248H134.5V375.748H141.5V372.248Z" fill="#068940"/>
<path d="M75 375.748H68V379.248H75V375.748Z" fill="#34AC80"/>
<path d="M96 375.748H75V379.248H96V375.748Z" fill="#4BEA69"/>
<path d="M99.5 375.748H96V379.248H99.5V375.748Z" fill="#068940"/>
<path d="M117 375.748H99.5V379.248H117V375.748Z" fill="#34AC80"/>
<path d="M127.5 375.748H117V379.248H127.5V375.748Z" fill="#4BEA69"/>
<path d="M141.5 375.748H127.5V379.248H141.5V375.748Z" fill="#068940"/>
<path d="M92.5 379.248H75V382.748H92.5V379.248Z" fill="#4BEA69"/>
<path d="M103 379.248H92.5V382.748H103V379.248Z" fill="#068940"/>
<path d="M120.5 379.248H103V382.748H120.5V379.248Z" fill="#34AC80"/>
<path d="M138 379.248H120.5V382.748H138V379.248Z" fill="#068940"/>
<path d="M92.5 382.748H75V386.248H92.5V382.748Z" fill="#4BEA69"/>
<path d="M120.5 382.748H103V386.248H120.5V382.748Z" fill="#34AC80"/>
<path d="M89 386.248H78.5V389.748H89V386.248Z" fill="#4BEA69"/>
<path d="M117 386.248H106.5V389.748H117V386.248Z" fill="#34AC80"/>
<path d="M243 59.2484H232.5V62.7484H243V59.2484Z" fill="#34AC80"/>
<path d="M271 59.2484H260.5V62.7484H271V59.2484Z" fill="#4BEA69"/>
<path d="M246.5 62.7484H229V66.2484H246.5V62.7484Z" fill="#34AC80"/>
<path d="M274.5 62.7484H257V66.2484H274.5V62.7484Z" fill="#4BEA69"/>
<path d="M246.5 66.2484H229V69.7484H246.5V66.2484Z" fill="#34AC80"/>
<path d="M274.5 66.2484H257V69.7484H274.5V66.2484Z" fill="#4BEA69"/>
<path d="M232.5 69.7484H222V73.2484H232.5V69.7484Z" fill="#4BEA69"/>
<path d="M250 69.7484H232.5V73.2484H250V69.7484Z" fill="#34AC80"/>
<path d="M274.5 69.7484H253.5V73.2484H274.5V69.7484Z" fill="#4BEA69"/>
<path d="M281.5 69.7484H274.5V73.2484H281.5V69.7484Z" fill="#34AC80"/>
<path d="M232.5 73.2484H218.5V76.7484H232.5V73.2484Z" fill="#4BEA69"/>
<path d="M253.5 73.2484H232.5V76.7484H253.5V73.2484Z" fill="#34AC80"/>
<path d="M267.5 73.2484H253.5V76.7484H267.5V73.2484Z" fill="#4BEA69"/>
<path d="M285 73.2484H267.5V76.7484H285V73.2484Z" fill="#34AC80"/>
<path d="M236 76.7484H218.5V80.2484H236V76.7484Z" fill="#4BEA69"/>
<path d="M253.5 76.7484H236V80.2484H253.5V76.7484Z" fill="#34AC80"/>
<path d="M264 76.7484H253.5V80.2484H264V76.7484Z" fill="#4BEA69"/>
<path d="M285 76.7484H264V80.2484H285V76.7484Z" fill="#34AC80"/>
<path d="M239.5 80.2484H218.5V83.7484H239.5V80.2484Z" fill="#4BEA69"/>
<path d="M243 80.2484H239.5V83.7484H243V80.2484Z" fill="#068940"/>
<path d="M250 80.2484H243V83.7484H250V80.2484Z" fill="#34AC80"/>
<path d="M260.5 80.2484H250V83.7484H260.5V80.2484Z" fill="#4BEA69"/>
<path d="M264 80.2484H260.5V83.7484H264V80.2484Z" fill="#068940"/>
<path d="M285 80.2484H264V83.7484H285V80.2484Z" fill="#34AC80"/>
<path d="M243 83.7484H222V87.2484H243V83.7484Z" fill="#4BEA69"/>
<path d="M246.5 83.7484H243V87.2484H246.5V83.7484Z" fill="#068940"/>
<path d="M250 83.7484H246.5V87.2484H250V83.7484Z" fill="#34AC80"/>
<path d="M257 83.7484H250V87.2484H257V83.7484Z" fill="#4BEA69"/>
<path d="M260.5 83.7484H257V87.2484H260.5V83.7484Z" fill="#068940"/>
<path d="M281.5 83.7484H260.5V87.2484H281.5V83.7484Z" fill="#34AC80"/>
<path d="M246.5 87.2484H229V90.7484H246.5V87.2484Z" fill="#4BEA69"/>
<path d="M250 87.2484H246.5V90.7484H250V87.2484Z" fill="#068940"/>
<path d="M253.5 87.2484H250V90.7484H253.5V87.2484Z" fill="#4BEA69"/>
<path d="M257 87.2484H253.5V90.7484H257V87.2484Z" fill="#068940"/>
<path d="M274.5 87.2484H257V90.7484H274.5V87.2484Z" fill="#34AC80"/>
<path d="M239.5 90.7484H232.5V94.2484H239.5V90.7484Z" fill="#34AC80"/>
<path d="M250 90.7484H239.5V94.2484H250V90.7484Z" fill="#4BEA69"/>
<path d="M253.5 90.7484H250V94.2484H253.5V90.7484Z" fill="#068940"/>
<path d="M264 90.7484H253.5V94.2484H264V90.7484Z" fill="#4BEA69"/>
<path d="M271 90.7484H264V94.2484H271V90.7484Z" fill="#34AC80"/>
<path d="M246.5 94.2484H229V97.7484H246.5V94.2484Z" fill="#34AC80"/>
<path d="M250 94.2484H246.5V97.7484H250V94.2484Z" fill="#068940"/>
<path d="M253.5 94.2484H250V97.7484H253.5V94.2484Z" fill="#4BEA69"/>
<path d="M257 94.2484H253.5V97.7484H257V94.2484Z" fill="#068940"/>
<path d="M274.5 94.2484H257V97.7484H274.5V94.2484Z" fill="#4BEA69"/>
<path d="M243 97.7484H222V101.248H243V97.7484Z" fill="#34AC80"/>
<path d="M246.5 97.7484H243V101.248H246.5V97.7484Z" fill="#068940"/>
<path d="M253.5 97.7484H246.5V101.248H253.5V97.7484Z" fill="#4BEA69"/>
<path d="M257 97.7484H253.5V101.248H257V97.7484Z" fill="#34AC80"/>
<path d="M260.5 97.7484H257V101.248H260.5V97.7484Z" fill="#068940"/>
<path d="M281.5 97.7484H260.5V101.248H281.5V97.7484Z" fill="#4BEA69"/>
<path d="M239.5 101.248H218.5V104.748H239.5V101.248Z" fill="#34AC80"/>
<path d="M243 101.248H239.5V104.748H243V101.248Z" fill="#068940"/>
<path d="M253.5 101.248H243V104.748H253.5V101.248Z" fill="#4BEA69"/>
<path d="M260.5 101.248H253.5V104.748H260.5V101.248Z" fill="#34AC80"/>
<path d="M264 101.248H260.5V104.748H264V101.248Z" fill="#068940"/>
<path d="M285 101.248H264V104.748H285V101.248Z" fill="#4BEA69"/>
<path d="M239.5 104.748H218.5V108.248H239.5V104.748Z" fill="#34AC80"/>
<path d="M250 104.748H239.5V108.248H250V104.748Z" fill="#4BEA69"/>
<path d="M267.5 104.748H250V108.248H267.5V104.748Z" fill="#34AC80"/>
<path d="M285 104.748H267.5V108.248H285V104.748Z" fill="#4BEA69"/>
<path d="M236 108.248H218.5V111.748H236V108.248Z" fill="#34AC80"/>
<path d="M250 108.248H236V111.748H250V108.248Z" fill="#4BEA69"/>
<path d="M253.5 108.248H250V111.748H253.5V108.248Z" fill="#34AC80"/>
<path d="M271 108.248H253.5V111.748H271V108.248Z" fill="#0B5027"/>
<path d="M285 108.248H271V111.748H285V108.248Z" fill="#4BEA69"/>
<path d="M295.5 108.248H288.5V111.748H295.5V108.248Z" fill="#068940"/>
<path d="M229 111.748H222V115.248H229V111.748Z" fill="#34AC80"/>
<path d="M250 111.748H229V115.248H250V111.748Z" fill="#4BEA69"/>
<path d="M253.5 111.748H250V115.248H253.5V111.748Z" fill="#068940"/>
<path d="M271 111.748H253.5V115.248H271V111.748Z" fill="#34AC80"/>
<path d="M281.5 111.748H271V115.248H281.5V111.748Z" fill="#4BEA69"/>
<path d="M295.5 111.748H281.5V115.248H295.5V111.748Z" fill="#068940"/>
<path d="M246.5 115.248H229V118.748H246.5V115.248Z" fill="#4BEA69"/>
<path d="M257 115.248H246.5V118.748H257V115.248Z" fill="#068940"/>
<path d="M274.5 115.248H257V118.748H274.5V115.248Z" fill="#34AC80"/>
<path d="M292 115.248H274.5V118.748H292V115.248Z" fill="#068940"/>
<path d="M246.5 118.748H229V122.248H246.5V118.748Z" fill="#4BEA69"/>
<path d="M274.5 118.748H257V122.248H274.5V118.748Z" fill="#34AC80"/>
<path d="M243 122.248H232.5V125.748H243V122.248Z" fill="#4BEA69"/>
<path d="M271 122.248H260.5V125.748H271V122.248Z" fill="#34AC80"/>
<path d="M95.5 126.977C89.9271 126.977 85.0964 125.792 81.0078 123.422C76.9453 121.052 73.8073 117.693 71.5938 113.344C69.4062 108.969 68.3125 103.799 68.3125 97.8359V97.7578C68.3125 91.7682 69.4193 86.599 71.6328 82.25C73.8464 77.901 76.9844 74.5547 81.0469 72.2109C85.1354 69.8411 89.9531 68.6562 95.5 68.6562C101.073 68.6562 105.891 69.8411 109.953 72.2109C114.016 74.5807 117.154 77.9401 119.367 82.2891C121.581 86.612 122.688 91.7682 122.688 97.7578V97.8359C122.688 103.799 121.581 108.969 119.367 113.344C117.154 117.693 114.016 121.052 109.953 123.422C105.917 125.792 101.099 126.977 95.5 126.977ZM95.5 116.977C98.625 116.977 101.307 116.195 103.547 114.633C105.812 113.044 107.557 110.818 108.781 107.953C110.005 105.089 110.617 101.716 110.617 97.8359V97.7578C110.617 93.8255 109.992 90.4401 108.742 87.6016C107.518 84.737 105.773 82.5365 103.508 81C101.242 79.4375 98.5729 78.6562 95.5 78.6562C92.4271 78.6562 89.7578 79.4245 87.4922 80.9609C85.2266 82.4974 83.4688 84.6979 82.2188 87.5625C80.9688 90.401 80.3438 93.7995 80.3438 97.7578V97.8359C80.3438 101.742 80.9557 105.128 82.1797 107.992C83.4297 110.857 85.1875 113.07 87.4531 114.633C89.7188 116.195 92.401 116.977 95.5 116.977ZM109.562 131.273L92.1406 106.664H103.352L120.773 131.273H109.562Z" fill="#4BEA69"/>
<path d="M252.5 386.225C246.927 386.225 242.096 385.04 238.008 382.67C233.945 380.3 230.807 376.941 228.594 372.592C226.406 368.217 225.312 363.048 225.312 357.084V357.006C225.312 351.017 226.419 345.847 228.633 341.498C230.846 337.149 233.984 333.803 238.047 331.459C242.135 329.09 246.953 327.905 252.5 327.905C258.073 327.905 262.891 329.09 266.953 331.459C271.016 333.829 274.154 337.189 276.367 341.537C278.581 345.86 279.688 351.017 279.688 357.006V357.084C279.688 363.048 278.581 368.217 276.367 372.592C274.154 376.941 271.016 380.3 266.953 382.67C262.917 385.04 258.099 386.225 252.5 386.225ZM252.5 376.225C255.625 376.225 258.307 375.444 260.547 373.881C262.812 372.293 264.557 370.066 265.781 367.202C267.005 364.337 267.617 360.965 267.617 357.084V357.006C267.617 353.074 266.992 349.689 265.742 346.85C264.518 343.985 262.773 341.785 260.508 340.248C258.242 338.686 255.573 337.905 252.5 337.905C249.427 337.905 246.758 338.673 244.492 340.209C242.227 341.746 240.469 343.946 239.219 346.811C237.969 349.649 237.344 353.048 237.344 357.006V357.084C237.344 360.991 237.956 364.376 239.18 367.241C240.43 370.105 242.188 372.319 244.453 373.881C246.719 375.444 249.401 376.225 252.5 376.225ZM266.562 390.522L249.141 365.912H260.352L277.773 390.522H266.562Z" fill="#4BEA69"/>
<path d="M191.406 167.906H155.594V173.875H191.406V167.906Z" fill="#2B83F6"/>
<path d="M203.344 173.875H143.656V179.844H203.344V173.875Z" fill="#2B83F6"/>
<path d="M149.625 179.844H131.719V185.812H149.625V179.844Z" fill="#2B83F6"/>
<path d="M155.594 179.844H149.625V185.812H155.594V179.844Z" fill="#4BEA69"/>
<path d="M185.438 179.844H155.594V185.812H185.438V179.844Z" fill="#2B83F6"/>
<path d="M191.406 179.844H185.438V185.812H191.406V179.844Z" fill="#4BEA69"/>
<path d="M203.344 179.844H191.406V185.812H203.344V179.844Z" fill="#2B83F6"/>
<path d="M215.281 179.844H203.344V185.812H215.281V179.844Z" fill="#4BEA69"/>
<path d="M137.688 185.812H125.75V191.781H137.688V185.812Z" fill="#2B83F6"/>
<path d="M155.594 185.812H137.688V191.781H155.594V185.812Z" fill="#4BEA69"/>
<path d="M185.438 185.812H155.594V191.781H185.438V185.812Z" fill="#2B83F6"/>
<path d="M221.25 185.812H185.438V191.781H221.25V185.812Z" fill="#4BEA69"/>
<path d="M137.688 191.781H125.75V197.75H137.688V191.781Z" fill="#2B83F6"/>
<path d="M149.625 191.781H137.688V197.75H149.625V191.781Z" fill="#4BEA69"/>
<path d="M179.469 191.781H149.625V197.75H179.469V191.781Z" fill="#2B83F6"/>
<path d="M221.25 191.781H179.469V197.75H221.25V191.781Z" fill="#4BEA69"/>
<path d="M125.75 197.75H119.781V203.719H125.75V197.75Z" fill="#4BEA69"/>
<path d="M137.688 197.75H125.75V203.719H137.688V197.75Z" fill="#2B83F6"/>
<path d="M155.594 197.75H137.688V203.719H155.594V197.75Z" fill="#4BEA69"/>
<path d="M173.5 197.75H155.594V203.719H173.5V197.75Z" fill="#2B83F6"/>
<path d="M227.219 197.75H173.5V203.719H227.219V197.75Z" fill="#4BEA69"/>
<path d="M131.719 203.719H119.781V209.688H131.719V203.719Z" fill="#4BEA69"/>
<path d="M143.656 203.719H131.719V209.688H143.656V203.719Z" fill="#2B83F6"/>
<path d="M149.625 203.719H143.656V209.688H149.625V203.719Z" fill="#4BEA69"/>
<path d="M173.5 203.719H149.625V209.688H173.5V203.719Z" fill="#2B83F6"/>
<path d="M227.219 203.719H173.5V209.688H227.219V203.719Z" fill="#4BEA69"/>
<path d="M131.719 209.688H113.812V215.656H131.719V209.688Z" fill="#4BEA69"/>
<path d="M179.469 209.688H131.719V215.656H179.469V209.688Z" fill="#2B83F6"/>
<path d="M233.188 209.688H179.469V215.656H233.188V209.688Z" fill="#4BEA69"/>
<path d="M131.719 215.656H113.812V221.625H131.719V215.656Z" fill="#4BEA69"/>
<path d="M209.312 215.656H131.719V221.625H209.312V215.656Z" fill="#2B83F6"/>
<path d="M233.188 215.656H209.312V221.625H233.188V215.656Z" fill="#4BEA69"/>
<path d="M137.688 221.625H113.812V227.594H137.688V221.625Z" fill="#4BEA69"/>
<path d="M179.469 221.625H137.688V227.594H179.469V221.625Z" fill="#2B83F6"/>
<path d="M233.188 221.625H179.469V227.594H233.188V221.625Z" fill="#4BEA69"/>
<path d="M143.656 227.594H113.812V233.562H143.656V227.594Z" fill="#4BEA69"/>
<path d="M173.5 227.594H143.656V233.562H173.5V227.594Z" fill="#2B83F6"/>
<path d="M227.219 227.594H173.5V233.562H227.219V227.594Z" fill="#4BEA69"/>
<path d="M233.188 227.594H227.219V233.562H233.188V227.594Z" fill="#2B83F6"/>
<path d="M149.625 233.562H113.812V239.531H149.625V233.562Z" fill="#4BEA69"/>
<path d="M173.5 233.562H149.625V239.531H173.5V233.562Z" fill="#2B83F6"/>
<path d="M221.25 233.562H173.5V239.531H221.25V233.562Z" fill="#4BEA69"/>
<path d="M233.188 233.562H221.25V239.531H233.188V233.562Z" fill="#2B83F6"/>
<path d="M149.625 239.531H113.812V245.5H149.625V239.531Z" fill="#4BEA69"/>
<path d="M173.5 239.531H149.625V245.5H173.5V239.531Z" fill="#2B83F6"/>
<path d="M215.281 239.531H173.5V245.5H215.281V239.531Z" fill="#4BEA69"/>
<path d="M233.188 239.531H215.281V245.5H233.188V239.531Z" fill="#2B83F6"/>
<path d="M137.688 245.5H119.781V251.469H137.688V245.5Z" fill="#4BEA69"/>
<path d="M173.5 245.5H137.688V251.469H173.5V245.5Z" fill="#2B83F6"/>
<path d="M215.281 245.5H173.5V251.469H215.281V245.5Z" fill="#4BEA69"/>
<path d="M227.219 245.5H215.281V251.469H227.219V245.5Z" fill="#2B83F6"/>
<path d="M131.719 251.469H119.781V257.438H131.719V251.469Z" fill="#4BEA69"/>
<path d="M179.469 251.469H131.719V257.438H179.469V251.469Z" fill="#2B83F6"/>
<path d="M203.344 251.469H179.469V257.438H203.344V251.469Z" fill="#4BEA69"/>
<path d="M227.219 251.469H203.344V257.438H227.219V251.469Z" fill="#2B83F6"/>
<path d="M131.719 257.438H125.75V263.406H131.719V257.438Z" fill="#4BEA69"/>
<path d="M185.438 257.438H131.719V263.406H185.438V257.438Z" fill="#2B83F6"/>
<path d="M209.312 257.438H185.438V263.406H209.312V257.438Z" fill="#4BEA69"/>
<path d="M221.25 257.438H209.312V263.406H221.25V257.438Z" fill="#2B83F6"/>
<path d="M131.719 263.406H125.75V269.375H131.719V263.406Z" fill="#4BEA69"/>
<path d="M155.594 263.406H131.719V269.375H155.594V263.406Z" fill="#2B83F6"/>
<path d="M203.344 263.406H155.594V269.375H203.344V263.406Z" fill="#4BEA69"/>
<path d="M221.25 263.406H203.344V269.375H221.25V263.406Z" fill="#2B83F6"/>
<path d="M215.281 269.375H131.719V275.344H215.281V269.375Z" fill="#2B83F6"/>
<path d="M203.344 275.344H143.656V281.312H203.344V275.344Z" fill="#2B83F6"/>
<path d="M191.406 281.312H155.594V287.281H191.406V281.312Z" fill="#2B83F6"/>
<defs>
<filter id="filter0_d_10_24964" x="0" y="0" width="348" height="462" filterUnits="userSpaceOnUse" color-interpolation-filters="sRGB">
<feFlood flood-opacity="0" result="BackgroundImageFix"/>
<feColorMatrix in="SourceAlpha" type="matrix" values="0 0 0 0 0 0 0 0 0 0 0 0 0 0 0 0 0 0 127 0" result="hardAlpha"/>
<feOffset dy="5"/>
<feGaussianBlur stdDeviation="17"/>
<feColorMatrix type="matrix" values="0 0 0 0 0 0 0 0 0 0 0 0 0 0 0 0 0 0 0.1 0"/>
<feBlend mode="normal" in2="BackgroundImageFix" result="effect1_dropShadow_10_24964"/>
<feBlend mode="normal" in="SourceGraphic" in2="effect1_dropShadow_10_24964" result="shape"/>
</filter>
</defs>
</svg>
