<svg width="348" height="462" viewBox="0 0 348 462" fill="none" xmlns="http://www.w3.org/2000/svg">
<g filter="url(#filter0_d_10_26166)">
<rect x="34" y="29" width="280" height="394" rx="20" fill="#F2F2F2"/>
<rect x="34.5" y="29.5" width="279" height="393" rx="19.5" stroke="#D2D2D2"/>
</g>
<path d="M89 323.248H78.5V326.748H89V323.248Z" fill="#34AC80"/>
<path d="M117 323.248H106.5V326.748H117V323.248Z" fill="#4BEA69"/>
<path d="M92.5 326.748H75V330.248H92.5V326.748Z" fill="#34AC80"/>
<path d="M120.5 326.748H103V330.248H120.5V326.748Z" fill="#4BEA69"/>
<path d="M92.5 330.248H75V333.748H92.5V330.248Z" fill="#34AC80"/>
<path d="M120.5 330.248H103V333.748H120.5V330.248Z" fill="#4BEA69"/>
<path d="M78.5 333.748H68V337.248H78.5V333.748Z" fill="#4BEA69"/>
<path d="M96 333.748H78.5V337.248H96V333.748Z" fill="#34AC80"/>
<path d="M120.5 333.748H99.5V337.248H120.5V333.748Z" fill="#4BEA69"/>
<path d="M127.5 333.748H120.5V337.248H127.5V333.748Z" fill="#34AC80"/>
<path d="M78.5 337.248H64.5V340.748H78.5V337.248Z" fill="#4BEA69"/>
<path d="M99.5 337.248H78.5V340.748H99.5V337.248Z" fill="#34AC80"/>
<path d="M113.5 337.248H99.5V340.748H113.5V337.248Z" fill="#4BEA69"/>
<path d="M131 337.248H113.5V340.748H131V337.248Z" fill="#34AC80"/>
<path d="M82 340.748H64.5V344.248H82V340.748Z" fill="#4BEA69"/>
<path d="M99.5 340.748H82V344.248H99.5V340.748Z" fill="#34AC80"/>
<path d="M110 340.748H99.5V344.248H110V340.748Z" fill="#4BEA69"/>
<path d="M131 340.748H110V344.248H131V340.748Z" fill="#34AC80"/>
<path d="M85.5 344.248H64.5V347.748H85.5V344.248Z" fill="#4BEA69"/>
<path d="M89 344.248H85.5V347.748H89V344.248Z" fill="#068940"/>
<path d="M96 344.248H89V347.748H96V344.248Z" fill="#34AC80"/>
<path d="M106.5 344.248H96V347.748H106.5V344.248Z" fill="#4BEA69"/>
<path d="M110 344.248H106.5V347.748H110V344.248Z" fill="#068940"/>
<path d="M131 344.248H110V347.748H131V344.248Z" fill="#34AC80"/>
<path d="M89 347.748H68V351.248H89V347.748Z" fill="#4BEA69"/>
<path d="M92.5 347.748H89V351.248H92.5V347.748Z" fill="#068940"/>
<path d="M96 347.748H92.5V351.248H96V347.748Z" fill="#34AC80"/>
<path d="M103 347.748H96V351.248H103V347.748Z" fill="#4BEA69"/>
<path d="M106.5 347.748H103V351.248H106.5V347.748Z" fill="#068940"/>
<path d="M127.5 347.748H106.5V351.248H127.5V347.748Z" fill="#34AC80"/>
<path d="M92.5 351.248H75V354.748H92.5V351.248Z" fill="#4BEA69"/>
<path d="M96 351.248H92.5V354.748H96V351.248Z" fill="#068940"/>
<path d="M99.5 351.248H96V354.748H99.5V351.248Z" fill="#4BEA69"/>
<path d="M103 351.248H99.5V354.748H103V351.248Z" fill="#068940"/>
<path d="M120.5 351.248H103V354.748H120.5V351.248Z" fill="#34AC80"/>
<path d="M85.5 354.748H78.5V358.248H85.5V354.748Z" fill="#34AC80"/>
<path d="M96 354.748H85.5V358.248H96V354.748Z" fill="#4BEA69"/>
<path d="M99.5 354.748H96V358.248H99.5V354.748Z" fill="#068940"/>
<path d="M110 354.748H99.5V358.248H110V354.748Z" fill="#4BEA69"/>
<path d="M117 354.748H110V358.248H117V354.748Z" fill="#34AC80"/>
<path d="M92.5 358.248H75V361.748H92.5V358.248Z" fill="#34AC80"/>
<path d="M96 358.248H92.5V361.748H96V358.248Z" fill="#068940"/>
<path d="M99.5 358.248H96V361.748H99.5V358.248Z" fill="#4BEA69"/>
<path d="M103 358.248H99.5V361.748H103V358.248Z" fill="#068940"/>
<path d="M120.5 358.248H103V361.748H120.5V358.248Z" fill="#4BEA69"/>
<path d="M89 361.748H68V365.248H89V361.748Z" fill="#34AC80"/>
<path d="M92.5 361.748H89V365.248H92.5V361.748Z" fill="#068940"/>
<path d="M99.5 361.748H92.5V365.248H99.5V361.748Z" fill="#4BEA69"/>
<path d="M103 361.748H99.5V365.248H103V361.748Z" fill="#34AC80"/>
<path d="M106.5 361.748H103V365.248H106.5V361.748Z" fill="#068940"/>
<path d="M127.5 361.748H106.5V365.248H127.5V361.748Z" fill="#4BEA69"/>
<path d="M85.5 365.248H64.5V368.748H85.5V365.248Z" fill="#34AC80"/>
<path d="M89 365.248H85.5V368.748H89V365.248Z" fill="#068940"/>
<path d="M99.5 365.248H89V368.748H99.5V365.248Z" fill="#4BEA69"/>
<path d="M106.5 365.248H99.5V368.748H106.5V365.248Z" fill="#34AC80"/>
<path d="M110 365.248H106.5V368.748H110V365.248Z" fill="#068940"/>
<path d="M131 365.248H110V368.748H131V365.248Z" fill="#4BEA69"/>
<path d="M85.5 368.748H64.5V372.248H85.5V368.748Z" fill="#34AC80"/>
<path d="M96 368.748H85.5V372.248H96V368.748Z" fill="#4BEA69"/>
<path d="M113.5 368.748H96V372.248H113.5V368.748Z" fill="#34AC80"/>
<path d="M131 368.748H113.5V372.248H131V368.748Z" fill="#4BEA69"/>
<path d="M82 372.248H64.5V375.748H82V372.248Z" fill="#34AC80"/>
<path d="M96 372.248H82V375.748H96V372.248Z" fill="#4BEA69"/>
<path d="M99.5 372.248H96V375.748H99.5V372.248Z" fill="#34AC80"/>
<path d="M117 372.248H99.5V375.748H117V372.248Z" fill="#0B5027"/>
<path d="M131 372.248H117V375.748H131V372.248Z" fill="#4BEA69"/>
<path d="M141.5 372.248H134.5V375.748H141.5V372.248Z" fill="#068940"/>
<path d="M75 375.748H68V379.248H75V375.748Z" fill="#34AC80"/>
<path d="M96 375.748H75V379.248H96V375.748Z" fill="#4BEA69"/>
<path d="M99.5 375.748H96V379.248H99.5V375.748Z" fill="#068940"/>
<path d="M117 375.748H99.5V379.248H117V375.748Z" fill="#34AC80"/>
<path d="M127.5 375.748H117V379.248H127.5V375.748Z" fill="#4BEA69"/>
<path d="M141.5 375.748H127.5V379.248H141.5V375.748Z" fill="#068940"/>
<path d="M92.5 379.248H75V382.748H92.5V379.248Z" fill="#4BEA69"/>
<path d="M103 379.248H92.5V382.748H103V379.248Z" fill="#068940"/>
<path d="M120.5 379.248H103V382.748H120.5V379.248Z" fill="#34AC80"/>
<path d="M138 379.248H120.5V382.748H138V379.248Z" fill="#068940"/>
<path d="M92.5 382.748H75V386.248H92.5V382.748Z" fill="#4BEA69"/>
<path d="M120.5 382.748H103V386.248H120.5V382.748Z" fill="#34AC80"/>
<path d="M89 386.248H78.5V389.748H89V386.248Z" fill="#4BEA69"/>
<path d="M117 386.248H106.5V389.748H117V386.248Z" fill="#34AC80"/>
<path d="M243 59.2484H232.5V62.7484H243V59.2484Z" fill="#34AC80"/>
<path d="M271 59.2484H260.5V62.7484H271V59.2484Z" fill="#4BEA69"/>
<path d="M246.5 62.7484H229V66.2484H246.5V62.7484Z" fill="#34AC80"/>
<path d="M274.5 62.7484H257V66.2484H274.5V62.7484Z" fill="#4BEA69"/>
<path d="M246.5 66.2484H229V69.7484H246.5V66.2484Z" fill="#34AC80"/>
<path d="M274.5 66.2484H257V69.7484H274.5V66.2484Z" fill="#4BEA69"/>
<path d="M232.5 69.7484H222V73.2484H232.5V69.7484Z" fill="#4BEA69"/>
<path d="M250 69.7484H232.5V73.2484H250V69.7484Z" fill="#34AC80"/>
<path d="M274.5 69.7484H253.5V73.2484H274.5V69.7484Z" fill="#4BEA69"/>
<path d="M281.5 69.7484H274.5V73.2484H281.5V69.7484Z" fill="#34AC80"/>
<path d="M232.5 73.2484H218.5V76.7484H232.5V73.2484Z" fill="#4BEA69"/>
<path d="M253.5 73.2484H232.5V76.7484H253.5V73.2484Z" fill="#34AC80"/>
<path d="M267.5 73.2484H253.5V76.7484H267.5V73.2484Z" fill="#4BEA69"/>
<path d="M285 73.2484H267.5V76.7484H285V73.2484Z" fill="#34AC80"/>
<path d="M236 76.7484H218.5V80.2484H236V76.7484Z" fill="#4BEA69"/>
<path d="M253.5 76.7484H236V80.2484H253.5V76.7484Z" fill="#34AC80"/>
<path d="M264 76.7484H253.5V80.2484H264V76.7484Z" fill="#4BEA69"/>
<path d="M285 76.7484H264V80.2484H285V76.7484Z" fill="#34AC80"/>
<path d="M239.5 80.2484H218.5V83.7484H239.5V80.2484Z" fill="#4BEA69"/>
<path d="M243 80.2484H239.5V83.7484H243V80.2484Z" fill="#068940"/>
<path d="M250 80.2484H243V83.7484H250V80.2484Z" fill="#34AC80"/>
<path d="M260.5 80.2484H250V83.7484H260.5V80.2484Z" fill="#4BEA69"/>
<path d="M264 80.2484H260.5V83.7484H264V80.2484Z" fill="#068940"/>
<path d="M285 80.2484H264V83.7484H285V80.2484Z" fill="#34AC80"/>
<path d="M243 83.7484H222V87.2484H243V83.7484Z" fill="#4BEA69"/>
<path d="M246.5 83.7484H243V87.2484H246.5V83.7484Z" fill="#068940"/>
<path d="M250 83.7484H246.5V87.2484H250V83.7484Z" fill="#34AC80"/>
<path d="M257 83.7484H250V87.2484H257V83.7484Z" fill="#4BEA69"/>
<path d="M260.5 83.7484H257V87.2484H260.5V83.7484Z" fill="#068940"/>
<path d="M281.5 83.7484H260.5V87.2484H281.5V83.7484Z" fill="#34AC80"/>
<path d="M246.5 87.2484H229V90.7484H246.5V87.2484Z" fill="#4BEA69"/>
<path d="M250 87.2484H246.5V90.7484H250V87.2484Z" fill="#068940"/>
<path d="M253.5 87.2484H250V90.7484H253.5V87.2484Z" fill="#4BEA69"/>
<path d="M257 87.2484H253.5V90.7484H257V87.2484Z" fill="#068940"/>
<path d="M274.5 87.2484H257V90.7484H274.5V87.2484Z" fill="#34AC80"/>
<path d="M239.5 90.7484H232.5V94.2484H239.5V90.7484Z" fill="#34AC80"/>
<path d="M250 90.7484H239.5V94.2484H250V90.7484Z" fill="#4BEA69"/>
<path d="M253.5 90.7484H250V94.2484H253.5V90.7484Z" fill="#068940"/>
<path d="M264 90.7484H253.5V94.2484H264V90.7484Z" fill="#4BEA69"/>
<path d="M271 90.7484H264V94.2484H271V90.7484Z" fill="#34AC80"/>
<path d="M246.5 94.2484H229V97.7484H246.5V94.2484Z" fill="#34AC80"/>
<path d="M250 94.2484H246.5V97.7484H250V94.2484Z" fill="#068940"/>
<path d="M253.5 94.2484H250V97.7484H253.5V94.2484Z" fill="#4BEA69"/>
<path d="M257 94.2484H253.5V97.7484H257V94.2484Z" fill="#068940"/>
<path d="M274.5 94.2484H257V97.7484H274.5V94.2484Z" fill="#4BEA69"/>
<path d="M243 97.7484H222V101.248H243V97.7484Z" fill="#34AC80"/>
<path d="M246.5 97.7484H243V101.248H246.5V97.7484Z" fill="#068940"/>
<path d="M253.5 97.7484H246.5V101.248H253.5V97.7484Z" fill="#4BEA69"/>
<path d="M257 97.7484H253.5V101.248H257V97.7484Z" fill="#34AC80"/>
<path d="M260.5 97.7484H257V101.248H260.5V97.7484Z" fill="#068940"/>
<path d="M281.5 97.7484H260.5V101.248H281.5V97.7484Z" fill="#4BEA69"/>
<path d="M239.5 101.248H218.5V104.748H239.5V101.248Z" fill="#34AC80"/>
<path d="M243 101.248H239.5V104.748H243V101.248Z" fill="#068940"/>
<path d="M253.5 101.248H243V104.748H253.5V101.248Z" fill="#4BEA69"/>
<path d="M260.5 101.248H253.5V104.748H260.5V101.248Z" fill="#34AC80"/>
<path d="M264 101.248H260.5V104.748H264V101.248Z" fill="#068940"/>
<path d="M285 101.248H264V104.748H285V101.248Z" fill="#4BEA69"/>
<path d="M239.5 104.748H218.5V108.248H239.5V104.748Z" fill="#34AC80"/>
<path d="M250 104.748H239.5V108.248H250V104.748Z" fill="#4BEA69"/>
<path d="M267.5 104.748H250V108.248H267.5V104.748Z" fill="#34AC80"/>
<path d="M285 104.748H267.5V108.248H285V104.748Z" fill="#4BEA69"/>
<path d="M236 108.248H218.5V111.748H236V108.248Z" fill="#34AC80"/>
<path d="M250 108.248H236V111.748H250V108.248Z" fill="#4BEA69"/>
<path d="M253.5 108.248H250V111.748H253.5V108.248Z" fill="#34AC80"/>
<path d="M271 108.248H253.5V111.748H271V108.248Z" fill="#0B5027"/>
<path d="M285 108.248H271V111.748H285V108.248Z" fill="#4BEA69"/>
<path d="M295.5 108.248H288.5V111.748H295.5V108.248Z" fill="#068940"/>
<path d="M229 111.748H222V115.248H229V111.748Z" fill="#34AC80"/>
<path d="M250 111.748H229V115.248H250V111.748Z" fill="#4BEA69"/>
<path d="M253.5 111.748H250V115.248H253.5V111.748Z" fill="#068940"/>
<path d="M271 111.748H253.5V115.248H271V111.748Z" fill="#34AC80"/>
<path d="M281.5 111.748H271V115.248H281.5V111.748Z" fill="#4BEA69"/>
<path d="M295.5 111.748H281.5V115.248H295.5V111.748Z" fill="#068940"/>
<path d="M246.5 115.248H229V118.748H246.5V115.248Z" fill="#4BEA69"/>
<path d="M257 115.248H246.5V118.748H257V115.248Z" fill="#068940"/>
<path d="M274.5 115.248H257V118.748H274.5V115.248Z" fill="#34AC80"/>
<path d="M292 115.248H274.5V118.748H292V115.248Z" fill="#068940"/>
<path d="M246.5 118.748H229V122.248H246.5V118.748Z" fill="#4BEA69"/>
<path d="M274.5 118.748H257V122.248H274.5V118.748Z" fill="#34AC80"/>
<path d="M243 122.248H232.5V125.748H243V122.248Z" fill="#4BEA69"/>
<path d="M271 122.248H260.5V125.748H271V122.248Z" fill="#34AC80"/>
<path d="M68.1172 126V80.4531H67.8828L53.5078 90.2188V79.75L68.0781 69.6328H79.7969V126H68.1172ZM114.719 126.977C109.953 126.977 105.852 125.792 102.414 123.422C98.9766 121.052 96.3333 117.693 94.4844 113.344C92.6615 108.969 91.75 103.799 91.75 97.8359V97.7578C91.75 91.7682 92.6615 86.599 94.4844 82.25C96.3333 77.901 98.9766 74.5547 102.414 72.2109C105.852 69.8411 109.953 68.6562 114.719 68.6562C119.484 68.6562 123.573 69.8411 126.984 72.2109C130.422 74.5547 133.065 77.901 134.914 82.25C136.763 86.599 137.688 91.7682 137.688 97.7578V97.8359C137.688 103.799 136.763 108.969 134.914 113.344C133.065 117.693 130.422 121.052 126.984 123.422C123.573 125.792 119.484 126.977 114.719 126.977ZM114.719 117.523C117.062 117.523 119.055 116.742 120.695 115.18C122.336 113.617 123.586 111.365 124.445 108.422C125.331 105.479 125.773 101.951 125.773 97.8359V97.7578C125.773 93.6172 125.331 90.0885 124.445 87.1719C123.586 84.2292 122.336 81.9896 120.695 80.4531C119.055 78.8906 117.062 78.1094 114.719 78.1094C112.375 78.1094 110.37 78.8906 108.703 80.4531C107.062 81.9896 105.812 84.2292 104.953 87.1719C104.094 90.0885 103.664 93.6172 103.664 97.7578V97.8359C103.664 101.951 104.094 105.479 104.953 108.422C105.812 111.365 107.062 113.617 108.703 115.18C110.37 116.742 112.375 117.523 114.719 117.523Z" fill="#4BEA69"/>
<path d="M225.117 385.248V339.702H224.883L210.508 349.467V338.998L225.078 328.881H236.797V385.248H225.117ZM271.719 386.225C266.953 386.225 262.852 385.04 259.414 382.67C255.977 380.3 253.333 376.941 251.484 372.592C249.661 368.217 248.75 363.048 248.75 357.084V357.006C248.75 351.017 249.661 345.847 251.484 341.498C253.333 337.149 255.977 333.803 259.414 331.459C262.852 329.09 266.953 327.905 271.719 327.905C276.484 327.905 280.573 329.09 283.984 331.459C287.422 333.803 290.065 337.149 291.914 341.498C293.763 345.847 294.688 351.017 294.688 357.006V357.084C294.688 363.048 293.763 368.217 291.914 372.592C290.065 376.941 287.422 380.3 283.984 382.67C280.573 385.04 276.484 386.225 271.719 386.225ZM271.719 376.772C274.062 376.772 276.055 375.991 277.695 374.428C279.336 372.866 280.586 370.613 281.445 367.67C282.331 364.728 282.773 361.199 282.773 357.084V357.006C282.773 352.866 282.331 349.337 281.445 346.42C280.586 343.478 279.336 341.238 277.695 339.702C276.055 338.139 274.062 337.358 271.719 337.358C269.375 337.358 267.37 338.139 265.703 339.702C264.062 341.238 262.812 343.478 261.953 346.42C261.094 349.337 260.664 352.866 260.664 357.006V357.084C260.664 361.199 261.094 364.728 261.953 367.67C262.812 370.613 264.062 372.866 265.703 374.428C267.37 375.991 269.375 376.772 271.719 376.772Z" fill="#4BEA69"/>
<defs>
<filter id="filter0_d_10_26166" x="0" y="0" width="348" height="462" filterUnits="userSpaceOnUse" color-interpolation-filters="sRGB">
<feFlood flood-opacity="0" result="BackgroundImageFix"/>
<feColorMatrix in="SourceAlpha" type="matrix" values="0 0 0 0 0 0 0 0 0 0 0 0 0 0 0 0 0 0 127 0" result="hardAlpha"/>
<feOffset dy="5"/>
<feGaussianBlur stdDeviation="17"/>
<feColorMatrix type="matrix" values="0 0 0 0 0 0 0 0 0 0 0 0 0 0 0 0 0 0 0.1 0"/>
<feBlend mode="normal" in2="BackgroundImageFix" result="effect1_dropShadow_10_26166"/>
<feBlend mode="normal" in="SourceGraphic" in2="effect1_dropShadow_10_26166" result="shape"/>
</filter>
</defs>
</svg>
