<svg width="348" height="462" viewBox="0 0 348 462" fill="none" xmlns="http://www.w3.org/2000/svg">
<g filter="url(#filter0_d_10_25565)">
<rect x="34" y="29" width="280" height="394" rx="20" fill="#F2F2F2"/>
<rect x="34.5" y="29.5" width="279" height="393" rx="19.5" stroke="#D2D2D2"/>
</g>
<path d="M89 323.248H78.5V326.748H89V323.248Z" fill="#34AC80"/>
<path d="M117 323.248H106.5V326.748H117V323.248Z" fill="#4BEA69"/>
<path d="M92.5 326.748H75V330.248H92.5V326.748Z" fill="#34AC80"/>
<path d="M120.5 326.748H103V330.248H120.5V326.748Z" fill="#4BEA69"/>
<path d="M92.5 330.248H75V333.748H92.5V330.248Z" fill="#34AC80"/>
<path d="M120.5 330.248H103V333.748H120.5V330.248Z" fill="#4BEA69"/>
<path d="M78.5 333.748H68V337.248H78.5V333.748Z" fill="#4BEA69"/>
<path d="M96 333.748H78.5V337.248H96V333.748Z" fill="#34AC80"/>
<path d="M120.5 333.748H99.5V337.248H120.5V333.748Z" fill="#4BEA69"/>
<path d="M127.5 333.748H120.5V337.248H127.5V333.748Z" fill="#34AC80"/>
<path d="M78.5 337.248H64.5V340.748H78.5V337.248Z" fill="#4BEA69"/>
<path d="M99.5 337.248H78.5V340.748H99.5V337.248Z" fill="#34AC80"/>
<path d="M113.5 337.248H99.5V340.748H113.5V337.248Z" fill="#4BEA69"/>
<path d="M131 337.248H113.5V340.748H131V337.248Z" fill="#34AC80"/>
<path d="M82 340.748H64.5V344.248H82V340.748Z" fill="#4BEA69"/>
<path d="M99.5 340.748H82V344.248H99.5V340.748Z" fill="#34AC80"/>
<path d="M110 340.748H99.5V344.248H110V340.748Z" fill="#4BEA69"/>
<path d="M131 340.748H110V344.248H131V340.748Z" fill="#34AC80"/>
<path d="M85.5 344.248H64.5V347.748H85.5V344.248Z" fill="#4BEA69"/>
<path d="M89 344.248H85.5V347.748H89V344.248Z" fill="#068940"/>
<path d="M96 344.248H89V347.748H96V344.248Z" fill="#34AC80"/>
<path d="M106.5 344.248H96V347.748H106.5V344.248Z" fill="#4BEA69"/>
<path d="M110 344.248H106.5V347.748H110V344.248Z" fill="#068940"/>
<path d="M131 344.248H110V347.748H131V344.248Z" fill="#34AC80"/>
<path d="M89 347.748H68V351.248H89V347.748Z" fill="#4BEA69"/>
<path d="M92.5 347.748H89V351.248H92.5V347.748Z" fill="#068940"/>
<path d="M96 347.748H92.5V351.248H96V347.748Z" fill="#34AC80"/>
<path d="M103 347.748H96V351.248H103V347.748Z" fill="#4BEA69"/>
<path d="M106.5 347.748H103V351.248H106.5V347.748Z" fill="#068940"/>
<path d="M127.5 347.748H106.5V351.248H127.5V347.748Z" fill="#34AC80"/>
<path d="M92.5 351.248H75V354.748H92.5V351.248Z" fill="#4BEA69"/>
<path d="M96 351.248H92.5V354.748H96V351.248Z" fill="#068940"/>
<path d="M99.5 351.248H96V354.748H99.5V351.248Z" fill="#4BEA69"/>
<path d="M103 351.248H99.5V354.748H103V351.248Z" fill="#068940"/>
<path d="M120.5 351.248H103V354.748H120.5V351.248Z" fill="#34AC80"/>
<path d="M85.5 354.748H78.5V358.248H85.5V354.748Z" fill="#34AC80"/>
<path d="M96 354.748H85.5V358.248H96V354.748Z" fill="#4BEA69"/>
<path d="M99.5 354.748H96V358.248H99.5V354.748Z" fill="#068940"/>
<path d="M110 354.748H99.5V358.248H110V354.748Z" fill="#4BEA69"/>
<path d="M117 354.748H110V358.248H117V354.748Z" fill="#34AC80"/>
<path d="M92.5 358.248H75V361.748H92.5V358.248Z" fill="#34AC80"/>
<path d="M96 358.248H92.5V361.748H96V358.248Z" fill="#068940"/>
<path d="M99.5 358.248H96V361.748H99.5V358.248Z" fill="#4BEA69"/>
<path d="M103 358.248H99.5V361.748H103V358.248Z" fill="#068940"/>
<path d="M120.5 358.248H103V361.748H120.5V358.248Z" fill="#4BEA69"/>
<path d="M89 361.748H68V365.248H89V361.748Z" fill="#34AC80"/>
<path d="M92.5 361.748H89V365.248H92.5V361.748Z" fill="#068940"/>
<path d="M99.5 361.748H92.5V365.248H99.5V361.748Z" fill="#4BEA69"/>
<path d="M103 361.748H99.5V365.248H103V361.748Z" fill="#34AC80"/>
<path d="M106.5 361.748H103V365.248H106.5V361.748Z" fill="#068940"/>
<path d="M127.5 361.748H106.5V365.248H127.5V361.748Z" fill="#4BEA69"/>
<path d="M85.5 365.248H64.5V368.748H85.5V365.248Z" fill="#34AC80"/>
<path d="M89 365.248H85.5V368.748H89V365.248Z" fill="#068940"/>
<path d="M99.5 365.248H89V368.748H99.5V365.248Z" fill="#4BEA69"/>
<path d="M106.5 365.248H99.5V368.748H106.5V365.248Z" fill="#34AC80"/>
<path d="M110 365.248H106.5V368.748H110V365.248Z" fill="#068940"/>
<path d="M131 365.248H110V368.748H131V365.248Z" fill="#4BEA69"/>
<path d="M85.5 368.748H64.5V372.248H85.5V368.748Z" fill="#34AC80"/>
<path d="M96 368.748H85.5V372.248H96V368.748Z" fill="#4BEA69"/>
<path d="M113.5 368.748H96V372.248H113.5V368.748Z" fill="#34AC80"/>
<path d="M131 368.748H113.5V372.248H131V368.748Z" fill="#4BEA69"/>
<path d="M82 372.248H64.5V375.748H82V372.248Z" fill="#34AC80"/>
<path d="M96 372.248H82V375.748H96V372.248Z" fill="#4BEA69"/>
<path d="M99.5 372.248H96V375.748H99.5V372.248Z" fill="#34AC80"/>
<path d="M117 372.248H99.5V375.748H117V372.248Z" fill="#0B5027"/>
<path d="M131 372.248H117V375.748H131V372.248Z" fill="#4BEA69"/>
<path d="M141.5 372.248H134.5V375.748H141.5V372.248Z" fill="#068940"/>
<path d="M75 375.748H68V379.248H75V375.748Z" fill="#34AC80"/>
<path d="M96 375.748H75V379.248H96V375.748Z" fill="#4BEA69"/>
<path d="M99.5 375.748H96V379.248H99.5V375.748Z" fill="#068940"/>
<path d="M117 375.748H99.5V379.248H117V375.748Z" fill="#34AC80"/>
<path d="M127.5 375.748H117V379.248H127.5V375.748Z" fill="#4BEA69"/>
<path d="M141.5 375.748H127.5V379.248H141.5V375.748Z" fill="#068940"/>
<path d="M92.5 379.248H75V382.748H92.5V379.248Z" fill="#4BEA69"/>
<path d="M103 379.248H92.5V382.748H103V379.248Z" fill="#068940"/>
<path d="M120.5 379.248H103V382.748H120.5V379.248Z" fill="#34AC80"/>
<path d="M138 379.248H120.5V382.748H138V379.248Z" fill="#068940"/>
<path d="M92.5 382.748H75V386.248H92.5V382.748Z" fill="#4BEA69"/>
<path d="M120.5 382.748H103V386.248H120.5V382.748Z" fill="#34AC80"/>
<path d="M89 386.248H78.5V389.748H89V386.248Z" fill="#4BEA69"/>
<path d="M117 386.248H106.5V389.748H117V386.248Z" fill="#34AC80"/>
<path d="M243 59.2484H232.5V62.7484H243V59.2484Z" fill="#34AC80"/>
<path d="M271 59.2484H260.5V62.7484H271V59.2484Z" fill="#4BEA69"/>
<path d="M246.5 62.7484H229V66.2484H246.5V62.7484Z" fill="#34AC80"/>
<path d="M274.5 62.7484H257V66.2484H274.5V62.7484Z" fill="#4BEA69"/>
<path d="M246.5 66.2484H229V69.7484H246.5V66.2484Z" fill="#34AC80"/>
<path d="M274.5 66.2484H257V69.7484H274.5V66.2484Z" fill="#4BEA69"/>
<path d="M232.5 69.7484H222V73.2484H232.5V69.7484Z" fill="#4BEA69"/>
<path d="M250 69.7484H232.5V73.2484H250V69.7484Z" fill="#34AC80"/>
<path d="M274.5 69.7484H253.5V73.2484H274.5V69.7484Z" fill="#4BEA69"/>
<path d="M281.5 69.7484H274.5V73.2484H281.5V69.7484Z" fill="#34AC80"/>
<path d="M232.5 73.2484H218.5V76.7484H232.5V73.2484Z" fill="#4BEA69"/>
<path d="M253.5 73.2484H232.5V76.7484H253.5V73.2484Z" fill="#34AC80"/>
<path d="M267.5 73.2484H253.5V76.7484H267.5V73.2484Z" fill="#4BEA69"/>
<path d="M285 73.2484H267.5V76.7484H285V73.2484Z" fill="#34AC80"/>
<path d="M236 76.7484H218.5V80.2484H236V76.7484Z" fill="#4BEA69"/>
<path d="M253.5 76.7484H236V80.2484H253.5V76.7484Z" fill="#34AC80"/>
<path d="M264 76.7484H253.5V80.2484H264V76.7484Z" fill="#4BEA69"/>
<path d="M285 76.7484H264V80.2484H285V76.7484Z" fill="#34AC80"/>
<path d="M239.5 80.2484H218.5V83.7484H239.5V80.2484Z" fill="#4BEA69"/>
<path d="M243 80.2484H239.5V83.7484H243V80.2484Z" fill="#068940"/>
<path d="M250 80.2484H243V83.7484H250V80.2484Z" fill="#34AC80"/>
<path d="M260.5 80.2484H250V83.7484H260.5V80.2484Z" fill="#4BEA69"/>
<path d="M264 80.2484H260.5V83.7484H264V80.2484Z" fill="#068940"/>
<path d="M285 80.2484H264V83.7484H285V80.2484Z" fill="#34AC80"/>
<path d="M243 83.7484H222V87.2484H243V83.7484Z" fill="#4BEA69"/>
<path d="M246.5 83.7484H243V87.2484H246.5V83.7484Z" fill="#068940"/>
<path d="M250 83.7484H246.5V87.2484H250V83.7484Z" fill="#34AC80"/>
<path d="M257 83.7484H250V87.2484H257V83.7484Z" fill="#4BEA69"/>
<path d="M260.5 83.7484H257V87.2484H260.5V83.7484Z" fill="#068940"/>
<path d="M281.5 83.7484H260.5V87.2484H281.5V83.7484Z" fill="#34AC80"/>
<path d="M246.5 87.2484H229V90.7484H246.5V87.2484Z" fill="#4BEA69"/>
<path d="M250 87.2484H246.5V90.7484H250V87.2484Z" fill="#068940"/>
<path d="M253.5 87.2484H250V90.7484H253.5V87.2484Z" fill="#4BEA69"/>
<path d="M257 87.2484H253.5V90.7484H257V87.2484Z" fill="#068940"/>
<path d="M274.5 87.2484H257V90.7484H274.5V87.2484Z" fill="#34AC80"/>
<path d="M239.5 90.7484H232.5V94.2484H239.5V90.7484Z" fill="#34AC80"/>
<path d="M250 90.7484H239.5V94.2484H250V90.7484Z" fill="#4BEA69"/>
<path d="M253.5 90.7484H250V94.2484H253.5V90.7484Z" fill="#068940"/>
<path d="M264 90.7484H253.5V94.2484H264V90.7484Z" fill="#4BEA69"/>
<path d="M271 90.7484H264V94.2484H271V90.7484Z" fill="#34AC80"/>
<path d="M246.5 94.2484H229V97.7484H246.5V94.2484Z" fill="#34AC80"/>
<path d="M250 94.2484H246.5V97.7484H250V94.2484Z" fill="#068940"/>
<path d="M253.5 94.2484H250V97.7484H253.5V94.2484Z" fill="#4BEA69"/>
<path d="M257 94.2484H253.5V97.7484H257V94.2484Z" fill="#068940"/>
<path d="M274.5 94.2484H257V97.7484H274.5V94.2484Z" fill="#4BEA69"/>
<path d="M243 97.7484H222V101.248H243V97.7484Z" fill="#34AC80"/>
<path d="M246.5 97.7484H243V101.248H246.5V97.7484Z" fill="#068940"/>
<path d="M253.5 97.7484H246.5V101.248H253.5V97.7484Z" fill="#4BEA69"/>
<path d="M257 97.7484H253.5V101.248H257V97.7484Z" fill="#34AC80"/>
<path d="M260.5 97.7484H257V101.248H260.5V97.7484Z" fill="#068940"/>
<path d="M281.5 97.7484H260.5V101.248H281.5V97.7484Z" fill="#4BEA69"/>
<path d="M239.5 101.248H218.5V104.748H239.5V101.248Z" fill="#34AC80"/>
<path d="M243 101.248H239.5V104.748H243V101.248Z" fill="#068940"/>
<path d="M253.5 101.248H243V104.748H253.5V101.248Z" fill="#4BEA69"/>
<path d="M260.5 101.248H253.5V104.748H260.5V101.248Z" fill="#34AC80"/>
<path d="M264 101.248H260.5V104.748H264V101.248Z" fill="#068940"/>
<path d="M285 101.248H264V104.748H285V101.248Z" fill="#4BEA69"/>
<path d="M239.5 104.748H218.5V108.248H239.5V104.748Z" fill="#34AC80"/>
<path d="M250 104.748H239.5V108.248H250V104.748Z" fill="#4BEA69"/>
<path d="M267.5 104.748H250V108.248H267.5V104.748Z" fill="#34AC80"/>
<path d="M285 104.748H267.5V108.248H285V104.748Z" fill="#4BEA69"/>
<path d="M236 108.248H218.5V111.748H236V108.248Z" fill="#34AC80"/>
<path d="M250 108.248H236V111.748H250V108.248Z" fill="#4BEA69"/>
<path d="M253.5 108.248H250V111.748H253.5V108.248Z" fill="#34AC80"/>
<path d="M271 108.248H253.5V111.748H271V108.248Z" fill="#0B5027"/>
<path d="M285 108.248H271V111.748H285V108.248Z" fill="#4BEA69"/>
<path d="M295.5 108.248H288.5V111.748H295.5V108.248Z" fill="#068940"/>
<path d="M229 111.748H222V115.248H229V111.748Z" fill="#34AC80"/>
<path d="M250 111.748H229V115.248H250V111.748Z" fill="#4BEA69"/>
<path d="M253.5 111.748H250V115.248H253.5V111.748Z" fill="#068940"/>
<path d="M271 111.748H253.5V115.248H271V111.748Z" fill="#34AC80"/>
<path d="M281.5 111.748H271V115.248H281.5V111.748Z" fill="#4BEA69"/>
<path d="M295.5 111.748H281.5V115.248H295.5V111.748Z" fill="#068940"/>
<path d="M246.5 115.248H229V118.748H246.5V115.248Z" fill="#4BEA69"/>
<path d="M257 115.248H246.5V118.748H257V115.248Z" fill="#068940"/>
<path d="M274.5 115.248H257V118.748H274.5V115.248Z" fill="#34AC80"/>
<path d="M292 115.248H274.5V118.748H292V115.248Z" fill="#068940"/>
<path d="M246.5 118.748H229V122.248H246.5V118.748Z" fill="#4BEA69"/>
<path d="M274.5 118.748H257V122.248H274.5V118.748Z" fill="#34AC80"/>
<path d="M243 122.248H232.5V125.748H243V122.248Z" fill="#4BEA69"/>
<path d="M271 122.248H260.5V125.748H271V122.248Z" fill="#34AC80"/>
<path d="M93.3906 126.977C90.474 126.977 87.8568 126.573 85.5391 125.766C83.2474 124.932 81.2812 123.747 79.6406 122.211C78 120.674 76.737 118.839 75.8516 116.703C74.9661 114.542 74.4844 112.133 74.4062 109.477L74.3672 109.125H85.8125L85.8516 109.359C85.9297 110.818 86.2552 112.107 86.8281 113.227C87.4271 114.346 88.2604 115.219 89.3281 115.844C90.4219 116.469 91.737 116.781 93.2734 116.781C95.7474 116.781 97.6354 116.039 98.9375 114.555C100.24 113.07 100.891 110.909 100.891 108.07V69.6328H112.688V108.188C112.688 112.12 111.919 115.492 110.383 118.305C108.872 121.117 106.685 123.266 103.82 124.75C100.956 126.234 97.4792 126.977 93.3906 126.977Z" fill="#4BEA69"/>
<path d="M250.391 386.225C247.474 386.225 244.857 385.821 242.539 385.014C240.247 384.181 238.281 382.996 236.641 381.459C235 379.923 233.737 378.087 232.852 375.952C231.966 373.79 231.484 371.381 231.406 368.725L231.367 368.373H242.812L242.852 368.608C242.93 370.066 243.255 371.355 243.828 372.475C244.427 373.595 245.26 374.467 246.328 375.092C247.422 375.717 248.737 376.03 250.273 376.03C252.747 376.03 254.635 375.287 255.938 373.803C257.24 372.319 257.891 370.157 257.891 367.319V328.881H269.688V367.436C269.688 371.368 268.919 374.741 267.383 377.553C265.872 380.366 263.685 382.514 260.82 383.998C257.956 385.483 254.479 386.225 250.391 386.225Z" fill="#4BEA69"/>
<path d="M154.281 169.219H128.656V175.625H154.281V169.219Z" fill="#068940"/>
<path d="M167.094 175.625H115.844V182.031H167.094V175.625Z" fill="#068940"/>
<path d="M128.656 182.031H109.438V188.438H128.656V182.031Z" fill="#068940"/>
<path d="M135.062 182.031H128.656V188.438H135.062V182.031Z" fill="#8DD122"/>
<path d="M173.5 182.031H135.062V188.438H173.5V182.031Z" fill="#068940"/>
<path d="M128.656 188.438H109.438V194.844H128.656V188.438Z" fill="#068940"/>
<path d="M135.062 188.438H128.656V194.844H135.062V188.438Z" fill="#0B5027"/>
<path d="M154.281 188.438H135.062V194.844H154.281V188.438Z" fill="#068940"/>
<path d="M160.688 188.438H154.281V194.844H160.688V188.438Z" fill="#8DD122"/>
<path d="M173.5 188.438H160.688V194.844H173.5V188.438Z" fill="#068940"/>
<path d="M115.844 194.844H103.031V201.25H115.844V194.844Z" fill="#068940"/>
<path d="M122.25 194.844H115.844V201.25H122.25V194.844Z" fill="#8DD122"/>
<path d="M160.688 194.844H122.25V201.25H160.688V194.844Z" fill="#068940"/>
<path d="M167.094 194.844H160.688V201.25H167.094V194.844Z" fill="#0B5027"/>
<path d="M179.906 194.844H167.094V201.25H179.906V194.844Z" fill="#068940"/>
<path d="M115.844 201.25H103.031V207.656H115.844V201.25Z" fill="#068940"/>
<path d="M122.25 201.25H115.844V207.656H122.25V201.25Z" fill="#0B5027"/>
<path d="M141.469 201.25H122.25V207.656H141.469V201.25Z" fill="#068940"/>
<path d="M147.875 201.25H141.469V207.656H147.875V201.25Z" fill="#8DD122"/>
<path d="M192.719 201.25H147.875V207.656H192.719V201.25Z" fill="#068940"/>
<path d="M141.469 207.656H103.031V214.062H141.469V207.656Z" fill="#068940"/>
<path d="M147.875 207.656H141.469V214.062H147.875V207.656Z" fill="#0B5027"/>
<path d="M173.5 207.656H147.875V214.062H173.5V207.656Z" fill="#068940"/>
<path d="M179.906 207.656H173.5V214.062H179.906V207.656Z" fill="#8DD122"/>
<path d="M186.312 207.656H179.906V214.062H186.312V207.656Z" fill="#0B5027"/>
<path d="M218.344 207.656H186.312V214.062H218.344V207.656Z" fill="#068940"/>
<path d="M109.438 214.062H103.031V220.469H109.438V214.062Z" fill="#068940"/>
<path d="M115.844 214.062H109.438V220.469H115.844V214.062Z" fill="#8DD122"/>
<path d="M231.156 214.062H115.844V220.469H231.156V214.062Z" fill="#068940"/>
<path d="M109.438 220.469H103.031V226.875H109.438V220.469Z" fill="#068940"/>
<path d="M115.844 220.469H109.438V226.875H115.844V220.469Z" fill="#0B5027"/>
<path d="M237.562 220.469H115.844V226.875H237.562V220.469Z" fill="#068940"/>
<path d="M237.562 226.875H103.031V233.281H237.562V226.875Z" fill="#068940"/>
<path d="M243.969 233.281H103.031V239.688H243.969V233.281Z" fill="#068940"/>
<path d="M243.969 239.688H109.438V246.094H243.969V239.688Z" fill="#068940"/>
<path d="M231.156 246.094H109.438V252.5H231.156V246.094Z" fill="#068940"/>
<path d="M237.562 246.094H231.156V252.5H237.562V246.094Z" fill="#8DD122"/>
<path d="M243.969 246.094H237.562V252.5H243.969V246.094Z" fill="#068940"/>
<path d="M122.25 252.5H109.438V258.906H122.25V252.5Z" fill="#068940"/>
<path d="M128.656 252.5H122.25V258.906H128.656V252.5Z" fill="#8DD122"/>
<path d="M231.156 252.5H128.656V258.906H231.156V252.5Z" fill="#068940"/>
<path d="M237.562 252.5H231.156V258.906H237.562V252.5Z" fill="#0B5027"/>
<path d="M243.969 252.5H237.562V258.906H243.969V252.5Z" fill="#068940"/>
<path d="M122.25 258.906H115.844V265.312H122.25V258.906Z" fill="#068940"/>
<path d="M128.656 258.906H122.25V265.312H128.656V258.906Z" fill="#0B5027"/>
<path d="M243.969 258.906H128.656V265.312H243.969V258.906Z" fill="#068940"/>
<path d="M186.312 265.312H115.844V271.719H186.312V265.312Z" fill="#068940"/>
<path d="M192.719 265.312H186.312V271.719H192.719V265.312Z" fill="black"/>
<path d="M205.531 265.312H192.719V271.719H205.531V265.312Z" fill="#8DD122"/>
<path d="M211.938 265.312H205.531V271.719H211.938V265.312Z" fill="#0B5027"/>
<path d="M237.562 265.312H211.938V271.719H237.562V265.312Z" fill="#068940"/>
<path d="M141.469 271.719H122.25V278.125H141.469V271.719Z" fill="#068940"/>
<path d="M147.875 271.719H141.469V278.125H147.875V271.719Z" fill="#8DD122"/>
<path d="M154.281 271.719H147.875V278.125H154.281V271.719Z" fill="#0B5027"/>
<path d="M160.688 271.719H154.281V278.125H160.688V271.719Z" fill="#068940"/>
<path d="M167.094 271.719H160.688V278.125H167.094V271.719Z" fill="#8DD122"/>
<path d="M192.719 271.719H167.094V278.125H192.719V271.719Z" fill="#068940"/>
<path d="M205.531 271.719H192.719V278.125H205.531V271.719Z" fill="#0B5027"/>
<path d="M237.562 271.719H205.531V278.125H237.562V271.719Z" fill="#068940"/>
<path d="M167.094 278.125H135.062V284.531H167.094V278.125Z" fill="#068940"/>
<path d="M173.5 278.125H167.094V284.531H173.5V278.125Z" fill="#0B5027"/>
<path d="M231.156 278.125H173.5V284.531H231.156V278.125Z" fill="#068940"/>
<path d="M218.344 284.531H147.875V290.938H218.344V284.531Z" fill="#068940"/>
<defs>
<filter id="filter0_d_10_25565" x="0" y="0" width="348" height="462" filterUnits="userSpaceOnUse" color-interpolation-filters="sRGB">
<feFlood flood-opacity="0" result="BackgroundImageFix"/>
<feColorMatrix in="SourceAlpha" type="matrix" values="0 0 0 0 0 0 0 0 0 0 0 0 0 0 0 0 0 0 127 0" result="hardAlpha"/>
<feOffset dy="5"/>
<feGaussianBlur stdDeviation="17"/>
<feColorMatrix type="matrix" values="0 0 0 0 0 0 0 0 0 0 0 0 0 0 0 0 0 0 0.1 0"/>
<feBlend mode="normal" in2="BackgroundImageFix" result="effect1_dropShadow_10_25565"/>
<feBlend mode="normal" in="SourceGraphic" in2="effect1_dropShadow_10_25565" result="shape"/>
</filter>
</defs>
</svg>
