<svg width="348" height="463" viewBox="0 0 348 463" fill="none" xmlns="http://www.w3.org/2000/svg">
<g filter="url(#filter0_d_18_11923)">
<rect x="34" y="29.2485" width="280" height="394" rx="20" fill="#F2F2F2"/>
<rect x="34.5" y="29.7485" width="279" height="393" rx="19.5" stroke="#D2D2D2"/>
</g>
<path d="M76.5312 325.06H73.25V328.341H76.5312V325.06Z" fill="#CC0595"/>
<path d="M76.5312 328.341H73.25V331.622H76.5312V328.341Z" fill="#CC0595"/>
<path d="M79.8125 328.341H76.5312V331.622H79.8125V328.341Z" fill="#FB4694"/>
<path d="M79.8125 331.622H73.25V334.903H79.8125V331.622Z" fill="#CC0595"/>
<path d="M83.0938 331.622H79.8125V334.903H83.0938V331.622Z" fill="#FB4694"/>
<path d="M76.5312 334.903H73.25V338.185H76.5312V334.903Z" fill="#CC0595"/>
<path d="M86.375 334.903H76.5312V338.185H86.375V334.903Z" fill="#FB4694"/>
<path d="M76.5312 338.185H73.25V341.466H76.5312V338.185Z" fill="#CC0595"/>
<path d="M89.6562 338.185H76.5312V341.466H89.6562V338.185Z" fill="#FB4694"/>
<path d="M79.8125 341.466H73.25V344.747H79.8125V341.466Z" fill="#CC0595"/>
<path d="M92.9375 341.466H79.8125V344.747H92.9375V341.466Z" fill="#FB4694"/>
<path d="M76.5312 344.747H73.25V348.028H76.5312V344.747Z" fill="#CC0595"/>
<path d="M96.2188 344.747H76.5312V348.028H96.2188V344.747Z" fill="#FB4694"/>
<path d="M76.5312 348.028H73.25V351.31H76.5312V348.028Z" fill="#CC0595"/>
<path d="M99.5 348.028H76.5312V351.31H99.5V348.028Z" fill="#FB4694"/>
<path d="M79.8125 351.31H73.25V354.591H79.8125V351.31Z" fill="#CC0595"/>
<path d="M102.781 351.31H79.8125V354.591H102.781V351.31Z" fill="#FB4694"/>
<path d="M76.5312 354.591H73.25V357.872H76.5312V354.591Z" fill="#CC0595"/>
<path d="M106.062 354.591H76.5312V357.872H106.062V354.591Z" fill="#FB4694"/>
<path d="M76.5312 357.872H73.25V361.153H76.5312V357.872Z" fill="#CC0595"/>
<path d="M86.375 357.872H76.5312V361.153H86.375V357.872Z" fill="#FB4694"/>
<path d="M109.344 357.872H89.6562V361.153H109.344V357.872Z" fill="#FB4694"/>
<path d="M79.8125 361.153H73.25V364.435H79.8125V361.153Z" fill="#CC0595"/>
<path d="M86.375 361.153H79.8125V364.435H86.375V361.153Z" fill="#FB4694"/>
<path d="M112.625 361.153H92.9375V364.435H112.625V361.153Z" fill="#FB4694"/>
<path d="M76.5312 364.435H73.25V367.716H76.5312V364.435Z" fill="#CC0595"/>
<path d="M86.375 364.435H76.5312V367.716H86.375V364.435Z" fill="#FB4694"/>
<path d="M115.906 364.435H96.2188V367.716H115.906V364.435Z" fill="#FB4694"/>
<path d="M76.5312 367.716H73.25V370.997H76.5312V367.716Z" fill="#CC0595"/>
<path d="M86.375 367.716H76.5312V370.997H86.375V367.716Z" fill="#FB4694"/>
<path d="M119.188 367.716H99.5V370.997H119.188V367.716Z" fill="#FB4694"/>
<path d="M79.8125 370.997H73.25V374.278H79.8125V370.997Z" fill="#CC0595"/>
<path d="M86.375 370.997H79.8125V374.278H86.375V370.997Z" fill="#FB4694"/>
<path d="M122.469 370.997H102.781V374.278H122.469V370.997Z" fill="#FB4694"/>
<path d="M76.5312 374.278H73.25V377.56H76.5312V374.278Z" fill="#CC0595"/>
<path d="M86.375 374.278H76.5312V377.56H86.375V374.278Z" fill="#FB4694"/>
<path d="M125.75 374.278H106.062V377.56H125.75V374.278Z" fill="#FB4694"/>
<path d="M76.5312 377.56H73.25V380.841H76.5312V377.56Z" fill="#CC0595"/>
<path d="M129.031 377.56H76.5312V380.841H129.031V377.56Z" fill="#FB4694"/>
<path d="M79.8125 380.841H73.25V384.122H79.8125V380.841Z" fill="#CC0595"/>
<path d="M109.344 380.841H79.8125V384.122H109.344V380.841Z" fill="#FB4694"/>
<path d="M122.469 380.841H109.344V384.122H122.469V380.841Z" fill="#CC0595"/>
<path d="M132.312 380.841H122.469V384.122H132.312V380.841Z" fill="#FB4694"/>
<path d="M76.5312 384.122H73.25V387.403H76.5312V384.122Z" fill="#CC0595"/>
<path d="M109.344 384.122H76.5312V387.403H109.344V384.122Z" fill="#FB4694"/>
<path d="M122.469 384.122H109.344V387.403H122.469V384.122Z" fill="#CC0595"/>
<path d="M135.594 384.122H122.469V387.403H135.594V384.122Z" fill="#FB4694"/>
<path d="M76.5312 387.403H73.25V390.685H76.5312V387.403Z" fill="#CC0595"/>
<path d="M138.875 387.403H76.5312V390.685H138.875V387.403Z" fill="#FB4694"/>
<path d="M226.531 61.0596H223.25V64.3408H226.531V61.0596Z" fill="#CC0595"/>
<path d="M226.531 64.3408H223.25V67.6221H226.531V64.3408Z" fill="#CC0595"/>
<path d="M229.812 64.3408H226.531V67.6221H229.812V64.3408Z" fill="#FB4694"/>
<path d="M229.812 67.6221H223.25V70.9033H229.812V67.6221Z" fill="#CC0595"/>
<path d="M233.094 67.6221H229.812V70.9033H233.094V67.6221Z" fill="#FB4694"/>
<path d="M226.531 70.9033H223.25V74.1846H226.531V70.9033Z" fill="#CC0595"/>
<path d="M236.375 70.9033H226.531V74.1846H236.375V70.9033Z" fill="#FB4694"/>
<path d="M226.531 74.1846H223.25V77.4658H226.531V74.1846Z" fill="#CC0595"/>
<path d="M239.656 74.1846H226.531V77.4658H239.656V74.1846Z" fill="#FB4694"/>
<path d="M229.812 77.4658H223.25V80.7471H229.812V77.4658Z" fill="#CC0595"/>
<path d="M242.938 77.4658H229.812V80.7471H242.938V77.4658Z" fill="#FB4694"/>
<path d="M226.531 80.7471H223.25V84.0283H226.531V80.7471Z" fill="#CC0595"/>
<path d="M246.219 80.7471H226.531V84.0283H246.219V80.7471Z" fill="#FB4694"/>
<path d="M226.531 84.0283H223.25V87.3096H226.531V84.0283Z" fill="#CC0595"/>
<path d="M249.5 84.0283H226.531V87.3096H249.5V84.0283Z" fill="#FB4694"/>
<path d="M229.812 87.3096H223.25V90.5908H229.812V87.3096Z" fill="#CC0595"/>
<path d="M252.781 87.3096H229.812V90.5908H252.781V87.3096Z" fill="#FB4694"/>
<path d="M226.531 90.5908H223.25V93.8721H226.531V90.5908Z" fill="#CC0595"/>
<path d="M256.062 90.5908H226.531V93.8721H256.062V90.5908Z" fill="#FB4694"/>
<path d="M226.531 93.8721H223.25V97.1533H226.531V93.8721Z" fill="#CC0595"/>
<path d="M236.375 93.8721H226.531V97.1533H236.375V93.8721Z" fill="#FB4694"/>
<path d="M259.344 93.8721H239.656V97.1533H259.344V93.8721Z" fill="#FB4694"/>
<path d="M229.812 97.1533H223.25V100.435H229.812V97.1533Z" fill="#CC0595"/>
<path d="M236.375 97.1533H229.812V100.435H236.375V97.1533Z" fill="#FB4694"/>
<path d="M262.625 97.1533H242.938V100.435H262.625V97.1533Z" fill="#FB4694"/>
<path d="M226.531 100.435H223.25V103.716H226.531V100.435Z" fill="#CC0595"/>
<path d="M236.375 100.435H226.531V103.716H236.375V100.435Z" fill="#FB4694"/>
<path d="M265.906 100.435H246.219V103.716H265.906V100.435Z" fill="#FB4694"/>
<path d="M226.531 103.716H223.25V106.997H226.531V103.716Z" fill="#CC0595"/>
<path d="M236.375 103.716H226.531V106.997H236.375V103.716Z" fill="#FB4694"/>
<path d="M269.188 103.716H249.5V106.997H269.188V103.716Z" fill="#FB4694"/>
<path d="M229.812 106.997H223.25V110.278H229.812V106.997Z" fill="#CC0595"/>
<path d="M236.375 106.997H229.812V110.278H236.375V106.997Z" fill="#FB4694"/>
<path d="M272.469 106.997H252.781V110.278H272.469V106.997Z" fill="#FB4694"/>
<path d="M226.531 110.278H223.25V113.56H226.531V110.278Z" fill="#CC0595"/>
<path d="M236.375 110.278H226.531V113.56H236.375V110.278Z" fill="#FB4694"/>
<path d="M275.75 110.278H256.062V113.56H275.75V110.278Z" fill="#FB4694"/>
<path d="M226.531 113.56H223.25V116.841H226.531V113.56Z" fill="#CC0595"/>
<path d="M279.031 113.56H226.531V116.841H279.031V113.56Z" fill="#FB4694"/>
<path d="M229.812 116.841H223.25V120.122H229.812V116.841Z" fill="#CC0595"/>
<path d="M259.344 116.841H229.812V120.122H259.344V116.841Z" fill="#FB4694"/>
<path d="M272.469 116.841H259.344V120.122H272.469V116.841Z" fill="#CC0595"/>
<path d="M282.312 116.841H272.469V120.122H282.312V116.841Z" fill="#FB4694"/>
<path d="M226.531 120.122H223.25V123.403H226.531V120.122Z" fill="#CC0595"/>
<path d="M259.344 120.122H226.531V123.403H259.344V120.122Z" fill="#FB4694"/>
<path d="M272.469 120.122H259.344V123.403H272.469V120.122Z" fill="#CC0595"/>
<path d="M285.594 120.122H272.469V123.403H285.594V120.122Z" fill="#FB4694"/>
<path d="M226.531 123.403H223.25V126.685H226.531V123.403Z" fill="#CC0595"/>
<path d="M288.875 123.403H226.531V126.685H288.875V123.403Z" fill="#FB4694"/>
<path d="M96.125 127.225C92.7135 127.225 89.5755 126.626 86.7109 125.428C83.8724 124.23 81.3854 122.446 79.25 120.077C77.1406 117.681 75.5 114.699 74.3281 111.131C73.1823 107.538 72.6094 103.345 72.6094 98.5532V98.4751C72.6094 92.3293 73.5599 87.0428 75.4609 82.6157C77.362 78.1886 80.0703 74.8032 83.5859 72.4595C87.1276 70.0897 91.3464 68.9048 96.2422 68.9048C99.888 68.9048 103.169 69.5558 106.086 70.8579C109.003 72.134 111.411 73.9048 113.312 76.1704C115.24 78.436 116.477 81.0142 117.023 83.9048L117.102 84.2954H105.461L105.344 83.9438C104.875 82.798 104.211 81.8084 103.352 80.9751C102.518 80.1157 101.503 79.4517 100.305 78.9829C99.1068 78.4881 97.7396 78.2407 96.2031 78.2407C93.4688 78.2407 91.2161 79.035 89.4453 80.6235C87.7005 82.2121 86.3854 84.3475 85.5 87.0298C84.6146 89.7121 84.0938 92.7199 83.9375 96.0532C83.9115 96.4438 83.8854 96.8345 83.8594 97.2251C83.8594 97.6157 83.8594 98.0063 83.8594 98.397L85.6562 107.772C85.6562 109.647 86.112 111.353 87.0234 112.889C87.9349 114.4 89.1719 115.611 90.7344 116.522C92.2969 117.407 94.0417 117.85 95.9688 117.85C97.8958 117.85 99.6406 117.407 101.203 116.522C102.766 115.637 104.016 114.452 104.953 112.967C105.891 111.457 106.359 109.777 106.359 107.928V107.85C106.359 105.897 105.904 104.165 104.992 102.655C104.107 101.144 102.883 99.9725 101.32 99.1392C99.7839 98.2798 98.0391 97.8501 96.0859 97.8501C94.1328 97.8501 92.362 98.2798 90.7734 99.1392C89.1849 99.9725 87.9349 101.131 87.0234 102.616C86.112 104.1 85.6562 105.793 85.6562 107.694V107.772H83.2734V98.2017H84.0938C84.849 96.4569 85.9427 94.9074 87.375 93.5532C88.8333 92.1991 90.5781 91.1313 92.6094 90.3501C94.6667 89.5428 96.9583 89.1392 99.4844 89.1392C103.13 89.1392 106.32 89.9334 109.055 91.522C111.815 93.0845 113.964 95.2459 115.5 98.0063C117.062 100.767 117.844 103.905 117.844 107.42V107.499C117.844 111.353 116.906 114.764 115.031 117.733C113.156 120.676 110.578 122.993 107.297 124.686C104.042 126.379 100.318 127.225 96.125 127.225Z" fill="#FB4694"/>
<path d="M253.125 386.474C249.714 386.474 246.576 385.875 243.711 384.677C240.872 383.479 238.385 381.695 236.25 379.325C234.141 376.929 232.5 373.948 231.328 370.38C230.182 366.786 229.609 362.593 229.609 357.802V357.724C229.609 351.578 230.56 346.291 232.461 341.864C234.362 337.437 237.07 334.052 240.586 331.708C244.128 329.338 248.346 328.153 253.242 328.153C256.888 328.153 260.169 328.804 263.086 330.106C266.003 331.382 268.411 333.153 270.312 335.419C272.24 337.685 273.477 340.263 274.023 343.153L274.102 343.544H262.461L262.344 343.192C261.875 342.047 261.211 341.057 260.352 340.224C259.518 339.364 258.503 338.7 257.305 338.231C256.107 337.737 254.74 337.489 253.203 337.489C250.469 337.489 248.216 338.284 246.445 339.872C244.701 341.461 243.385 343.596 242.5 346.278C241.615 348.961 241.094 351.968 240.938 355.302C240.911 355.692 240.885 356.083 240.859 356.474C240.859 356.864 240.859 357.255 240.859 357.646L242.656 367.021C242.656 368.896 243.112 370.601 244.023 372.138C244.935 373.648 246.172 374.859 247.734 375.771C249.297 376.656 251.042 377.099 252.969 377.099C254.896 377.099 256.641 376.656 258.203 375.771C259.766 374.885 261.016 373.7 261.953 372.216C262.891 370.705 263.359 369.026 263.359 367.177V367.099C263.359 365.146 262.904 363.414 261.992 361.903C261.107 360.393 259.883 359.221 258.32 358.388C256.784 357.528 255.039 357.099 253.086 357.099C251.133 357.099 249.362 357.528 247.773 358.388C246.185 359.221 244.935 360.38 244.023 361.864C243.112 363.349 242.656 365.041 242.656 366.942V367.021H240.273V357.45H241.094C241.849 355.705 242.943 354.156 244.375 352.802C245.833 351.448 247.578 350.38 249.609 349.599C251.667 348.791 253.958 348.388 256.484 348.388C260.13 348.388 263.32 349.182 266.055 350.771C268.815 352.333 270.964 354.494 272.5 357.255C274.062 360.015 274.844 363.153 274.844 366.669V366.747C274.844 370.601 273.906 374.013 272.031 376.981C270.156 379.924 267.578 382.242 264.297 383.935C261.042 385.627 257.318 386.474 253.125 386.474Z" fill="#FB4694"/>
<defs>
<filter id="filter0_d_18_11923" x="0" y="0.248535" width="348" height="462" filterUnits="userSpaceOnUse" color-interpolation-filters="sRGB">
<feFlood flood-opacity="0" result="BackgroundImageFix"/>
<feColorMatrix in="SourceAlpha" type="matrix" values="0 0 0 0 0 0 0 0 0 0 0 0 0 0 0 0 0 0 127 0" result="hardAlpha"/>
<feOffset dy="5"/>
<feGaussianBlur stdDeviation="17"/>
<feColorMatrix type="matrix" values="0 0 0 0 0 0 0 0 0 0 0 0 0 0 0 0 0 0 0.1 0"/>
<feBlend mode="normal" in2="BackgroundImageFix" result="effect1_dropShadow_18_11923"/>
<feBlend mode="normal" in="SourceGraphic" in2="effect1_dropShadow_18_11923" result="shape"/>
</filter>
</defs>
</svg>
