<svg width="348" height="463" viewBox="0 0 348 463" fill="none" xmlns="http://www.w3.org/2000/svg">
<g filter="url(#filter0_d_18_14593)">
<rect x="34" y="29.2485" width="280" height="394" rx="20" fill="#F2F2F2"/>
<rect x="34.5" y="29.7485" width="279" height="393" rx="19.5" stroke="#D2D2D2"/>
</g>
<path d="M76.5312 325.06H73.25V328.341H76.5312V325.06Z" fill="#CC0595"/>
<path d="M76.5312 328.341H73.25V331.622H76.5312V328.341Z" fill="#CC0595"/>
<path d="M79.8125 328.341H76.5312V331.622H79.8125V328.341Z" fill="#FB4694"/>
<path d="M79.8125 331.622H73.25V334.903H79.8125V331.622Z" fill="#CC0595"/>
<path d="M83.0938 331.622H79.8125V334.903H83.0938V331.622Z" fill="#FB4694"/>
<path d="M76.5312 334.903H73.25V338.185H76.5312V334.903Z" fill="#CC0595"/>
<path d="M86.375 334.903H76.5312V338.185H86.375V334.903Z" fill="#FB4694"/>
<path d="M76.5312 338.185H73.25V341.466H76.5312V338.185Z" fill="#CC0595"/>
<path d="M89.6562 338.185H76.5312V341.466H89.6562V338.185Z" fill="#FB4694"/>
<path d="M79.8125 341.466H73.25V344.747H79.8125V341.466Z" fill="#CC0595"/>
<path d="M92.9375 341.466H79.8125V344.747H92.9375V341.466Z" fill="#FB4694"/>
<path d="M76.5312 344.747H73.25V348.028H76.5312V344.747Z" fill="#CC0595"/>
<path d="M96.2188 344.747H76.5312V348.028H96.2188V344.747Z" fill="#FB4694"/>
<path d="M76.5312 348.028H73.25V351.31H76.5312V348.028Z" fill="#CC0595"/>
<path d="M99.5 348.028H76.5312V351.31H99.5V348.028Z" fill="#FB4694"/>
<path d="M79.8125 351.31H73.25V354.591H79.8125V351.31Z" fill="#CC0595"/>
<path d="M102.781 351.31H79.8125V354.591H102.781V351.31Z" fill="#FB4694"/>
<path d="M76.5312 354.591H73.25V357.872H76.5312V354.591Z" fill="#CC0595"/>
<path d="M106.062 354.591H76.5312V357.872H106.062V354.591Z" fill="#FB4694"/>
<path d="M76.5312 357.872H73.25V361.153H76.5312V357.872Z" fill="#CC0595"/>
<path d="M86.375 357.872H76.5312V361.153H86.375V357.872Z" fill="#FB4694"/>
<path d="M109.344 357.872H89.6562V361.153H109.344V357.872Z" fill="#FB4694"/>
<path d="M79.8125 361.153H73.25V364.435H79.8125V361.153Z" fill="#CC0595"/>
<path d="M86.375 361.153H79.8125V364.435H86.375V361.153Z" fill="#FB4694"/>
<path d="M112.625 361.153H92.9375V364.435H112.625V361.153Z" fill="#FB4694"/>
<path d="M76.5312 364.435H73.25V367.716H76.5312V364.435Z" fill="#CC0595"/>
<path d="M86.375 364.435H76.5312V367.716H86.375V364.435Z" fill="#FB4694"/>
<path d="M115.906 364.435H96.2188V367.716H115.906V364.435Z" fill="#FB4694"/>
<path d="M76.5312 367.716H73.25V370.997H76.5312V367.716Z" fill="#CC0595"/>
<path d="M86.375 367.716H76.5312V370.997H86.375V367.716Z" fill="#FB4694"/>
<path d="M119.188 367.716H99.5V370.997H119.188V367.716Z" fill="#FB4694"/>
<path d="M79.8125 370.997H73.25V374.278H79.8125V370.997Z" fill="#CC0595"/>
<path d="M86.375 370.997H79.8125V374.278H86.375V370.997Z" fill="#FB4694"/>
<path d="M122.469 370.997H102.781V374.278H122.469V370.997Z" fill="#FB4694"/>
<path d="M76.5312 374.278H73.25V377.56H76.5312V374.278Z" fill="#CC0595"/>
<path d="M86.375 374.278H76.5312V377.56H86.375V374.278Z" fill="#FB4694"/>
<path d="M125.75 374.278H106.062V377.56H125.75V374.278Z" fill="#FB4694"/>
<path d="M76.5312 377.56H73.25V380.841H76.5312V377.56Z" fill="#CC0595"/>
<path d="M129.031 377.56H76.5312V380.841H129.031V377.56Z" fill="#FB4694"/>
<path d="M79.8125 380.841H73.25V384.122H79.8125V380.841Z" fill="#CC0595"/>
<path d="M109.344 380.841H79.8125V384.122H109.344V380.841Z" fill="#FB4694"/>
<path d="M122.469 380.841H109.344V384.122H122.469V380.841Z" fill="#CC0595"/>
<path d="M132.312 380.841H122.469V384.122H132.312V380.841Z" fill="#FB4694"/>
<path d="M76.5312 384.122H73.25V387.403H76.5312V384.122Z" fill="#CC0595"/>
<path d="M109.344 384.122H76.5312V387.403H109.344V384.122Z" fill="#FB4694"/>
<path d="M122.469 384.122H109.344V387.403H122.469V384.122Z" fill="#CC0595"/>
<path d="M135.594 384.122H122.469V387.403H135.594V384.122Z" fill="#FB4694"/>
<path d="M76.5312 387.403H73.25V390.685H76.5312V387.403Z" fill="#CC0595"/>
<path d="M138.875 387.403H76.5312V390.685H138.875V387.403Z" fill="#FB4694"/>
<path d="M226.531 61.0596H223.25V64.3408H226.531V61.0596Z" fill="#CC0595"/>
<path d="M226.531 64.3408H223.25V67.6221H226.531V64.3408Z" fill="#CC0595"/>
<path d="M229.812 64.3408H226.531V67.6221H229.812V64.3408Z" fill="#FB4694"/>
<path d="M229.812 67.6221H223.25V70.9033H229.812V67.6221Z" fill="#CC0595"/>
<path d="M233.094 67.6221H229.812V70.9033H233.094V67.6221Z" fill="#FB4694"/>
<path d="M226.531 70.9033H223.25V74.1846H226.531V70.9033Z" fill="#CC0595"/>
<path d="M236.375 70.9033H226.531V74.1846H236.375V70.9033Z" fill="#FB4694"/>
<path d="M226.531 74.1846H223.25V77.4658H226.531V74.1846Z" fill="#CC0595"/>
<path d="M239.656 74.1846H226.531V77.4658H239.656V74.1846Z" fill="#FB4694"/>
<path d="M229.812 77.4658H223.25V80.7471H229.812V77.4658Z" fill="#CC0595"/>
<path d="M242.938 77.4658H229.812V80.7471H242.938V77.4658Z" fill="#FB4694"/>
<path d="M226.531 80.7471H223.25V84.0283H226.531V80.7471Z" fill="#CC0595"/>
<path d="M246.219 80.7471H226.531V84.0283H246.219V80.7471Z" fill="#FB4694"/>
<path d="M226.531 84.0283H223.25V87.3096H226.531V84.0283Z" fill="#CC0595"/>
<path d="M249.5 84.0283H226.531V87.3096H249.5V84.0283Z" fill="#FB4694"/>
<path d="M229.812 87.3096H223.25V90.5908H229.812V87.3096Z" fill="#CC0595"/>
<path d="M252.781 87.3096H229.812V90.5908H252.781V87.3096Z" fill="#FB4694"/>
<path d="M226.531 90.5908H223.25V93.8721H226.531V90.5908Z" fill="#CC0595"/>
<path d="M256.062 90.5908H226.531V93.8721H256.062V90.5908Z" fill="#FB4694"/>
<path d="M226.531 93.8721H223.25V97.1533H226.531V93.8721Z" fill="#CC0595"/>
<path d="M236.375 93.8721H226.531V97.1533H236.375V93.8721Z" fill="#FB4694"/>
<path d="M259.344 93.8721H239.656V97.1533H259.344V93.8721Z" fill="#FB4694"/>
<path d="M229.812 97.1533H223.25V100.435H229.812V97.1533Z" fill="#CC0595"/>
<path d="M236.375 97.1533H229.812V100.435H236.375V97.1533Z" fill="#FB4694"/>
<path d="M262.625 97.1533H242.938V100.435H262.625V97.1533Z" fill="#FB4694"/>
<path d="M226.531 100.435H223.25V103.716H226.531V100.435Z" fill="#CC0595"/>
<path d="M236.375 100.435H226.531V103.716H236.375V100.435Z" fill="#FB4694"/>
<path d="M265.906 100.435H246.219V103.716H265.906V100.435Z" fill="#FB4694"/>
<path d="M226.531 103.716H223.25V106.997H226.531V103.716Z" fill="#CC0595"/>
<path d="M236.375 103.716H226.531V106.997H236.375V103.716Z" fill="#FB4694"/>
<path d="M269.188 103.716H249.5V106.997H269.188V103.716Z" fill="#FB4694"/>
<path d="M229.812 106.997H223.25V110.278H229.812V106.997Z" fill="#CC0595"/>
<path d="M236.375 106.997H229.812V110.278H236.375V106.997Z" fill="#FB4694"/>
<path d="M272.469 106.997H252.781V110.278H272.469V106.997Z" fill="#FB4694"/>
<path d="M226.531 110.278H223.25V113.56H226.531V110.278Z" fill="#CC0595"/>
<path d="M236.375 110.278H226.531V113.56H236.375V110.278Z" fill="#FB4694"/>
<path d="M275.75 110.278H256.062V113.56H275.75V110.278Z" fill="#FB4694"/>
<path d="M226.531 113.56H223.25V116.841H226.531V113.56Z" fill="#CC0595"/>
<path d="M279.031 113.56H226.531V116.841H279.031V113.56Z" fill="#FB4694"/>
<path d="M229.812 116.841H223.25V120.122H229.812V116.841Z" fill="#CC0595"/>
<path d="M259.344 116.841H229.812V120.122H259.344V116.841Z" fill="#FB4694"/>
<path d="M272.469 116.841H259.344V120.122H272.469V116.841Z" fill="#CC0595"/>
<path d="M282.312 116.841H272.469V120.122H282.312V116.841Z" fill="#FB4694"/>
<path d="M226.531 120.122H223.25V123.403H226.531V120.122Z" fill="#CC0595"/>
<path d="M259.344 120.122H226.531V123.403H259.344V120.122Z" fill="#FB4694"/>
<path d="M272.469 120.122H259.344V123.403H272.469V120.122Z" fill="#CC0595"/>
<path d="M285.594 120.122H272.469V123.403H285.594V120.122Z" fill="#FB4694"/>
<path d="M226.531 123.403H223.25V126.685H226.531V123.403Z" fill="#CC0595"/>
<path d="M288.875 123.403H226.531V126.685H288.875V123.403Z" fill="#FB4694"/>
<path d="M95.5 127.225C89.9271 127.225 85.0964 126.04 81.0078 123.67C76.9453 121.301 73.8073 117.941 71.5938 113.592C69.4062 109.217 68.3125 104.048 68.3125 98.0845V98.0063C68.3125 92.0168 69.4193 86.8475 71.6328 82.4985C73.8464 78.1496 76.9844 74.8032 81.0469 72.4595C85.1354 70.0897 89.9531 68.9048 95.5 68.9048C101.073 68.9048 105.891 70.0897 109.953 72.4595C114.016 74.8293 117.154 78.1886 119.367 82.5376C121.581 86.8605 122.688 92.0168 122.688 98.0063V98.0845C122.688 104.048 121.581 109.217 119.367 113.592C117.154 117.941 114.016 121.301 109.953 123.67C105.917 126.04 101.099 127.225 95.5 127.225ZM95.5 117.225C98.625 117.225 101.307 116.444 103.547 114.881C105.812 113.293 107.557 111.066 108.781 108.202C110.005 105.337 110.617 101.965 110.617 98.0845V98.0063C110.617 94.0741 109.992 90.6886 108.742 87.8501C107.518 84.9855 105.773 82.785 103.508 81.2485C101.242 79.686 98.5729 78.9048 95.5 78.9048C92.4271 78.9048 89.7578 79.673 87.4922 81.2095C85.2266 82.7459 83.4688 84.9465 82.2188 87.811C80.9688 90.6496 80.3438 94.048 80.3438 98.0063V98.0845C80.3438 101.991 80.9557 105.376 82.1797 108.241C83.4297 111.105 85.1875 113.319 87.4531 114.881C89.7188 116.444 92.401 117.225 95.5 117.225ZM109.562 131.522L92.1406 106.913H103.352L120.773 131.522H109.562Z" fill="#FB4694"/>
<path d="M252.5 386.474C246.927 386.474 242.096 385.289 238.008 382.919C233.945 380.549 230.807 377.19 228.594 372.841C226.406 368.466 225.312 363.297 225.312 357.333V357.255C225.312 351.265 226.419 346.096 228.633 341.747C230.846 337.398 233.984 334.052 238.047 331.708C242.135 329.338 246.953 328.153 252.5 328.153C258.073 328.153 262.891 329.338 266.953 331.708C271.016 334.078 274.154 337.437 276.367 341.786C278.581 346.109 279.688 351.265 279.688 357.255V357.333C279.688 363.297 278.581 368.466 276.367 372.841C274.154 377.19 271.016 380.549 266.953 382.919C262.917 385.289 258.099 386.474 252.5 386.474ZM252.5 376.474C255.625 376.474 258.307 375.692 260.547 374.13C262.812 372.541 264.557 370.315 265.781 367.45C267.005 364.586 267.617 361.213 267.617 357.333V357.255C267.617 353.323 266.992 349.937 265.742 347.099C264.518 344.234 262.773 342.034 260.508 340.497C258.242 338.935 255.573 338.153 252.5 338.153C249.427 338.153 246.758 338.922 244.492 340.458C242.227 341.994 240.469 344.195 239.219 347.06C237.969 349.898 237.344 353.297 237.344 357.255V357.333C237.344 361.239 237.956 364.625 239.18 367.489C240.43 370.354 242.188 372.567 244.453 374.13C246.719 375.692 249.401 376.474 252.5 376.474ZM266.562 390.771L249.141 366.161H260.352L277.773 390.771H266.562Z" fill="#FB4694"/>
<path d="M207.75 162.499H180.75V169.249H207.75V162.499Z" fill="#FF638D"/>
<path d="M228 162.499H207.75V169.249H228V162.499Z" fill="#FEE3F3"/>
<path d="M207.75 169.249H167.25V175.999H207.75V169.249Z" fill="#FF638D"/>
<path d="M214.5 169.249H207.75V175.999H214.5V169.249Z" fill="#FEE3F3"/>
<path d="M221.25 169.249H214.5V175.999H221.25V169.249Z" fill="black"/>
<path d="M228 169.249H221.25V175.999H228V169.249Z" fill="#FEE3F3"/>
<path d="M234.75 169.249H228V175.999H234.75V169.249Z" fill="#FF638D"/>
<path d="M207.75 175.999H160.5V182.749H207.75V175.999Z" fill="#FF638D"/>
<path d="M228 175.999H207.75V182.749H228V175.999Z" fill="#FEE3F3"/>
<path d="M241.5 175.999H228V182.749H241.5V175.999Z" fill="#FF638D"/>
<path d="M180.75 182.749H153.75V189.499H180.75V182.749Z" fill="#FF638D"/>
<path d="M234.75 182.749H214.5V189.499H234.75V182.749Z" fill="#FF638D"/>
<path d="M248.25 182.749H234.75V189.499H248.25V182.749Z" fill="#FEB9D5"/>
<path d="M174 189.499H147V196.249H174V189.499Z" fill="#FF638D"/>
<path d="M248.25 189.499H228V196.249H248.25V189.499Z" fill="#FEB9D5"/>
<path d="M174 196.249H147V202.999H174V196.249Z" fill="#FF638D"/>
<path d="M241.5 196.249H228V202.999H241.5V196.249Z" fill="#FEB9D5"/>
<path d="M248.25 196.249H241.5V202.999H248.25V196.249Z" fill="#1F1D29"/>
<path d="M180.75 202.999H147V209.749H180.75V202.999Z" fill="#FF638D"/>
<path d="M248.25 202.999H234.75V209.749H248.25V202.999Z" fill="#1F1D29"/>
<path d="M194.25 209.749H153.75V216.499H194.25V209.749Z" fill="#FF638D"/>
<path d="M248.25 209.749H234.75V216.499H248.25V209.749Z" fill="#1F1D29"/>
<path d="M214.5 216.499H160.5V223.249H214.5V216.499Z" fill="#FF638D"/>
<path d="M241.5 216.499H234.75V223.249H241.5V216.499Z" fill="#1F1D29"/>
<path d="M228 223.249H167.25V229.999H228V223.249Z" fill="#FF638D"/>
<path d="M234.75 229.999H174V236.749H234.75V229.999Z" fill="#FF638D"/>
<path d="M241.5 236.749H187.5V243.499H241.5V236.749Z" fill="#FF638D"/>
<path d="M241.5 243.499H201V250.249H241.5V243.499Z" fill="#FF638D"/>
<path d="M248.25 250.249H106.5V256.999H248.25V250.249Z" fill="#FF82AD"/>
<path d="M248.25 256.999H99.75V263.749H248.25V256.999Z" fill="#FF82AD"/>
<path d="M174 263.749H99.75V270.499H174V263.749Z" fill="#FF638D"/>
<path d="M214.5 263.749H174V270.499H214.5V263.749Z" fill="#B9185C"/>
<path d="M248.25 263.749H214.5V270.499H248.25V263.749Z" fill="#FF638D"/>
<path d="M248.25 270.499H99.75V277.249H248.25V270.499Z" fill="#FF638D"/>
<path d="M241.5 277.249H106.5V283.999H241.5V277.249Z" fill="#FF638D"/>
<defs>
<filter id="filter0_d_18_14593" x="0" y="0.248535" width="348" height="462" filterUnits="userSpaceOnUse" color-interpolation-filters="sRGB">
<feFlood flood-opacity="0" result="BackgroundImageFix"/>
<feColorMatrix in="SourceAlpha" type="matrix" values="0 0 0 0 0 0 0 0 0 0 0 0 0 0 0 0 0 0 127 0" result="hardAlpha"/>
<feOffset dy="5"/>
<feGaussianBlur stdDeviation="17"/>
<feColorMatrix type="matrix" values="0 0 0 0 0 0 0 0 0 0 0 0 0 0 0 0 0 0 0.1 0"/>
<feBlend mode="normal" in2="BackgroundImageFix" result="effect1_dropShadow_18_14593"/>
<feBlend mode="normal" in="SourceGraphic" in2="effect1_dropShadow_18_14593" result="shape"/>
</filter>
</defs>
</svg>
