<svg width="348" height="463" viewBox="0 0 348 463" fill="none" xmlns="http://www.w3.org/2000/svg">
<g filter="url(#filter0_d_18_13525)">
<rect x="34" y="29.2485" width="280" height="394" rx="20" fill="#F2F2F2"/>
<rect x="34.5" y="29.7485" width="279" height="393" rx="19.5" stroke="#D2D2D2"/>
</g>
<path d="M76.5312 325.06H73.25V328.341H76.5312V325.06Z" fill="#CC0595"/>
<path d="M76.5312 328.341H73.25V331.622H76.5312V328.341Z" fill="#CC0595"/>
<path d="M79.8125 328.341H76.5312V331.622H79.8125V328.341Z" fill="#FB4694"/>
<path d="M79.8125 331.622H73.25V334.903H79.8125V331.622Z" fill="#CC0595"/>
<path d="M83.0938 331.622H79.8125V334.903H83.0938V331.622Z" fill="#FB4694"/>
<path d="M76.5312 334.903H73.25V338.185H76.5312V334.903Z" fill="#CC0595"/>
<path d="M86.375 334.903H76.5312V338.185H86.375V334.903Z" fill="#FB4694"/>
<path d="M76.5312 338.185H73.25V341.466H76.5312V338.185Z" fill="#CC0595"/>
<path d="M89.6562 338.185H76.5312V341.466H89.6562V338.185Z" fill="#FB4694"/>
<path d="M79.8125 341.466H73.25V344.747H79.8125V341.466Z" fill="#CC0595"/>
<path d="M92.9375 341.466H79.8125V344.747H92.9375V341.466Z" fill="#FB4694"/>
<path d="M76.5312 344.747H73.25V348.028H76.5312V344.747Z" fill="#CC0595"/>
<path d="M96.2188 344.747H76.5312V348.028H96.2188V344.747Z" fill="#FB4694"/>
<path d="M76.5312 348.028H73.25V351.31H76.5312V348.028Z" fill="#CC0595"/>
<path d="M99.5 348.028H76.5312V351.31H99.5V348.028Z" fill="#FB4694"/>
<path d="M79.8125 351.31H73.25V354.591H79.8125V351.31Z" fill="#CC0595"/>
<path d="M102.781 351.31H79.8125V354.591H102.781V351.31Z" fill="#FB4694"/>
<path d="M76.5312 354.591H73.25V357.872H76.5312V354.591Z" fill="#CC0595"/>
<path d="M106.062 354.591H76.5312V357.872H106.062V354.591Z" fill="#FB4694"/>
<path d="M76.5312 357.872H73.25V361.153H76.5312V357.872Z" fill="#CC0595"/>
<path d="M86.375 357.872H76.5312V361.153H86.375V357.872Z" fill="#FB4694"/>
<path d="M109.344 357.872H89.6562V361.153H109.344V357.872Z" fill="#FB4694"/>
<path d="M79.8125 361.153H73.25V364.435H79.8125V361.153Z" fill="#CC0595"/>
<path d="M86.375 361.153H79.8125V364.435H86.375V361.153Z" fill="#FB4694"/>
<path d="M112.625 361.153H92.9375V364.435H112.625V361.153Z" fill="#FB4694"/>
<path d="M76.5312 364.435H73.25V367.716H76.5312V364.435Z" fill="#CC0595"/>
<path d="M86.375 364.435H76.5312V367.716H86.375V364.435Z" fill="#FB4694"/>
<path d="M115.906 364.435H96.2188V367.716H115.906V364.435Z" fill="#FB4694"/>
<path d="M76.5312 367.716H73.25V370.997H76.5312V367.716Z" fill="#CC0595"/>
<path d="M86.375 367.716H76.5312V370.997H86.375V367.716Z" fill="#FB4694"/>
<path d="M119.188 367.716H99.5V370.997H119.188V367.716Z" fill="#FB4694"/>
<path d="M79.8125 370.997H73.25V374.278H79.8125V370.997Z" fill="#CC0595"/>
<path d="M86.375 370.997H79.8125V374.278H86.375V370.997Z" fill="#FB4694"/>
<path d="M122.469 370.997H102.781V374.278H122.469V370.997Z" fill="#FB4694"/>
<path d="M76.5312 374.278H73.25V377.56H76.5312V374.278Z" fill="#CC0595"/>
<path d="M86.375 374.278H76.5312V377.56H86.375V374.278Z" fill="#FB4694"/>
<path d="M125.75 374.278H106.062V377.56H125.75V374.278Z" fill="#FB4694"/>
<path d="M76.5312 377.56H73.25V380.841H76.5312V377.56Z" fill="#CC0595"/>
<path d="M129.031 377.56H76.5312V380.841H129.031V377.56Z" fill="#FB4694"/>
<path d="M79.8125 380.841H73.25V384.122H79.8125V380.841Z" fill="#CC0595"/>
<path d="M109.344 380.841H79.8125V384.122H109.344V380.841Z" fill="#FB4694"/>
<path d="M122.469 380.841H109.344V384.122H122.469V380.841Z" fill="#CC0595"/>
<path d="M132.312 380.841H122.469V384.122H132.312V380.841Z" fill="#FB4694"/>
<path d="M76.5312 384.122H73.25V387.403H76.5312V384.122Z" fill="#CC0595"/>
<path d="M109.344 384.122H76.5312V387.403H109.344V384.122Z" fill="#FB4694"/>
<path d="M122.469 384.122H109.344V387.403H122.469V384.122Z" fill="#CC0595"/>
<path d="M135.594 384.122H122.469V387.403H135.594V384.122Z" fill="#FB4694"/>
<path d="M76.5312 387.403H73.25V390.685H76.5312V387.403Z" fill="#CC0595"/>
<path d="M138.875 387.403H76.5312V390.685H138.875V387.403Z" fill="#FB4694"/>
<path d="M226.531 61.0596H223.25V64.3408H226.531V61.0596Z" fill="#CC0595"/>
<path d="M226.531 64.3408H223.25V67.6221H226.531V64.3408Z" fill="#CC0595"/>
<path d="M229.812 64.3408H226.531V67.6221H229.812V64.3408Z" fill="#FB4694"/>
<path d="M229.812 67.6221H223.25V70.9033H229.812V67.6221Z" fill="#CC0595"/>
<path d="M233.094 67.6221H229.812V70.9033H233.094V67.6221Z" fill="#FB4694"/>
<path d="M226.531 70.9033H223.25V74.1846H226.531V70.9033Z" fill="#CC0595"/>
<path d="M236.375 70.9033H226.531V74.1846H236.375V70.9033Z" fill="#FB4694"/>
<path d="M226.531 74.1846H223.25V77.4658H226.531V74.1846Z" fill="#CC0595"/>
<path d="M239.656 74.1846H226.531V77.4658H239.656V74.1846Z" fill="#FB4694"/>
<path d="M229.812 77.4658H223.25V80.7471H229.812V77.4658Z" fill="#CC0595"/>
<path d="M242.938 77.4658H229.812V80.7471H242.938V77.4658Z" fill="#FB4694"/>
<path d="M226.531 80.7471H223.25V84.0283H226.531V80.7471Z" fill="#CC0595"/>
<path d="M246.219 80.7471H226.531V84.0283H246.219V80.7471Z" fill="#FB4694"/>
<path d="M226.531 84.0283H223.25V87.3096H226.531V84.0283Z" fill="#CC0595"/>
<path d="M249.5 84.0283H226.531V87.3096H249.5V84.0283Z" fill="#FB4694"/>
<path d="M229.812 87.3096H223.25V90.5908H229.812V87.3096Z" fill="#CC0595"/>
<path d="M252.781 87.3096H229.812V90.5908H252.781V87.3096Z" fill="#FB4694"/>
<path d="M226.531 90.5908H223.25V93.8721H226.531V90.5908Z" fill="#CC0595"/>
<path d="M256.062 90.5908H226.531V93.8721H256.062V90.5908Z" fill="#FB4694"/>
<path d="M226.531 93.8721H223.25V97.1533H226.531V93.8721Z" fill="#CC0595"/>
<path d="M236.375 93.8721H226.531V97.1533H236.375V93.8721Z" fill="#FB4694"/>
<path d="M259.344 93.8721H239.656V97.1533H259.344V93.8721Z" fill="#FB4694"/>
<path d="M229.812 97.1533H223.25V100.435H229.812V97.1533Z" fill="#CC0595"/>
<path d="M236.375 97.1533H229.812V100.435H236.375V97.1533Z" fill="#FB4694"/>
<path d="M262.625 97.1533H242.938V100.435H262.625V97.1533Z" fill="#FB4694"/>
<path d="M226.531 100.435H223.25V103.716H226.531V100.435Z" fill="#CC0595"/>
<path d="M236.375 100.435H226.531V103.716H236.375V100.435Z" fill="#FB4694"/>
<path d="M265.906 100.435H246.219V103.716H265.906V100.435Z" fill="#FB4694"/>
<path d="M226.531 103.716H223.25V106.997H226.531V103.716Z" fill="#CC0595"/>
<path d="M236.375 103.716H226.531V106.997H236.375V103.716Z" fill="#FB4694"/>
<path d="M269.188 103.716H249.5V106.997H269.188V103.716Z" fill="#FB4694"/>
<path d="M229.812 106.997H223.25V110.278H229.812V106.997Z" fill="#CC0595"/>
<path d="M236.375 106.997H229.812V110.278H236.375V106.997Z" fill="#FB4694"/>
<path d="M272.469 106.997H252.781V110.278H272.469V106.997Z" fill="#FB4694"/>
<path d="M226.531 110.278H223.25V113.56H226.531V110.278Z" fill="#CC0595"/>
<path d="M236.375 110.278H226.531V113.56H236.375V110.278Z" fill="#FB4694"/>
<path d="M275.75 110.278H256.062V113.56H275.75V110.278Z" fill="#FB4694"/>
<path d="M226.531 113.56H223.25V116.841H226.531V113.56Z" fill="#CC0595"/>
<path d="M279.031 113.56H226.531V116.841H279.031V113.56Z" fill="#FB4694"/>
<path d="M229.812 116.841H223.25V120.122H229.812V116.841Z" fill="#CC0595"/>
<path d="M259.344 116.841H229.812V120.122H259.344V116.841Z" fill="#FB4694"/>
<path d="M272.469 116.841H259.344V120.122H272.469V116.841Z" fill="#CC0595"/>
<path d="M282.312 116.841H272.469V120.122H282.312V116.841Z" fill="#FB4694"/>
<path d="M226.531 120.122H223.25V123.403H226.531V120.122Z" fill="#CC0595"/>
<path d="M259.344 120.122H226.531V123.403H259.344V120.122Z" fill="#FB4694"/>
<path d="M272.469 120.122H259.344V123.403H272.469V120.122Z" fill="#CC0595"/>
<path d="M285.594 120.122H272.469V123.403H285.594V120.122Z" fill="#FB4694"/>
<path d="M226.531 123.403H223.25V126.685H226.531V123.403Z" fill="#CC0595"/>
<path d="M288.875 123.403H226.531V126.685H288.875V123.403Z" fill="#FB4694"/>
<path d="M95.2656 127.225C90.9948 127.225 87.2708 126.535 84.0938 125.155C80.9167 123.749 78.3906 121.808 76.5156 119.334C74.6667 116.861 73.612 114.009 73.3516 110.78L73.3125 110.272H84.5625L84.6406 110.702C84.8229 112.056 85.3568 113.267 86.2422 114.334C87.1536 115.376 88.3646 116.209 89.875 116.834C91.4115 117.433 93.1953 117.733 95.2266 117.733C97.2578 117.733 99.0156 117.407 100.5 116.756C101.984 116.079 103.13 115.155 103.938 113.983C104.771 112.785 105.188 111.418 105.188 109.881V109.803C105.188 107.095 104.237 105.025 102.336 103.592C100.435 102.16 97.7786 101.444 94.3672 101.444H87.9219V93.0454H94.2109C96.1901 93.0454 97.9089 92.7199 99.3672 92.0688C100.826 91.4178 101.945 90.5194 102.727 89.3735C103.534 88.2017 103.938 86.8605 103.938 85.3501V85.272C103.938 83.7355 103.586 82.4334 102.883 81.3657C102.206 80.272 101.203 79.4386 99.875 78.8657C98.5729 78.2668 96.9974 77.9673 95.1484 77.9673C93.3255 77.9673 91.7109 78.2668 90.3047 78.8657C88.8984 79.4647 87.7786 80.311 86.9453 81.4048C86.112 82.4725 85.6042 83.7355 85.4219 85.1938L85.3828 85.5454H74.5625L74.6016 85.0767C74.862 81.7954 75.8646 78.9569 77.6094 76.561C79.3802 74.1392 81.763 72.2642 84.7578 70.936C87.7526 69.5819 91.2161 68.9048 95.1484 68.9048C99.2109 68.9048 102.727 69.5298 105.695 70.7798C108.69 72.0037 111.008 73.7225 112.648 75.936C114.289 78.1496 115.109 80.7407 115.109 83.7095V83.7876C115.109 86.1313 114.589 88.1886 113.547 89.9595C112.505 91.7303 111.086 93.1886 109.289 94.3345C107.518 95.4803 105.539 96.2876 103.352 96.7563V96.9907C107.544 97.3813 110.891 98.7355 113.391 101.053C115.917 103.371 117.18 106.444 117.18 110.272V110.35C117.18 113.709 116.268 116.652 114.445 119.178C112.622 121.704 110.07 123.683 106.789 125.116C103.508 126.522 99.6667 127.225 95.2656 127.225Z" fill="#FB4694"/>
<path d="M252.266 386.474C247.995 386.474 244.271 385.784 241.094 384.403C237.917 382.997 235.391 381.057 233.516 378.583C231.667 376.109 230.612 373.257 230.352 370.028L230.312 369.521H241.562L241.641 369.95C241.823 371.304 242.357 372.515 243.242 373.583C244.154 374.625 245.365 375.458 246.875 376.083C248.411 376.682 250.195 376.981 252.227 376.981C254.258 376.981 256.016 376.656 257.5 376.005C258.984 375.328 260.13 374.403 260.938 373.231C261.771 372.034 262.188 370.666 262.188 369.13V369.052C262.188 366.343 261.237 364.273 259.336 362.841C257.435 361.409 254.779 360.692 251.367 360.692H244.922V352.294H251.211C253.19 352.294 254.909 351.968 256.367 351.317C257.826 350.666 258.945 349.768 259.727 348.622C260.534 347.45 260.938 346.109 260.938 344.599V344.521C260.938 342.984 260.586 341.682 259.883 340.614C259.206 339.521 258.203 338.687 256.875 338.114C255.573 337.515 253.997 337.216 252.148 337.216C250.326 337.216 248.711 337.515 247.305 338.114C245.898 338.713 244.779 339.56 243.945 340.653C243.112 341.721 242.604 342.984 242.422 344.442L242.383 344.794H231.562L231.602 344.325C231.862 341.044 232.865 338.205 234.609 335.81C236.38 333.388 238.763 331.513 241.758 330.185C244.753 328.83 248.216 328.153 252.148 328.153C256.211 328.153 259.727 328.778 262.695 330.028C265.69 331.252 268.008 332.971 269.648 335.185C271.289 337.398 272.109 339.989 272.109 342.958V343.036C272.109 345.38 271.589 347.437 270.547 349.208C269.505 350.979 268.086 352.437 266.289 353.583C264.518 354.729 262.539 355.536 260.352 356.005V356.239C264.544 356.63 267.891 357.984 270.391 360.302C272.917 362.619 274.18 365.692 274.18 369.521V369.599C274.18 372.958 273.268 375.901 271.445 378.427C269.622 380.953 267.07 382.932 263.789 384.364C260.508 385.771 256.667 386.474 252.266 386.474Z" fill="#FB4694"/>
<defs>
<filter id="filter0_d_18_13525" x="0" y="0.248535" width="348" height="462" filterUnits="userSpaceOnUse" color-interpolation-filters="sRGB">
<feFlood flood-opacity="0" result="BackgroundImageFix"/>
<feColorMatrix in="SourceAlpha" type="matrix" values="0 0 0 0 0 0 0 0 0 0 0 0 0 0 0 0 0 0 127 0" result="hardAlpha"/>
<feOffset dy="5"/>
<feGaussianBlur stdDeviation="17"/>
<feColorMatrix type="matrix" values="0 0 0 0 0 0 0 0 0 0 0 0 0 0 0 0 0 0 0.1 0"/>
<feBlend mode="normal" in2="BackgroundImageFix" result="effect1_dropShadow_18_13525"/>
<feBlend mode="normal" in="SourceGraphic" in2="effect1_dropShadow_18_13525" result="shape"/>
</filter>
</defs>
</svg>
