<svg width="348" height="463" viewBox="0 0 348 463" fill="none" xmlns="http://www.w3.org/2000/svg">
<g filter="url(#filter0_d_18_8586)">
<rect x="34" y="29.2485" width="280" height="394" rx="20" fill="#F2F2F2"/>
<rect x="34.5" y="29.7485" width="279" height="393" rx="19.5" stroke="#D2D2D2"/>
</g>
<path d="M76.5312 325.06H73.25V328.341H76.5312V325.06Z" fill="#CC0595"/>
<path d="M76.5312 328.341H73.25V331.622H76.5312V328.341Z" fill="#CC0595"/>
<path d="M79.8125 328.341H76.5312V331.622H79.8125V328.341Z" fill="#FB4694"/>
<path d="M79.8125 331.622H73.25V334.903H79.8125V331.622Z" fill="#CC0595"/>
<path d="M83.0938 331.622H79.8125V334.903H83.0938V331.622Z" fill="#FB4694"/>
<path d="M76.5312 334.903H73.25V338.185H76.5312V334.903Z" fill="#CC0595"/>
<path d="M86.375 334.903H76.5312V338.185H86.375V334.903Z" fill="#FB4694"/>
<path d="M76.5312 338.185H73.25V341.466H76.5312V338.185Z" fill="#CC0595"/>
<path d="M89.6562 338.185H76.5312V341.466H89.6562V338.185Z" fill="#FB4694"/>
<path d="M79.8125 341.466H73.25V344.747H79.8125V341.466Z" fill="#CC0595"/>
<path d="M92.9375 341.466H79.8125V344.747H92.9375V341.466Z" fill="#FB4694"/>
<path d="M76.5312 344.747H73.25V348.028H76.5312V344.747Z" fill="#CC0595"/>
<path d="M96.2188 344.747H76.5312V348.028H96.2188V344.747Z" fill="#FB4694"/>
<path d="M76.5312 348.028H73.25V351.31H76.5312V348.028Z" fill="#CC0595"/>
<path d="M99.5 348.028H76.5312V351.31H99.5V348.028Z" fill="#FB4694"/>
<path d="M79.8125 351.31H73.25V354.591H79.8125V351.31Z" fill="#CC0595"/>
<path d="M102.781 351.31H79.8125V354.591H102.781V351.31Z" fill="#FB4694"/>
<path d="M76.5312 354.591H73.25V357.872H76.5312V354.591Z" fill="#CC0595"/>
<path d="M106.062 354.591H76.5312V357.872H106.062V354.591Z" fill="#FB4694"/>
<path d="M76.5312 357.872H73.25V361.153H76.5312V357.872Z" fill="#CC0595"/>
<path d="M86.375 357.872H76.5312V361.153H86.375V357.872Z" fill="#FB4694"/>
<path d="M109.344 357.872H89.6562V361.153H109.344V357.872Z" fill="#FB4694"/>
<path d="M79.8125 361.153H73.25V364.435H79.8125V361.153Z" fill="#CC0595"/>
<path d="M86.375 361.153H79.8125V364.435H86.375V361.153Z" fill="#FB4694"/>
<path d="M112.625 361.153H92.9375V364.435H112.625V361.153Z" fill="#FB4694"/>
<path d="M76.5312 364.435H73.25V367.716H76.5312V364.435Z" fill="#CC0595"/>
<path d="M86.375 364.435H76.5312V367.716H86.375V364.435Z" fill="#FB4694"/>
<path d="M115.906 364.435H96.2188V367.716H115.906V364.435Z" fill="#FB4694"/>
<path d="M76.5312 367.716H73.25V370.997H76.5312V367.716Z" fill="#CC0595"/>
<path d="M86.375 367.716H76.5312V370.997H86.375V367.716Z" fill="#FB4694"/>
<path d="M119.188 367.716H99.5V370.997H119.188V367.716Z" fill="#FB4694"/>
<path d="M79.8125 370.997H73.25V374.278H79.8125V370.997Z" fill="#CC0595"/>
<path d="M86.375 370.997H79.8125V374.278H86.375V370.997Z" fill="#FB4694"/>
<path d="M122.469 370.997H102.781V374.278H122.469V370.997Z" fill="#FB4694"/>
<path d="M76.5312 374.278H73.25V377.56H76.5312V374.278Z" fill="#CC0595"/>
<path d="M86.375 374.278H76.5312V377.56H86.375V374.278Z" fill="#FB4694"/>
<path d="M125.75 374.278H106.062V377.56H125.75V374.278Z" fill="#FB4694"/>
<path d="M76.5312 377.56H73.25V380.841H76.5312V377.56Z" fill="#CC0595"/>
<path d="M129.031 377.56H76.5312V380.841H129.031V377.56Z" fill="#FB4694"/>
<path d="M79.8125 380.841H73.25V384.122H79.8125V380.841Z" fill="#CC0595"/>
<path d="M109.344 380.841H79.8125V384.122H109.344V380.841Z" fill="#FB4694"/>
<path d="M122.469 380.841H109.344V384.122H122.469V380.841Z" fill="#CC0595"/>
<path d="M132.312 380.841H122.469V384.122H132.312V380.841Z" fill="#FB4694"/>
<path d="M76.5312 384.122H73.25V387.403H76.5312V384.122Z" fill="#CC0595"/>
<path d="M109.344 384.122H76.5312V387.403H109.344V384.122Z" fill="#FB4694"/>
<path d="M122.469 384.122H109.344V387.403H122.469V384.122Z" fill="#CC0595"/>
<path d="M135.594 384.122H122.469V387.403H135.594V384.122Z" fill="#FB4694"/>
<path d="M76.5312 387.403H73.25V390.685H76.5312V387.403Z" fill="#CC0595"/>
<path d="M138.875 387.403H76.5312V390.685H138.875V387.403Z" fill="#FB4694"/>
<path d="M226.531 61.0596H223.25V64.3408H226.531V61.0596Z" fill="#CC0595"/>
<path d="M226.531 64.3408H223.25V67.6221H226.531V64.3408Z" fill="#CC0595"/>
<path d="M229.812 64.3408H226.531V67.6221H229.812V64.3408Z" fill="#FB4694"/>
<path d="M229.812 67.6221H223.25V70.9033H229.812V67.6221Z" fill="#CC0595"/>
<path d="M233.094 67.6221H229.812V70.9033H233.094V67.6221Z" fill="#FB4694"/>
<path d="M226.531 70.9033H223.25V74.1846H226.531V70.9033Z" fill="#CC0595"/>
<path d="M236.375 70.9033H226.531V74.1846H236.375V70.9033Z" fill="#FB4694"/>
<path d="M226.531 74.1846H223.25V77.4658H226.531V74.1846Z" fill="#CC0595"/>
<path d="M239.656 74.1846H226.531V77.4658H239.656V74.1846Z" fill="#FB4694"/>
<path d="M229.812 77.4658H223.25V80.7471H229.812V77.4658Z" fill="#CC0595"/>
<path d="M242.938 77.4658H229.812V80.7471H242.938V77.4658Z" fill="#FB4694"/>
<path d="M226.531 80.7471H223.25V84.0283H226.531V80.7471Z" fill="#CC0595"/>
<path d="M246.219 80.7471H226.531V84.0283H246.219V80.7471Z" fill="#FB4694"/>
<path d="M226.531 84.0283H223.25V87.3096H226.531V84.0283Z" fill="#CC0595"/>
<path d="M249.5 84.0283H226.531V87.3096H249.5V84.0283Z" fill="#FB4694"/>
<path d="M229.812 87.3096H223.25V90.5908H229.812V87.3096Z" fill="#CC0595"/>
<path d="M252.781 87.3096H229.812V90.5908H252.781V87.3096Z" fill="#FB4694"/>
<path d="M226.531 90.5908H223.25V93.8721H226.531V90.5908Z" fill="#CC0595"/>
<path d="M256.062 90.5908H226.531V93.8721H256.062V90.5908Z" fill="#FB4694"/>
<path d="M226.531 93.8721H223.25V97.1533H226.531V93.8721Z" fill="#CC0595"/>
<path d="M236.375 93.8721H226.531V97.1533H236.375V93.8721Z" fill="#FB4694"/>
<path d="M259.344 93.8721H239.656V97.1533H259.344V93.8721Z" fill="#FB4694"/>
<path d="M229.812 97.1533H223.25V100.435H229.812V97.1533Z" fill="#CC0595"/>
<path d="M236.375 97.1533H229.812V100.435H236.375V97.1533Z" fill="#FB4694"/>
<path d="M262.625 97.1533H242.938V100.435H262.625V97.1533Z" fill="#FB4694"/>
<path d="M226.531 100.435H223.25V103.716H226.531V100.435Z" fill="#CC0595"/>
<path d="M236.375 100.435H226.531V103.716H236.375V100.435Z" fill="#FB4694"/>
<path d="M265.906 100.435H246.219V103.716H265.906V100.435Z" fill="#FB4694"/>
<path d="M226.531 103.716H223.25V106.997H226.531V103.716Z" fill="#CC0595"/>
<path d="M236.375 103.716H226.531V106.997H236.375V103.716Z" fill="#FB4694"/>
<path d="M269.188 103.716H249.5V106.997H269.188V103.716Z" fill="#FB4694"/>
<path d="M229.812 106.997H223.25V110.278H229.812V106.997Z" fill="#CC0595"/>
<path d="M236.375 106.997H229.812V110.278H236.375V106.997Z" fill="#FB4694"/>
<path d="M272.469 106.997H252.781V110.278H272.469V106.997Z" fill="#FB4694"/>
<path d="M226.531 110.278H223.25V113.56H226.531V110.278Z" fill="#CC0595"/>
<path d="M236.375 110.278H226.531V113.56H236.375V110.278Z" fill="#FB4694"/>
<path d="M275.75 110.278H256.062V113.56H275.75V110.278Z" fill="#FB4694"/>
<path d="M226.531 113.56H223.25V116.841H226.531V113.56Z" fill="#CC0595"/>
<path d="M279.031 113.56H226.531V116.841H279.031V113.56Z" fill="#FB4694"/>
<path d="M229.812 116.841H223.25V120.122H229.812V116.841Z" fill="#CC0595"/>
<path d="M259.344 116.841H229.812V120.122H259.344V116.841Z" fill="#FB4694"/>
<path d="M272.469 116.841H259.344V120.122H272.469V116.841Z" fill="#CC0595"/>
<path d="M282.312 116.841H272.469V120.122H282.312V116.841Z" fill="#FB4694"/>
<path d="M226.531 120.122H223.25V123.403H226.531V120.122Z" fill="#CC0595"/>
<path d="M259.344 120.122H226.531V123.403H259.344V120.122Z" fill="#FB4694"/>
<path d="M272.469 120.122H259.344V123.403H272.469V120.122Z" fill="#CC0595"/>
<path d="M285.594 120.122H272.469V123.403H285.594V120.122Z" fill="#FB4694"/>
<path d="M226.531 123.403H223.25V126.685H226.531V123.403Z" fill="#CC0595"/>
<path d="M288.875 123.403H226.531V126.685H288.875V123.403Z" fill="#FB4694"/>
<path d="M68.8984 126.249L88.5859 69.8813H98.9766V80.8188H95.3828L81.2812 126.249H68.8984ZM79.4844 112.577L82.375 103.749H108.664L111.555 112.577H79.4844ZM109.719 126.249L95.6172 80.8188V69.8813H102.453L122.102 126.249H109.719Z" fill="#FB4694"/>
<path d="M225.898 385.497L245.586 329.13H255.977V340.067H252.383L238.281 385.497H225.898ZM236.484 371.825L239.375 362.997H265.664L268.555 371.825H236.484ZM266.719 385.497L252.617 340.067V329.13H259.453L279.102 385.497H266.719Z" fill="#FB4694"/>
<path d="M148.625 165.686H142.406V171.905H148.625V165.686Z" fill="#E8705B"/>
<path d="M179.719 165.686H173.5V171.905H179.719V165.686Z" fill="#E8705B"/>
<path d="M204.594 165.686H198.375V171.905H204.594V165.686Z" fill="#E8705B"/>
<path d="M142.406 171.905H136.188V178.124H142.406V171.905Z" fill="#E8705B"/>
<path d="M148.625 171.905H142.406V178.124H148.625V171.905Z" fill="#FFF671"/>
<path d="M154.844 171.905H148.625V178.124H154.844V171.905Z" fill="#E8705B"/>
<path d="M173.5 171.905H167.281V178.124H173.5V171.905Z" fill="#E8705B"/>
<path d="M179.719 171.905H173.5V178.124H179.719V171.905Z" fill="#FFF671"/>
<path d="M185.938 171.905H179.719V178.124H185.938V171.905Z" fill="#E8705B"/>
<path d="M198.375 171.905H192.156V178.124H198.375V171.905Z" fill="#E8705B"/>
<path d="M204.594 171.905H198.375V178.124H204.594V171.905Z" fill="#FFF671"/>
<path d="M210.812 171.905H204.594V178.124H210.812V171.905Z" fill="#E8705B"/>
<path d="M142.406 178.124H136.188V184.342H142.406V178.124Z" fill="#E8705B"/>
<path d="M148.625 178.124H142.406V184.342H148.625V178.124Z" fill="#FFF671"/>
<path d="M154.844 178.124H148.625V184.342H154.844V178.124Z" fill="#FFC110"/>
<path d="M173.5 178.124H167.281V184.342H173.5V178.124Z" fill="#E8705B"/>
<path d="M179.719 178.124H173.5V184.342H179.719V178.124Z" fill="#FFF671"/>
<path d="M185.938 178.124H179.719V184.342H185.938V178.124Z" fill="#FFC110"/>
<path d="M198.375 178.124H192.156V184.342H198.375V178.124Z" fill="#E8705B"/>
<path d="M204.594 178.124H198.375V184.342H204.594V178.124Z" fill="#FFF671"/>
<path d="M210.812 178.124H204.594V184.342H210.812V178.124Z" fill="#FFC110"/>
<path d="M148.625 184.342H142.406V190.561H148.625V184.342Z" fill="#FFC110"/>
<path d="M179.719 184.342H173.5V190.561H179.719V184.342Z" fill="#FFC110"/>
<path d="M204.594 184.342H198.375V190.561H204.594V184.342Z" fill="#FFC110"/>
<path d="M154.844 190.561H136.188V196.78H154.844V190.561Z" fill="#7CC4F2"/>
<path d="M185.938 190.561H167.281V196.78H185.938V190.561Z" fill="#7CC4F2"/>
<path d="M210.812 190.561H192.156V196.78H210.812V190.561Z" fill="#7CC4F2"/>
<path d="M142.406 196.78H136.188V202.999H142.406V196.78Z" fill="#26B1F3"/>
<path d="M154.844 196.78H142.406V202.999H154.844V196.78Z" fill="#7CC4F2"/>
<path d="M173.5 196.78H167.281V202.999H173.5V196.78Z" fill="#26B1F3"/>
<path d="M185.938 196.78H173.5V202.999H185.938V196.78Z" fill="#7CC4F2"/>
<path d="M198.375 196.78H192.156V202.999H198.375V196.78Z" fill="#26B1F3"/>
<path d="M210.812 196.78H198.375V202.999H210.812V196.78Z" fill="#7CC4F2"/>
<path d="M223.25 202.999H123.75V209.217H223.25V202.999Z" fill="#FF638D"/>
<path d="M148.625 209.217H117.531V215.436H148.625V209.217Z" fill="#FF638D"/>
<path d="M185.938 209.217H148.625V215.436H185.938V209.217Z" fill="white"/>
<path d="M229.469 209.217H185.938V215.436H229.469V209.217Z" fill="#FF638D"/>
<path d="M142.406 215.436H117.531V221.655H142.406V215.436Z" fill="#FF638D"/>
<path d="M192.156 215.436H142.406V221.655H192.156V215.436Z" fill="white"/>
<path d="M229.469 215.436H192.156V221.655H229.469V215.436Z" fill="#FF638D"/>
<path d="M142.406 221.655H117.531V227.874H142.406V221.655Z" fill="#FF638D"/>
<path d="M192.156 221.655H142.406V227.874H192.156V221.655Z" fill="white"/>
<path d="M223.25 221.655H192.156V227.874H223.25V221.655Z" fill="#FF638D"/>
<path d="M229.469 221.655H223.25V227.874H229.469V221.655Z" fill="white"/>
<path d="M123.75 227.874H117.531V234.092H123.75V227.874Z" fill="white"/>
<path d="M142.406 227.874H123.75V234.092H142.406V227.874Z" fill="#FF638D"/>
<path d="M198.375 227.874H142.406V234.092H198.375V227.874Z" fill="white"/>
<path d="M217.031 227.874H198.375V234.092H217.031V227.874Z" fill="#FF638D"/>
<path d="M229.469 227.874H217.031V234.092H229.469V227.874Z" fill="white"/>
<path d="M129.969 234.092H117.531V240.311H129.969V234.092Z" fill="white"/>
<path d="M142.406 234.092H129.969V240.311H142.406V234.092Z" fill="#FF638D"/>
<path d="M229.469 234.092H142.406V240.311H229.469V234.092Z" fill="white"/>
<path d="M129.969 240.311H117.531V246.53H129.969V240.311Z" fill="white"/>
<path d="M142.406 240.311H129.969V246.53H142.406V240.311Z" fill="#FF638D"/>
<path d="M229.469 240.311H142.406V246.53H229.469V240.311Z" fill="white"/>
<path d="M129.969 246.53H117.531V252.749H129.969V246.53Z" fill="white"/>
<path d="M136.188 246.53H129.969V252.749H136.188V246.53Z" fill="#FF638D"/>
<path d="M229.469 246.53H136.188V252.749H229.469V246.53Z" fill="white"/>
<path d="M229.469 252.749H117.531V258.967H229.469V252.749Z" fill="white"/>
<path d="M229.469 258.967H117.531V265.186H229.469V258.967Z" fill="white"/>
<path d="M123.75 265.186H117.531V271.405H123.75V265.186Z" fill="#FF638D"/>
<path d="M129.969 265.186H123.75V271.405H129.969V265.186Z" fill="white"/>
<path d="M142.406 265.186H129.969V271.405H142.406V265.186Z" fill="#FF638D"/>
<path d="M154.844 265.186H142.406V271.405H154.844V265.186Z" fill="white"/>
<path d="M185.938 265.186H154.844V271.405H185.938V265.186Z" fill="#FF638D"/>
<path d="M198.375 265.186H185.938V271.405H198.375V265.186Z" fill="white"/>
<path d="M210.812 265.186H198.375V271.405H210.812V265.186Z" fill="#FF638D"/>
<path d="M223.25 265.186H210.812V271.405H223.25V265.186Z" fill="white"/>
<path d="M229.469 265.186H223.25V271.405H229.469V265.186Z" fill="#FF638D"/>
<path d="M117.531 271.405H111.312V277.624H117.531V271.405Z" fill="#FF638D"/>
<path d="M123.75 271.405H117.531V277.624H123.75V271.405Z" fill="white"/>
<path d="M129.969 271.405H123.75V277.624H129.969V271.405Z" fill="#FF638D"/>
<path d="M142.406 271.405H129.969V277.624H142.406V271.405Z" fill="white"/>
<path d="M154.844 271.405H142.406V277.624H154.844V271.405Z" fill="#FF638D"/>
<path d="M185.938 271.405H154.844V277.624H185.938V271.405Z" fill="white"/>
<path d="M198.375 271.405H185.938V277.624H198.375V271.405Z" fill="#FF638D"/>
<path d="M210.812 271.405H198.375V277.624H210.812V271.405Z" fill="white"/>
<path d="M223.25 271.405H210.812V277.624H223.25V271.405Z" fill="#FF638D"/>
<path d="M229.469 271.405H223.25V277.624H229.469V271.405Z" fill="white"/>
<path d="M235.688 271.405H229.469V277.624H235.688V271.405Z" fill="#FF638D"/>
<path d="M235.688 277.624H111.312V283.842H235.688V277.624Z" fill="#FF638D"/>
<defs>
<filter id="filter0_d_18_8586" x="0" y="0.248535" width="348" height="462" filterUnits="userSpaceOnUse" color-interpolation-filters="sRGB">
<feFlood flood-opacity="0" result="BackgroundImageFix"/>
<feColorMatrix in="SourceAlpha" type="matrix" values="0 0 0 0 0 0 0 0 0 0 0 0 0 0 0 0 0 0 127 0" result="hardAlpha"/>
<feOffset dy="5"/>
<feGaussianBlur stdDeviation="17"/>
<feColorMatrix type="matrix" values="0 0 0 0 0 0 0 0 0 0 0 0 0 0 0 0 0 0 0.1 0"/>
<feBlend mode="normal" in2="BackgroundImageFix" result="effect1_dropShadow_18_8586"/>
<feBlend mode="normal" in="SourceGraphic" in2="effect1_dropShadow_18_8586" result="shape"/>
</filter>
</defs>
</svg>
