<svg width="348" height="463" viewBox="0 0 348 463" fill="none" xmlns="http://www.w3.org/2000/svg">
<g filter="url(#filter0_d_18_9202)">
<rect x="34" y="29.2485" width="280" height="394" rx="20" fill="#F2F2F2"/>
<rect x="34.5" y="29.7485" width="279" height="393" rx="19.5" stroke="#D2D2D2"/>
</g>
<path d="M76.5312 325.06H73.25V328.341H76.5312V325.06Z" fill="#CC0595"/>
<path d="M76.5312 328.341H73.25V331.622H76.5312V328.341Z" fill="#CC0595"/>
<path d="M79.8125 328.341H76.5312V331.622H79.8125V328.341Z" fill="#FB4694"/>
<path d="M79.8125 331.622H73.25V334.903H79.8125V331.622Z" fill="#CC0595"/>
<path d="M83.0938 331.622H79.8125V334.903H83.0938V331.622Z" fill="#FB4694"/>
<path d="M76.5312 334.903H73.25V338.185H76.5312V334.903Z" fill="#CC0595"/>
<path d="M86.375 334.903H76.5312V338.185H86.375V334.903Z" fill="#FB4694"/>
<path d="M76.5312 338.185H73.25V341.466H76.5312V338.185Z" fill="#CC0595"/>
<path d="M89.6562 338.185H76.5312V341.466H89.6562V338.185Z" fill="#FB4694"/>
<path d="M79.8125 341.466H73.25V344.747H79.8125V341.466Z" fill="#CC0595"/>
<path d="M92.9375 341.466H79.8125V344.747H92.9375V341.466Z" fill="#FB4694"/>
<path d="M76.5312 344.747H73.25V348.028H76.5312V344.747Z" fill="#CC0595"/>
<path d="M96.2188 344.747H76.5312V348.028H96.2188V344.747Z" fill="#FB4694"/>
<path d="M76.5312 348.028H73.25V351.31H76.5312V348.028Z" fill="#CC0595"/>
<path d="M99.5 348.028H76.5312V351.31H99.5V348.028Z" fill="#FB4694"/>
<path d="M79.8125 351.31H73.25V354.591H79.8125V351.31Z" fill="#CC0595"/>
<path d="M102.781 351.31H79.8125V354.591H102.781V351.31Z" fill="#FB4694"/>
<path d="M76.5312 354.591H73.25V357.872H76.5312V354.591Z" fill="#CC0595"/>
<path d="M106.062 354.591H76.5312V357.872H106.062V354.591Z" fill="#FB4694"/>
<path d="M76.5312 357.872H73.25V361.153H76.5312V357.872Z" fill="#CC0595"/>
<path d="M86.375 357.872H76.5312V361.153H86.375V357.872Z" fill="#FB4694"/>
<path d="M109.344 357.872H89.6562V361.153H109.344V357.872Z" fill="#FB4694"/>
<path d="M79.8125 361.153H73.25V364.435H79.8125V361.153Z" fill="#CC0595"/>
<path d="M86.375 361.153H79.8125V364.435H86.375V361.153Z" fill="#FB4694"/>
<path d="M112.625 361.153H92.9375V364.435H112.625V361.153Z" fill="#FB4694"/>
<path d="M76.5312 364.435H73.25V367.716H76.5312V364.435Z" fill="#CC0595"/>
<path d="M86.375 364.435H76.5312V367.716H86.375V364.435Z" fill="#FB4694"/>
<path d="M115.906 364.435H96.2188V367.716H115.906V364.435Z" fill="#FB4694"/>
<path d="M76.5312 367.716H73.25V370.997H76.5312V367.716Z" fill="#CC0595"/>
<path d="M86.375 367.716H76.5312V370.997H86.375V367.716Z" fill="#FB4694"/>
<path d="M119.188 367.716H99.5V370.997H119.188V367.716Z" fill="#FB4694"/>
<path d="M79.8125 370.997H73.25V374.278H79.8125V370.997Z" fill="#CC0595"/>
<path d="M86.375 370.997H79.8125V374.278H86.375V370.997Z" fill="#FB4694"/>
<path d="M122.469 370.997H102.781V374.278H122.469V370.997Z" fill="#FB4694"/>
<path d="M76.5312 374.278H73.25V377.56H76.5312V374.278Z" fill="#CC0595"/>
<path d="M86.375 374.278H76.5312V377.56H86.375V374.278Z" fill="#FB4694"/>
<path d="M125.75 374.278H106.062V377.56H125.75V374.278Z" fill="#FB4694"/>
<path d="M76.5312 377.56H73.25V380.841H76.5312V377.56Z" fill="#CC0595"/>
<path d="M129.031 377.56H76.5312V380.841H129.031V377.56Z" fill="#FB4694"/>
<path d="M79.8125 380.841H73.25V384.122H79.8125V380.841Z" fill="#CC0595"/>
<path d="M109.344 380.841H79.8125V384.122H109.344V380.841Z" fill="#FB4694"/>
<path d="M122.469 380.841H109.344V384.122H122.469V380.841Z" fill="#CC0595"/>
<path d="M132.312 380.841H122.469V384.122H132.312V380.841Z" fill="#FB4694"/>
<path d="M76.5312 384.122H73.25V387.403H76.5312V384.122Z" fill="#CC0595"/>
<path d="M109.344 384.122H76.5312V387.403H109.344V384.122Z" fill="#FB4694"/>
<path d="M122.469 384.122H109.344V387.403H122.469V384.122Z" fill="#CC0595"/>
<path d="M135.594 384.122H122.469V387.403H135.594V384.122Z" fill="#FB4694"/>
<path d="M76.5312 387.403H73.25V390.685H76.5312V387.403Z" fill="#CC0595"/>
<path d="M138.875 387.403H76.5312V390.685H138.875V387.403Z" fill="#FB4694"/>
<path d="M226.531 61.0596H223.25V64.3408H226.531V61.0596Z" fill="#CC0595"/>
<path d="M226.531 64.3408H223.25V67.6221H226.531V64.3408Z" fill="#CC0595"/>
<path d="M229.812 64.3408H226.531V67.6221H229.812V64.3408Z" fill="#FB4694"/>
<path d="M229.812 67.6221H223.25V70.9033H229.812V67.6221Z" fill="#CC0595"/>
<path d="M233.094 67.6221H229.812V70.9033H233.094V67.6221Z" fill="#FB4694"/>
<path d="M226.531 70.9033H223.25V74.1846H226.531V70.9033Z" fill="#CC0595"/>
<path d="M236.375 70.9033H226.531V74.1846H236.375V70.9033Z" fill="#FB4694"/>
<path d="M226.531 74.1846H223.25V77.4658H226.531V74.1846Z" fill="#CC0595"/>
<path d="M239.656 74.1846H226.531V77.4658H239.656V74.1846Z" fill="#FB4694"/>
<path d="M229.812 77.4658H223.25V80.7471H229.812V77.4658Z" fill="#CC0595"/>
<path d="M242.938 77.4658H229.812V80.7471H242.938V77.4658Z" fill="#FB4694"/>
<path d="M226.531 80.7471H223.25V84.0283H226.531V80.7471Z" fill="#CC0595"/>
<path d="M246.219 80.7471H226.531V84.0283H246.219V80.7471Z" fill="#FB4694"/>
<path d="M226.531 84.0283H223.25V87.3096H226.531V84.0283Z" fill="#CC0595"/>
<path d="M249.5 84.0283H226.531V87.3096H249.5V84.0283Z" fill="#FB4694"/>
<path d="M229.812 87.3096H223.25V90.5908H229.812V87.3096Z" fill="#CC0595"/>
<path d="M252.781 87.3096H229.812V90.5908H252.781V87.3096Z" fill="#FB4694"/>
<path d="M226.531 90.5908H223.25V93.8721H226.531V90.5908Z" fill="#CC0595"/>
<path d="M256.062 90.5908H226.531V93.8721H256.062V90.5908Z" fill="#FB4694"/>
<path d="M226.531 93.8721H223.25V97.1533H226.531V93.8721Z" fill="#CC0595"/>
<path d="M236.375 93.8721H226.531V97.1533H236.375V93.8721Z" fill="#FB4694"/>
<path d="M259.344 93.8721H239.656V97.1533H259.344V93.8721Z" fill="#FB4694"/>
<path d="M229.812 97.1533H223.25V100.435H229.812V97.1533Z" fill="#CC0595"/>
<path d="M236.375 97.1533H229.812V100.435H236.375V97.1533Z" fill="#FB4694"/>
<path d="M262.625 97.1533H242.938V100.435H262.625V97.1533Z" fill="#FB4694"/>
<path d="M226.531 100.435H223.25V103.716H226.531V100.435Z" fill="#CC0595"/>
<path d="M236.375 100.435H226.531V103.716H236.375V100.435Z" fill="#FB4694"/>
<path d="M265.906 100.435H246.219V103.716H265.906V100.435Z" fill="#FB4694"/>
<path d="M226.531 103.716H223.25V106.997H226.531V103.716Z" fill="#CC0595"/>
<path d="M236.375 103.716H226.531V106.997H236.375V103.716Z" fill="#FB4694"/>
<path d="M269.188 103.716H249.5V106.997H269.188V103.716Z" fill="#FB4694"/>
<path d="M229.812 106.997H223.25V110.278H229.812V106.997Z" fill="#CC0595"/>
<path d="M236.375 106.997H229.812V110.278H236.375V106.997Z" fill="#FB4694"/>
<path d="M272.469 106.997H252.781V110.278H272.469V106.997Z" fill="#FB4694"/>
<path d="M226.531 110.278H223.25V113.56H226.531V110.278Z" fill="#CC0595"/>
<path d="M236.375 110.278H226.531V113.56H236.375V110.278Z" fill="#FB4694"/>
<path d="M275.75 110.278H256.062V113.56H275.75V110.278Z" fill="#FB4694"/>
<path d="M226.531 113.56H223.25V116.841H226.531V113.56Z" fill="#CC0595"/>
<path d="M279.031 113.56H226.531V116.841H279.031V113.56Z" fill="#FB4694"/>
<path d="M229.812 116.841H223.25V120.122H229.812V116.841Z" fill="#CC0595"/>
<path d="M259.344 116.841H229.812V120.122H259.344V116.841Z" fill="#FB4694"/>
<path d="M272.469 116.841H259.344V120.122H272.469V116.841Z" fill="#CC0595"/>
<path d="M282.312 116.841H272.469V120.122H282.312V116.841Z" fill="#FB4694"/>
<path d="M226.531 120.122H223.25V123.403H226.531V120.122Z" fill="#CC0595"/>
<path d="M259.344 120.122H226.531V123.403H259.344V120.122Z" fill="#FB4694"/>
<path d="M272.469 120.122H259.344V123.403H272.469V120.122Z" fill="#CC0595"/>
<path d="M285.594 120.122H272.469V123.403H285.594V120.122Z" fill="#FB4694"/>
<path d="M226.531 123.403H223.25V126.685H226.531V123.403Z" fill="#CC0595"/>
<path d="M288.875 123.403H226.531V126.685H288.875V123.403Z" fill="#FB4694"/>
<path d="M93.3906 127.225C90.474 127.225 87.8568 126.821 85.5391 126.014C83.2474 125.181 81.2812 123.996 79.6406 122.459C78 120.923 76.737 119.087 75.8516 116.952C74.9661 114.79 74.4844 112.381 74.4062 109.725L74.3672 109.374H85.8125L85.8516 109.608C85.9297 111.066 86.2552 112.355 86.8281 113.475C87.4271 114.595 88.2604 115.467 89.3281 116.092C90.4219 116.717 91.737 117.03 93.2734 117.03C95.7474 117.03 97.6354 116.288 98.9375 114.803C100.24 113.319 100.891 111.157 100.891 108.319V69.8813H112.688V108.436C112.688 112.368 111.919 115.741 110.383 118.553C108.872 121.366 106.685 123.514 103.82 124.999C100.956 126.483 97.4792 127.225 93.3906 127.225Z" fill="#FB4694"/>
<path d="M250.391 386.474C247.474 386.474 244.857 386.07 242.539 385.263C240.247 384.429 238.281 383.244 236.641 381.708C235 380.172 233.737 378.336 232.852 376.2C231.966 374.039 231.484 371.63 231.406 368.974L231.367 368.622H242.812L242.852 368.856C242.93 370.315 243.255 371.604 243.828 372.724C244.427 373.843 245.26 374.716 246.328 375.341C247.422 375.966 248.737 376.278 250.273 376.278C252.747 376.278 254.635 375.536 255.938 374.052C257.24 372.567 257.891 370.406 257.891 367.567V329.13H269.688V367.685C269.688 371.617 268.919 374.989 267.383 377.802C265.872 380.614 263.685 382.763 260.82 384.247C257.956 385.731 254.479 386.474 250.391 386.474Z" fill="#FB4694"/>
<path d="M174 162.999H167.625V169.374H174V162.999Z" fill="#FFF0EE"/>
<path d="M174 169.374H167.625V175.749H174V169.374Z" fill="#FFF0EE"/>
<path d="M174 175.749H167.625V182.124H174V175.749Z" fill="#FFF0EE"/>
<path d="M174 182.124H167.625V188.499H174V182.124Z" fill="#FFF0EE"/>
<path d="M167.625 188.499H154.875V194.874H167.625V188.499Z" fill="#FEB9D5"/>
<path d="M174 188.499H167.625V194.874H174V188.499Z" fill="#FFF0EE"/>
<path d="M186.75 188.499H174V194.874H186.75V188.499Z" fill="#FEB9D5"/>
<path d="M161.25 194.874H142.125V201.249H161.25V194.874Z" fill="#FEB9D5"/>
<path d="M167.625 194.874H161.25V201.249H167.625V194.874Z" fill="#FF82AD"/>
<path d="M174 194.874H167.625V201.249H174V194.874Z" fill="#FFF0EE"/>
<path d="M180.375 194.874H174V201.249H180.375V194.874Z" fill="#FF82AD"/>
<path d="M199.5 194.874H180.375V201.249H199.5V194.874Z" fill="#FEB9D5"/>
<path d="M123 201.249H116.625V207.624H123V201.249Z" fill="#FEB9D5"/>
<path d="M154.875 201.249H135.75V207.624H154.875V201.249Z" fill="#FEB9D5"/>
<path d="M174 201.249H154.875V207.624H174V201.249Z" fill="#FF82AD"/>
<path d="M212.25 201.249H174V207.624H212.25V201.249Z" fill="#FEB9D5"/>
<path d="M225 201.249H218.625V207.624H225V201.249Z" fill="#FEB9D5"/>
<path d="M174 207.624H123V213.999H174V207.624Z" fill="#FEB9D5"/>
<path d="M180.375 207.624H174V213.999H180.375V207.624Z" fill="#FF82AD"/>
<path d="M205.875 207.624H180.375V213.999H205.875V207.624Z" fill="#FEB9D5"/>
<path d="M212.25 207.624H205.875V213.999H212.25V207.624Z" fill="#FF82AD"/>
<path d="M218.625 207.624H212.25V213.999H218.625V207.624Z" fill="#FEB9D5"/>
<path d="M225 213.999H123V220.374H225V213.999Z" fill="#FEB9D5"/>
<path d="M110.25 220.374H103.875V226.749H110.25V220.374Z" fill="#FEB9D5"/>
<path d="M225 220.374H116.625V226.749H225V220.374Z" fill="#FEB9D5"/>
<path d="M225 226.749H110.25V233.124H225V226.749Z" fill="#FEB9D5"/>
<path d="M231.375 226.749H225V233.124H231.375V226.749Z" fill="#FF82AD"/>
<path d="M231.375 233.124H110.25V239.499H231.375V233.124Z" fill="#FEB9D5"/>
<path d="M231.375 239.499H110.25V245.874H231.375V239.499Z" fill="#FEB9D5"/>
<path d="M237.75 239.499H231.375V245.874H237.75V239.499Z" fill="#FF82AD"/>
<path d="M116.625 245.874H110.25V252.249H116.625V245.874Z" fill="#FF82AD"/>
<path d="M225 245.874H116.625V252.249H225V245.874Z" fill="#FEB9D5"/>
<path d="M231.375 245.874H225V252.249H231.375V245.874Z" fill="#FF82AD"/>
<path d="M244.125 245.874H237.75V252.249H244.125V245.874Z" fill="#FF82AD"/>
<path d="M110.25 252.249H103.875V258.624H110.25V252.249Z" fill="#FF82AD"/>
<path d="M123 252.249H116.625V258.624H123V252.249Z" fill="#FF82AD"/>
<path d="M231.375 252.249H123V258.624H231.375V252.249Z" fill="#FEB9D5"/>
<path d="M225 258.624H116.625V264.999H225V258.624Z" fill="#FEB9D5"/>
<path d="M231.375 258.624H225V264.999H231.375V258.624Z" fill="#FF82AD"/>
<path d="M123 264.999H116.625V271.374H123V264.999Z" fill="#FF82AD"/>
<path d="M148.5 264.999H123V271.374H148.5V264.999Z" fill="#FEB9D5"/>
<path d="M167.625 264.999H148.5V271.374H167.625V264.999Z" fill="#FF82AD"/>
<path d="M212.25 264.999H167.625V271.374H212.25V264.999Z" fill="#FEB9D5"/>
<path d="M225 264.999H212.25V271.374H225V264.999Z" fill="#FF82AD"/>
<path d="M116.625 271.374H110.25V277.749H116.625V271.374Z" fill="#FF82AD"/>
<path d="M142.125 271.374H123V277.749H142.125V271.374Z" fill="#FF82AD"/>
<path d="M174 271.374H142.125V277.749H174V271.374Z" fill="#FEB9D5"/>
<path d="M218.625 271.374H174V277.749H218.625V271.374Z" fill="#FF82AD"/>
<path d="M212.25 277.749H135.75V284.124H212.25V277.749Z" fill="#FF82AD"/>
<path d="M225 277.749H218.625V284.124H225V277.749Z" fill="#FF82AD"/>
<defs>
<filter id="filter0_d_18_9202" x="0" y="0.248535" width="348" height="462" filterUnits="userSpaceOnUse" color-interpolation-filters="sRGB">
<feFlood flood-opacity="0" result="BackgroundImageFix"/>
<feColorMatrix in="SourceAlpha" type="matrix" values="0 0 0 0 0 0 0 0 0 0 0 0 0 0 0 0 0 0 127 0" result="hardAlpha"/>
<feOffset dy="5"/>
<feGaussianBlur stdDeviation="17"/>
<feColorMatrix type="matrix" values="0 0 0 0 0 0 0 0 0 0 0 0 0 0 0 0 0 0 0.1 0"/>
<feBlend mode="normal" in2="BackgroundImageFix" result="effect1_dropShadow_18_9202"/>
<feBlend mode="normal" in="SourceGraphic" in2="effect1_dropShadow_18_9202" result="shape"/>
</filter>
</defs>
</svg>
