<svg width="348" height="463" viewBox="0 0 348 463" fill="none" xmlns="http://www.w3.org/2000/svg">
<g filter="url(#filter0_d_18_12457)">
<rect x="34" y="29.2485" width="280" height="394" rx="20" fill="#F2F2F2"/>
<rect x="34.5" y="29.7485" width="279" height="393" rx="19.5" stroke="#D2D2D2"/>
</g>
<path d="M76.5312 325.06H73.25V328.341H76.5312V325.06Z" fill="#CC0595"/>
<path d="M76.5312 328.341H73.25V331.622H76.5312V328.341Z" fill="#CC0595"/>
<path d="M79.8125 328.341H76.5312V331.622H79.8125V328.341Z" fill="#FB4694"/>
<path d="M79.8125 331.622H73.25V334.903H79.8125V331.622Z" fill="#CC0595"/>
<path d="M83.0938 331.622H79.8125V334.903H83.0938V331.622Z" fill="#FB4694"/>
<path d="M76.5312 334.903H73.25V338.185H76.5312V334.903Z" fill="#CC0595"/>
<path d="M86.375 334.903H76.5312V338.185H86.375V334.903Z" fill="#FB4694"/>
<path d="M76.5312 338.185H73.25V341.466H76.5312V338.185Z" fill="#CC0595"/>
<path d="M89.6562 338.185H76.5312V341.466H89.6562V338.185Z" fill="#FB4694"/>
<path d="M79.8125 341.466H73.25V344.747H79.8125V341.466Z" fill="#CC0595"/>
<path d="M92.9375 341.466H79.8125V344.747H92.9375V341.466Z" fill="#FB4694"/>
<path d="M76.5312 344.747H73.25V348.028H76.5312V344.747Z" fill="#CC0595"/>
<path d="M96.2188 344.747H76.5312V348.028H96.2188V344.747Z" fill="#FB4694"/>
<path d="M76.5312 348.028H73.25V351.31H76.5312V348.028Z" fill="#CC0595"/>
<path d="M99.5 348.028H76.5312V351.31H99.5V348.028Z" fill="#FB4694"/>
<path d="M79.8125 351.31H73.25V354.591H79.8125V351.31Z" fill="#CC0595"/>
<path d="M102.781 351.31H79.8125V354.591H102.781V351.31Z" fill="#FB4694"/>
<path d="M76.5312 354.591H73.25V357.872H76.5312V354.591Z" fill="#CC0595"/>
<path d="M106.062 354.591H76.5312V357.872H106.062V354.591Z" fill="#FB4694"/>
<path d="M76.5312 357.872H73.25V361.153H76.5312V357.872Z" fill="#CC0595"/>
<path d="M86.375 357.872H76.5312V361.153H86.375V357.872Z" fill="#FB4694"/>
<path d="M109.344 357.872H89.6562V361.153H109.344V357.872Z" fill="#FB4694"/>
<path d="M79.8125 361.153H73.25V364.435H79.8125V361.153Z" fill="#CC0595"/>
<path d="M86.375 361.153H79.8125V364.435H86.375V361.153Z" fill="#FB4694"/>
<path d="M112.625 361.153H92.9375V364.435H112.625V361.153Z" fill="#FB4694"/>
<path d="M76.5312 364.435H73.25V367.716H76.5312V364.435Z" fill="#CC0595"/>
<path d="M86.375 364.435H76.5312V367.716H86.375V364.435Z" fill="#FB4694"/>
<path d="M115.906 364.435H96.2188V367.716H115.906V364.435Z" fill="#FB4694"/>
<path d="M76.5312 367.716H73.25V370.997H76.5312V367.716Z" fill="#CC0595"/>
<path d="M86.375 367.716H76.5312V370.997H86.375V367.716Z" fill="#FB4694"/>
<path d="M119.188 367.716H99.5V370.997H119.188V367.716Z" fill="#FB4694"/>
<path d="M79.8125 370.997H73.25V374.278H79.8125V370.997Z" fill="#CC0595"/>
<path d="M86.375 370.997H79.8125V374.278H86.375V370.997Z" fill="#FB4694"/>
<path d="M122.469 370.997H102.781V374.278H122.469V370.997Z" fill="#FB4694"/>
<path d="M76.5312 374.278H73.25V377.56H76.5312V374.278Z" fill="#CC0595"/>
<path d="M86.375 374.278H76.5312V377.56H86.375V374.278Z" fill="#FB4694"/>
<path d="M125.75 374.278H106.062V377.56H125.75V374.278Z" fill="#FB4694"/>
<path d="M76.5312 377.56H73.25V380.841H76.5312V377.56Z" fill="#CC0595"/>
<path d="M129.031 377.56H76.5312V380.841H129.031V377.56Z" fill="#FB4694"/>
<path d="M79.8125 380.841H73.25V384.122H79.8125V380.841Z" fill="#CC0595"/>
<path d="M109.344 380.841H79.8125V384.122H109.344V380.841Z" fill="#FB4694"/>
<path d="M122.469 380.841H109.344V384.122H122.469V380.841Z" fill="#CC0595"/>
<path d="M132.312 380.841H122.469V384.122H132.312V380.841Z" fill="#FB4694"/>
<path d="M76.5312 384.122H73.25V387.403H76.5312V384.122Z" fill="#CC0595"/>
<path d="M109.344 384.122H76.5312V387.403H109.344V384.122Z" fill="#FB4694"/>
<path d="M122.469 384.122H109.344V387.403H122.469V384.122Z" fill="#CC0595"/>
<path d="M135.594 384.122H122.469V387.403H135.594V384.122Z" fill="#FB4694"/>
<path d="M76.5312 387.403H73.25V390.685H76.5312V387.403Z" fill="#CC0595"/>
<path d="M138.875 387.403H76.5312V390.685H138.875V387.403Z" fill="#FB4694"/>
<path d="M226.531 61.0596H223.25V64.3408H226.531V61.0596Z" fill="#CC0595"/>
<path d="M226.531 64.3408H223.25V67.6221H226.531V64.3408Z" fill="#CC0595"/>
<path d="M229.812 64.3408H226.531V67.6221H229.812V64.3408Z" fill="#FB4694"/>
<path d="M229.812 67.6221H223.25V70.9033H229.812V67.6221Z" fill="#CC0595"/>
<path d="M233.094 67.6221H229.812V70.9033H233.094V67.6221Z" fill="#FB4694"/>
<path d="M226.531 70.9033H223.25V74.1846H226.531V70.9033Z" fill="#CC0595"/>
<path d="M236.375 70.9033H226.531V74.1846H236.375V70.9033Z" fill="#FB4694"/>
<path d="M226.531 74.1846H223.25V77.4658H226.531V74.1846Z" fill="#CC0595"/>
<path d="M239.656 74.1846H226.531V77.4658H239.656V74.1846Z" fill="#FB4694"/>
<path d="M229.812 77.4658H223.25V80.7471H229.812V77.4658Z" fill="#CC0595"/>
<path d="M242.938 77.4658H229.812V80.7471H242.938V77.4658Z" fill="#FB4694"/>
<path d="M226.531 80.7471H223.25V84.0283H226.531V80.7471Z" fill="#CC0595"/>
<path d="M246.219 80.7471H226.531V84.0283H246.219V80.7471Z" fill="#FB4694"/>
<path d="M226.531 84.0283H223.25V87.3096H226.531V84.0283Z" fill="#CC0595"/>
<path d="M249.5 84.0283H226.531V87.3096H249.5V84.0283Z" fill="#FB4694"/>
<path d="M229.812 87.3096H223.25V90.5908H229.812V87.3096Z" fill="#CC0595"/>
<path d="M252.781 87.3096H229.812V90.5908H252.781V87.3096Z" fill="#FB4694"/>
<path d="M226.531 90.5908H223.25V93.8721H226.531V90.5908Z" fill="#CC0595"/>
<path d="M256.062 90.5908H226.531V93.8721H256.062V90.5908Z" fill="#FB4694"/>
<path d="M226.531 93.8721H223.25V97.1533H226.531V93.8721Z" fill="#CC0595"/>
<path d="M236.375 93.8721H226.531V97.1533H236.375V93.8721Z" fill="#FB4694"/>
<path d="M259.344 93.8721H239.656V97.1533H259.344V93.8721Z" fill="#FB4694"/>
<path d="M229.812 97.1533H223.25V100.435H229.812V97.1533Z" fill="#CC0595"/>
<path d="M236.375 97.1533H229.812V100.435H236.375V97.1533Z" fill="#FB4694"/>
<path d="M262.625 97.1533H242.938V100.435H262.625V97.1533Z" fill="#FB4694"/>
<path d="M226.531 100.435H223.25V103.716H226.531V100.435Z" fill="#CC0595"/>
<path d="M236.375 100.435H226.531V103.716H236.375V100.435Z" fill="#FB4694"/>
<path d="M265.906 100.435H246.219V103.716H265.906V100.435Z" fill="#FB4694"/>
<path d="M226.531 103.716H223.25V106.997H226.531V103.716Z" fill="#CC0595"/>
<path d="M236.375 103.716H226.531V106.997H236.375V103.716Z" fill="#FB4694"/>
<path d="M269.188 103.716H249.5V106.997H269.188V103.716Z" fill="#FB4694"/>
<path d="M229.812 106.997H223.25V110.278H229.812V106.997Z" fill="#CC0595"/>
<path d="M236.375 106.997H229.812V110.278H236.375V106.997Z" fill="#FB4694"/>
<path d="M272.469 106.997H252.781V110.278H272.469V106.997Z" fill="#FB4694"/>
<path d="M226.531 110.278H223.25V113.56H226.531V110.278Z" fill="#CC0595"/>
<path d="M236.375 110.278H226.531V113.56H236.375V110.278Z" fill="#FB4694"/>
<path d="M275.75 110.278H256.062V113.56H275.75V110.278Z" fill="#FB4694"/>
<path d="M226.531 113.56H223.25V116.841H226.531V113.56Z" fill="#CC0595"/>
<path d="M279.031 113.56H226.531V116.841H279.031V113.56Z" fill="#FB4694"/>
<path d="M229.812 116.841H223.25V120.122H229.812V116.841Z" fill="#CC0595"/>
<path d="M259.344 116.841H229.812V120.122H259.344V116.841Z" fill="#FB4694"/>
<path d="M272.469 116.841H259.344V120.122H272.469V116.841Z" fill="#CC0595"/>
<path d="M282.312 116.841H272.469V120.122H282.312V116.841Z" fill="#FB4694"/>
<path d="M226.531 120.122H223.25V123.403H226.531V120.122Z" fill="#CC0595"/>
<path d="M259.344 120.122H226.531V123.403H259.344V120.122Z" fill="#FB4694"/>
<path d="M272.469 120.122H259.344V123.403H272.469V120.122Z" fill="#CC0595"/>
<path d="M285.594 120.122H272.469V123.403H285.594V120.122Z" fill="#FB4694"/>
<path d="M226.531 123.403H223.25V126.685H226.531V123.403Z" fill="#CC0595"/>
<path d="M288.875 123.403H226.531V126.685H288.875V123.403Z" fill="#FB4694"/>
<path d="M96.125 127.225C92.0365 127.225 88.4557 126.496 85.3828 125.038C82.3099 123.579 79.875 121.6 78.0781 119.1C76.2812 116.6 75.2656 113.788 75.0312 110.663L74.9922 110.077H85.8906L85.9688 110.35C86.2552 111.756 86.8542 113.032 87.7656 114.178C88.7031 115.324 89.888 116.236 91.3203 116.913C92.7526 117.564 94.3672 117.889 96.1641 117.889C98.2214 117.889 100.031 117.459 101.594 116.6C103.182 115.715 104.419 114.504 105.305 112.967C106.216 111.431 106.672 109.66 106.672 107.655V107.577C106.672 105.597 106.216 103.853 105.305 102.342C104.419 100.806 103.182 99.6079 101.594 98.7485C100.031 97.8892 98.2344 97.4595 96.2031 97.4595C94.7708 97.4595 93.4427 97.6678 92.2188 98.0845C90.9948 98.4751 89.901 99.061 88.9375 99.8423C88.3906 100.285 87.8828 100.767 87.4141 101.288C86.9453 101.808 86.5547 102.368 86.2422 102.967H75.9688L78.5469 69.8813H114.523V79.2563H87.9219L86.5547 95.1157H86.7891C87.5703 93.8397 88.5859 92.759 89.8359 91.8735C91.112 90.9621 92.5573 90.259 94.1719 89.7642C95.8125 89.2694 97.5833 89.022 99.4844 89.022C103.078 89.022 106.255 89.8162 109.016 91.4048C111.776 92.9673 113.951 95.1287 115.539 97.8892C117.128 100.65 117.922 103.801 117.922 107.342V107.42C117.922 111.353 116.997 114.803 115.148 117.772C113.326 120.741 110.773 123.058 107.492 124.725C104.211 126.392 100.422 127.225 96.125 127.225Z" fill="#FB4694"/>
<path d="M253.125 386.474C249.036 386.474 245.456 385.744 242.383 384.286C239.31 382.828 236.875 380.849 235.078 378.349C233.281 375.849 232.266 373.036 232.031 369.911L231.992 369.325H242.891L242.969 369.599C243.255 371.005 243.854 372.281 244.766 373.427C245.703 374.573 246.888 375.484 248.32 376.161C249.753 376.812 251.367 377.138 253.164 377.138C255.221 377.138 257.031 376.708 258.594 375.849C260.182 374.963 261.419 373.752 262.305 372.216C263.216 370.679 263.672 368.909 263.672 366.903V366.825C263.672 364.846 263.216 363.101 262.305 361.591C261.419 360.054 260.182 358.856 258.594 357.997C257.031 357.138 255.234 356.708 253.203 356.708C251.771 356.708 250.443 356.916 249.219 357.333C247.995 357.724 246.901 358.31 245.938 359.091C245.391 359.534 244.883 360.015 244.414 360.536C243.945 361.057 243.555 361.617 243.242 362.216H232.969L235.547 329.13H271.523V338.505H244.922L243.555 354.364H243.789C244.57 353.088 245.586 352.007 246.836 351.122C248.112 350.211 249.557 349.507 251.172 349.013C252.812 348.518 254.583 348.271 256.484 348.271C260.078 348.271 263.255 349.065 266.016 350.653C268.776 352.216 270.951 354.377 272.539 357.138C274.128 359.898 274.922 363.049 274.922 366.591V366.669C274.922 370.601 273.997 374.052 272.148 377.021C270.326 379.989 267.773 382.307 264.492 383.974C261.211 385.64 257.422 386.474 253.125 386.474Z" fill="#FB4694"/>
<defs>
<filter id="filter0_d_18_12457" x="0" y="0.248535" width="348" height="462" filterUnits="userSpaceOnUse" color-interpolation-filters="sRGB">
<feFlood flood-opacity="0" result="BackgroundImageFix"/>
<feColorMatrix in="SourceAlpha" type="matrix" values="0 0 0 0 0 0 0 0 0 0 0 0 0 0 0 0 0 0 127 0" result="hardAlpha"/>
<feOffset dy="5"/>
<feGaussianBlur stdDeviation="17"/>
<feColorMatrix type="matrix" values="0 0 0 0 0 0 0 0 0 0 0 0 0 0 0 0 0 0 0.1 0"/>
<feBlend mode="normal" in2="BackgroundImageFix" result="effect1_dropShadow_18_12457"/>
<feBlend mode="normal" in="SourceGraphic" in2="effect1_dropShadow_18_12457" result="shape"/>
</filter>
</defs>
</svg>
