<svg width="348" height="463" viewBox="0 0 348 463" fill="none" xmlns="http://www.w3.org/2000/svg">
<g filter="url(#filter0_d_18_15163)">
<rect x="34" y="29.2485" width="280" height="394" rx="20" fill="#F2F2F2"/>
<rect x="34.5" y="29.7485" width="279" height="393" rx="19.5" stroke="#D2D2D2"/>
</g>
<path d="M76.5312 325.06H73.25V328.341H76.5312V325.06Z" fill="#CC0595"/>
<path d="M76.5312 328.341H73.25V331.622H76.5312V328.341Z" fill="#CC0595"/>
<path d="M79.8125 328.341H76.5312V331.622H79.8125V328.341Z" fill="#FB4694"/>
<path d="M79.8125 331.622H73.25V334.903H79.8125V331.622Z" fill="#CC0595"/>
<path d="M83.0938 331.622H79.8125V334.903H83.0938V331.622Z" fill="#FB4694"/>
<path d="M76.5312 334.903H73.25V338.185H76.5312V334.903Z" fill="#CC0595"/>
<path d="M86.375 334.903H76.5312V338.185H86.375V334.903Z" fill="#FB4694"/>
<path d="M76.5312 338.185H73.25V341.466H76.5312V338.185Z" fill="#CC0595"/>
<path d="M89.6562 338.185H76.5312V341.466H89.6562V338.185Z" fill="#FB4694"/>
<path d="M79.8125 341.466H73.25V344.747H79.8125V341.466Z" fill="#CC0595"/>
<path d="M92.9375 341.466H79.8125V344.747H92.9375V341.466Z" fill="#FB4694"/>
<path d="M76.5312 344.747H73.25V348.028H76.5312V344.747Z" fill="#CC0595"/>
<path d="M96.2188 344.747H76.5312V348.028H96.2188V344.747Z" fill="#FB4694"/>
<path d="M76.5312 348.028H73.25V351.31H76.5312V348.028Z" fill="#CC0595"/>
<path d="M99.5 348.028H76.5312V351.31H99.5V348.028Z" fill="#FB4694"/>
<path d="M79.8125 351.31H73.25V354.591H79.8125V351.31Z" fill="#CC0595"/>
<path d="M102.781 351.31H79.8125V354.591H102.781V351.31Z" fill="#FB4694"/>
<path d="M76.5312 354.591H73.25V357.872H76.5312V354.591Z" fill="#CC0595"/>
<path d="M106.062 354.591H76.5312V357.872H106.062V354.591Z" fill="#FB4694"/>
<path d="M76.5312 357.872H73.25V361.153H76.5312V357.872Z" fill="#CC0595"/>
<path d="M86.375 357.872H76.5312V361.153H86.375V357.872Z" fill="#FB4694"/>
<path d="M109.344 357.872H89.6562V361.153H109.344V357.872Z" fill="#FB4694"/>
<path d="M79.8125 361.153H73.25V364.435H79.8125V361.153Z" fill="#CC0595"/>
<path d="M86.375 361.153H79.8125V364.435H86.375V361.153Z" fill="#FB4694"/>
<path d="M112.625 361.153H92.9375V364.435H112.625V361.153Z" fill="#FB4694"/>
<path d="M76.5312 364.435H73.25V367.716H76.5312V364.435Z" fill="#CC0595"/>
<path d="M86.375 364.435H76.5312V367.716H86.375V364.435Z" fill="#FB4694"/>
<path d="M115.906 364.435H96.2188V367.716H115.906V364.435Z" fill="#FB4694"/>
<path d="M76.5312 367.716H73.25V370.997H76.5312V367.716Z" fill="#CC0595"/>
<path d="M86.375 367.716H76.5312V370.997H86.375V367.716Z" fill="#FB4694"/>
<path d="M119.188 367.716H99.5V370.997H119.188V367.716Z" fill="#FB4694"/>
<path d="M79.8125 370.997H73.25V374.278H79.8125V370.997Z" fill="#CC0595"/>
<path d="M86.375 370.997H79.8125V374.278H86.375V370.997Z" fill="#FB4694"/>
<path d="M122.469 370.997H102.781V374.278H122.469V370.997Z" fill="#FB4694"/>
<path d="M76.5312 374.278H73.25V377.56H76.5312V374.278Z" fill="#CC0595"/>
<path d="M86.375 374.278H76.5312V377.56H86.375V374.278Z" fill="#FB4694"/>
<path d="M125.75 374.278H106.062V377.56H125.75V374.278Z" fill="#FB4694"/>
<path d="M76.5312 377.56H73.25V380.841H76.5312V377.56Z" fill="#CC0595"/>
<path d="M129.031 377.56H76.5312V380.841H129.031V377.56Z" fill="#FB4694"/>
<path d="M79.8125 380.841H73.25V384.122H79.8125V380.841Z" fill="#CC0595"/>
<path d="M109.344 380.841H79.8125V384.122H109.344V380.841Z" fill="#FB4694"/>
<path d="M122.469 380.841H109.344V384.122H122.469V380.841Z" fill="#CC0595"/>
<path d="M132.312 380.841H122.469V384.122H132.312V380.841Z" fill="#FB4694"/>
<path d="M76.5312 384.122H73.25V387.403H76.5312V384.122Z" fill="#CC0595"/>
<path d="M109.344 384.122H76.5312V387.403H109.344V384.122Z" fill="#FB4694"/>
<path d="M122.469 384.122H109.344V387.403H122.469V384.122Z" fill="#CC0595"/>
<path d="M135.594 384.122H122.469V387.403H135.594V384.122Z" fill="#FB4694"/>
<path d="M76.5312 387.403H73.25V390.685H76.5312V387.403Z" fill="#CC0595"/>
<path d="M138.875 387.403H76.5312V390.685H138.875V387.403Z" fill="#FB4694"/>
<path d="M226.531 61.0596H223.25V64.3408H226.531V61.0596Z" fill="#CC0595"/>
<path d="M226.531 64.3408H223.25V67.6221H226.531V64.3408Z" fill="#CC0595"/>
<path d="M229.812 64.3408H226.531V67.6221H229.812V64.3408Z" fill="#FB4694"/>
<path d="M229.812 67.6221H223.25V70.9033H229.812V67.6221Z" fill="#CC0595"/>
<path d="M233.094 67.6221H229.812V70.9033H233.094V67.6221Z" fill="#FB4694"/>
<path d="M226.531 70.9033H223.25V74.1846H226.531V70.9033Z" fill="#CC0595"/>
<path d="M236.375 70.9033H226.531V74.1846H236.375V70.9033Z" fill="#FB4694"/>
<path d="M226.531 74.1846H223.25V77.4658H226.531V74.1846Z" fill="#CC0595"/>
<path d="M239.656 74.1846H226.531V77.4658H239.656V74.1846Z" fill="#FB4694"/>
<path d="M229.812 77.4658H223.25V80.7471H229.812V77.4658Z" fill="#CC0595"/>
<path d="M242.938 77.4658H229.812V80.7471H242.938V77.4658Z" fill="#FB4694"/>
<path d="M226.531 80.7471H223.25V84.0283H226.531V80.7471Z" fill="#CC0595"/>
<path d="M246.219 80.7471H226.531V84.0283H246.219V80.7471Z" fill="#FB4694"/>
<path d="M226.531 84.0283H223.25V87.3096H226.531V84.0283Z" fill="#CC0595"/>
<path d="M249.5 84.0283H226.531V87.3096H249.5V84.0283Z" fill="#FB4694"/>
<path d="M229.812 87.3096H223.25V90.5908H229.812V87.3096Z" fill="#CC0595"/>
<path d="M252.781 87.3096H229.812V90.5908H252.781V87.3096Z" fill="#FB4694"/>
<path d="M226.531 90.5908H223.25V93.8721H226.531V90.5908Z" fill="#CC0595"/>
<path d="M256.062 90.5908H226.531V93.8721H256.062V90.5908Z" fill="#FB4694"/>
<path d="M226.531 93.8721H223.25V97.1533H226.531V93.8721Z" fill="#CC0595"/>
<path d="M236.375 93.8721H226.531V97.1533H236.375V93.8721Z" fill="#FB4694"/>
<path d="M259.344 93.8721H239.656V97.1533H259.344V93.8721Z" fill="#FB4694"/>
<path d="M229.812 97.1533H223.25V100.435H229.812V97.1533Z" fill="#CC0595"/>
<path d="M236.375 97.1533H229.812V100.435H236.375V97.1533Z" fill="#FB4694"/>
<path d="M262.625 97.1533H242.938V100.435H262.625V97.1533Z" fill="#FB4694"/>
<path d="M226.531 100.435H223.25V103.716H226.531V100.435Z" fill="#CC0595"/>
<path d="M236.375 100.435H226.531V103.716H236.375V100.435Z" fill="#FB4694"/>
<path d="M265.906 100.435H246.219V103.716H265.906V100.435Z" fill="#FB4694"/>
<path d="M226.531 103.716H223.25V106.997H226.531V103.716Z" fill="#CC0595"/>
<path d="M236.375 103.716H226.531V106.997H236.375V103.716Z" fill="#FB4694"/>
<path d="M269.188 103.716H249.5V106.997H269.188V103.716Z" fill="#FB4694"/>
<path d="M229.812 106.997H223.25V110.278H229.812V106.997Z" fill="#CC0595"/>
<path d="M236.375 106.997H229.812V110.278H236.375V106.997Z" fill="#FB4694"/>
<path d="M272.469 106.997H252.781V110.278H272.469V106.997Z" fill="#FB4694"/>
<path d="M226.531 110.278H223.25V113.56H226.531V110.278Z" fill="#CC0595"/>
<path d="M236.375 110.278H226.531V113.56H236.375V110.278Z" fill="#FB4694"/>
<path d="M275.75 110.278H256.062V113.56H275.75V110.278Z" fill="#FB4694"/>
<path d="M226.531 113.56H223.25V116.841H226.531V113.56Z" fill="#CC0595"/>
<path d="M279.031 113.56H226.531V116.841H279.031V113.56Z" fill="#FB4694"/>
<path d="M229.812 116.841H223.25V120.122H229.812V116.841Z" fill="#CC0595"/>
<path d="M259.344 116.841H229.812V120.122H259.344V116.841Z" fill="#FB4694"/>
<path d="M272.469 116.841H259.344V120.122H272.469V116.841Z" fill="#CC0595"/>
<path d="M282.312 116.841H272.469V120.122H282.312V116.841Z" fill="#FB4694"/>
<path d="M226.531 120.122H223.25V123.403H226.531V120.122Z" fill="#CC0595"/>
<path d="M259.344 120.122H226.531V123.403H259.344V120.122Z" fill="#FB4694"/>
<path d="M272.469 120.122H259.344V123.403H272.469V120.122Z" fill="#CC0595"/>
<path d="M285.594 120.122H272.469V123.403H285.594V120.122Z" fill="#FB4694"/>
<path d="M226.531 123.403H223.25V126.685H226.531V123.403Z" fill="#CC0595"/>
<path d="M288.875 123.403H226.531V126.685H288.875V123.403Z" fill="#FB4694"/>
<path d="M85.3828 109.569V95.6626H86.125L106.789 69.8813H119.914L99.2109 95.3501H96.9062L85.3828 109.569ZM74.0547 126.249V69.8813H85.8516V126.249H74.0547ZM107.258 126.249L89.1719 99.5298L97.6875 91.7954L121.359 126.249H107.258Z" fill="#FB4694"/>
<path d="M242.383 368.817V354.911H243.125L263.789 329.13H276.914L256.211 354.599H253.906L242.383 368.817ZM231.055 385.497V329.13H242.852V385.497H231.055ZM264.258 385.497L246.172 358.778L254.688 351.044L278.359 385.497H264.258Z" fill="#FB4694"/>
<path d="M180.281 157.592H168.719V163.374H180.281V157.592Z" fill="#FB4694"/>
<path d="M186.062 163.374H162.938V169.155H186.062V163.374Z" fill="#FB4694"/>
<path d="M145.594 169.155H134.031V174.936H145.594V169.155Z" fill="#FEE3F3"/>
<path d="M162.938 169.155H157.156V174.936H162.938V169.155Z" fill="#CC0595"/>
<path d="M186.062 169.155H162.938V174.936H186.062V169.155Z" fill="#FB4694"/>
<path d="M191.844 169.155H186.062V174.936H191.844V169.155Z" fill="#CC0595"/>
<path d="M214.969 169.155H203.406V174.936H214.969V169.155Z" fill="#FEE3F3"/>
<path d="M157.156 174.936H128.25V180.717H157.156V174.936Z" fill="#FEE3F3"/>
<path d="M162.938 174.936H157.156V180.717H162.938V174.936Z" fill="#CC0595"/>
<path d="M186.062 174.936H162.938V180.717H186.062V174.936Z" fill="#FB4694"/>
<path d="M191.844 174.936H186.062V180.717H191.844V174.936Z" fill="#CC0595"/>
<path d="M220.75 174.936H191.844V180.717H220.75V174.936Z" fill="#FEE3F3"/>
<path d="M162.938 180.717H122.469V186.499H162.938V180.717Z" fill="#FEE3F3"/>
<path d="M168.719 180.717H162.938V186.499H168.719V180.717Z" fill="#CC0595"/>
<path d="M180.281 180.717H168.719V186.499H180.281V180.717Z" fill="#FB4694"/>
<path d="M186.062 180.717H180.281V186.499H186.062V180.717Z" fill="#CC0595"/>
<path d="M226.531 180.717H186.062V186.499H226.531V180.717Z" fill="#FEE3F3"/>
<path d="M162.938 186.499H122.469V192.28H162.938V186.499Z" fill="#FEE3F3"/>
<path d="M186.062 186.499H162.938V192.28H186.062V186.499Z" fill="#F98F30"/>
<path d="M226.531 186.499H186.062V192.28H226.531V186.499Z" fill="#FEE3F3"/>
<path d="M151.375 192.28H128.25V198.061H151.375V192.28Z" fill="#FEE3F3"/>
<path d="M162.938 192.28H151.375V198.061H162.938V192.28Z" fill="#F98F30"/>
<path d="M186.062 192.28H162.938V198.061H186.062V192.28Z" fill="#FFE939"/>
<path d="M197.625 192.28H186.062V198.061H197.625V192.28Z" fill="#F98F30"/>
<path d="M220.75 192.28H197.625V198.061H220.75V192.28Z" fill="#FEE3F3"/>
<path d="M145.594 198.061H128.25V203.842H145.594V198.061Z" fill="#FEE3F3"/>
<path d="M151.375 198.061H145.594V203.842H151.375V198.061Z" fill="#F98F30"/>
<path d="M197.625 198.061H151.375V203.842H197.625V198.061Z" fill="#FFE939"/>
<path d="M203.406 198.061H197.625V203.842H203.406V198.061Z" fill="#F98F30"/>
<path d="M220.75 198.061H203.406V203.842H220.75V198.061Z" fill="#FEE3F3"/>
<path d="M134.031 203.842H122.469V209.624H134.031V203.842Z" fill="#CC0595"/>
<path d="M145.594 203.842H134.031V209.624H145.594V203.842Z" fill="#FEE3F3"/>
<path d="M151.375 203.842H145.594V209.624H151.375V203.842Z" fill="#F98F30"/>
<path d="M197.625 203.842H151.375V209.624H197.625V203.842Z" fill="#FFE939"/>
<path d="M203.406 203.842H197.625V209.624H203.406V203.842Z" fill="#F98F30"/>
<path d="M214.969 203.842H203.406V209.624H214.969V203.842Z" fill="#FEE3F3"/>
<path d="M226.531 203.842H214.969V209.624H226.531V203.842Z" fill="#CC0595"/>
<path d="M134.031 209.624H116.688V215.405H134.031V209.624Z" fill="#FB4694"/>
<path d="M139.812 209.624H134.031V215.405H139.812V209.624Z" fill="#CC0595"/>
<path d="M145.594 209.624H139.812V215.405H145.594V209.624Z" fill="#F98F30"/>
<path d="M203.406 209.624H145.594V215.405H203.406V209.624Z" fill="#FFE939"/>
<path d="M209.188 209.624H203.406V215.405H209.188V209.624Z" fill="#F98F30"/>
<path d="M214.969 209.624H209.188V215.405H214.969V209.624Z" fill="#CC0595"/>
<path d="M232.312 209.624H214.969V215.405H232.312V209.624Z" fill="#FB4694"/>
<path d="M139.812 215.405H110.906V221.186H139.812V215.405Z" fill="#FB4694"/>
<path d="M145.594 215.405H139.812V221.186H145.594V215.405Z" fill="#F98F30"/>
<path d="M203.406 215.405H145.594V221.186H203.406V215.405Z" fill="#FFE939"/>
<path d="M209.188 215.405H203.406V221.186H209.188V215.405Z" fill="#F98F30"/>
<path d="M238.094 215.405H209.188V221.186H238.094V215.405Z" fill="#FB4694"/>
<path d="M139.812 221.186H110.906V226.967H139.812V221.186Z" fill="#FB4694"/>
<path d="M145.594 221.186H139.812V226.967H145.594V221.186Z" fill="#F98F30"/>
<path d="M203.406 221.186H145.594V226.967H203.406V221.186Z" fill="#FFE939"/>
<path d="M209.188 221.186H203.406V226.967H209.188V221.186Z" fill="#F98F30"/>
<path d="M238.094 221.186H209.188V226.967H238.094V221.186Z" fill="#FB4694"/>
<path d="M134.031 226.967H116.688V232.749H134.031V226.967Z" fill="#FB4694"/>
<path d="M139.812 226.967H134.031V232.749H139.812V226.967Z" fill="#CC0595"/>
<path d="M145.594 226.967H139.812V232.749H145.594V226.967Z" fill="#F98F30"/>
<path d="M203.406 226.967H145.594V232.749H203.406V226.967Z" fill="#FFE939"/>
<path d="M209.188 226.967H203.406V232.749H209.188V226.967Z" fill="#F98F30"/>
<path d="M214.969 226.967H209.188V232.749H214.969V226.967Z" fill="#CC0595"/>
<path d="M232.312 226.967H214.969V232.749H232.312V226.967Z" fill="#FB4694"/>
<path d="M134.031 232.749H122.469V238.53H134.031V232.749Z" fill="#CC0595"/>
<path d="M145.594 232.749H134.031V238.53H145.594V232.749Z" fill="#FEE3F3"/>
<path d="M151.375 232.749H145.594V238.53H151.375V232.749Z" fill="#F98F30"/>
<path d="M197.625 232.749H151.375V238.53H197.625V232.749Z" fill="#FFE939"/>
<path d="M203.406 232.749H197.625V238.53H203.406V232.749Z" fill="#F98F30"/>
<path d="M214.969 232.749H203.406V238.53H214.969V232.749Z" fill="#FEE3F3"/>
<path d="M226.531 232.749H214.969V238.53H226.531V232.749Z" fill="#CC0595"/>
<path d="M145.594 238.53H128.25V244.311H145.594V238.53Z" fill="#FEE3F3"/>
<path d="M151.375 238.53H145.594V244.311H151.375V238.53Z" fill="#F98F30"/>
<path d="M197.625 238.53H151.375V244.311H197.625V238.53Z" fill="#FFE939"/>
<path d="M203.406 238.53H197.625V244.311H203.406V238.53Z" fill="#F98F30"/>
<path d="M220.75 238.53H203.406V244.311H220.75V238.53Z" fill="#FEE3F3"/>
<path d="M151.375 244.311H128.25V250.092H151.375V244.311Z" fill="#FEE3F3"/>
<path d="M162.938 244.311H151.375V250.092H162.938V244.311Z" fill="#F98F30"/>
<path d="M168.719 244.311H162.938V250.092H168.719V244.311Z" fill="#FFE939"/>
<path d="M186.062 244.311H168.719V250.092H186.062V244.311Z" fill="#4D271B"/>
<path d="M197.625 244.311H186.062V250.092H197.625V244.311Z" fill="#F98F30"/>
<path d="M220.75 244.311H197.625V250.092H220.75V244.311Z" fill="#FEE3F3"/>
<path d="M162.938 250.092H122.469V255.874H162.938V250.092Z" fill="#FEE3F3"/>
<path d="M186.062 250.092H162.938V255.874H186.062V250.092Z" fill="#F98F30"/>
<path d="M226.531 250.092H186.062V255.874H226.531V250.092Z" fill="#FEE3F3"/>
<path d="M162.938 255.874H122.469V261.655H162.938V255.874Z" fill="#FEE3F3"/>
<path d="M168.719 255.874H162.938V261.655H168.719V255.874Z" fill="#CC0595"/>
<path d="M180.281 255.874H168.719V261.655H180.281V255.874Z" fill="#FB4694"/>
<path d="M186.062 255.874H180.281V261.655H186.062V255.874Z" fill="#CC0595"/>
<path d="M226.531 255.874H186.062V261.655H226.531V255.874Z" fill="#FEE3F3"/>
<path d="M157.156 261.655H128.25V267.436H157.156V261.655Z" fill="#FEE3F3"/>
<path d="M162.938 261.655H157.156V267.436H162.938V261.655Z" fill="#CC0595"/>
<path d="M186.062 261.655H162.938V267.436H186.062V261.655Z" fill="#FB4694"/>
<path d="M191.844 261.655H186.062V267.436H191.844V261.655Z" fill="#CC0595"/>
<path d="M220.75 261.655H191.844V267.436H220.75V261.655Z" fill="#FEE3F3"/>
<path d="M145.594 267.436H134.031V273.217H145.594V267.436Z" fill="#FEE3F3"/>
<path d="M162.938 267.436H157.156V273.217H162.938V267.436Z" fill="#CC0595"/>
<path d="M186.062 267.436H162.938V273.217H186.062V267.436Z" fill="#FB4694"/>
<path d="M191.844 267.436H186.062V273.217H191.844V267.436Z" fill="#CC0595"/>
<path d="M214.969 267.436H203.406V273.217H214.969V267.436Z" fill="#FEE3F3"/>
<path d="M186.062 273.217H162.938V278.999H186.062V273.217Z" fill="#FB4694"/>
<path d="M180.281 278.999H168.719V284.78H180.281V278.999Z" fill="#FB4694"/>
<defs>
<filter id="filter0_d_18_15163" x="0" y="0.248535" width="348" height="462" filterUnits="userSpaceOnUse" color-interpolation-filters="sRGB">
<feFlood flood-opacity="0" result="BackgroundImageFix"/>
<feColorMatrix in="SourceAlpha" type="matrix" values="0 0 0 0 0 0 0 0 0 0 0 0 0 0 0 0 0 0 127 0" result="hardAlpha"/>
<feOffset dy="5"/>
<feGaussianBlur stdDeviation="17"/>
<feColorMatrix type="matrix" values="0 0 0 0 0 0 0 0 0 0 0 0 0 0 0 0 0 0 0.1 0"/>
<feBlend mode="normal" in2="BackgroundImageFix" result="effect1_dropShadow_18_15163"/>
<feBlend mode="normal" in="SourceGraphic" in2="effect1_dropShadow_18_15163" result="shape"/>
</filter>
</defs>
</svg>
