<svg width="348" height="463" viewBox="0 0 348 463" fill="none" xmlns="http://www.w3.org/2000/svg">
<g filter="url(#filter0_d_18_10321)">
<rect x="34" y="29.2485" width="280" height="394" rx="20" fill="#F2F2F2"/>
<rect x="34.5" y="29.7485" width="279" height="393" rx="19.5" stroke="#D2D2D2"/>
</g>
<path d="M76.5312 325.06H73.25V328.341H76.5312V325.06Z" fill="#CC0595"/>
<path d="M76.5312 328.341H73.25V331.622H76.5312V328.341Z" fill="#CC0595"/>
<path d="M79.8125 328.341H76.5312V331.622H79.8125V328.341Z" fill="#FB4694"/>
<path d="M79.8125 331.622H73.25V334.903H79.8125V331.622Z" fill="#CC0595"/>
<path d="M83.0938 331.622H79.8125V334.903H83.0938V331.622Z" fill="#FB4694"/>
<path d="M76.5312 334.903H73.25V338.185H76.5312V334.903Z" fill="#CC0595"/>
<path d="M86.375 334.903H76.5312V338.185H86.375V334.903Z" fill="#FB4694"/>
<path d="M76.5312 338.185H73.25V341.466H76.5312V338.185Z" fill="#CC0595"/>
<path d="M89.6562 338.185H76.5312V341.466H89.6562V338.185Z" fill="#FB4694"/>
<path d="M79.8125 341.466H73.25V344.747H79.8125V341.466Z" fill="#CC0595"/>
<path d="M92.9375 341.466H79.8125V344.747H92.9375V341.466Z" fill="#FB4694"/>
<path d="M76.5312 344.747H73.25V348.028H76.5312V344.747Z" fill="#CC0595"/>
<path d="M96.2188 344.747H76.5312V348.028H96.2188V344.747Z" fill="#FB4694"/>
<path d="M76.5312 348.028H73.25V351.31H76.5312V348.028Z" fill="#CC0595"/>
<path d="M99.5 348.028H76.5312V351.31H99.5V348.028Z" fill="#FB4694"/>
<path d="M79.8125 351.31H73.25V354.591H79.8125V351.31Z" fill="#CC0595"/>
<path d="M102.781 351.31H79.8125V354.591H102.781V351.31Z" fill="#FB4694"/>
<path d="M76.5312 354.591H73.25V357.872H76.5312V354.591Z" fill="#CC0595"/>
<path d="M106.062 354.591H76.5312V357.872H106.062V354.591Z" fill="#FB4694"/>
<path d="M76.5312 357.872H73.25V361.153H76.5312V357.872Z" fill="#CC0595"/>
<path d="M86.375 357.872H76.5312V361.153H86.375V357.872Z" fill="#FB4694"/>
<path d="M109.344 357.872H89.6562V361.153H109.344V357.872Z" fill="#FB4694"/>
<path d="M79.8125 361.153H73.25V364.435H79.8125V361.153Z" fill="#CC0595"/>
<path d="M86.375 361.153H79.8125V364.435H86.375V361.153Z" fill="#FB4694"/>
<path d="M112.625 361.153H92.9375V364.435H112.625V361.153Z" fill="#FB4694"/>
<path d="M76.5312 364.435H73.25V367.716H76.5312V364.435Z" fill="#CC0595"/>
<path d="M86.375 364.435H76.5312V367.716H86.375V364.435Z" fill="#FB4694"/>
<path d="M115.906 364.435H96.2188V367.716H115.906V364.435Z" fill="#FB4694"/>
<path d="M76.5312 367.716H73.25V370.997H76.5312V367.716Z" fill="#CC0595"/>
<path d="M86.375 367.716H76.5312V370.997H86.375V367.716Z" fill="#FB4694"/>
<path d="M119.188 367.716H99.5V370.997H119.188V367.716Z" fill="#FB4694"/>
<path d="M79.8125 370.997H73.25V374.278H79.8125V370.997Z" fill="#CC0595"/>
<path d="M86.375 370.997H79.8125V374.278H86.375V370.997Z" fill="#FB4694"/>
<path d="M122.469 370.997H102.781V374.278H122.469V370.997Z" fill="#FB4694"/>
<path d="M76.5312 374.278H73.25V377.56H76.5312V374.278Z" fill="#CC0595"/>
<path d="M86.375 374.278H76.5312V377.56H86.375V374.278Z" fill="#FB4694"/>
<path d="M125.75 374.278H106.062V377.56H125.75V374.278Z" fill="#FB4694"/>
<path d="M76.5312 377.56H73.25V380.841H76.5312V377.56Z" fill="#CC0595"/>
<path d="M129.031 377.56H76.5312V380.841H129.031V377.56Z" fill="#FB4694"/>
<path d="M79.8125 380.841H73.25V384.122H79.8125V380.841Z" fill="#CC0595"/>
<path d="M109.344 380.841H79.8125V384.122H109.344V380.841Z" fill="#FB4694"/>
<path d="M122.469 380.841H109.344V384.122H122.469V380.841Z" fill="#CC0595"/>
<path d="M132.312 380.841H122.469V384.122H132.312V380.841Z" fill="#FB4694"/>
<path d="M76.5312 384.122H73.25V387.403H76.5312V384.122Z" fill="#CC0595"/>
<path d="M109.344 384.122H76.5312V387.403H109.344V384.122Z" fill="#FB4694"/>
<path d="M122.469 384.122H109.344V387.403H122.469V384.122Z" fill="#CC0595"/>
<path d="M135.594 384.122H122.469V387.403H135.594V384.122Z" fill="#FB4694"/>
<path d="M76.5312 387.403H73.25V390.685H76.5312V387.403Z" fill="#CC0595"/>
<path d="M138.875 387.403H76.5312V390.685H138.875V387.403Z" fill="#FB4694"/>
<path d="M226.531 61.0596H223.25V64.3408H226.531V61.0596Z" fill="#CC0595"/>
<path d="M226.531 64.3408H223.25V67.6221H226.531V64.3408Z" fill="#CC0595"/>
<path d="M229.812 64.3408H226.531V67.6221H229.812V64.3408Z" fill="#FB4694"/>
<path d="M229.812 67.6221H223.25V70.9033H229.812V67.6221Z" fill="#CC0595"/>
<path d="M233.094 67.6221H229.812V70.9033H233.094V67.6221Z" fill="#FB4694"/>
<path d="M226.531 70.9033H223.25V74.1846H226.531V70.9033Z" fill="#CC0595"/>
<path d="M236.375 70.9033H226.531V74.1846H236.375V70.9033Z" fill="#FB4694"/>
<path d="M226.531 74.1846H223.25V77.4658H226.531V74.1846Z" fill="#CC0595"/>
<path d="M239.656 74.1846H226.531V77.4658H239.656V74.1846Z" fill="#FB4694"/>
<path d="M229.812 77.4658H223.25V80.7471H229.812V77.4658Z" fill="#CC0595"/>
<path d="M242.938 77.4658H229.812V80.7471H242.938V77.4658Z" fill="#FB4694"/>
<path d="M226.531 80.7471H223.25V84.0283H226.531V80.7471Z" fill="#CC0595"/>
<path d="M246.219 80.7471H226.531V84.0283H246.219V80.7471Z" fill="#FB4694"/>
<path d="M226.531 84.0283H223.25V87.3096H226.531V84.0283Z" fill="#CC0595"/>
<path d="M249.5 84.0283H226.531V87.3096H249.5V84.0283Z" fill="#FB4694"/>
<path d="M229.812 87.3096H223.25V90.5908H229.812V87.3096Z" fill="#CC0595"/>
<path d="M252.781 87.3096H229.812V90.5908H252.781V87.3096Z" fill="#FB4694"/>
<path d="M226.531 90.5908H223.25V93.8721H226.531V90.5908Z" fill="#CC0595"/>
<path d="M256.062 90.5908H226.531V93.8721H256.062V90.5908Z" fill="#FB4694"/>
<path d="M226.531 93.8721H223.25V97.1533H226.531V93.8721Z" fill="#CC0595"/>
<path d="M236.375 93.8721H226.531V97.1533H236.375V93.8721Z" fill="#FB4694"/>
<path d="M259.344 93.8721H239.656V97.1533H259.344V93.8721Z" fill="#FB4694"/>
<path d="M229.812 97.1533H223.25V100.435H229.812V97.1533Z" fill="#CC0595"/>
<path d="M236.375 97.1533H229.812V100.435H236.375V97.1533Z" fill="#FB4694"/>
<path d="M262.625 97.1533H242.938V100.435H262.625V97.1533Z" fill="#FB4694"/>
<path d="M226.531 100.435H223.25V103.716H226.531V100.435Z" fill="#CC0595"/>
<path d="M236.375 100.435H226.531V103.716H236.375V100.435Z" fill="#FB4694"/>
<path d="M265.906 100.435H246.219V103.716H265.906V100.435Z" fill="#FB4694"/>
<path d="M226.531 103.716H223.25V106.997H226.531V103.716Z" fill="#CC0595"/>
<path d="M236.375 103.716H226.531V106.997H236.375V103.716Z" fill="#FB4694"/>
<path d="M269.188 103.716H249.5V106.997H269.188V103.716Z" fill="#FB4694"/>
<path d="M229.812 106.997H223.25V110.278H229.812V106.997Z" fill="#CC0595"/>
<path d="M236.375 106.997H229.812V110.278H236.375V106.997Z" fill="#FB4694"/>
<path d="M272.469 106.997H252.781V110.278H272.469V106.997Z" fill="#FB4694"/>
<path d="M226.531 110.278H223.25V113.56H226.531V110.278Z" fill="#CC0595"/>
<path d="M236.375 110.278H226.531V113.56H236.375V110.278Z" fill="#FB4694"/>
<path d="M275.75 110.278H256.062V113.56H275.75V110.278Z" fill="#FB4694"/>
<path d="M226.531 113.56H223.25V116.841H226.531V113.56Z" fill="#CC0595"/>
<path d="M279.031 113.56H226.531V116.841H279.031V113.56Z" fill="#FB4694"/>
<path d="M229.812 116.841H223.25V120.122H229.812V116.841Z" fill="#CC0595"/>
<path d="M259.344 116.841H229.812V120.122H259.344V116.841Z" fill="#FB4694"/>
<path d="M272.469 116.841H259.344V120.122H272.469V116.841Z" fill="#CC0595"/>
<path d="M282.312 116.841H272.469V120.122H282.312V116.841Z" fill="#FB4694"/>
<path d="M226.531 120.122H223.25V123.403H226.531V120.122Z" fill="#CC0595"/>
<path d="M259.344 120.122H226.531V123.403H259.344V120.122Z" fill="#FB4694"/>
<path d="M272.469 120.122H259.344V123.403H272.469V120.122Z" fill="#CC0595"/>
<path d="M285.594 120.122H272.469V123.403H285.594V120.122Z" fill="#FB4694"/>
<path d="M226.531 123.403H223.25V126.685H226.531V123.403Z" fill="#CC0595"/>
<path d="M288.875 123.403H226.531V126.685H288.875V123.403Z" fill="#FB4694"/>
<path d="M94.875 68.9048C98.2865 68.9048 101.411 69.5037 104.25 70.7017C107.115 71.8735 109.602 73.6574 111.711 76.0532C113.846 78.4491 115.487 81.4438 116.633 85.0376C117.805 88.6053 118.391 92.772 118.391 97.5376V97.6157C118.391 103.788 117.44 109.087 115.539 113.514C113.638 117.915 110.93 121.301 107.414 123.67C103.898 126.04 99.6797 127.225 94.7578 127.225C91.138 127.225 87.8568 126.574 84.9141 125.272C81.9974 123.97 79.5885 122.199 77.6875 119.959C75.7865 117.694 74.5495 115.103 73.9766 112.186L73.8984 111.834H85.5391L85.6562 112.147C86.125 113.267 86.776 114.256 87.6094 115.116C88.4688 115.975 89.4974 116.652 90.6953 117.147C91.8932 117.616 93.2604 117.85 94.7969 117.85C97.5573 117.85 99.8099 117.056 101.555 115.467C103.299 113.879 104.615 111.743 105.5 109.061C106.411 106.353 106.932 103.345 107.062 100.038C107.089 99.647 107.102 99.2694 107.102 98.9048C107.128 98.5142 107.141 98.1235 107.141 97.7329L105.344 88.3579C105.344 86.4569 104.888 84.7511 103.977 83.2407C103.065 81.7043 101.828 80.4933 100.266 79.6079C98.7031 78.7225 96.9583 78.2798 95.0312 78.2798C93.1042 78.2798 91.3594 78.7225 89.7969 79.6079C88.2344 80.4673 86.9844 81.6522 86.0469 83.1626C85.1094 84.647 84.6406 86.3267 84.6406 88.2017V88.2798C84.6406 90.2329 85.0833 91.9647 85.9688 93.4751C86.8802 94.9595 88.1042 96.1313 89.6406 96.9907C91.2031 97.8241 92.9609 98.2407 94.9141 98.2407C96.8932 98.2407 98.6641 97.8241 100.227 96.9907C101.815 96.1574 103.065 94.9985 103.977 93.5142C104.888 92.0298 105.344 90.3241 105.344 88.397V88.3579H107.727V97.8892H106.906C106.151 99.634 105.057 101.196 103.625 102.577C102.193 103.931 100.448 104.999 98.3906 105.78C96.3594 106.561 94.0677 106.952 91.5156 106.952C87.8958 106.952 84.7057 106.17 81.9453 104.608C79.1849 103.019 77.0234 100.845 75.4609 98.0845C73.9245 95.3241 73.1562 92.186 73.1562 88.6704V88.5923C73.1562 84.7642 74.0938 81.3657 75.9688 78.397C77.8438 75.4282 80.4089 73.1105 83.6641 71.4438C86.9453 69.7511 90.6823 68.9048 94.875 68.9048Z" fill="#FB4694"/>
<path d="M251.875 328.153C255.286 328.153 258.411 328.752 261.25 329.95C264.115 331.122 266.602 332.906 268.711 335.302C270.846 337.698 272.487 340.692 273.633 344.286C274.805 347.854 275.391 352.021 275.391 356.786V356.864C275.391 363.036 274.44 368.336 272.539 372.763C270.638 377.164 267.93 380.549 264.414 382.919C260.898 385.289 256.68 386.474 251.758 386.474C248.138 386.474 244.857 385.823 241.914 384.521C238.997 383.218 236.589 381.448 234.688 379.208C232.786 376.942 231.549 374.351 230.977 371.435L230.898 371.083H242.539L242.656 371.396C243.125 372.515 243.776 373.505 244.609 374.364C245.469 375.224 246.497 375.901 247.695 376.396C248.893 376.864 250.26 377.099 251.797 377.099C254.557 377.099 256.81 376.304 258.555 374.716C260.299 373.127 261.615 370.992 262.5 368.31C263.411 365.601 263.932 362.593 264.062 359.286C264.089 358.896 264.102 358.518 264.102 358.153C264.128 357.763 264.141 357.372 264.141 356.981L262.344 347.606C262.344 345.705 261.888 344 260.977 342.489C260.065 340.953 258.828 339.742 257.266 338.856C255.703 337.971 253.958 337.528 252.031 337.528C250.104 337.528 248.359 337.971 246.797 338.856C245.234 339.716 243.984 340.901 243.047 342.411C242.109 343.896 241.641 345.575 241.641 347.45V347.528C241.641 349.481 242.083 351.213 242.969 352.724C243.88 354.208 245.104 355.38 246.641 356.239C248.203 357.073 249.961 357.489 251.914 357.489C253.893 357.489 255.664 357.073 257.227 356.239C258.815 355.406 260.065 354.247 260.977 352.763C261.888 351.278 262.344 349.573 262.344 347.646V347.606H264.727V357.138H263.906C263.151 358.882 262.057 360.445 260.625 361.825C259.193 363.179 257.448 364.247 255.391 365.028C253.359 365.81 251.068 366.2 248.516 366.2C244.896 366.2 241.706 365.419 238.945 363.856C236.185 362.268 234.023 360.093 232.461 357.333C230.924 354.573 230.156 351.435 230.156 347.919V347.841C230.156 344.013 231.094 340.614 232.969 337.646C234.844 334.677 237.409 332.359 240.664 330.692C243.945 329 247.682 328.153 251.875 328.153Z" fill="#FB4694"/>
<defs>
<filter id="filter0_d_18_10321" x="0" y="0.248535" width="348" height="462" filterUnits="userSpaceOnUse" color-interpolation-filters="sRGB">
<feFlood flood-opacity="0" result="BackgroundImageFix"/>
<feColorMatrix in="SourceAlpha" type="matrix" values="0 0 0 0 0 0 0 0 0 0 0 0 0 0 0 0 0 0 127 0" result="hardAlpha"/>
<feOffset dy="5"/>
<feGaussianBlur stdDeviation="17"/>
<feColorMatrix type="matrix" values="0 0 0 0 0 0 0 0 0 0 0 0 0 0 0 0 0 0 0.1 0"/>
<feBlend mode="normal" in2="BackgroundImageFix" result="effect1_dropShadow_18_10321"/>
<feBlend mode="normal" in="SourceGraphic" in2="effect1_dropShadow_18_10321" result="shape"/>
</filter>
</defs>
</svg>
