<svg width="348" height="463" viewBox="0 0 348 463" fill="none" xmlns="http://www.w3.org/2000/svg">
<g filter="url(#filter0_d_18_9787)">
<rect x="34" y="29.2485" width="280" height="394" rx="20" fill="#F2F2F2"/>
<rect x="34.5" y="29.7485" width="279" height="393" rx="19.5" stroke="#D2D2D2"/>
</g>
<path d="M76.5312 325.06H73.25V328.341H76.5312V325.06Z" fill="#CC0595"/>
<path d="M76.5312 328.341H73.25V331.622H76.5312V328.341Z" fill="#CC0595"/>
<path d="M79.8125 328.341H76.5312V331.622H79.8125V328.341Z" fill="#FB4694"/>
<path d="M79.8125 331.622H73.25V334.903H79.8125V331.622Z" fill="#CC0595"/>
<path d="M83.0938 331.622H79.8125V334.903H83.0938V331.622Z" fill="#FB4694"/>
<path d="M76.5312 334.903H73.25V338.185H76.5312V334.903Z" fill="#CC0595"/>
<path d="M86.375 334.903H76.5312V338.185H86.375V334.903Z" fill="#FB4694"/>
<path d="M76.5312 338.185H73.25V341.466H76.5312V338.185Z" fill="#CC0595"/>
<path d="M89.6562 338.185H76.5312V341.466H89.6562V338.185Z" fill="#FB4694"/>
<path d="M79.8125 341.466H73.25V344.747H79.8125V341.466Z" fill="#CC0595"/>
<path d="M92.9375 341.466H79.8125V344.747H92.9375V341.466Z" fill="#FB4694"/>
<path d="M76.5312 344.747H73.25V348.028H76.5312V344.747Z" fill="#CC0595"/>
<path d="M96.2188 344.747H76.5312V348.028H96.2188V344.747Z" fill="#FB4694"/>
<path d="M76.5312 348.028H73.25V351.31H76.5312V348.028Z" fill="#CC0595"/>
<path d="M99.5 348.028H76.5312V351.31H99.5V348.028Z" fill="#FB4694"/>
<path d="M79.8125 351.31H73.25V354.591H79.8125V351.31Z" fill="#CC0595"/>
<path d="M102.781 351.31H79.8125V354.591H102.781V351.31Z" fill="#FB4694"/>
<path d="M76.5312 354.591H73.25V357.872H76.5312V354.591Z" fill="#CC0595"/>
<path d="M106.062 354.591H76.5312V357.872H106.062V354.591Z" fill="#FB4694"/>
<path d="M76.5312 357.872H73.25V361.153H76.5312V357.872Z" fill="#CC0595"/>
<path d="M86.375 357.872H76.5312V361.153H86.375V357.872Z" fill="#FB4694"/>
<path d="M109.344 357.872H89.6562V361.153H109.344V357.872Z" fill="#FB4694"/>
<path d="M79.8125 361.153H73.25V364.435H79.8125V361.153Z" fill="#CC0595"/>
<path d="M86.375 361.153H79.8125V364.435H86.375V361.153Z" fill="#FB4694"/>
<path d="M112.625 361.153H92.9375V364.435H112.625V361.153Z" fill="#FB4694"/>
<path d="M76.5312 364.435H73.25V367.716H76.5312V364.435Z" fill="#CC0595"/>
<path d="M86.375 364.435H76.5312V367.716H86.375V364.435Z" fill="#FB4694"/>
<path d="M115.906 364.435H96.2188V367.716H115.906V364.435Z" fill="#FB4694"/>
<path d="M76.5312 367.716H73.25V370.997H76.5312V367.716Z" fill="#CC0595"/>
<path d="M86.375 367.716H76.5312V370.997H86.375V367.716Z" fill="#FB4694"/>
<path d="M119.188 367.716H99.5V370.997H119.188V367.716Z" fill="#FB4694"/>
<path d="M79.8125 370.997H73.25V374.278H79.8125V370.997Z" fill="#CC0595"/>
<path d="M86.375 370.997H79.8125V374.278H86.375V370.997Z" fill="#FB4694"/>
<path d="M122.469 370.997H102.781V374.278H122.469V370.997Z" fill="#FB4694"/>
<path d="M76.5312 374.278H73.25V377.56H76.5312V374.278Z" fill="#CC0595"/>
<path d="M86.375 374.278H76.5312V377.56H86.375V374.278Z" fill="#FB4694"/>
<path d="M125.75 374.278H106.062V377.56H125.75V374.278Z" fill="#FB4694"/>
<path d="M76.5312 377.56H73.25V380.841H76.5312V377.56Z" fill="#CC0595"/>
<path d="M129.031 377.56H76.5312V380.841H129.031V377.56Z" fill="#FB4694"/>
<path d="M79.8125 380.841H73.25V384.122H79.8125V380.841Z" fill="#CC0595"/>
<path d="M109.344 380.841H79.8125V384.122H109.344V380.841Z" fill="#FB4694"/>
<path d="M122.469 380.841H109.344V384.122H122.469V380.841Z" fill="#CC0595"/>
<path d="M132.312 380.841H122.469V384.122H132.312V380.841Z" fill="#FB4694"/>
<path d="M76.5312 384.122H73.25V387.403H76.5312V384.122Z" fill="#CC0595"/>
<path d="M109.344 384.122H76.5312V387.403H109.344V384.122Z" fill="#FB4694"/>
<path d="M122.469 384.122H109.344V387.403H122.469V384.122Z" fill="#CC0595"/>
<path d="M135.594 384.122H122.469V387.403H135.594V384.122Z" fill="#FB4694"/>
<path d="M76.5312 387.403H73.25V390.685H76.5312V387.403Z" fill="#CC0595"/>
<path d="M138.875 387.403H76.5312V390.685H138.875V387.403Z" fill="#FB4694"/>
<path d="M226.531 61.0596H223.25V64.3408H226.531V61.0596Z" fill="#CC0595"/>
<path d="M226.531 64.3408H223.25V67.6221H226.531V64.3408Z" fill="#CC0595"/>
<path d="M229.812 64.3408H226.531V67.6221H229.812V64.3408Z" fill="#FB4694"/>
<path d="M229.812 67.6221H223.25V70.9033H229.812V67.6221Z" fill="#CC0595"/>
<path d="M233.094 67.6221H229.812V70.9033H233.094V67.6221Z" fill="#FB4694"/>
<path d="M226.531 70.9033H223.25V74.1846H226.531V70.9033Z" fill="#CC0595"/>
<path d="M236.375 70.9033H226.531V74.1846H236.375V70.9033Z" fill="#FB4694"/>
<path d="M226.531 74.1846H223.25V77.4658H226.531V74.1846Z" fill="#CC0595"/>
<path d="M239.656 74.1846H226.531V77.4658H239.656V74.1846Z" fill="#FB4694"/>
<path d="M229.812 77.4658H223.25V80.7471H229.812V77.4658Z" fill="#CC0595"/>
<path d="M242.938 77.4658H229.812V80.7471H242.938V77.4658Z" fill="#FB4694"/>
<path d="M226.531 80.7471H223.25V84.0283H226.531V80.7471Z" fill="#CC0595"/>
<path d="M246.219 80.7471H226.531V84.0283H246.219V80.7471Z" fill="#FB4694"/>
<path d="M226.531 84.0283H223.25V87.3096H226.531V84.0283Z" fill="#CC0595"/>
<path d="M249.5 84.0283H226.531V87.3096H249.5V84.0283Z" fill="#FB4694"/>
<path d="M229.812 87.3096H223.25V90.5908H229.812V87.3096Z" fill="#CC0595"/>
<path d="M252.781 87.3096H229.812V90.5908H252.781V87.3096Z" fill="#FB4694"/>
<path d="M226.531 90.5908H223.25V93.8721H226.531V90.5908Z" fill="#CC0595"/>
<path d="M256.062 90.5908H226.531V93.8721H256.062V90.5908Z" fill="#FB4694"/>
<path d="M226.531 93.8721H223.25V97.1533H226.531V93.8721Z" fill="#CC0595"/>
<path d="M236.375 93.8721H226.531V97.1533H236.375V93.8721Z" fill="#FB4694"/>
<path d="M259.344 93.8721H239.656V97.1533H259.344V93.8721Z" fill="#FB4694"/>
<path d="M229.812 97.1533H223.25V100.435H229.812V97.1533Z" fill="#CC0595"/>
<path d="M236.375 97.1533H229.812V100.435H236.375V97.1533Z" fill="#FB4694"/>
<path d="M262.625 97.1533H242.938V100.435H262.625V97.1533Z" fill="#FB4694"/>
<path d="M226.531 100.435H223.25V103.716H226.531V100.435Z" fill="#CC0595"/>
<path d="M236.375 100.435H226.531V103.716H236.375V100.435Z" fill="#FB4694"/>
<path d="M265.906 100.435H246.219V103.716H265.906V100.435Z" fill="#FB4694"/>
<path d="M226.531 103.716H223.25V106.997H226.531V103.716Z" fill="#CC0595"/>
<path d="M236.375 103.716H226.531V106.997H236.375V103.716Z" fill="#FB4694"/>
<path d="M269.188 103.716H249.5V106.997H269.188V103.716Z" fill="#FB4694"/>
<path d="M229.812 106.997H223.25V110.278H229.812V106.997Z" fill="#CC0595"/>
<path d="M236.375 106.997H229.812V110.278H236.375V106.997Z" fill="#FB4694"/>
<path d="M272.469 106.997H252.781V110.278H272.469V106.997Z" fill="#FB4694"/>
<path d="M226.531 110.278H223.25V113.56H226.531V110.278Z" fill="#CC0595"/>
<path d="M236.375 110.278H226.531V113.56H236.375V110.278Z" fill="#FB4694"/>
<path d="M275.75 110.278H256.062V113.56H275.75V110.278Z" fill="#FB4694"/>
<path d="M226.531 113.56H223.25V116.841H226.531V113.56Z" fill="#CC0595"/>
<path d="M279.031 113.56H226.531V116.841H279.031V113.56Z" fill="#FB4694"/>
<path d="M229.812 116.841H223.25V120.122H229.812V116.841Z" fill="#CC0595"/>
<path d="M259.344 116.841H229.812V120.122H259.344V116.841Z" fill="#FB4694"/>
<path d="M272.469 116.841H259.344V120.122H272.469V116.841Z" fill="#CC0595"/>
<path d="M282.312 116.841H272.469V120.122H282.312V116.841Z" fill="#FB4694"/>
<path d="M226.531 120.122H223.25V123.403H226.531V120.122Z" fill="#CC0595"/>
<path d="M259.344 120.122H226.531V123.403H259.344V120.122Z" fill="#FB4694"/>
<path d="M272.469 120.122H259.344V123.403H272.469V120.122Z" fill="#CC0595"/>
<path d="M285.594 120.122H272.469V123.403H285.594V120.122Z" fill="#FB4694"/>
<path d="M226.531 123.403H223.25V126.685H226.531V123.403Z" fill="#CC0595"/>
<path d="M288.875 123.403H226.531V126.685H288.875V123.403Z" fill="#FB4694"/>
<path d="M68.1172 126.249V80.7017H67.8828L53.5078 90.4673V79.9985L68.0781 69.8813H79.7969V126.249H68.1172ZM114.719 127.225C109.953 127.225 105.852 126.04 102.414 123.67C98.9766 121.301 96.3333 117.941 94.4844 113.592C92.6615 109.217 91.75 104.048 91.75 98.0845V98.0063C91.75 92.0168 92.6615 86.8475 94.4844 82.4985C96.3333 78.1496 98.9766 74.8032 102.414 72.4595C105.852 70.0897 109.953 68.9048 114.719 68.9048C119.484 68.9048 123.573 70.0897 126.984 72.4595C130.422 74.8032 133.065 78.1496 134.914 82.4985C136.763 86.8475 137.688 92.0168 137.688 98.0063V98.0845C137.688 104.048 136.763 109.217 134.914 113.592C133.065 117.941 130.422 121.301 126.984 123.67C123.573 126.04 119.484 127.225 114.719 127.225ZM114.719 117.772C117.062 117.772 119.055 116.991 120.695 115.428C122.336 113.866 123.586 111.613 124.445 108.67C125.331 105.728 125.773 102.199 125.773 98.0845V98.0063C125.773 93.8657 125.331 90.3371 124.445 87.4204C123.586 84.4777 122.336 82.2381 120.695 80.7017C119.055 79.1392 117.062 78.3579 114.719 78.3579C112.375 78.3579 110.37 79.1392 108.703 80.7017C107.062 82.2381 105.812 84.4777 104.953 87.4204C104.094 90.3371 103.664 93.8657 103.664 98.0063V98.0845C103.664 102.199 104.094 105.728 104.953 108.67C105.812 111.613 107.062 113.866 108.703 115.428C110.37 116.991 112.375 117.772 114.719 117.772Z" fill="#FB4694"/>
<path d="M225.117 385.497V339.95H224.883L210.508 349.716V339.247L225.078 329.13H236.797V385.497H225.117ZM271.719 386.474C266.953 386.474 262.852 385.289 259.414 382.919C255.977 380.549 253.333 377.19 251.484 372.841C249.661 368.466 248.75 363.297 248.75 357.333V357.255C248.75 351.265 249.661 346.096 251.484 341.747C253.333 337.398 255.977 334.052 259.414 331.708C262.852 329.338 266.953 328.153 271.719 328.153C276.484 328.153 280.573 329.338 283.984 331.708C287.422 334.052 290.065 337.398 291.914 341.747C293.763 346.096 294.688 351.265 294.688 357.255V357.333C294.688 363.297 293.763 368.466 291.914 372.841C290.065 377.19 287.422 380.549 283.984 382.919C280.573 385.289 276.484 386.474 271.719 386.474ZM271.719 377.021C274.062 377.021 276.055 376.239 277.695 374.677C279.336 373.114 280.586 370.862 281.445 367.919C282.331 364.976 282.773 361.448 282.773 357.333V357.255C282.773 353.114 282.331 349.586 281.445 346.669C280.586 343.726 279.336 341.487 277.695 339.95C276.055 338.388 274.062 337.606 271.719 337.606C269.375 337.606 267.37 338.388 265.703 339.95C264.062 341.487 262.812 343.726 261.953 346.669C261.094 349.586 260.664 353.114 260.664 357.255V357.333C260.664 361.448 261.094 364.976 261.953 367.919C262.812 370.862 264.062 373.114 265.703 374.677C267.37 376.239 269.375 377.021 271.719 377.021Z" fill="#FB4694"/>
<defs>
<filter id="filter0_d_18_9787" x="0" y="0.248535" width="348" height="462" filterUnits="userSpaceOnUse" color-interpolation-filters="sRGB">
<feFlood flood-opacity="0" result="BackgroundImageFix"/>
<feColorMatrix in="SourceAlpha" type="matrix" values="0 0 0 0 0 0 0 0 0 0 0 0 0 0 0 0 0 0 127 0" result="hardAlpha"/>
<feOffset dy="5"/>
<feGaussianBlur stdDeviation="17"/>
<feColorMatrix type="matrix" values="0 0 0 0 0 0 0 0 0 0 0 0 0 0 0 0 0 0 0.1 0"/>
<feBlend mode="normal" in2="BackgroundImageFix" result="effect1_dropShadow_18_9787"/>
<feBlend mode="normal" in="SourceGraphic" in2="effect1_dropShadow_18_9787" result="shape"/>
</filter>
</defs>
</svg>
