<svg width="348" height="463" viewBox="0 0 348 463" fill="none" xmlns="http://www.w3.org/2000/svg">
<g filter="url(#filter0_d_18_22352)">
<rect x="34" y="29.2485" width="280" height="394" rx="20" fill="#F2F2F2"/>
<rect x="34.5" y="29.7485" width="279" height="393" rx="19.5" stroke="#D2D2D2"/>
</g>
<path d="M93.375 323.747H76.8125V327.06H93.375V323.747Z" fill="#F3322C"/>
<path d="M123.188 323.747H106.625V327.06H123.188V323.747Z" fill="#F3322C"/>
<path d="M100 327.06H70.1875V330.372H100V327.06Z" fill="#F3322C"/>
<path d="M129.812 327.06H103.312V330.372H129.812V327.06Z" fill="#F3322C"/>
<path d="M86.75 330.372H66.875V333.685H86.75V330.372Z" fill="#F3322C"/>
<path d="M93.375 330.372H86.75V333.685H93.375V330.372Z" fill="white"/>
<path d="M113.25 330.372H93.375V333.685H113.25V330.372Z" fill="#F3322C"/>
<path d="M119.875 330.372H113.25V333.685H119.875V330.372Z" fill="white"/>
<path d="M133.125 330.372H119.875V333.685H133.125V330.372Z" fill="#F3322C"/>
<path d="M93.375 333.685H63.5625V336.997H93.375V333.685Z" fill="#F3322C"/>
<path d="M96.6875 333.685H93.375V336.997H96.6875V333.685Z" fill="white"/>
<path d="M113.25 333.685H96.6875V336.997H113.25V333.685Z" fill="#F3322C"/>
<path d="M119.875 333.685H113.25V336.997H119.875V333.685Z" fill="white"/>
<path d="M123.188 333.685H119.875V336.997H123.188V333.685Z" fill="#F3322C"/>
<path d="M126.5 333.685H123.188V336.997H126.5V333.685Z" fill="white"/>
<path d="M136.438 333.685H126.5V336.997H136.438V333.685Z" fill="#F3322C"/>
<path d="M126.5 336.997H63.5625V340.31H126.5V336.997Z" fill="#F3322C"/>
<path d="M129.812 336.997H126.5V340.31H129.812V336.997Z" fill="white"/>
<path d="M136.438 336.997H129.812V340.31H136.438V336.997Z" fill="#F3322C"/>
<path d="M126.5 340.31H60.25V343.622H126.5V340.31Z" fill="#F3322C"/>
<path d="M129.812 340.31H126.5V343.622H129.812V340.31Z" fill="white"/>
<path d="M139.75 340.31H129.812V343.622H139.75V340.31Z" fill="#F3322C"/>
<path d="M139.75 343.622H60.25V346.935H139.75V343.622Z" fill="#F3322C"/>
<path d="M139.75 346.935H60.25V350.247H139.75V346.935Z" fill="#F3322C"/>
<path d="M139.75 350.247H60.25V353.56H139.75V350.247Z" fill="#F3322C"/>
<path d="M136.438 353.56H63.5625V356.872H136.438V353.56Z" fill="#F3322C"/>
<path d="M136.438 356.872H63.5625V360.185H136.438V356.872Z" fill="#F3322C"/>
<path d="M133.125 360.185H66.875V363.497H133.125V360.185Z" fill="#F3322C"/>
<path d="M133.125 363.497H66.875V366.81H133.125V363.497Z" fill="#F3322C"/>
<path d="M129.813 366.81H70.1875V370.122H129.813V366.81Z" fill="#F3322C"/>
<path d="M96.6875 370.122H73.5V373.435H96.6875V370.122Z" fill="#F3322C"/>
<path d="M103.312 370.122H96.6875V373.435H103.312V370.122Z" fill="white"/>
<path d="M106.625 370.122H103.312V373.435H106.625V370.122Z" fill="black"/>
<path d="M126.5 370.122H106.625V373.435H126.5V370.122Z" fill="#F3322C"/>
<path d="M123.188 373.435H76.8125V376.747H123.188V373.435Z" fill="#F3322C"/>
<path d="M119.875 376.747H80.125V380.06H119.875V376.747Z" fill="#F3322C"/>
<path d="M116.562 380.06H83.4375V383.372H116.562V380.06Z" fill="#F3322C"/>
<path d="M109.938 383.372H90.0625V386.685H109.938V383.372Z" fill="#F3322C"/>
<path d="M103.312 386.685H96.6875V389.997H103.312V386.685Z" fill="#F3322C"/>
<path d="M241.375 59.7471H224.812V63.0596H241.375V59.7471Z" fill="#F3322C"/>
<path d="M271.188 59.7471H254.625V63.0596H271.188V59.7471Z" fill="#F3322C"/>
<path d="M248 63.0596H218.188V66.3721H248V63.0596Z" fill="#F3322C"/>
<path d="M277.812 63.0596H251.312V66.3721H277.812V63.0596Z" fill="#F3322C"/>
<path d="M234.75 66.3721H214.875V69.6846H234.75V66.3721Z" fill="#F3322C"/>
<path d="M241.375 66.3721H234.75V69.6846H241.375V66.3721Z" fill="white"/>
<path d="M261.25 66.3721H241.375V69.6846H261.25V66.3721Z" fill="#F3322C"/>
<path d="M267.875 66.3721H261.25V69.6846H267.875V66.3721Z" fill="white"/>
<path d="M281.125 66.3721H267.875V69.6846H281.125V66.3721Z" fill="#F3322C"/>
<path d="M241.375 69.6846H211.562V72.9971H241.375V69.6846Z" fill="#F3322C"/>
<path d="M244.688 69.6846H241.375V72.9971H244.688V69.6846Z" fill="white"/>
<path d="M261.25 69.6846H244.688V72.9971H261.25V69.6846Z" fill="#F3322C"/>
<path d="M267.875 69.6846H261.25V72.9971H267.875V69.6846Z" fill="white"/>
<path d="M271.188 69.6846H267.875V72.9971H271.188V69.6846Z" fill="#F3322C"/>
<path d="M274.5 69.6846H271.188V72.9971H274.5V69.6846Z" fill="white"/>
<path d="M284.438 69.6846H274.5V72.9971H284.438V69.6846Z" fill="#F3322C"/>
<path d="M274.5 72.9971H211.562V76.3096H274.5V72.9971Z" fill="#F3322C"/>
<path d="M277.812 72.9971H274.5V76.3096H277.812V72.9971Z" fill="white"/>
<path d="M284.438 72.9971H277.812V76.3096H284.438V72.9971Z" fill="#F3322C"/>
<path d="M274.5 76.3096H208.25V79.6221H274.5V76.3096Z" fill="#F3322C"/>
<path d="M277.812 76.3096H274.5V79.6221H277.812V76.3096Z" fill="white"/>
<path d="M287.75 76.3096H277.812V79.6221H287.75V76.3096Z" fill="#F3322C"/>
<path d="M287.75 79.6221H208.25V82.9346H287.75V79.6221Z" fill="#F3322C"/>
<path d="M287.75 82.9346H208.25V86.2471H287.75V82.9346Z" fill="#F3322C"/>
<path d="M287.75 86.2471H208.25V89.5596H287.75V86.2471Z" fill="#F3322C"/>
<path d="M284.438 89.5596H211.562V92.8721H284.438V89.5596Z" fill="#F3322C"/>
<path d="M284.438 92.8721H211.562V96.1846H284.438V92.8721Z" fill="#F3322C"/>
<path d="M281.125 96.1846H214.875V99.4971H281.125V96.1846Z" fill="#F3322C"/>
<path d="M281.125 99.4971H214.875V102.81H281.125V99.4971Z" fill="#F3322C"/>
<path d="M277.813 102.81H218.188V106.122H277.813V102.81Z" fill="#F3322C"/>
<path d="M244.688 106.122H221.5V109.435H244.688V106.122Z" fill="#F3322C"/>
<path d="M251.312 106.122H244.688V109.435H251.312V106.122Z" fill="white"/>
<path d="M254.625 106.122H251.312V109.435H254.625V106.122Z" fill="black"/>
<path d="M274.5 106.122H254.625V109.435H274.5V106.122Z" fill="#F3322C"/>
<path d="M271.188 109.435H224.812V112.747H271.188V109.435Z" fill="#F3322C"/>
<path d="M267.875 112.747H228.125V116.06H267.875V112.747Z" fill="#F3322C"/>
<path d="M264.562 116.06H231.438V119.372H264.562V116.06Z" fill="#F3322C"/>
<path d="M257.938 119.372H238.062V122.685H257.938V119.372Z" fill="#F3322C"/>
<path d="M251.312 122.685H244.688V125.997H251.312V122.685Z" fill="#F3322C"/>
<path d="M85.3828 109.569V95.6626H86.125L106.789 69.8813H119.914L99.2109 95.3501H96.9062L85.3828 109.569ZM74.0547 126.249V69.8813H85.8516V126.249H74.0547ZM107.258 126.249L89.1719 99.5298L97.6875 91.7954L121.359 126.249H107.258Z" fill="#F3322C"/>
<path d="M242.383 368.817V354.911H243.125L263.789 329.13H276.914L256.211 354.599H253.906L242.383 368.817ZM231.055 385.497V329.13H242.852V385.497H231.055ZM264.258 385.497L246.172 358.778L254.688 351.044L278.359 385.497H264.258Z" fill="#F3322C"/>
<path d="M179.156 164.905H162.188V170.561H179.156V164.905Z" fill="#068940"/>
<path d="M139.562 170.561H133.906V176.217H139.562V170.561Z" fill="#068940"/>
<path d="M190.469 170.561H150.875V176.217H190.469V170.561Z" fill="#068940"/>
<path d="M201.781 176.217H139.562V181.874H201.781V176.217Z" fill="#068940"/>
<path d="M145.219 181.874H139.562V187.53H145.219V181.874Z" fill="#068940"/>
<path d="M190.469 181.874H150.875V187.53H190.469V181.874Z" fill="#068940"/>
<path d="M150.875 187.53H145.219V193.186H150.875V187.53Z" fill="#068940"/>
<path d="M179.156 187.53H162.188V193.186H179.156V187.53Z" fill="#068940"/>
<path d="M150.875 193.186H145.219V198.842H150.875V193.186Z" fill="#068940"/>
<path d="M173.5 193.186H167.844V198.842H173.5V193.186Z" fill="#068940"/>
<path d="M156.531 198.842H150.875V204.499H156.531V198.842Z" fill="#068940"/>
<path d="M179.156 198.842H173.5V204.499H179.156V198.842Z" fill="#068940"/>
<path d="M156.531 204.499H150.875V210.155H156.531V204.499Z" fill="#068940"/>
<path d="M184.812 204.499H179.156V210.155H184.812V204.499Z" fill="#068940"/>
<path d="M150.875 210.155H133.906V215.811H150.875V210.155Z" fill="#D22209"/>
<path d="M156.531 210.155H150.875V215.811H156.531V210.155Z" fill="#068940"/>
<path d="M162.188 210.155H156.531V215.811H162.188V210.155Z" fill="#D22209"/>
<path d="M190.469 210.155H184.812V215.811H190.469V210.155Z" fill="#068940"/>
<path d="M213.094 210.155H190.469V215.811H213.094V210.155Z" fill="#FF1A0B"/>
<path d="M173.5 215.811H122.594V221.467H173.5V215.811Z" fill="#D22209"/>
<path d="M224.406 215.811H173.5V221.467H224.406V215.811Z" fill="#FF1A0B"/>
<path d="M167.844 221.467H116.938V227.124H167.844V221.467Z" fill="#D22209"/>
<path d="M230.062 221.467H167.844V227.124H230.062V221.467Z" fill="#FF1A0B"/>
<path d="M167.844 227.124H116.938V232.78H167.844V227.124Z" fill="#D22209"/>
<path d="M218.75 227.124H167.844V232.78H218.75V227.124Z" fill="#FF1A0B"/>
<path d="M224.406 227.124H218.75V232.78H224.406V227.124Z" fill="white"/>
<path d="M230.062 227.124H224.406V232.78H230.062V227.124Z" fill="#FF1A0B"/>
<path d="M162.188 232.78H111.281V238.436H162.188V232.78Z" fill="#D22209"/>
<path d="M235.719 232.78H162.188V238.436H235.719V232.78Z" fill="#FF1A0B"/>
<path d="M162.188 238.436H111.281V244.092H162.188V238.436Z" fill="#D22209"/>
<path d="M235.719 238.436H162.188V244.092H235.719V238.436Z" fill="#FF1A0B"/>
<path d="M162.188 244.092H111.281V249.749H162.188V244.092Z" fill="#D22209"/>
<path d="M235.719 244.092H162.188V249.749H235.719V244.092Z" fill="#FF1A0B"/>
<path d="M162.188 249.749H111.281V255.405H162.188V249.749Z" fill="#D22209"/>
<path d="M235.719 249.749H162.188V255.405H235.719V249.749Z" fill="#FF1A0B"/>
<path d="M162.188 255.405H111.281V261.061H162.188V255.405Z" fill="#D22209"/>
<path d="M235.719 255.405H162.188V261.061H235.719V255.405Z" fill="#FF1A0B"/>
<path d="M167.844 261.061H116.938V266.717H167.844V261.061Z" fill="#D22209"/>
<path d="M201.781 261.061H167.844V266.717H201.781V261.061Z" fill="#FF1A0B"/>
<path d="M218.75 261.061H201.781V266.717H218.75V261.061Z" fill="#D22209"/>
<path d="M230.062 261.061H218.75V266.717H230.062V261.061Z" fill="#FF1A0B"/>
<path d="M167.844 266.717H116.938V272.374H167.844V266.717Z" fill="#D22209"/>
<path d="M196.125 266.717H167.844V272.374H196.125V266.717Z" fill="#FF1A0B"/>
<path d="M201.781 266.717H196.125V272.374H201.781V266.717Z" fill="#D22209"/>
<path d="M213.094 266.717H201.781V272.374H213.094V266.717Z" fill="white"/>
<path d="M230.062 266.717H213.094V272.374H230.062V266.717Z" fill="#FF1A0B"/>
<path d="M173.5 272.374H122.594V278.03H173.5V272.374Z" fill="#D22209"/>
<path d="M224.406 272.374H173.5V278.03H224.406V272.374Z" fill="#FF1A0B"/>
<path d="M162.188 278.03H133.906V283.686H162.188V278.03Z" fill="#D22209"/>
<path d="M213.094 278.03H184.812V283.686H213.094V278.03Z" fill="#FF1A0B"/>
<defs>
<filter id="filter0_d_18_22352" x="0" y="0.248535" width="348" height="462" filterUnits="userSpaceOnUse" color-interpolation-filters="sRGB">
<feFlood flood-opacity="0" result="BackgroundImageFix"/>
<feColorMatrix in="SourceAlpha" type="matrix" values="0 0 0 0 0 0 0 0 0 0 0 0 0 0 0 0 0 0 127 0" result="hardAlpha"/>
<feOffset dy="5"/>
<feGaussianBlur stdDeviation="17"/>
<feColorMatrix type="matrix" values="0 0 0 0 0 0 0 0 0 0 0 0 0 0 0 0 0 0 0.1 0"/>
<feBlend mode="normal" in2="BackgroundImageFix" result="effect1_dropShadow_18_22352"/>
<feBlend mode="normal" in="SourceGraphic" in2="effect1_dropShadow_18_22352" result="shape"/>
</filter>
</defs>
</svg>
