<svg width="348" height="463" viewBox="0 0 348 463" fill="none" xmlns="http://www.w3.org/2000/svg">
<g filter="url(#filter0_d_18_19031)">
<rect x="34" y="29.2485" width="280" height="394" rx="20" fill="#F2F2F2"/>
<rect x="34.5" y="29.7485" width="279" height="393" rx="19.5" stroke="#D2D2D2"/>
</g>
<path d="M93.375 323.747H76.8125V327.06H93.375V323.747Z" fill="#F3322C"/>
<path d="M123.188 323.747H106.625V327.06H123.188V323.747Z" fill="#F3322C"/>
<path d="M100 327.06H70.1875V330.372H100V327.06Z" fill="#F3322C"/>
<path d="M129.812 327.06H103.312V330.372H129.812V327.06Z" fill="#F3322C"/>
<path d="M86.75 330.372H66.875V333.685H86.75V330.372Z" fill="#F3322C"/>
<path d="M93.375 330.372H86.75V333.685H93.375V330.372Z" fill="white"/>
<path d="M113.25 330.372H93.375V333.685H113.25V330.372Z" fill="#F3322C"/>
<path d="M119.875 330.372H113.25V333.685H119.875V330.372Z" fill="white"/>
<path d="M133.125 330.372H119.875V333.685H133.125V330.372Z" fill="#F3322C"/>
<path d="M93.375 333.685H63.5625V336.997H93.375V333.685Z" fill="#F3322C"/>
<path d="M96.6875 333.685H93.375V336.997H96.6875V333.685Z" fill="white"/>
<path d="M113.25 333.685H96.6875V336.997H113.25V333.685Z" fill="#F3322C"/>
<path d="M119.875 333.685H113.25V336.997H119.875V333.685Z" fill="white"/>
<path d="M123.188 333.685H119.875V336.997H123.188V333.685Z" fill="#F3322C"/>
<path d="M126.5 333.685H123.188V336.997H126.5V333.685Z" fill="white"/>
<path d="M136.438 333.685H126.5V336.997H136.438V333.685Z" fill="#F3322C"/>
<path d="M126.5 336.997H63.5625V340.31H126.5V336.997Z" fill="#F3322C"/>
<path d="M129.812 336.997H126.5V340.31H129.812V336.997Z" fill="white"/>
<path d="M136.438 336.997H129.812V340.31H136.438V336.997Z" fill="#F3322C"/>
<path d="M126.5 340.31H60.25V343.622H126.5V340.31Z" fill="#F3322C"/>
<path d="M129.812 340.31H126.5V343.622H129.812V340.31Z" fill="white"/>
<path d="M139.75 340.31H129.812V343.622H139.75V340.31Z" fill="#F3322C"/>
<path d="M139.75 343.622H60.25V346.935H139.75V343.622Z" fill="#F3322C"/>
<path d="M139.75 346.935H60.25V350.247H139.75V346.935Z" fill="#F3322C"/>
<path d="M139.75 350.247H60.25V353.56H139.75V350.247Z" fill="#F3322C"/>
<path d="M136.438 353.56H63.5625V356.872H136.438V353.56Z" fill="#F3322C"/>
<path d="M136.438 356.872H63.5625V360.185H136.438V356.872Z" fill="#F3322C"/>
<path d="M133.125 360.185H66.875V363.497H133.125V360.185Z" fill="#F3322C"/>
<path d="M133.125 363.497H66.875V366.81H133.125V363.497Z" fill="#F3322C"/>
<path d="M129.813 366.81H70.1875V370.122H129.813V366.81Z" fill="#F3322C"/>
<path d="M96.6875 370.122H73.5V373.435H96.6875V370.122Z" fill="#F3322C"/>
<path d="M103.312 370.122H96.6875V373.435H103.312V370.122Z" fill="white"/>
<path d="M106.625 370.122H103.312V373.435H106.625V370.122Z" fill="black"/>
<path d="M126.5 370.122H106.625V373.435H126.5V370.122Z" fill="#F3322C"/>
<path d="M123.188 373.435H76.8125V376.747H123.188V373.435Z" fill="#F3322C"/>
<path d="M119.875 376.747H80.125V380.06H119.875V376.747Z" fill="#F3322C"/>
<path d="M116.562 380.06H83.4375V383.372H116.562V380.06Z" fill="#F3322C"/>
<path d="M109.938 383.372H90.0625V386.685H109.938V383.372Z" fill="#F3322C"/>
<path d="M103.312 386.685H96.6875V389.997H103.312V386.685Z" fill="#F3322C"/>
<path d="M241.375 59.7471H224.812V63.0596H241.375V59.7471Z" fill="#F3322C"/>
<path d="M271.188 59.7471H254.625V63.0596H271.188V59.7471Z" fill="#F3322C"/>
<path d="M248 63.0596H218.188V66.3721H248V63.0596Z" fill="#F3322C"/>
<path d="M277.812 63.0596H251.312V66.3721H277.812V63.0596Z" fill="#F3322C"/>
<path d="M234.75 66.3721H214.875V69.6846H234.75V66.3721Z" fill="#F3322C"/>
<path d="M241.375 66.3721H234.75V69.6846H241.375V66.3721Z" fill="white"/>
<path d="M261.25 66.3721H241.375V69.6846H261.25V66.3721Z" fill="#F3322C"/>
<path d="M267.875 66.3721H261.25V69.6846H267.875V66.3721Z" fill="white"/>
<path d="M281.125 66.3721H267.875V69.6846H281.125V66.3721Z" fill="#F3322C"/>
<path d="M241.375 69.6846H211.562V72.9971H241.375V69.6846Z" fill="#F3322C"/>
<path d="M244.688 69.6846H241.375V72.9971H244.688V69.6846Z" fill="white"/>
<path d="M261.25 69.6846H244.688V72.9971H261.25V69.6846Z" fill="#F3322C"/>
<path d="M267.875 69.6846H261.25V72.9971H267.875V69.6846Z" fill="white"/>
<path d="M271.188 69.6846H267.875V72.9971H271.188V69.6846Z" fill="#F3322C"/>
<path d="M274.5 69.6846H271.188V72.9971H274.5V69.6846Z" fill="white"/>
<path d="M284.438 69.6846H274.5V72.9971H284.438V69.6846Z" fill="#F3322C"/>
<path d="M274.5 72.9971H211.562V76.3096H274.5V72.9971Z" fill="#F3322C"/>
<path d="M277.812 72.9971H274.5V76.3096H277.812V72.9971Z" fill="white"/>
<path d="M284.438 72.9971H277.812V76.3096H284.438V72.9971Z" fill="#F3322C"/>
<path d="M274.5 76.3096H208.25V79.6221H274.5V76.3096Z" fill="#F3322C"/>
<path d="M277.812 76.3096H274.5V79.6221H277.812V76.3096Z" fill="white"/>
<path d="M287.75 76.3096H277.812V79.6221H287.75V76.3096Z" fill="#F3322C"/>
<path d="M287.75 79.6221H208.25V82.9346H287.75V79.6221Z" fill="#F3322C"/>
<path d="M287.75 82.9346H208.25V86.2471H287.75V82.9346Z" fill="#F3322C"/>
<path d="M287.75 86.2471H208.25V89.5596H287.75V86.2471Z" fill="#F3322C"/>
<path d="M284.438 89.5596H211.562V92.8721H284.438V89.5596Z" fill="#F3322C"/>
<path d="M284.438 92.8721H211.562V96.1846H284.438V92.8721Z" fill="#F3322C"/>
<path d="M281.125 96.1846H214.875V99.4971H281.125V96.1846Z" fill="#F3322C"/>
<path d="M281.125 99.4971H214.875V102.81H281.125V99.4971Z" fill="#F3322C"/>
<path d="M277.813 102.81H218.188V106.122H277.813V102.81Z" fill="#F3322C"/>
<path d="M244.688 106.122H221.5V109.435H244.688V106.122Z" fill="#F3322C"/>
<path d="M251.312 106.122H244.688V109.435H251.312V106.122Z" fill="white"/>
<path d="M254.625 106.122H251.312V109.435H254.625V106.122Z" fill="black"/>
<path d="M274.5 106.122H254.625V109.435H274.5V106.122Z" fill="#F3322C"/>
<path d="M271.188 109.435H224.812V112.747H271.188V109.435Z" fill="#F3322C"/>
<path d="M267.875 112.747H228.125V116.06H267.875V112.747Z" fill="#F3322C"/>
<path d="M264.562 116.06H231.438V119.372H264.562V116.06Z" fill="#F3322C"/>
<path d="M257.938 119.372H238.062V122.685H257.938V119.372Z" fill="#F3322C"/>
<path d="M251.312 122.685H244.688V125.997H251.312V122.685Z" fill="#F3322C"/>
<path d="M95.2656 127.225C90.9948 127.225 87.2708 126.535 84.0938 125.155C80.9167 123.749 78.3906 121.808 76.5156 119.334C74.6667 116.861 73.612 114.009 73.3516 110.78L73.3125 110.272H84.5625L84.6406 110.702C84.8229 112.056 85.3568 113.267 86.2422 114.334C87.1536 115.376 88.3646 116.209 89.875 116.834C91.4115 117.433 93.1953 117.733 95.2266 117.733C97.2578 117.733 99.0156 117.407 100.5 116.756C101.984 116.079 103.13 115.155 103.938 113.983C104.771 112.785 105.188 111.418 105.188 109.881V109.803C105.188 107.095 104.237 105.025 102.336 103.592C100.435 102.16 97.7786 101.444 94.3672 101.444H87.9219V93.0454H94.2109C96.1901 93.0454 97.9089 92.7199 99.3672 92.0688C100.826 91.4178 101.945 90.5194 102.727 89.3735C103.534 88.2017 103.938 86.8605 103.938 85.3501V85.272C103.938 83.7355 103.586 82.4334 102.883 81.3657C102.206 80.272 101.203 79.4386 99.875 78.8657C98.5729 78.2668 96.9974 77.9673 95.1484 77.9673C93.3255 77.9673 91.7109 78.2668 90.3047 78.8657C88.8984 79.4647 87.7786 80.311 86.9453 81.4048C86.112 82.4725 85.6042 83.7355 85.4219 85.1938L85.3828 85.5454H74.5625L74.6016 85.0767C74.862 81.7954 75.8646 78.9569 77.6094 76.561C79.3802 74.1392 81.763 72.2642 84.7578 70.936C87.7526 69.5819 91.2161 68.9048 95.1484 68.9048C99.2109 68.9048 102.727 69.5298 105.695 70.7798C108.69 72.0037 111.008 73.7225 112.648 75.936C114.289 78.1496 115.109 80.7407 115.109 83.7095V83.7876C115.109 86.1313 114.589 88.1886 113.547 89.9595C112.505 91.7303 111.086 93.1886 109.289 94.3345C107.518 95.4803 105.539 96.2876 103.352 96.7563V96.9907C107.544 97.3813 110.891 98.7355 113.391 101.053C115.917 103.371 117.18 106.444 117.18 110.272V110.35C117.18 113.709 116.268 116.652 114.445 119.178C112.622 121.704 110.07 123.683 106.789 125.116C103.508 126.522 99.6667 127.225 95.2656 127.225Z" fill="#F3322C"/>
<path d="M252.266 386.474C247.995 386.474 244.271 385.784 241.094 384.403C237.917 382.997 235.391 381.057 233.516 378.583C231.667 376.109 230.612 373.257 230.352 370.028L230.312 369.521H241.562L241.641 369.95C241.823 371.304 242.357 372.515 243.242 373.583C244.154 374.625 245.365 375.458 246.875 376.083C248.411 376.682 250.195 376.981 252.227 376.981C254.258 376.981 256.016 376.656 257.5 376.005C258.984 375.328 260.13 374.403 260.938 373.231C261.771 372.034 262.188 370.666 262.188 369.13V369.052C262.188 366.343 261.237 364.273 259.336 362.841C257.435 361.409 254.779 360.692 251.367 360.692H244.922V352.294H251.211C253.19 352.294 254.909 351.968 256.367 351.317C257.826 350.666 258.945 349.768 259.727 348.622C260.534 347.45 260.938 346.109 260.938 344.599V344.521C260.938 342.984 260.586 341.682 259.883 340.614C259.206 339.521 258.203 338.687 256.875 338.114C255.573 337.515 253.997 337.216 252.148 337.216C250.326 337.216 248.711 337.515 247.305 338.114C245.898 338.713 244.779 339.56 243.945 340.653C243.112 341.721 242.604 342.984 242.422 344.442L242.383 344.794H231.562L231.602 344.325C231.862 341.044 232.865 338.205 234.609 335.81C236.38 333.388 238.763 331.513 241.758 330.185C244.753 328.83 248.216 328.153 252.148 328.153C256.211 328.153 259.727 328.778 262.695 330.028C265.69 331.252 268.008 332.971 269.648 335.185C271.289 337.398 272.109 339.989 272.109 342.958V343.036C272.109 345.38 271.589 347.437 270.547 349.208C269.505 350.979 268.086 352.437 266.289 353.583C264.518 354.729 262.539 355.536 260.352 356.005V356.239C264.544 356.63 267.891 357.984 270.391 360.302C272.917 362.619 274.18 365.692 274.18 369.521V369.599C274.18 372.958 273.268 375.901 271.445 378.427C269.622 380.953 267.07 382.932 263.789 384.364C260.508 385.771 256.667 386.474 252.266 386.474Z" fill="#F3322C"/>
<defs>
<filter id="filter0_d_18_19031" x="0" y="0.248535" width="348" height="462" filterUnits="userSpaceOnUse" color-interpolation-filters="sRGB">
<feFlood flood-opacity="0" result="BackgroundImageFix"/>
<feColorMatrix in="SourceAlpha" type="matrix" values="0 0 0 0 0 0 0 0 0 0 0 0 0 0 0 0 0 0 127 0" result="hardAlpha"/>
<feOffset dy="5"/>
<feGaussianBlur stdDeviation="17"/>
<feColorMatrix type="matrix" values="0 0 0 0 0 0 0 0 0 0 0 0 0 0 0 0 0 0 0.1 0"/>
<feBlend mode="normal" in2="BackgroundImageFix" result="effect1_dropShadow_18_19031"/>
<feBlend mode="normal" in="SourceGraphic" in2="effect1_dropShadow_18_19031" result="shape"/>
</filter>
</defs>
</svg>
