<svg width="348" height="463" viewBox="0 0 348 463" fill="none" xmlns="http://www.w3.org/2000/svg">
<g filter="url(#filter0_d_18_17429)">
<rect x="34" y="29.2485" width="280" height="394" rx="20" fill="#F2F2F2"/>
<rect x="34.5" y="29.7485" width="279" height="393" rx="19.5" stroke="#D2D2D2"/>
</g>
<path d="M93.375 323.747H76.8125V327.06H93.375V323.747Z" fill="#F3322C"/>
<path d="M123.188 323.747H106.625V327.06H123.188V323.747Z" fill="#F3322C"/>
<path d="M100 327.06H70.1875V330.372H100V327.06Z" fill="#F3322C"/>
<path d="M129.812 327.06H103.312V330.372H129.812V327.06Z" fill="#F3322C"/>
<path d="M86.75 330.372H66.875V333.685H86.75V330.372Z" fill="#F3322C"/>
<path d="M93.375 330.372H86.75V333.685H93.375V330.372Z" fill="white"/>
<path d="M113.25 330.372H93.375V333.685H113.25V330.372Z" fill="#F3322C"/>
<path d="M119.875 330.372H113.25V333.685H119.875V330.372Z" fill="white"/>
<path d="M133.125 330.372H119.875V333.685H133.125V330.372Z" fill="#F3322C"/>
<path d="M93.375 333.685H63.5625V336.997H93.375V333.685Z" fill="#F3322C"/>
<path d="M96.6875 333.685H93.375V336.997H96.6875V333.685Z" fill="white"/>
<path d="M113.25 333.685H96.6875V336.997H113.25V333.685Z" fill="#F3322C"/>
<path d="M119.875 333.685H113.25V336.997H119.875V333.685Z" fill="white"/>
<path d="M123.188 333.685H119.875V336.997H123.188V333.685Z" fill="#F3322C"/>
<path d="M126.5 333.685H123.188V336.997H126.5V333.685Z" fill="white"/>
<path d="M136.438 333.685H126.5V336.997H136.438V333.685Z" fill="#F3322C"/>
<path d="M126.5 336.997H63.5625V340.31H126.5V336.997Z" fill="#F3322C"/>
<path d="M129.812 336.997H126.5V340.31H129.812V336.997Z" fill="white"/>
<path d="M136.438 336.997H129.812V340.31H136.438V336.997Z" fill="#F3322C"/>
<path d="M126.5 340.31H60.25V343.622H126.5V340.31Z" fill="#F3322C"/>
<path d="M129.812 340.31H126.5V343.622H129.812V340.31Z" fill="white"/>
<path d="M139.75 340.31H129.812V343.622H139.75V340.31Z" fill="#F3322C"/>
<path d="M139.75 343.622H60.25V346.935H139.75V343.622Z" fill="#F3322C"/>
<path d="M139.75 346.935H60.25V350.247H139.75V346.935Z" fill="#F3322C"/>
<path d="M139.75 350.247H60.25V353.56H139.75V350.247Z" fill="#F3322C"/>
<path d="M136.438 353.56H63.5625V356.872H136.438V353.56Z" fill="#F3322C"/>
<path d="M136.438 356.872H63.5625V360.185H136.438V356.872Z" fill="#F3322C"/>
<path d="M133.125 360.185H66.875V363.497H133.125V360.185Z" fill="#F3322C"/>
<path d="M133.125 363.497H66.875V366.81H133.125V363.497Z" fill="#F3322C"/>
<path d="M129.813 366.81H70.1875V370.122H129.813V366.81Z" fill="#F3322C"/>
<path d="M96.6875 370.122H73.5V373.435H96.6875V370.122Z" fill="#F3322C"/>
<path d="M103.312 370.122H96.6875V373.435H103.312V370.122Z" fill="white"/>
<path d="M106.625 370.122H103.312V373.435H106.625V370.122Z" fill="black"/>
<path d="M126.5 370.122H106.625V373.435H126.5V370.122Z" fill="#F3322C"/>
<path d="M123.188 373.435H76.8125V376.747H123.188V373.435Z" fill="#F3322C"/>
<path d="M119.875 376.747H80.125V380.06H119.875V376.747Z" fill="#F3322C"/>
<path d="M116.562 380.06H83.4375V383.372H116.562V380.06Z" fill="#F3322C"/>
<path d="M109.938 383.372H90.0625V386.685H109.938V383.372Z" fill="#F3322C"/>
<path d="M103.312 386.685H96.6875V389.997H103.312V386.685Z" fill="#F3322C"/>
<path d="M241.375 59.7471H224.812V63.0596H241.375V59.7471Z" fill="#F3322C"/>
<path d="M271.188 59.7471H254.625V63.0596H271.188V59.7471Z" fill="#F3322C"/>
<path d="M248 63.0596H218.188V66.3721H248V63.0596Z" fill="#F3322C"/>
<path d="M277.812 63.0596H251.312V66.3721H277.812V63.0596Z" fill="#F3322C"/>
<path d="M234.75 66.3721H214.875V69.6846H234.75V66.3721Z" fill="#F3322C"/>
<path d="M241.375 66.3721H234.75V69.6846H241.375V66.3721Z" fill="white"/>
<path d="M261.25 66.3721H241.375V69.6846H261.25V66.3721Z" fill="#F3322C"/>
<path d="M267.875 66.3721H261.25V69.6846H267.875V66.3721Z" fill="white"/>
<path d="M281.125 66.3721H267.875V69.6846H281.125V66.3721Z" fill="#F3322C"/>
<path d="M241.375 69.6846H211.562V72.9971H241.375V69.6846Z" fill="#F3322C"/>
<path d="M244.688 69.6846H241.375V72.9971H244.688V69.6846Z" fill="white"/>
<path d="M261.25 69.6846H244.688V72.9971H261.25V69.6846Z" fill="#F3322C"/>
<path d="M267.875 69.6846H261.25V72.9971H267.875V69.6846Z" fill="white"/>
<path d="M271.188 69.6846H267.875V72.9971H271.188V69.6846Z" fill="#F3322C"/>
<path d="M274.5 69.6846H271.188V72.9971H274.5V69.6846Z" fill="white"/>
<path d="M284.438 69.6846H274.5V72.9971H284.438V69.6846Z" fill="#F3322C"/>
<path d="M274.5 72.9971H211.562V76.3096H274.5V72.9971Z" fill="#F3322C"/>
<path d="M277.812 72.9971H274.5V76.3096H277.812V72.9971Z" fill="white"/>
<path d="M284.438 72.9971H277.812V76.3096H284.438V72.9971Z" fill="#F3322C"/>
<path d="M274.5 76.3096H208.25V79.6221H274.5V76.3096Z" fill="#F3322C"/>
<path d="M277.812 76.3096H274.5V79.6221H277.812V76.3096Z" fill="white"/>
<path d="M287.75 76.3096H277.812V79.6221H287.75V76.3096Z" fill="#F3322C"/>
<path d="M287.75 79.6221H208.25V82.9346H287.75V79.6221Z" fill="#F3322C"/>
<path d="M287.75 82.9346H208.25V86.2471H287.75V82.9346Z" fill="#F3322C"/>
<path d="M287.75 86.2471H208.25V89.5596H287.75V86.2471Z" fill="#F3322C"/>
<path d="M284.438 89.5596H211.562V92.8721H284.438V89.5596Z" fill="#F3322C"/>
<path d="M284.438 92.8721H211.562V96.1846H284.438V92.8721Z" fill="#F3322C"/>
<path d="M281.125 96.1846H214.875V99.4971H281.125V96.1846Z" fill="#F3322C"/>
<path d="M281.125 99.4971H214.875V102.81H281.125V99.4971Z" fill="#F3322C"/>
<path d="M277.813 102.81H218.188V106.122H277.813V102.81Z" fill="#F3322C"/>
<path d="M244.688 106.122H221.5V109.435H244.688V106.122Z" fill="#F3322C"/>
<path d="M251.312 106.122H244.688V109.435H251.312V106.122Z" fill="white"/>
<path d="M254.625 106.122H251.312V109.435H254.625V106.122Z" fill="black"/>
<path d="M274.5 106.122H254.625V109.435H274.5V106.122Z" fill="#F3322C"/>
<path d="M271.188 109.435H224.812V112.747H271.188V109.435Z" fill="#F3322C"/>
<path d="M267.875 112.747H228.125V116.06H267.875V112.747Z" fill="#F3322C"/>
<path d="M264.562 116.06H231.438V119.372H264.562V116.06Z" fill="#F3322C"/>
<path d="M257.938 119.372H238.062V122.685H257.938V119.372Z" fill="#F3322C"/>
<path d="M251.312 122.685H244.688V125.997H251.312V122.685Z" fill="#F3322C"/>
<path d="M96.125 127.225C92.7135 127.225 89.5755 126.626 86.7109 125.428C83.8724 124.23 81.3854 122.446 79.25 120.077C77.1406 117.681 75.5 114.699 74.3281 111.131C73.1823 107.538 72.6094 103.345 72.6094 98.5532V98.4751C72.6094 92.3293 73.5599 87.0428 75.4609 82.6157C77.362 78.1886 80.0703 74.8032 83.5859 72.4595C87.1276 70.0897 91.3464 68.9048 96.2422 68.9048C99.888 68.9048 103.169 69.5558 106.086 70.8579C109.003 72.134 111.411 73.9048 113.312 76.1704C115.24 78.436 116.477 81.0142 117.023 83.9048L117.102 84.2954H105.461L105.344 83.9438C104.875 82.798 104.211 81.8084 103.352 80.9751C102.518 80.1157 101.503 79.4517 100.305 78.9829C99.1068 78.4881 97.7396 78.2407 96.2031 78.2407C93.4688 78.2407 91.2161 79.035 89.4453 80.6235C87.7005 82.2121 86.3854 84.3475 85.5 87.0298C84.6146 89.7121 84.0938 92.7199 83.9375 96.0532C83.9115 96.4438 83.8854 96.8345 83.8594 97.2251C83.8594 97.6157 83.8594 98.0063 83.8594 98.397L85.6562 107.772C85.6562 109.647 86.112 111.353 87.0234 112.889C87.9349 114.4 89.1719 115.611 90.7344 116.522C92.2969 117.407 94.0417 117.85 95.9688 117.85C97.8958 117.85 99.6406 117.407 101.203 116.522C102.766 115.637 104.016 114.452 104.953 112.967C105.891 111.457 106.359 109.777 106.359 107.928V107.85C106.359 105.897 105.904 104.165 104.992 102.655C104.107 101.144 102.883 99.9725 101.32 99.1392C99.7839 98.2798 98.0391 97.8501 96.0859 97.8501C94.1328 97.8501 92.362 98.2798 90.7734 99.1392C89.1849 99.9725 87.9349 101.131 87.0234 102.616C86.112 104.1 85.6562 105.793 85.6562 107.694V107.772H83.2734V98.2017H84.0938C84.849 96.4569 85.9427 94.9074 87.375 93.5532C88.8333 92.1991 90.5781 91.1313 92.6094 90.3501C94.6667 89.5428 96.9583 89.1392 99.4844 89.1392C103.13 89.1392 106.32 89.9334 109.055 91.522C111.815 93.0845 113.964 95.2459 115.5 98.0063C117.062 100.767 117.844 103.905 117.844 107.42V107.499C117.844 111.353 116.906 114.764 115.031 117.733C113.156 120.676 110.578 122.993 107.297 124.686C104.042 126.379 100.318 127.225 96.125 127.225Z" fill="#F3322C"/>
<path d="M253.125 386.474C249.714 386.474 246.576 385.875 243.711 384.677C240.872 383.479 238.385 381.695 236.25 379.325C234.141 376.929 232.5 373.948 231.328 370.38C230.182 366.786 229.609 362.593 229.609 357.802V357.724C229.609 351.578 230.56 346.291 232.461 341.864C234.362 337.437 237.07 334.052 240.586 331.708C244.128 329.338 248.346 328.153 253.242 328.153C256.888 328.153 260.169 328.804 263.086 330.106C266.003 331.382 268.411 333.153 270.312 335.419C272.24 337.685 273.477 340.263 274.023 343.153L274.102 343.544H262.461L262.344 343.192C261.875 342.047 261.211 341.057 260.352 340.224C259.518 339.364 258.503 338.7 257.305 338.231C256.107 337.737 254.74 337.489 253.203 337.489C250.469 337.489 248.216 338.284 246.445 339.872C244.701 341.461 243.385 343.596 242.5 346.278C241.615 348.961 241.094 351.968 240.938 355.302C240.911 355.692 240.885 356.083 240.859 356.474C240.859 356.864 240.859 357.255 240.859 357.646L242.656 367.021C242.656 368.896 243.112 370.601 244.023 372.138C244.935 373.648 246.172 374.859 247.734 375.771C249.297 376.656 251.042 377.099 252.969 377.099C254.896 377.099 256.641 376.656 258.203 375.771C259.766 374.885 261.016 373.7 261.953 372.216C262.891 370.705 263.359 369.026 263.359 367.177V367.099C263.359 365.146 262.904 363.414 261.992 361.903C261.107 360.393 259.883 359.221 258.32 358.388C256.784 357.528 255.039 357.099 253.086 357.099C251.133 357.099 249.362 357.528 247.773 358.388C246.185 359.221 244.935 360.38 244.023 361.864C243.112 363.349 242.656 365.041 242.656 366.942V367.021H240.273V357.45H241.094C241.849 355.705 242.943 354.156 244.375 352.802C245.833 351.448 247.578 350.38 249.609 349.599C251.667 348.791 253.958 348.388 256.484 348.388C260.13 348.388 263.32 349.182 266.055 350.771C268.815 352.333 270.964 354.494 272.5 357.255C274.062 360.015 274.844 363.153 274.844 366.669V366.747C274.844 370.601 273.906 374.013 272.031 376.981C270.156 379.924 267.578 382.242 264.297 383.935C261.042 385.627 257.318 386.474 253.125 386.474Z" fill="#F3322C"/>
<defs>
<filter id="filter0_d_18_17429" x="0" y="0.248535" width="348" height="462" filterUnits="userSpaceOnUse" color-interpolation-filters="sRGB">
<feFlood flood-opacity="0" result="BackgroundImageFix"/>
<feColorMatrix in="SourceAlpha" type="matrix" values="0 0 0 0 0 0 0 0 0 0 0 0 0 0 0 0 0 0 127 0" result="hardAlpha"/>
<feOffset dy="5"/>
<feGaussianBlur stdDeviation="17"/>
<feColorMatrix type="matrix" values="0 0 0 0 0 0 0 0 0 0 0 0 0 0 0 0 0 0 0.1 0"/>
<feBlend mode="normal" in2="BackgroundImageFix" result="effect1_dropShadow_18_17429"/>
<feBlend mode="normal" in="SourceGraphic" in2="effect1_dropShadow_18_17429" result="shape"/>
</filter>
</defs>
</svg>
