<svg width="348" height="463" viewBox="0 0 348 463" fill="none" xmlns="http://www.w3.org/2000/svg">
<g filter="url(#filter0_d_18_15798)">
<rect x="34" y="29.2485" width="280" height="394" rx="20" fill="#F2F2F2"/>
<rect x="34.5" y="29.7485" width="279" height="393" rx="19.5" stroke="#D2D2D2"/>
</g>
<path d="M93.375 323.747H76.8125V327.06H93.375V323.747Z" fill="#F3322C"/>
<path d="M123.188 323.747H106.625V327.06H123.188V323.747Z" fill="#F3322C"/>
<path d="M100 327.06H70.1875V330.372H100V327.06Z" fill="#F3322C"/>
<path d="M129.812 327.06H103.312V330.372H129.812V327.06Z" fill="#F3322C"/>
<path d="M86.75 330.372H66.875V333.685H86.75V330.372Z" fill="#F3322C"/>
<path d="M93.375 330.372H86.75V333.685H93.375V330.372Z" fill="white"/>
<path d="M113.25 330.372H93.375V333.685H113.25V330.372Z" fill="#F3322C"/>
<path d="M119.875 330.372H113.25V333.685H119.875V330.372Z" fill="white"/>
<path d="M133.125 330.372H119.875V333.685H133.125V330.372Z" fill="#F3322C"/>
<path d="M93.375 333.685H63.5625V336.997H93.375V333.685Z" fill="#F3322C"/>
<path d="M96.6875 333.685H93.375V336.997H96.6875V333.685Z" fill="white"/>
<path d="M113.25 333.685H96.6875V336.997H113.25V333.685Z" fill="#F3322C"/>
<path d="M119.875 333.685H113.25V336.997H119.875V333.685Z" fill="white"/>
<path d="M123.188 333.685H119.875V336.997H123.188V333.685Z" fill="#F3322C"/>
<path d="M126.5 333.685H123.188V336.997H126.5V333.685Z" fill="white"/>
<path d="M136.438 333.685H126.5V336.997H136.438V333.685Z" fill="#F3322C"/>
<path d="M126.5 336.997H63.5625V340.31H126.5V336.997Z" fill="#F3322C"/>
<path d="M129.812 336.997H126.5V340.31H129.812V336.997Z" fill="white"/>
<path d="M136.438 336.997H129.812V340.31H136.438V336.997Z" fill="#F3322C"/>
<path d="M126.5 340.31H60.25V343.622H126.5V340.31Z" fill="#F3322C"/>
<path d="M129.812 340.31H126.5V343.622H129.812V340.31Z" fill="white"/>
<path d="M139.75 340.31H129.812V343.622H139.75V340.31Z" fill="#F3322C"/>
<path d="M139.75 343.622H60.25V346.935H139.75V343.622Z" fill="#F3322C"/>
<path d="M139.75 346.935H60.25V350.247H139.75V346.935Z" fill="#F3322C"/>
<path d="M139.75 350.247H60.25V353.56H139.75V350.247Z" fill="#F3322C"/>
<path d="M136.438 353.56H63.5625V356.872H136.438V353.56Z" fill="#F3322C"/>
<path d="M136.438 356.872H63.5625V360.185H136.438V356.872Z" fill="#F3322C"/>
<path d="M133.125 360.185H66.875V363.497H133.125V360.185Z" fill="#F3322C"/>
<path d="M133.125 363.497H66.875V366.81H133.125V363.497Z" fill="#F3322C"/>
<path d="M129.813 366.81H70.1875V370.122H129.813V366.81Z" fill="#F3322C"/>
<path d="M96.6875 370.122H73.5V373.435H96.6875V370.122Z" fill="#F3322C"/>
<path d="M103.312 370.122H96.6875V373.435H103.312V370.122Z" fill="white"/>
<path d="M106.625 370.122H103.312V373.435H106.625V370.122Z" fill="black"/>
<path d="M126.5 370.122H106.625V373.435H126.5V370.122Z" fill="#F3322C"/>
<path d="M123.188 373.435H76.8125V376.747H123.188V373.435Z" fill="#F3322C"/>
<path d="M119.875 376.747H80.125V380.06H119.875V376.747Z" fill="#F3322C"/>
<path d="M116.562 380.06H83.4375V383.372H116.562V380.06Z" fill="#F3322C"/>
<path d="M109.938 383.372H90.0625V386.685H109.938V383.372Z" fill="#F3322C"/>
<path d="M103.312 386.685H96.6875V389.997H103.312V386.685Z" fill="#F3322C"/>
<path d="M241.375 59.7471H224.812V63.0596H241.375V59.7471Z" fill="#F3322C"/>
<path d="M271.188 59.7471H254.625V63.0596H271.188V59.7471Z" fill="#F3322C"/>
<path d="M248 63.0596H218.188V66.3721H248V63.0596Z" fill="#F3322C"/>
<path d="M277.812 63.0596H251.312V66.3721H277.812V63.0596Z" fill="#F3322C"/>
<path d="M234.75 66.3721H214.875V69.6846H234.75V66.3721Z" fill="#F3322C"/>
<path d="M241.375 66.3721H234.75V69.6846H241.375V66.3721Z" fill="white"/>
<path d="M261.25 66.3721H241.375V69.6846H261.25V66.3721Z" fill="#F3322C"/>
<path d="M267.875 66.3721H261.25V69.6846H267.875V66.3721Z" fill="white"/>
<path d="M281.125 66.3721H267.875V69.6846H281.125V66.3721Z" fill="#F3322C"/>
<path d="M241.375 69.6846H211.562V72.9971H241.375V69.6846Z" fill="#F3322C"/>
<path d="M244.688 69.6846H241.375V72.9971H244.688V69.6846Z" fill="white"/>
<path d="M261.25 69.6846H244.688V72.9971H261.25V69.6846Z" fill="#F3322C"/>
<path d="M267.875 69.6846H261.25V72.9971H267.875V69.6846Z" fill="white"/>
<path d="M271.188 69.6846H267.875V72.9971H271.188V69.6846Z" fill="#F3322C"/>
<path d="M274.5 69.6846H271.188V72.9971H274.5V69.6846Z" fill="white"/>
<path d="M284.438 69.6846H274.5V72.9971H284.438V69.6846Z" fill="#F3322C"/>
<path d="M274.5 72.9971H211.562V76.3096H274.5V72.9971Z" fill="#F3322C"/>
<path d="M277.812 72.9971H274.5V76.3096H277.812V72.9971Z" fill="white"/>
<path d="M284.438 72.9971H277.812V76.3096H284.438V72.9971Z" fill="#F3322C"/>
<path d="M274.5 76.3096H208.25V79.6221H274.5V76.3096Z" fill="#F3322C"/>
<path d="M277.812 76.3096H274.5V79.6221H277.812V76.3096Z" fill="white"/>
<path d="M287.75 76.3096H277.812V79.6221H287.75V76.3096Z" fill="#F3322C"/>
<path d="M287.75 79.6221H208.25V82.9346H287.75V79.6221Z" fill="#F3322C"/>
<path d="M287.75 82.9346H208.25V86.2471H287.75V82.9346Z" fill="#F3322C"/>
<path d="M287.75 86.2471H208.25V89.5596H287.75V86.2471Z" fill="#F3322C"/>
<path d="M284.438 89.5596H211.562V92.8721H284.438V89.5596Z" fill="#F3322C"/>
<path d="M284.438 92.8721H211.562V96.1846H284.438V92.8721Z" fill="#F3322C"/>
<path d="M281.125 96.1846H214.875V99.4971H281.125V96.1846Z" fill="#F3322C"/>
<path d="M281.125 99.4971H214.875V102.81H281.125V99.4971Z" fill="#F3322C"/>
<path d="M277.813 102.81H218.188V106.122H277.813V102.81Z" fill="#F3322C"/>
<path d="M244.688 106.122H221.5V109.435H244.688V106.122Z" fill="#F3322C"/>
<path d="M251.312 106.122H244.688V109.435H251.312V106.122Z" fill="white"/>
<path d="M254.625 106.122H251.312V109.435H254.625V106.122Z" fill="black"/>
<path d="M274.5 106.122H254.625V109.435H274.5V106.122Z" fill="#F3322C"/>
<path d="M271.188 109.435H224.812V112.747H271.188V109.435Z" fill="#F3322C"/>
<path d="M267.875 112.747H228.125V116.06H267.875V112.747Z" fill="#F3322C"/>
<path d="M264.562 116.06H231.438V119.372H264.562V116.06Z" fill="#F3322C"/>
<path d="M257.938 119.372H238.062V122.685H257.938V119.372Z" fill="#F3322C"/>
<path d="M251.312 122.685H244.688V125.997H251.312V122.685Z" fill="#F3322C"/>
<path d="M68.8984 126.249L88.5859 69.8813H98.9766V80.8188H95.3828L81.2812 126.249H68.8984ZM79.4844 112.577L82.375 103.749H108.664L111.555 112.577H79.4844ZM109.719 126.249L95.6172 80.8188V69.8813H102.453L122.102 126.249H109.719Z" fill="#F3322C"/>
<path d="M225.898 385.497L245.586 329.13H255.977V340.067H252.383L238.281 385.497H225.898ZM236.484 371.825L239.375 362.997H265.664L268.555 371.825H236.484ZM266.719 385.497L252.617 340.067V329.13H259.453L279.102 385.497H266.719Z" fill="#F3322C"/>
<path d="M192.531 164.624H141.781V170.967H192.531V164.624Z" fill="#4BEA69"/>
<path d="M192.531 170.967H129.094V177.311H192.531V170.967Z" fill="#4BEA69"/>
<path d="M167.156 177.311H116.406V183.655H167.156V177.311Z" fill="#4BEA69"/>
<path d="M173.5 183.655H110.062V189.999H173.5V183.655Z" fill="#4BEA69"/>
<path d="M154.469 189.999H110.062V196.342H154.469V189.999Z" fill="#4BEA69"/>
<path d="M167.156 189.999H154.469V196.342H167.156V189.999Z" fill="#F3322C"/>
<path d="M173.5 189.999H167.156V196.342H173.5V189.999Z" fill="#4BEA69"/>
<path d="M129.094 196.342H103.719V202.686H129.094V196.342Z" fill="#4BEA69"/>
<path d="M173.5 196.342H129.094V202.686H173.5V196.342Z" fill="#F3322C"/>
<path d="M110.062 202.686H103.719V209.03H110.062V202.686Z" fill="#4BEA69"/>
<path d="M173.5 202.686H110.062V209.03H173.5V202.686Z" fill="#F3322C"/>
<path d="M173.5 209.03H110.062V215.374H173.5V209.03Z" fill="#F3322C"/>
<path d="M173.5 215.374H110.062V221.717H173.5V215.374Z" fill="#F3322C"/>
<path d="M179.844 221.717H110.062V228.061H179.844V221.717Z" fill="#F3322C"/>
<path d="M179.844 228.061H110.062V234.405H179.844V228.061Z" fill="#F3322C"/>
<path d="M186.188 234.405H116.406V240.749H186.188V234.405Z" fill="#F3322C"/>
<path d="M249.625 234.405H243.281V240.749H249.625V234.405Z" fill="#F3322C"/>
<path d="M192.531 240.749H116.406V247.092H192.531V240.749Z" fill="#F3322C"/>
<path d="M249.625 240.749H236.938V247.092H249.625V240.749Z" fill="#F3322C"/>
<path d="M205.219 247.092H122.75V253.436H205.219V247.092Z" fill="#F3322C"/>
<path d="M249.625 247.092H230.594V253.436H249.625V247.092Z" fill="#F3322C"/>
<path d="M160.812 253.436H129.094V259.78H160.812V253.436Z" fill="#F3322C"/>
<path d="M192.531 253.436H160.812V259.78H192.531V253.436Z" fill="black"/>
<path d="M249.625 253.436H192.531V259.78H249.625V253.436Z" fill="#F3322C"/>
<path d="M243.281 259.78H135.438V266.124H243.281V259.78Z" fill="#F3322C"/>
<path d="M236.938 266.124H141.781V272.467H236.938V266.124Z" fill="#F3322C"/>
<path d="M224.25 272.467H148.125V278.811H224.25V272.467Z" fill="#F3322C"/>
<path d="M211.562 278.811H167.156V285.155H211.562V278.811Z" fill="#F3322C"/>
<defs>
<filter id="filter0_d_18_15798" x="0" y="0.248535" width="348" height="462" filterUnits="userSpaceOnUse" color-interpolation-filters="sRGB">
<feFlood flood-opacity="0" result="BackgroundImageFix"/>
<feColorMatrix in="SourceAlpha" type="matrix" values="0 0 0 0 0 0 0 0 0 0 0 0 0 0 0 0 0 0 127 0" result="hardAlpha"/>
<feOffset dy="5"/>
<feGaussianBlur stdDeviation="17"/>
<feColorMatrix type="matrix" values="0 0 0 0 0 0 0 0 0 0 0 0 0 0 0 0 0 0 0.1 0"/>
<feBlend mode="normal" in2="BackgroundImageFix" result="effect1_dropShadow_18_15798"/>
<feBlend mode="normal" in="SourceGraphic" in2="effect1_dropShadow_18_15798" result="shape"/>
</filter>
</defs>
</svg>
