<svg width="348" height="463" viewBox="0 0 348 463" fill="none" xmlns="http://www.w3.org/2000/svg">
<g filter="url(#filter0_d_18_18497)">
<rect x="34" y="29.2485" width="280" height="394" rx="20" fill="#F2F2F2"/>
<rect x="34.5" y="29.7485" width="279" height="393" rx="19.5" stroke="#D2D2D2"/>
</g>
<path d="M93.375 323.747H76.8125V327.06H93.375V323.747Z" fill="#F3322C"/>
<path d="M123.188 323.747H106.625V327.06H123.188V323.747Z" fill="#F3322C"/>
<path d="M100 327.06H70.1875V330.372H100V327.06Z" fill="#F3322C"/>
<path d="M129.812 327.06H103.312V330.372H129.812V327.06Z" fill="#F3322C"/>
<path d="M86.75 330.372H66.875V333.685H86.75V330.372Z" fill="#F3322C"/>
<path d="M93.375 330.372H86.75V333.685H93.375V330.372Z" fill="white"/>
<path d="M113.25 330.372H93.375V333.685H113.25V330.372Z" fill="#F3322C"/>
<path d="M119.875 330.372H113.25V333.685H119.875V330.372Z" fill="white"/>
<path d="M133.125 330.372H119.875V333.685H133.125V330.372Z" fill="#F3322C"/>
<path d="M93.375 333.685H63.5625V336.997H93.375V333.685Z" fill="#F3322C"/>
<path d="M96.6875 333.685H93.375V336.997H96.6875V333.685Z" fill="white"/>
<path d="M113.25 333.685H96.6875V336.997H113.25V333.685Z" fill="#F3322C"/>
<path d="M119.875 333.685H113.25V336.997H119.875V333.685Z" fill="white"/>
<path d="M123.188 333.685H119.875V336.997H123.188V333.685Z" fill="#F3322C"/>
<path d="M126.5 333.685H123.188V336.997H126.5V333.685Z" fill="white"/>
<path d="M136.438 333.685H126.5V336.997H136.438V333.685Z" fill="#F3322C"/>
<path d="M126.5 336.997H63.5625V340.31H126.5V336.997Z" fill="#F3322C"/>
<path d="M129.812 336.997H126.5V340.31H129.812V336.997Z" fill="white"/>
<path d="M136.438 336.997H129.812V340.31H136.438V336.997Z" fill="#F3322C"/>
<path d="M126.5 340.31H60.25V343.622H126.5V340.31Z" fill="#F3322C"/>
<path d="M129.812 340.31H126.5V343.622H129.812V340.31Z" fill="white"/>
<path d="M139.75 340.31H129.812V343.622H139.75V340.31Z" fill="#F3322C"/>
<path d="M139.75 343.622H60.25V346.935H139.75V343.622Z" fill="#F3322C"/>
<path d="M139.75 346.935H60.25V350.247H139.75V346.935Z" fill="#F3322C"/>
<path d="M139.75 350.247H60.25V353.56H139.75V350.247Z" fill="#F3322C"/>
<path d="M136.438 353.56H63.5625V356.872H136.438V353.56Z" fill="#F3322C"/>
<path d="M136.438 356.872H63.5625V360.185H136.438V356.872Z" fill="#F3322C"/>
<path d="M133.125 360.185H66.875V363.497H133.125V360.185Z" fill="#F3322C"/>
<path d="M133.125 363.497H66.875V366.81H133.125V363.497Z" fill="#F3322C"/>
<path d="M129.813 366.81H70.1875V370.122H129.813V366.81Z" fill="#F3322C"/>
<path d="M96.6875 370.122H73.5V373.435H96.6875V370.122Z" fill="#F3322C"/>
<path d="M103.312 370.122H96.6875V373.435H103.312V370.122Z" fill="white"/>
<path d="M106.625 370.122H103.312V373.435H106.625V370.122Z" fill="black"/>
<path d="M126.5 370.122H106.625V373.435H126.5V370.122Z" fill="#F3322C"/>
<path d="M123.188 373.435H76.8125V376.747H123.188V373.435Z" fill="#F3322C"/>
<path d="M119.875 376.747H80.125V380.06H119.875V376.747Z" fill="#F3322C"/>
<path d="M116.562 380.06H83.4375V383.372H116.562V380.06Z" fill="#F3322C"/>
<path d="M109.938 383.372H90.0625V386.685H109.938V383.372Z" fill="#F3322C"/>
<path d="M103.312 386.685H96.6875V389.997H103.312V386.685Z" fill="#F3322C"/>
<path d="M241.375 59.7471H224.812V63.0596H241.375V59.7471Z" fill="#F3322C"/>
<path d="M271.188 59.7471H254.625V63.0596H271.188V59.7471Z" fill="#F3322C"/>
<path d="M248 63.0596H218.188V66.3721H248V63.0596Z" fill="#F3322C"/>
<path d="M277.812 63.0596H251.312V66.3721H277.812V63.0596Z" fill="#F3322C"/>
<path d="M234.75 66.3721H214.875V69.6846H234.75V66.3721Z" fill="#F3322C"/>
<path d="M241.375 66.3721H234.75V69.6846H241.375V66.3721Z" fill="white"/>
<path d="M261.25 66.3721H241.375V69.6846H261.25V66.3721Z" fill="#F3322C"/>
<path d="M267.875 66.3721H261.25V69.6846H267.875V66.3721Z" fill="white"/>
<path d="M281.125 66.3721H267.875V69.6846H281.125V66.3721Z" fill="#F3322C"/>
<path d="M241.375 69.6846H211.562V72.9971H241.375V69.6846Z" fill="#F3322C"/>
<path d="M244.688 69.6846H241.375V72.9971H244.688V69.6846Z" fill="white"/>
<path d="M261.25 69.6846H244.688V72.9971H261.25V69.6846Z" fill="#F3322C"/>
<path d="M267.875 69.6846H261.25V72.9971H267.875V69.6846Z" fill="white"/>
<path d="M271.188 69.6846H267.875V72.9971H271.188V69.6846Z" fill="#F3322C"/>
<path d="M274.5 69.6846H271.188V72.9971H274.5V69.6846Z" fill="white"/>
<path d="M284.438 69.6846H274.5V72.9971H284.438V69.6846Z" fill="#F3322C"/>
<path d="M274.5 72.9971H211.562V76.3096H274.5V72.9971Z" fill="#F3322C"/>
<path d="M277.812 72.9971H274.5V76.3096H277.812V72.9971Z" fill="white"/>
<path d="M284.438 72.9971H277.812V76.3096H284.438V72.9971Z" fill="#F3322C"/>
<path d="M274.5 76.3096H208.25V79.6221H274.5V76.3096Z" fill="#F3322C"/>
<path d="M277.812 76.3096H274.5V79.6221H277.812V76.3096Z" fill="white"/>
<path d="M287.75 76.3096H277.812V79.6221H287.75V76.3096Z" fill="#F3322C"/>
<path d="M287.75 79.6221H208.25V82.9346H287.75V79.6221Z" fill="#F3322C"/>
<path d="M287.75 82.9346H208.25V86.2471H287.75V82.9346Z" fill="#F3322C"/>
<path d="M287.75 86.2471H208.25V89.5596H287.75V86.2471Z" fill="#F3322C"/>
<path d="M284.438 89.5596H211.562V92.8721H284.438V89.5596Z" fill="#F3322C"/>
<path d="M284.438 92.8721H211.562V96.1846H284.438V92.8721Z" fill="#F3322C"/>
<path d="M281.125 96.1846H214.875V99.4971H281.125V96.1846Z" fill="#F3322C"/>
<path d="M281.125 99.4971H214.875V102.81H281.125V99.4971Z" fill="#F3322C"/>
<path d="M277.813 102.81H218.188V106.122H277.813V102.81Z" fill="#F3322C"/>
<path d="M244.688 106.122H221.5V109.435H244.688V106.122Z" fill="#F3322C"/>
<path d="M251.312 106.122H244.688V109.435H251.312V106.122Z" fill="white"/>
<path d="M254.625 106.122H251.312V109.435H254.625V106.122Z" fill="black"/>
<path d="M274.5 106.122H254.625V109.435H274.5V106.122Z" fill="#F3322C"/>
<path d="M271.188 109.435H224.812V112.747H271.188V109.435Z" fill="#F3322C"/>
<path d="M267.875 112.747H228.125V116.06H267.875V112.747Z" fill="#F3322C"/>
<path d="M264.562 116.06H231.438V119.372H264.562V116.06Z" fill="#F3322C"/>
<path d="M257.938 119.372H238.062V122.685H257.938V119.372Z" fill="#F3322C"/>
<path d="M251.312 122.685H244.688V125.997H251.312V122.685Z" fill="#F3322C"/>
<path d="M100.461 126.249V115.897H72.4141V106.053C73.9245 103.657 75.4349 101.249 76.9453 98.8267C78.4557 96.4048 79.9661 93.9959 81.4766 91.6001C82.987 89.1782 84.4844 86.7694 85.9688 84.3735C87.4792 81.9517 88.9896 79.5298 90.5 77.1079C92.0104 74.686 93.5208 72.2772 95.0312 69.8813H111.672V106.483H119.094V115.897H111.672V126.249H100.461ZM82.6875 106.795H100.695V78.397H100.422C99.224 80.272 98.0391 82.147 96.8672 84.022C95.6953 85.897 94.5104 87.772 93.3125 89.647C92.1406 91.4959 90.9557 93.3709 89.7578 95.272C88.5859 97.147 87.401 99.022 86.2031 100.897C85.0312 102.746 83.8594 104.608 82.6875 106.483V106.795Z" fill="#F3322C"/>
<path d="M257.461 385.497V375.146H229.414V365.302C230.924 362.906 232.435 360.497 233.945 358.075C235.456 355.653 236.966 353.244 238.477 350.849C239.987 348.427 241.484 346.018 242.969 343.622C244.479 341.2 245.99 338.778 247.5 336.356C249.01 333.935 250.521 331.526 252.031 329.13H268.672V365.731H276.094V375.146H268.672V385.497H257.461ZM239.688 366.044H257.695V337.646H257.422C256.224 339.521 255.039 341.396 253.867 343.271C252.695 345.146 251.51 347.021 250.312 348.896C249.141 350.744 247.956 352.619 246.758 354.521C245.586 356.396 244.401 358.271 243.203 360.146C242.031 361.994 240.859 363.856 239.688 365.731V366.044Z" fill="#F3322C"/>
<defs>
<filter id="filter0_d_18_18497" x="0" y="0.248535" width="348" height="462" filterUnits="userSpaceOnUse" color-interpolation-filters="sRGB">
<feFlood flood-opacity="0" result="BackgroundImageFix"/>
<feColorMatrix in="SourceAlpha" type="matrix" values="0 0 0 0 0 0 0 0 0 0 0 0 0 0 0 0 0 0 127 0" result="hardAlpha"/>
<feOffset dy="5"/>
<feGaussianBlur stdDeviation="17"/>
<feColorMatrix type="matrix" values="0 0 0 0 0 0 0 0 0 0 0 0 0 0 0 0 0 0 0.1 0"/>
<feBlend mode="normal" in2="BackgroundImageFix" result="effect1_dropShadow_18_18497"/>
<feBlend mode="normal" in="SourceGraphic" in2="effect1_dropShadow_18_18497" result="shape"/>
</filter>
</defs>
</svg>
