<svg width="348" height="463" viewBox="0 0 348 463" fill="none" xmlns="http://www.w3.org/2000/svg">
<g filter="url(#filter0_d_18_20099)">
<rect x="34" y="29.2485" width="280" height="394" rx="20" fill="#F2F2F2"/>
<rect x="34.5" y="29.7485" width="279" height="393" rx="19.5" stroke="#D2D2D2"/>
</g>
<path d="M93.375 323.747H76.8125V327.06H93.375V323.747Z" fill="#F3322C"/>
<path d="M123.188 323.747H106.625V327.06H123.188V323.747Z" fill="#F3322C"/>
<path d="M100 327.06H70.1875V330.372H100V327.06Z" fill="#F3322C"/>
<path d="M129.812 327.06H103.312V330.372H129.812V327.06Z" fill="#F3322C"/>
<path d="M86.75 330.372H66.875V333.685H86.75V330.372Z" fill="#F3322C"/>
<path d="M93.375 330.372H86.75V333.685H93.375V330.372Z" fill="white"/>
<path d="M113.25 330.372H93.375V333.685H113.25V330.372Z" fill="#F3322C"/>
<path d="M119.875 330.372H113.25V333.685H119.875V330.372Z" fill="white"/>
<path d="M133.125 330.372H119.875V333.685H133.125V330.372Z" fill="#F3322C"/>
<path d="M93.375 333.685H63.5625V336.997H93.375V333.685Z" fill="#F3322C"/>
<path d="M96.6875 333.685H93.375V336.997H96.6875V333.685Z" fill="white"/>
<path d="M113.25 333.685H96.6875V336.997H113.25V333.685Z" fill="#F3322C"/>
<path d="M119.875 333.685H113.25V336.997H119.875V333.685Z" fill="white"/>
<path d="M123.188 333.685H119.875V336.997H123.188V333.685Z" fill="#F3322C"/>
<path d="M126.5 333.685H123.188V336.997H126.5V333.685Z" fill="white"/>
<path d="M136.438 333.685H126.5V336.997H136.438V333.685Z" fill="#F3322C"/>
<path d="M126.5 336.997H63.5625V340.31H126.5V336.997Z" fill="#F3322C"/>
<path d="M129.812 336.997H126.5V340.31H129.812V336.997Z" fill="white"/>
<path d="M136.438 336.997H129.812V340.31H136.438V336.997Z" fill="#F3322C"/>
<path d="M126.5 340.31H60.25V343.622H126.5V340.31Z" fill="#F3322C"/>
<path d="M129.812 340.31H126.5V343.622H129.812V340.31Z" fill="white"/>
<path d="M139.75 340.31H129.812V343.622H139.75V340.31Z" fill="#F3322C"/>
<path d="M139.75 343.622H60.25V346.935H139.75V343.622Z" fill="#F3322C"/>
<path d="M139.75 346.935H60.25V350.247H139.75V346.935Z" fill="#F3322C"/>
<path d="M139.75 350.247H60.25V353.56H139.75V350.247Z" fill="#F3322C"/>
<path d="M136.438 353.56H63.5625V356.872H136.438V353.56Z" fill="#F3322C"/>
<path d="M136.438 356.872H63.5625V360.185H136.438V356.872Z" fill="#F3322C"/>
<path d="M133.125 360.185H66.875V363.497H133.125V360.185Z" fill="#F3322C"/>
<path d="M133.125 363.497H66.875V366.81H133.125V363.497Z" fill="#F3322C"/>
<path d="M129.813 366.81H70.1875V370.122H129.813V366.81Z" fill="#F3322C"/>
<path d="M96.6875 370.122H73.5V373.435H96.6875V370.122Z" fill="#F3322C"/>
<path d="M103.312 370.122H96.6875V373.435H103.312V370.122Z" fill="white"/>
<path d="M106.625 370.122H103.312V373.435H106.625V370.122Z" fill="black"/>
<path d="M126.5 370.122H106.625V373.435H126.5V370.122Z" fill="#F3322C"/>
<path d="M123.188 373.435H76.8125V376.747H123.188V373.435Z" fill="#F3322C"/>
<path d="M119.875 376.747H80.125V380.06H119.875V376.747Z" fill="#F3322C"/>
<path d="M116.562 380.06H83.4375V383.372H116.562V380.06Z" fill="#F3322C"/>
<path d="M109.938 383.372H90.0625V386.685H109.938V383.372Z" fill="#F3322C"/>
<path d="M103.312 386.685H96.6875V389.997H103.312V386.685Z" fill="#F3322C"/>
<path d="M241.375 59.7471H224.812V63.0596H241.375V59.7471Z" fill="#F3322C"/>
<path d="M271.188 59.7471H254.625V63.0596H271.188V59.7471Z" fill="#F3322C"/>
<path d="M248 63.0596H218.188V66.3721H248V63.0596Z" fill="#F3322C"/>
<path d="M277.812 63.0596H251.312V66.3721H277.812V63.0596Z" fill="#F3322C"/>
<path d="M234.75 66.3721H214.875V69.6846H234.75V66.3721Z" fill="#F3322C"/>
<path d="M241.375 66.3721H234.75V69.6846H241.375V66.3721Z" fill="white"/>
<path d="M261.25 66.3721H241.375V69.6846H261.25V66.3721Z" fill="#F3322C"/>
<path d="M267.875 66.3721H261.25V69.6846H267.875V66.3721Z" fill="white"/>
<path d="M281.125 66.3721H267.875V69.6846H281.125V66.3721Z" fill="#F3322C"/>
<path d="M241.375 69.6846H211.562V72.9971H241.375V69.6846Z" fill="#F3322C"/>
<path d="M244.688 69.6846H241.375V72.9971H244.688V69.6846Z" fill="white"/>
<path d="M261.25 69.6846H244.688V72.9971H261.25V69.6846Z" fill="#F3322C"/>
<path d="M267.875 69.6846H261.25V72.9971H267.875V69.6846Z" fill="white"/>
<path d="M271.188 69.6846H267.875V72.9971H271.188V69.6846Z" fill="#F3322C"/>
<path d="M274.5 69.6846H271.188V72.9971H274.5V69.6846Z" fill="white"/>
<path d="M284.438 69.6846H274.5V72.9971H284.438V69.6846Z" fill="#F3322C"/>
<path d="M274.5 72.9971H211.562V76.3096H274.5V72.9971Z" fill="#F3322C"/>
<path d="M277.812 72.9971H274.5V76.3096H277.812V72.9971Z" fill="white"/>
<path d="M284.438 72.9971H277.812V76.3096H284.438V72.9971Z" fill="#F3322C"/>
<path d="M274.5 76.3096H208.25V79.6221H274.5V76.3096Z" fill="#F3322C"/>
<path d="M277.812 76.3096H274.5V79.6221H277.812V76.3096Z" fill="white"/>
<path d="M287.75 76.3096H277.812V79.6221H287.75V76.3096Z" fill="#F3322C"/>
<path d="M287.75 79.6221H208.25V82.9346H287.75V79.6221Z" fill="#F3322C"/>
<path d="M287.75 82.9346H208.25V86.2471H287.75V82.9346Z" fill="#F3322C"/>
<path d="M287.75 86.2471H208.25V89.5596H287.75V86.2471Z" fill="#F3322C"/>
<path d="M284.438 89.5596H211.562V92.8721H284.438V89.5596Z" fill="#F3322C"/>
<path d="M284.438 92.8721H211.562V96.1846H284.438V92.8721Z" fill="#F3322C"/>
<path d="M281.125 96.1846H214.875V99.4971H281.125V96.1846Z" fill="#F3322C"/>
<path d="M281.125 99.4971H214.875V102.81H281.125V99.4971Z" fill="#F3322C"/>
<path d="M277.813 102.81H218.188V106.122H277.813V102.81Z" fill="#F3322C"/>
<path d="M244.688 106.122H221.5V109.435H244.688V106.122Z" fill="#F3322C"/>
<path d="M251.312 106.122H244.688V109.435H251.312V106.122Z" fill="white"/>
<path d="M254.625 106.122H251.312V109.435H254.625V106.122Z" fill="black"/>
<path d="M274.5 106.122H254.625V109.435H274.5V106.122Z" fill="#F3322C"/>
<path d="M271.188 109.435H224.812V112.747H271.188V109.435Z" fill="#F3322C"/>
<path d="M267.875 112.747H228.125V116.06H267.875V112.747Z" fill="#F3322C"/>
<path d="M264.562 116.06H231.438V119.372H264.562V116.06Z" fill="#F3322C"/>
<path d="M257.938 119.372H238.062V122.685H257.938V119.372Z" fill="#F3322C"/>
<path d="M251.312 122.685H244.688V125.997H251.312V122.685Z" fill="#F3322C"/>
<path d="M95.5 127.225C91.0208 127.225 87.0755 126.535 83.6641 125.155C80.2526 123.775 77.5833 121.861 75.6562 119.413C73.7292 116.939 72.7656 114.087 72.7656 110.858V110.78C72.7656 108.332 73.3255 106.131 74.4453 104.178C75.5651 102.225 77.1016 100.597 79.0547 99.2954C81.0078 97.9933 83.2474 97.0949 85.7734 96.6001V96.3657C82.5182 95.5584 79.875 94.061 77.8438 91.8735C75.8385 89.66 74.8359 87.0428 74.8359 84.022V83.9438C74.8359 81.0272 75.7083 78.4491 77.4531 76.2095C79.1979 73.9438 81.6198 72.16 84.7188 70.8579C87.8438 69.5558 91.4375 68.9048 95.5 68.9048C99.5625 68.9048 103.143 69.5558 106.242 70.8579C109.341 72.16 111.763 73.9438 113.508 76.2095C115.279 78.4491 116.164 81.0272 116.164 83.9438V84.022C116.164 87.0428 115.148 89.66 113.117 91.8735C111.112 94.061 108.482 95.5584 105.227 96.3657V96.6001C107.753 97.0949 109.992 97.9933 111.945 99.2954C113.898 100.597 115.422 102.225 116.516 104.178C117.635 106.131 118.195 108.332 118.195 110.78V110.858C118.195 114.087 117.232 116.939 115.305 119.413C113.404 121.861 110.747 123.775 107.336 125.155C103.924 126.535 99.9792 127.225 95.5 127.225ZM95.5 118.631C97.5573 118.631 99.3672 118.267 100.93 117.538C102.492 116.808 103.716 115.793 104.602 114.491C105.513 113.189 105.969 111.717 105.969 110.077V109.999C105.969 108.332 105.526 106.847 104.641 105.545C103.755 104.243 102.518 103.228 100.93 102.499C99.3672 101.743 97.5573 101.366 95.5 101.366C93.4167 101.366 91.5807 101.743 89.9922 102.499C88.4297 103.228 87.2057 104.243 86.3203 105.545C85.4349 106.847 84.9922 108.332 84.9922 109.999V110.077C84.9922 111.717 85.4349 113.189 86.3203 114.491C87.2318 115.793 88.4688 116.808 90.0312 117.538C91.6198 118.267 93.4427 118.631 95.5 118.631ZM95.5 92.811C97.2708 92.811 98.8333 92.4855 100.188 91.8345C101.542 91.1834 102.596 90.285 103.352 89.1392C104.107 87.9673 104.484 86.6261 104.484 85.1157V85.0376C104.484 83.5272 104.094 82.1991 103.312 81.0532C102.557 79.9074 101.503 79.022 100.148 78.397C98.7943 77.7459 97.2448 77.4204 95.5 77.4204C93.7292 77.4204 92.1667 77.7459 90.8125 78.397C89.4583 79.022 88.3906 79.9074 87.6094 81.0532C86.8542 82.1991 86.4766 83.5272 86.4766 85.0376V85.1157C86.4766 86.6261 86.8542 87.9673 87.6094 89.1392C88.3906 90.285 89.4583 91.1834 90.8125 91.8345C92.1667 92.4855 93.7292 92.811 95.5 92.811Z" fill="#F3322C"/>
<path d="M252.5 386.474C248.021 386.474 244.076 385.784 240.664 384.403C237.253 383.023 234.583 381.109 232.656 378.661C230.729 376.187 229.766 373.336 229.766 370.106V370.028C229.766 367.58 230.326 365.38 231.445 363.427C232.565 361.474 234.102 359.846 236.055 358.544C238.008 357.242 240.247 356.343 242.773 355.849V355.614C239.518 354.807 236.875 353.31 234.844 351.122C232.839 348.909 231.836 346.291 231.836 343.271V343.192C231.836 340.276 232.708 337.698 234.453 335.458C236.198 333.192 238.62 331.409 241.719 330.106C244.844 328.804 248.438 328.153 252.5 328.153C256.562 328.153 260.143 328.804 263.242 330.106C266.341 331.409 268.763 333.192 270.508 335.458C272.279 337.698 273.164 340.276 273.164 343.192V343.271C273.164 346.291 272.148 348.909 270.117 351.122C268.112 353.31 265.482 354.807 262.227 355.614V355.849C264.753 356.343 266.992 357.242 268.945 358.544C270.898 359.846 272.422 361.474 273.516 363.427C274.635 365.38 275.195 367.58 275.195 370.028V370.106C275.195 373.336 274.232 376.187 272.305 378.661C270.404 381.109 267.747 383.023 264.336 384.403C260.924 385.784 256.979 386.474 252.5 386.474ZM252.5 377.88C254.557 377.88 256.367 377.515 257.93 376.786C259.492 376.057 260.716 375.041 261.602 373.739C262.513 372.437 262.969 370.966 262.969 369.325V369.247C262.969 367.58 262.526 366.096 261.641 364.794C260.755 363.492 259.518 362.476 257.93 361.747C256.367 360.992 254.557 360.614 252.5 360.614C250.417 360.614 248.581 360.992 246.992 361.747C245.43 362.476 244.206 363.492 243.32 364.794C242.435 366.096 241.992 367.58 241.992 369.247V369.325C241.992 370.966 242.435 372.437 243.32 373.739C244.232 375.041 245.469 376.057 247.031 376.786C248.62 377.515 250.443 377.88 252.5 377.88ZM252.5 352.06C254.271 352.06 255.833 351.734 257.188 351.083C258.542 350.432 259.596 349.534 260.352 348.388C261.107 347.216 261.484 345.875 261.484 344.364V344.286C261.484 342.776 261.094 341.448 260.312 340.302C259.557 339.156 258.503 338.271 257.148 337.646C255.794 336.994 254.245 336.669 252.5 336.669C250.729 336.669 249.167 336.994 247.812 337.646C246.458 338.271 245.391 339.156 244.609 340.302C243.854 341.448 243.477 342.776 243.477 344.286V344.364C243.477 345.875 243.854 347.216 244.609 348.388C245.391 349.534 246.458 350.432 247.812 351.083C249.167 351.734 250.729 352.06 252.5 352.06Z" fill="#F3322C"/>
<defs>
<filter id="filter0_d_18_20099" x="0" y="0.248535" width="348" height="462" filterUnits="userSpaceOnUse" color-interpolation-filters="sRGB">
<feFlood flood-opacity="0" result="BackgroundImageFix"/>
<feColorMatrix in="SourceAlpha" type="matrix" values="0 0 0 0 0 0 0 0 0 0 0 0 0 0 0 0 0 0 127 0" result="hardAlpha"/>
<feOffset dy="5"/>
<feGaussianBlur stdDeviation="17"/>
<feColorMatrix type="matrix" values="0 0 0 0 0 0 0 0 0 0 0 0 0 0 0 0 0 0 0.1 0"/>
<feBlend mode="normal" in2="BackgroundImageFix" result="effect1_dropShadow_18_20099"/>
<feBlend mode="normal" in="SourceGraphic" in2="effect1_dropShadow_18_20099" result="shape"/>
</filter>
</defs>
</svg>
