<svg width="348" height="463" viewBox="0 0 348 463" fill="none" xmlns="http://www.w3.org/2000/svg">
<g filter="url(#filter0_d_18_20633)">
<rect x="34" y="29.2485" width="280" height="394" rx="20" fill="#F2F2F2"/>
<rect x="34.5" y="29.7485" width="279" height="393" rx="19.5" stroke="#D2D2D2"/>
</g>
<path d="M93.375 323.747H76.8125V327.06H93.375V323.747Z" fill="#F3322C"/>
<path d="M123.188 323.747H106.625V327.06H123.188V323.747Z" fill="#F3322C"/>
<path d="M100 327.06H70.1875V330.372H100V327.06Z" fill="#F3322C"/>
<path d="M129.812 327.06H103.312V330.372H129.812V327.06Z" fill="#F3322C"/>
<path d="M86.75 330.372H66.875V333.685H86.75V330.372Z" fill="#F3322C"/>
<path d="M93.375 330.372H86.75V333.685H93.375V330.372Z" fill="white"/>
<path d="M113.25 330.372H93.375V333.685H113.25V330.372Z" fill="#F3322C"/>
<path d="M119.875 330.372H113.25V333.685H119.875V330.372Z" fill="white"/>
<path d="M133.125 330.372H119.875V333.685H133.125V330.372Z" fill="#F3322C"/>
<path d="M93.375 333.685H63.5625V336.997H93.375V333.685Z" fill="#F3322C"/>
<path d="M96.6875 333.685H93.375V336.997H96.6875V333.685Z" fill="white"/>
<path d="M113.25 333.685H96.6875V336.997H113.25V333.685Z" fill="#F3322C"/>
<path d="M119.875 333.685H113.25V336.997H119.875V333.685Z" fill="white"/>
<path d="M123.188 333.685H119.875V336.997H123.188V333.685Z" fill="#F3322C"/>
<path d="M126.5 333.685H123.188V336.997H126.5V333.685Z" fill="white"/>
<path d="M136.438 333.685H126.5V336.997H136.438V333.685Z" fill="#F3322C"/>
<path d="M126.5 336.997H63.5625V340.31H126.5V336.997Z" fill="#F3322C"/>
<path d="M129.812 336.997H126.5V340.31H129.812V336.997Z" fill="white"/>
<path d="M136.438 336.997H129.812V340.31H136.438V336.997Z" fill="#F3322C"/>
<path d="M126.5 340.31H60.25V343.622H126.5V340.31Z" fill="#F3322C"/>
<path d="M129.812 340.31H126.5V343.622H129.812V340.31Z" fill="white"/>
<path d="M139.75 340.31H129.812V343.622H139.75V340.31Z" fill="#F3322C"/>
<path d="M139.75 343.622H60.25V346.935H139.75V343.622Z" fill="#F3322C"/>
<path d="M139.75 346.935H60.25V350.247H139.75V346.935Z" fill="#F3322C"/>
<path d="M139.75 350.247H60.25V353.56H139.75V350.247Z" fill="#F3322C"/>
<path d="M136.438 353.56H63.5625V356.872H136.438V353.56Z" fill="#F3322C"/>
<path d="M136.438 356.872H63.5625V360.185H136.438V356.872Z" fill="#F3322C"/>
<path d="M133.125 360.185H66.875V363.497H133.125V360.185Z" fill="#F3322C"/>
<path d="M133.125 363.497H66.875V366.81H133.125V363.497Z" fill="#F3322C"/>
<path d="M129.813 366.81H70.1875V370.122H129.813V366.81Z" fill="#F3322C"/>
<path d="M96.6875 370.122H73.5V373.435H96.6875V370.122Z" fill="#F3322C"/>
<path d="M103.312 370.122H96.6875V373.435H103.312V370.122Z" fill="white"/>
<path d="M106.625 370.122H103.312V373.435H106.625V370.122Z" fill="black"/>
<path d="M126.5 370.122H106.625V373.435H126.5V370.122Z" fill="#F3322C"/>
<path d="M123.188 373.435H76.8125V376.747H123.188V373.435Z" fill="#F3322C"/>
<path d="M119.875 376.747H80.125V380.06H119.875V376.747Z" fill="#F3322C"/>
<path d="M116.562 380.06H83.4375V383.372H116.562V380.06Z" fill="#F3322C"/>
<path d="M109.938 383.372H90.0625V386.685H109.938V383.372Z" fill="#F3322C"/>
<path d="M103.312 386.685H96.6875V389.997H103.312V386.685Z" fill="#F3322C"/>
<path d="M241.375 59.7471H224.812V63.0596H241.375V59.7471Z" fill="#F3322C"/>
<path d="M271.188 59.7471H254.625V63.0596H271.188V59.7471Z" fill="#F3322C"/>
<path d="M248 63.0596H218.188V66.3721H248V63.0596Z" fill="#F3322C"/>
<path d="M277.812 63.0596H251.312V66.3721H277.812V63.0596Z" fill="#F3322C"/>
<path d="M234.75 66.3721H214.875V69.6846H234.75V66.3721Z" fill="#F3322C"/>
<path d="M241.375 66.3721H234.75V69.6846H241.375V66.3721Z" fill="white"/>
<path d="M261.25 66.3721H241.375V69.6846H261.25V66.3721Z" fill="#F3322C"/>
<path d="M267.875 66.3721H261.25V69.6846H267.875V66.3721Z" fill="white"/>
<path d="M281.125 66.3721H267.875V69.6846H281.125V66.3721Z" fill="#F3322C"/>
<path d="M241.375 69.6846H211.562V72.9971H241.375V69.6846Z" fill="#F3322C"/>
<path d="M244.688 69.6846H241.375V72.9971H244.688V69.6846Z" fill="white"/>
<path d="M261.25 69.6846H244.688V72.9971H261.25V69.6846Z" fill="#F3322C"/>
<path d="M267.875 69.6846H261.25V72.9971H267.875V69.6846Z" fill="white"/>
<path d="M271.188 69.6846H267.875V72.9971H271.188V69.6846Z" fill="#F3322C"/>
<path d="M274.5 69.6846H271.188V72.9971H274.5V69.6846Z" fill="white"/>
<path d="M284.438 69.6846H274.5V72.9971H284.438V69.6846Z" fill="#F3322C"/>
<path d="M274.5 72.9971H211.562V76.3096H274.5V72.9971Z" fill="#F3322C"/>
<path d="M277.812 72.9971H274.5V76.3096H277.812V72.9971Z" fill="white"/>
<path d="M284.438 72.9971H277.812V76.3096H284.438V72.9971Z" fill="#F3322C"/>
<path d="M274.5 76.3096H208.25V79.6221H274.5V76.3096Z" fill="#F3322C"/>
<path d="M277.812 76.3096H274.5V79.6221H277.812V76.3096Z" fill="white"/>
<path d="M287.75 76.3096H277.812V79.6221H287.75V76.3096Z" fill="#F3322C"/>
<path d="M287.75 79.6221H208.25V82.9346H287.75V79.6221Z" fill="#F3322C"/>
<path d="M287.75 82.9346H208.25V86.2471H287.75V82.9346Z" fill="#F3322C"/>
<path d="M287.75 86.2471H208.25V89.5596H287.75V86.2471Z" fill="#F3322C"/>
<path d="M284.438 89.5596H211.562V92.8721H284.438V89.5596Z" fill="#F3322C"/>
<path d="M284.438 92.8721H211.562V96.1846H284.438V92.8721Z" fill="#F3322C"/>
<path d="M281.125 96.1846H214.875V99.4971H281.125V96.1846Z" fill="#F3322C"/>
<path d="M281.125 99.4971H214.875V102.81H281.125V99.4971Z" fill="#F3322C"/>
<path d="M277.813 102.81H218.188V106.122H277.813V102.81Z" fill="#F3322C"/>
<path d="M244.688 106.122H221.5V109.435H244.688V106.122Z" fill="#F3322C"/>
<path d="M251.312 106.122H244.688V109.435H251.312V106.122Z" fill="white"/>
<path d="M254.625 106.122H251.312V109.435H254.625V106.122Z" fill="black"/>
<path d="M274.5 106.122H254.625V109.435H274.5V106.122Z" fill="#F3322C"/>
<path d="M271.188 109.435H224.812V112.747H271.188V109.435Z" fill="#F3322C"/>
<path d="M267.875 112.747H228.125V116.06H267.875V112.747Z" fill="#F3322C"/>
<path d="M264.562 116.06H231.438V119.372H264.562V116.06Z" fill="#F3322C"/>
<path d="M257.938 119.372H238.062V122.685H257.938V119.372Z" fill="#F3322C"/>
<path d="M251.312 122.685H244.688V125.997H251.312V122.685Z" fill="#F3322C"/>
<path d="M94.875 68.9048C98.2865 68.9048 101.411 69.5037 104.25 70.7017C107.115 71.8735 109.602 73.6574 111.711 76.0532C113.846 78.4491 115.487 81.4438 116.633 85.0376C117.805 88.6053 118.391 92.772 118.391 97.5376V97.6157C118.391 103.788 117.44 109.087 115.539 113.514C113.638 117.915 110.93 121.301 107.414 123.67C103.898 126.04 99.6797 127.225 94.7578 127.225C91.138 127.225 87.8568 126.574 84.9141 125.272C81.9974 123.97 79.5885 122.199 77.6875 119.959C75.7865 117.694 74.5495 115.103 73.9766 112.186L73.8984 111.834H85.5391L85.6562 112.147C86.125 113.267 86.776 114.256 87.6094 115.116C88.4688 115.975 89.4974 116.652 90.6953 117.147C91.8932 117.616 93.2604 117.85 94.7969 117.85C97.5573 117.85 99.8099 117.056 101.555 115.467C103.299 113.879 104.615 111.743 105.5 109.061C106.411 106.353 106.932 103.345 107.062 100.038C107.089 99.647 107.102 99.2694 107.102 98.9048C107.128 98.5142 107.141 98.1235 107.141 97.7329L105.344 88.3579C105.344 86.4569 104.888 84.7511 103.977 83.2407C103.065 81.7043 101.828 80.4933 100.266 79.6079C98.7031 78.7225 96.9583 78.2798 95.0312 78.2798C93.1042 78.2798 91.3594 78.7225 89.7969 79.6079C88.2344 80.4673 86.9844 81.6522 86.0469 83.1626C85.1094 84.647 84.6406 86.3267 84.6406 88.2017V88.2798C84.6406 90.2329 85.0833 91.9647 85.9688 93.4751C86.8802 94.9595 88.1042 96.1313 89.6406 96.9907C91.2031 97.8241 92.9609 98.2407 94.9141 98.2407C96.8932 98.2407 98.6641 97.8241 100.227 96.9907C101.815 96.1574 103.065 94.9985 103.977 93.5142C104.888 92.0298 105.344 90.3241 105.344 88.397V88.3579H107.727V97.8892H106.906C106.151 99.634 105.057 101.196 103.625 102.577C102.193 103.931 100.448 104.999 98.3906 105.78C96.3594 106.561 94.0677 106.952 91.5156 106.952C87.8958 106.952 84.7057 106.17 81.9453 104.608C79.1849 103.019 77.0234 100.845 75.4609 98.0845C73.9245 95.3241 73.1562 92.186 73.1562 88.6704V88.5923C73.1562 84.7642 74.0938 81.3657 75.9688 78.397C77.8438 75.4282 80.4089 73.1105 83.6641 71.4438C86.9453 69.7511 90.6823 68.9048 94.875 68.9048Z" fill="#F3322C"/>
<path d="M251.875 328.153C255.286 328.153 258.411 328.752 261.25 329.95C264.115 331.122 266.602 332.906 268.711 335.302C270.846 337.698 272.487 340.692 273.633 344.286C274.805 347.854 275.391 352.021 275.391 356.786V356.864C275.391 363.036 274.44 368.336 272.539 372.763C270.638 377.164 267.93 380.549 264.414 382.919C260.898 385.289 256.68 386.474 251.758 386.474C248.138 386.474 244.857 385.823 241.914 384.521C238.997 383.218 236.589 381.448 234.688 379.208C232.786 376.942 231.549 374.351 230.977 371.435L230.898 371.083H242.539L242.656 371.396C243.125 372.515 243.776 373.505 244.609 374.364C245.469 375.224 246.497 375.901 247.695 376.396C248.893 376.864 250.26 377.099 251.797 377.099C254.557 377.099 256.81 376.304 258.555 374.716C260.299 373.127 261.615 370.992 262.5 368.31C263.411 365.601 263.932 362.593 264.062 359.286C264.089 358.896 264.102 358.518 264.102 358.153C264.128 357.763 264.141 357.372 264.141 356.981L262.344 347.606C262.344 345.705 261.888 344 260.977 342.489C260.065 340.953 258.828 339.742 257.266 338.856C255.703 337.971 253.958 337.528 252.031 337.528C250.104 337.528 248.359 337.971 246.797 338.856C245.234 339.716 243.984 340.901 243.047 342.411C242.109 343.896 241.641 345.575 241.641 347.45V347.528C241.641 349.481 242.083 351.213 242.969 352.724C243.88 354.208 245.104 355.38 246.641 356.239C248.203 357.073 249.961 357.489 251.914 357.489C253.893 357.489 255.664 357.073 257.227 356.239C258.815 355.406 260.065 354.247 260.977 352.763C261.888 351.278 262.344 349.573 262.344 347.646V347.606H264.727V357.138H263.906C263.151 358.882 262.057 360.445 260.625 361.825C259.193 363.179 257.448 364.247 255.391 365.028C253.359 365.81 251.068 366.2 248.516 366.2C244.896 366.2 241.706 365.419 238.945 363.856C236.185 362.268 234.023 360.093 232.461 357.333C230.924 354.573 230.156 351.435 230.156 347.919V347.841C230.156 344.013 231.094 340.614 232.969 337.646C234.844 334.677 237.409 332.359 240.664 330.692C243.945 329 247.682 328.153 251.875 328.153Z" fill="#F3322C"/>
<defs>
<filter id="filter0_d_18_20633" x="0" y="0.248535" width="348" height="462" filterUnits="userSpaceOnUse" color-interpolation-filters="sRGB">
<feFlood flood-opacity="0" result="BackgroundImageFix"/>
<feColorMatrix in="SourceAlpha" type="matrix" values="0 0 0 0 0 0 0 0 0 0 0 0 0 0 0 0 0 0 127 0" result="hardAlpha"/>
<feOffset dy="5"/>
<feGaussianBlur stdDeviation="17"/>
<feColorMatrix type="matrix" values="0 0 0 0 0 0 0 0 0 0 0 0 0 0 0 0 0 0 0.1 0"/>
<feBlend mode="normal" in2="BackgroundImageFix" result="effect1_dropShadow_18_20633"/>
<feBlend mode="normal" in="SourceGraphic" in2="effect1_dropShadow_18_20633" result="shape"/>
</filter>
</defs>
</svg>
