<svg width="348" height="463" viewBox="0 0 348 463" fill="none" xmlns="http://www.w3.org/2000/svg">
<g filter="url(#filter0_d_18_21167)">
<rect x="34" y="29.2485" width="280" height="394" rx="20" fill="#F2F2F2"/>
<rect x="34.5" y="29.7485" width="279" height="393" rx="19.5" stroke="#D2D2D2"/>
</g>
<path d="M93.375 323.747H76.8125V327.06H93.375V323.747Z" fill="#F3322C"/>
<path d="M123.188 323.747H106.625V327.06H123.188V323.747Z" fill="#F3322C"/>
<path d="M100 327.06H70.1875V330.372H100V327.06Z" fill="#F3322C"/>
<path d="M129.812 327.06H103.312V330.372H129.812V327.06Z" fill="#F3322C"/>
<path d="M86.75 330.372H66.875V333.685H86.75V330.372Z" fill="#F3322C"/>
<path d="M93.375 330.372H86.75V333.685H93.375V330.372Z" fill="white"/>
<path d="M113.25 330.372H93.375V333.685H113.25V330.372Z" fill="#F3322C"/>
<path d="M119.875 330.372H113.25V333.685H119.875V330.372Z" fill="white"/>
<path d="M133.125 330.372H119.875V333.685H133.125V330.372Z" fill="#F3322C"/>
<path d="M93.375 333.685H63.5625V336.997H93.375V333.685Z" fill="#F3322C"/>
<path d="M96.6875 333.685H93.375V336.997H96.6875V333.685Z" fill="white"/>
<path d="M113.25 333.685H96.6875V336.997H113.25V333.685Z" fill="#F3322C"/>
<path d="M119.875 333.685H113.25V336.997H119.875V333.685Z" fill="white"/>
<path d="M123.188 333.685H119.875V336.997H123.188V333.685Z" fill="#F3322C"/>
<path d="M126.5 333.685H123.188V336.997H126.5V333.685Z" fill="white"/>
<path d="M136.438 333.685H126.5V336.997H136.438V333.685Z" fill="#F3322C"/>
<path d="M126.5 336.997H63.5625V340.31H126.5V336.997Z" fill="#F3322C"/>
<path d="M129.812 336.997H126.5V340.31H129.812V336.997Z" fill="white"/>
<path d="M136.438 336.997H129.812V340.31H136.438V336.997Z" fill="#F3322C"/>
<path d="M126.5 340.31H60.25V343.622H126.5V340.31Z" fill="#F3322C"/>
<path d="M129.812 340.31H126.5V343.622H129.812V340.31Z" fill="white"/>
<path d="M139.75 340.31H129.812V343.622H139.75V340.31Z" fill="#F3322C"/>
<path d="M139.75 343.622H60.25V346.935H139.75V343.622Z" fill="#F3322C"/>
<path d="M139.75 346.935H60.25V350.247H139.75V346.935Z" fill="#F3322C"/>
<path d="M139.75 350.247H60.25V353.56H139.75V350.247Z" fill="#F3322C"/>
<path d="M136.438 353.56H63.5625V356.872H136.438V353.56Z" fill="#F3322C"/>
<path d="M136.438 356.872H63.5625V360.185H136.438V356.872Z" fill="#F3322C"/>
<path d="M133.125 360.185H66.875V363.497H133.125V360.185Z" fill="#F3322C"/>
<path d="M133.125 363.497H66.875V366.81H133.125V363.497Z" fill="#F3322C"/>
<path d="M129.813 366.81H70.1875V370.122H129.813V366.81Z" fill="#F3322C"/>
<path d="M96.6875 370.122H73.5V373.435H96.6875V370.122Z" fill="#F3322C"/>
<path d="M103.312 370.122H96.6875V373.435H103.312V370.122Z" fill="white"/>
<path d="M106.625 370.122H103.312V373.435H106.625V370.122Z" fill="black"/>
<path d="M126.5 370.122H106.625V373.435H126.5V370.122Z" fill="#F3322C"/>
<path d="M123.188 373.435H76.8125V376.747H123.188V373.435Z" fill="#F3322C"/>
<path d="M119.875 376.747H80.125V380.06H119.875V376.747Z" fill="#F3322C"/>
<path d="M116.562 380.06H83.4375V383.372H116.562V380.06Z" fill="#F3322C"/>
<path d="M109.938 383.372H90.0625V386.685H109.938V383.372Z" fill="#F3322C"/>
<path d="M103.312 386.685H96.6875V389.997H103.312V386.685Z" fill="#F3322C"/>
<path d="M241.375 59.7471H224.812V63.0596H241.375V59.7471Z" fill="#F3322C"/>
<path d="M271.188 59.7471H254.625V63.0596H271.188V59.7471Z" fill="#F3322C"/>
<path d="M248 63.0596H218.188V66.3721H248V63.0596Z" fill="#F3322C"/>
<path d="M277.812 63.0596H251.312V66.3721H277.812V63.0596Z" fill="#F3322C"/>
<path d="M234.75 66.3721H214.875V69.6846H234.75V66.3721Z" fill="#F3322C"/>
<path d="M241.375 66.3721H234.75V69.6846H241.375V66.3721Z" fill="white"/>
<path d="M261.25 66.3721H241.375V69.6846H261.25V66.3721Z" fill="#F3322C"/>
<path d="M267.875 66.3721H261.25V69.6846H267.875V66.3721Z" fill="white"/>
<path d="M281.125 66.3721H267.875V69.6846H281.125V66.3721Z" fill="#F3322C"/>
<path d="M241.375 69.6846H211.562V72.9971H241.375V69.6846Z" fill="#F3322C"/>
<path d="M244.688 69.6846H241.375V72.9971H244.688V69.6846Z" fill="white"/>
<path d="M261.25 69.6846H244.688V72.9971H261.25V69.6846Z" fill="#F3322C"/>
<path d="M267.875 69.6846H261.25V72.9971H267.875V69.6846Z" fill="white"/>
<path d="M271.188 69.6846H267.875V72.9971H271.188V69.6846Z" fill="#F3322C"/>
<path d="M274.5 69.6846H271.188V72.9971H274.5V69.6846Z" fill="white"/>
<path d="M284.438 69.6846H274.5V72.9971H284.438V69.6846Z" fill="#F3322C"/>
<path d="M274.5 72.9971H211.562V76.3096H274.5V72.9971Z" fill="#F3322C"/>
<path d="M277.812 72.9971H274.5V76.3096H277.812V72.9971Z" fill="white"/>
<path d="M284.438 72.9971H277.812V76.3096H284.438V72.9971Z" fill="#F3322C"/>
<path d="M274.5 76.3096H208.25V79.6221H274.5V76.3096Z" fill="#F3322C"/>
<path d="M277.812 76.3096H274.5V79.6221H277.812V76.3096Z" fill="white"/>
<path d="M287.75 76.3096H277.812V79.6221H287.75V76.3096Z" fill="#F3322C"/>
<path d="M287.75 79.6221H208.25V82.9346H287.75V79.6221Z" fill="#F3322C"/>
<path d="M287.75 82.9346H208.25V86.2471H287.75V82.9346Z" fill="#F3322C"/>
<path d="M287.75 86.2471H208.25V89.5596H287.75V86.2471Z" fill="#F3322C"/>
<path d="M284.438 89.5596H211.562V92.8721H284.438V89.5596Z" fill="#F3322C"/>
<path d="M284.438 92.8721H211.562V96.1846H284.438V92.8721Z" fill="#F3322C"/>
<path d="M281.125 96.1846H214.875V99.4971H281.125V96.1846Z" fill="#F3322C"/>
<path d="M281.125 99.4971H214.875V102.81H281.125V99.4971Z" fill="#F3322C"/>
<path d="M277.813 102.81H218.188V106.122H277.813V102.81Z" fill="#F3322C"/>
<path d="M244.688 106.122H221.5V109.435H244.688V106.122Z" fill="#F3322C"/>
<path d="M251.312 106.122H244.688V109.435H251.312V106.122Z" fill="white"/>
<path d="M254.625 106.122H251.312V109.435H254.625V106.122Z" fill="black"/>
<path d="M274.5 106.122H254.625V109.435H274.5V106.122Z" fill="#F3322C"/>
<path d="M271.188 109.435H224.812V112.747H271.188V109.435Z" fill="#F3322C"/>
<path d="M267.875 112.747H228.125V116.06H267.875V112.747Z" fill="#F3322C"/>
<path d="M264.562 116.06H231.438V119.372H264.562V116.06Z" fill="#F3322C"/>
<path d="M257.938 119.372H238.062V122.685H257.938V119.372Z" fill="#F3322C"/>
<path d="M251.312 122.685H244.688V125.997H251.312V122.685Z" fill="#F3322C"/>
<path d="M93.3906 127.225C90.474 127.225 87.8568 126.821 85.5391 126.014C83.2474 125.181 81.2812 123.996 79.6406 122.459C78 120.923 76.737 119.087 75.8516 116.952C74.9661 114.79 74.4844 112.381 74.4062 109.725L74.3672 109.374H85.8125L85.8516 109.608C85.9297 111.066 86.2552 112.355 86.8281 113.475C87.4271 114.595 88.2604 115.467 89.3281 116.092C90.4219 116.717 91.737 117.03 93.2734 117.03C95.7474 117.03 97.6354 116.288 98.9375 114.803C100.24 113.319 100.891 111.157 100.891 108.319V69.8813H112.688V108.436C112.688 112.368 111.919 115.741 110.383 118.553C108.872 121.366 106.685 123.514 103.82 124.999C100.956 126.483 97.4792 127.225 93.3906 127.225Z" fill="#F3322C"/>
<path d="M250.391 386.474C247.474 386.474 244.857 386.07 242.539 385.263C240.247 384.429 238.281 383.244 236.641 381.708C235 380.172 233.737 378.336 232.852 376.2C231.966 374.039 231.484 371.63 231.406 368.974L231.367 368.622H242.812L242.852 368.856C242.93 370.315 243.255 371.604 243.828 372.724C244.427 373.843 245.26 374.716 246.328 375.341C247.422 375.966 248.737 376.278 250.273 376.278C252.747 376.278 254.635 375.536 255.938 374.052C257.24 372.567 257.891 370.406 257.891 367.567V329.13H269.688V367.685C269.688 371.617 268.919 374.989 267.383 377.802C265.872 380.614 263.685 382.763 260.82 384.247C257.956 385.731 254.479 386.474 250.391 386.474Z" fill="#F3322C"/>
<path d="M160.25 160.874H153.375V167.749H160.25V160.874Z" fill="#C5030E"/>
<path d="M174 160.874H167.125V167.749H174V160.874Z" fill="#C5030E"/>
<path d="M180.875 160.874H174V167.749H180.875V160.874Z" fill="#F3322C"/>
<path d="M194.625 160.874H187.75V167.749H194.625V160.874Z" fill="#C5030E"/>
<path d="M180.875 167.749H160.25V174.624H180.875V167.749Z" fill="#C5030E"/>
<path d="M187.75 167.749H180.875V174.624H187.75V167.749Z" fill="#F3322C"/>
<path d="M167.125 174.624H153.375V181.499H167.125V174.624Z" fill="#C5030E"/>
<path d="M174 174.624H167.125V181.499H174V174.624Z" fill="#F3322C"/>
<path d="M180.875 174.624H174V181.499H180.875V174.624Z" fill="#C5030E"/>
<path d="M187.75 174.624H180.875V181.499H187.75V174.624Z" fill="#F3322C"/>
<path d="M194.625 174.624H187.75V181.499H194.625V174.624Z" fill="#C5030E"/>
<path d="M153.375 181.499H146.5V188.374H153.375V181.499Z" fill="#C5030E"/>
<path d="M174 181.499H160.25V188.374H174V181.499Z" fill="#C5030E"/>
<path d="M187.75 181.499H174V188.374H187.75V181.499Z" fill="#F3322C"/>
<path d="M194.625 188.374H153.375V195.249H194.625V188.374Z" fill="#C5030E"/>
<path d="M208.375 195.249H139.625V202.124H208.375V195.249Z" fill="#C5030E"/>
<path d="M215.25 202.124H132.75V208.999H215.25V202.124Z" fill="#C5030E"/>
<path d="M222.125 208.999H125.875V215.874H222.125V208.999Z" fill="#C5030E"/>
<path d="M222.125 215.874H125.875V222.749H222.125V215.874Z" fill="#C5030E"/>
<path d="M229 222.749H119V229.624H229V222.749Z" fill="#C5030E"/>
<path d="M229 229.624H119V236.499H229V229.624Z" fill="#C5030E"/>
<path d="M229 236.499H119V243.374H229V236.499Z" fill="#C5030E"/>
<path d="M229 243.374H119V250.249H229V243.374Z" fill="#C5030E"/>
<path d="M229 250.249H119V257.124H229V250.249Z" fill="#C5030E"/>
<path d="M119 257.124H112.125V263.999H119V257.124Z" fill="#F3322C"/>
<path d="M125.875 257.124H119V263.999H125.875V257.124Z" fill="#C5030E"/>
<path d="M132.75 257.124H125.875V263.999H132.75V257.124Z" fill="#F3322C"/>
<path d="M139.625 257.124H132.75V263.999H139.625V257.124Z" fill="#C5030E"/>
<path d="M146.5 257.124H139.625V263.999H146.5V257.124Z" fill="#F3322C"/>
<path d="M153.375 257.124H146.5V263.999H153.375V257.124Z" fill="#C5030E"/>
<path d="M160.25 257.124H153.375V263.999H160.25V257.124Z" fill="#F3322C"/>
<path d="M167.125 257.124H160.25V263.999H167.125V257.124Z" fill="#C5030E"/>
<path d="M174 257.124H167.125V263.999H174V257.124Z" fill="#F3322C"/>
<path d="M180.875 257.124H174V263.999H180.875V257.124Z" fill="#C5030E"/>
<path d="M187.75 257.124H180.875V263.999H187.75V257.124Z" fill="#F3322C"/>
<path d="M194.625 257.124H187.75V263.999H194.625V257.124Z" fill="#C5030E"/>
<path d="M201.5 257.124H194.625V263.999H201.5V257.124Z" fill="#F3322C"/>
<path d="M208.375 257.124H201.5V263.999H208.375V257.124Z" fill="#C5030E"/>
<path d="M215.25 257.124H208.375V263.999H215.25V257.124Z" fill="#F3322C"/>
<path d="M222.125 257.124H215.25V263.999H222.125V257.124Z" fill="#C5030E"/>
<path d="M229 257.124H222.125V263.999H229V257.124Z" fill="#F3322C"/>
<path d="M235.875 257.124H229V263.999H235.875V257.124Z" fill="#C5030E"/>
<path d="M119 263.999H112.125V270.874H119V263.999Z" fill="#F3322C"/>
<path d="M125.875 263.999H119V270.874H125.875V263.999Z" fill="#C5030E"/>
<path d="M132.75 263.999H125.875V270.874H132.75V263.999Z" fill="#F3322C"/>
<path d="M139.625 263.999H132.75V270.874H139.625V263.999Z" fill="#C5030E"/>
<path d="M146.5 263.999H139.625V270.874H146.5V263.999Z" fill="#F3322C"/>
<path d="M153.375 263.999H146.5V270.874H153.375V263.999Z" fill="#C5030E"/>
<path d="M160.25 263.999H153.375V270.874H160.25V263.999Z" fill="#F3322C"/>
<path d="M167.125 263.999H160.25V270.874H167.125V263.999Z" fill="#C5030E"/>
<path d="M174 263.999H167.125V270.874H174V263.999Z" fill="#F3322C"/>
<path d="M180.875 263.999H174V270.874H180.875V263.999Z" fill="#C5030E"/>
<path d="M187.75 263.999H180.875V270.874H187.75V263.999Z" fill="#F3322C"/>
<path d="M194.625 263.999H187.75V270.874H194.625V263.999Z" fill="#C5030E"/>
<path d="M201.5 263.999H194.625V270.874H201.5V263.999Z" fill="#F3322C"/>
<path d="M208.375 263.999H201.5V270.874H208.375V263.999Z" fill="black"/>
<path d="M215.25 263.999H208.375V270.874H215.25V263.999Z" fill="white"/>
<path d="M222.125 263.999H215.25V270.874H222.125V263.999Z" fill="black"/>
<path d="M229 263.999H222.125V270.874H229V263.999Z" fill="white"/>
<path d="M235.875 263.999H229V270.874H235.875V263.999Z" fill="#C5030E"/>
<path d="M119 270.874H112.125V277.749H119V270.874Z" fill="#F3322C"/>
<path d="M125.875 270.874H119V277.749H125.875V270.874Z" fill="#C5030E"/>
<path d="M132.75 270.874H125.875V277.749H132.75V270.874Z" fill="#F3322C"/>
<path d="M139.625 270.874H132.75V277.749H139.625V270.874Z" fill="#C5030E"/>
<path d="M146.5 270.874H139.625V277.749H146.5V270.874Z" fill="#F3322C"/>
<path d="M153.375 270.874H146.5V277.749H153.375V270.874Z" fill="#C5030E"/>
<path d="M160.25 270.874H153.375V277.749H160.25V270.874Z" fill="#F3322C"/>
<path d="M167.125 270.874H160.25V277.749H167.125V270.874Z" fill="#C5030E"/>
<path d="M174 270.874H167.125V277.749H174V270.874Z" fill="#F3322C"/>
<path d="M180.875 270.874H174V277.749H180.875V270.874Z" fill="#C5030E"/>
<path d="M187.75 270.874H180.875V277.749H187.75V270.874Z" fill="#F3322C"/>
<path d="M194.625 270.874H187.75V277.749H194.625V270.874Z" fill="#C5030E"/>
<path d="M201.5 270.874H194.625V277.749H201.5V270.874Z" fill="#F3322C"/>
<path d="M229 270.874H201.5V277.749H229V270.874Z" fill="black"/>
<path d="M235.875 270.874H229V277.749H235.875V270.874Z" fill="#C5030E"/>
<path d="M119 277.749H112.125V284.624H119V277.749Z" fill="#F3322C"/>
<path d="M125.875 277.749H119V284.624H125.875V277.749Z" fill="#C5030E"/>
<path d="M132.75 277.749H125.875V284.624H132.75V277.749Z" fill="#F3322C"/>
<path d="M139.625 277.749H132.75V284.624H139.625V277.749Z" fill="#C5030E"/>
<path d="M146.5 277.749H139.625V284.624H146.5V277.749Z" fill="#F3322C"/>
<path d="M153.375 277.749H146.5V284.624H153.375V277.749Z" fill="#C5030E"/>
<path d="M160.25 277.749H153.375V284.624H160.25V277.749Z" fill="#F3322C"/>
<path d="M167.125 277.749H160.25V284.624H167.125V277.749Z" fill="#C5030E"/>
<path d="M174 277.749H167.125V284.624H174V277.749Z" fill="#F3322C"/>
<path d="M180.875 277.749H174V284.624H180.875V277.749Z" fill="#C5030E"/>
<path d="M187.75 277.749H180.875V284.624H187.75V277.749Z" fill="#F3322C"/>
<path d="M194.625 277.749H187.75V284.624H194.625V277.749Z" fill="#C5030E"/>
<path d="M201.5 277.749H194.625V284.624H201.5V277.749Z" fill="#F3322C"/>
<path d="M208.375 277.749H201.5V284.624H208.375V277.749Z" fill="#C5030E"/>
<path d="M215.25 277.749H208.375V284.624H215.25V277.749Z" fill="#F3322C"/>
<path d="M222.125 277.749H215.25V284.624H222.125V277.749Z" fill="#C5030E"/>
<path d="M229 277.749H222.125V284.624H229V277.749Z" fill="#F3322C"/>
<path d="M235.875 277.749H229V284.624H235.875V277.749Z" fill="#C5030E"/>
<defs>
<filter id="filter0_d_18_21167" x="0" y="0.248535" width="348" height="462" filterUnits="userSpaceOnUse" color-interpolation-filters="sRGB">
<feFlood flood-opacity="0" result="BackgroundImageFix"/>
<feColorMatrix in="SourceAlpha" type="matrix" values="0 0 0 0 0 0 0 0 0 0 0 0 0 0 0 0 0 0 127 0" result="hardAlpha"/>
<feOffset dy="5"/>
<feGaussianBlur stdDeviation="17"/>
<feColorMatrix type="matrix" values="0 0 0 0 0 0 0 0 0 0 0 0 0 0 0 0 0 0 0.1 0"/>
<feBlend mode="normal" in2="BackgroundImageFix" result="effect1_dropShadow_18_21167"/>
<feBlend mode="normal" in="SourceGraphic" in2="effect1_dropShadow_18_21167" result="shape"/>
</filter>
</defs>
</svg>
