<svg width="348" height="463" viewBox="0 0 348 463" fill="none" xmlns="http://www.w3.org/2000/svg">
<g filter="url(#filter0_d_18_21795)">
<rect x="34" y="29.2485" width="280" height="394" rx="20" fill="#F2F2F2"/>
<rect x="34.5" y="29.7485" width="279" height="393" rx="19.5" stroke="#D2D2D2"/>
</g>
<path d="M93.375 323.747H76.8125V327.06H93.375V323.747Z" fill="#F3322C"/>
<path d="M123.188 323.747H106.625V327.06H123.188V323.747Z" fill="#F3322C"/>
<path d="M100 327.06H70.1875V330.372H100V327.06Z" fill="#F3322C"/>
<path d="M129.812 327.06H103.312V330.372H129.812V327.06Z" fill="#F3322C"/>
<path d="M86.75 330.372H66.875V333.685H86.75V330.372Z" fill="#F3322C"/>
<path d="M93.375 330.372H86.75V333.685H93.375V330.372Z" fill="white"/>
<path d="M113.25 330.372H93.375V333.685H113.25V330.372Z" fill="#F3322C"/>
<path d="M119.875 330.372H113.25V333.685H119.875V330.372Z" fill="white"/>
<path d="M133.125 330.372H119.875V333.685H133.125V330.372Z" fill="#F3322C"/>
<path d="M93.375 333.685H63.5625V336.997H93.375V333.685Z" fill="#F3322C"/>
<path d="M96.6875 333.685H93.375V336.997H96.6875V333.685Z" fill="white"/>
<path d="M113.25 333.685H96.6875V336.997H113.25V333.685Z" fill="#F3322C"/>
<path d="M119.875 333.685H113.25V336.997H119.875V333.685Z" fill="white"/>
<path d="M123.188 333.685H119.875V336.997H123.188V333.685Z" fill="#F3322C"/>
<path d="M126.5 333.685H123.188V336.997H126.5V333.685Z" fill="white"/>
<path d="M136.438 333.685H126.5V336.997H136.438V333.685Z" fill="#F3322C"/>
<path d="M126.5 336.997H63.5625V340.31H126.5V336.997Z" fill="#F3322C"/>
<path d="M129.812 336.997H126.5V340.31H129.812V336.997Z" fill="white"/>
<path d="M136.438 336.997H129.812V340.31H136.438V336.997Z" fill="#F3322C"/>
<path d="M126.5 340.31H60.25V343.622H126.5V340.31Z" fill="#F3322C"/>
<path d="M129.812 340.31H126.5V343.622H129.812V340.31Z" fill="white"/>
<path d="M139.75 340.31H129.812V343.622H139.75V340.31Z" fill="#F3322C"/>
<path d="M139.75 343.622H60.25V346.935H139.75V343.622Z" fill="#F3322C"/>
<path d="M139.75 346.935H60.25V350.247H139.75V346.935Z" fill="#F3322C"/>
<path d="M139.75 350.247H60.25V353.56H139.75V350.247Z" fill="#F3322C"/>
<path d="M136.438 353.56H63.5625V356.872H136.438V353.56Z" fill="#F3322C"/>
<path d="M136.438 356.872H63.5625V360.185H136.438V356.872Z" fill="#F3322C"/>
<path d="M133.125 360.185H66.875V363.497H133.125V360.185Z" fill="#F3322C"/>
<path d="M133.125 363.497H66.875V366.81H133.125V363.497Z" fill="#F3322C"/>
<path d="M129.813 366.81H70.1875V370.122H129.813V366.81Z" fill="#F3322C"/>
<path d="M96.6875 370.122H73.5V373.435H96.6875V370.122Z" fill="#F3322C"/>
<path d="M103.312 370.122H96.6875V373.435H103.312V370.122Z" fill="white"/>
<path d="M106.625 370.122H103.312V373.435H106.625V370.122Z" fill="black"/>
<path d="M126.5 370.122H106.625V373.435H126.5V370.122Z" fill="#F3322C"/>
<path d="M123.188 373.435H76.8125V376.747H123.188V373.435Z" fill="#F3322C"/>
<path d="M119.875 376.747H80.125V380.06H119.875V376.747Z" fill="#F3322C"/>
<path d="M116.562 380.06H83.4375V383.372H116.562V380.06Z" fill="#F3322C"/>
<path d="M109.938 383.372H90.0625V386.685H109.938V383.372Z" fill="#F3322C"/>
<path d="M103.312 386.685H96.6875V389.997H103.312V386.685Z" fill="#F3322C"/>
<path d="M241.375 59.7471H224.812V63.0596H241.375V59.7471Z" fill="#F3322C"/>
<path d="M271.188 59.7471H254.625V63.0596H271.188V59.7471Z" fill="#F3322C"/>
<path d="M248 63.0596H218.188V66.3721H248V63.0596Z" fill="#F3322C"/>
<path d="M277.812 63.0596H251.312V66.3721H277.812V63.0596Z" fill="#F3322C"/>
<path d="M234.75 66.3721H214.875V69.6846H234.75V66.3721Z" fill="#F3322C"/>
<path d="M241.375 66.3721H234.75V69.6846H241.375V66.3721Z" fill="white"/>
<path d="M261.25 66.3721H241.375V69.6846H261.25V66.3721Z" fill="#F3322C"/>
<path d="M267.875 66.3721H261.25V69.6846H267.875V66.3721Z" fill="white"/>
<path d="M281.125 66.3721H267.875V69.6846H281.125V66.3721Z" fill="#F3322C"/>
<path d="M241.375 69.6846H211.562V72.9971H241.375V69.6846Z" fill="#F3322C"/>
<path d="M244.688 69.6846H241.375V72.9971H244.688V69.6846Z" fill="white"/>
<path d="M261.25 69.6846H244.688V72.9971H261.25V69.6846Z" fill="#F3322C"/>
<path d="M267.875 69.6846H261.25V72.9971H267.875V69.6846Z" fill="white"/>
<path d="M271.188 69.6846H267.875V72.9971H271.188V69.6846Z" fill="#F3322C"/>
<path d="M274.5 69.6846H271.188V72.9971H274.5V69.6846Z" fill="white"/>
<path d="M284.438 69.6846H274.5V72.9971H284.438V69.6846Z" fill="#F3322C"/>
<path d="M274.5 72.9971H211.562V76.3096H274.5V72.9971Z" fill="#F3322C"/>
<path d="M277.812 72.9971H274.5V76.3096H277.812V72.9971Z" fill="white"/>
<path d="M284.438 72.9971H277.812V76.3096H284.438V72.9971Z" fill="#F3322C"/>
<path d="M274.5 76.3096H208.25V79.6221H274.5V76.3096Z" fill="#F3322C"/>
<path d="M277.812 76.3096H274.5V79.6221H277.812V76.3096Z" fill="white"/>
<path d="M287.75 76.3096H277.812V79.6221H287.75V76.3096Z" fill="#F3322C"/>
<path d="M287.75 79.6221H208.25V82.9346H287.75V79.6221Z" fill="#F3322C"/>
<path d="M287.75 82.9346H208.25V86.2471H287.75V82.9346Z" fill="#F3322C"/>
<path d="M287.75 86.2471H208.25V89.5596H287.75V86.2471Z" fill="#F3322C"/>
<path d="M284.438 89.5596H211.562V92.8721H284.438V89.5596Z" fill="#F3322C"/>
<path d="M284.438 92.8721H211.562V96.1846H284.438V92.8721Z" fill="#F3322C"/>
<path d="M281.125 96.1846H214.875V99.4971H281.125V96.1846Z" fill="#F3322C"/>
<path d="M281.125 99.4971H214.875V102.81H281.125V99.4971Z" fill="#F3322C"/>
<path d="M277.813 102.81H218.188V106.122H277.813V102.81Z" fill="#F3322C"/>
<path d="M244.688 106.122H221.5V109.435H244.688V106.122Z" fill="#F3322C"/>
<path d="M251.312 106.122H244.688V109.435H251.312V106.122Z" fill="white"/>
<path d="M254.625 106.122H251.312V109.435H254.625V106.122Z" fill="black"/>
<path d="M274.5 106.122H254.625V109.435H274.5V106.122Z" fill="#F3322C"/>
<path d="M271.188 109.435H224.812V112.747H271.188V109.435Z" fill="#F3322C"/>
<path d="M267.875 112.747H228.125V116.06H267.875V112.747Z" fill="#F3322C"/>
<path d="M264.562 116.06H231.438V119.372H264.562V116.06Z" fill="#F3322C"/>
<path d="M257.938 119.372H238.062V122.685H257.938V119.372Z" fill="#F3322C"/>
<path d="M251.312 122.685H244.688V125.997H251.312V122.685Z" fill="#F3322C"/>
<path d="M95.5 127.225C89.9271 127.225 85.0964 126.04 81.0078 123.67C76.9453 121.301 73.8073 117.941 71.5938 113.592C69.4062 109.217 68.3125 104.048 68.3125 98.0845V98.0063C68.3125 92.0168 69.4193 86.8475 71.6328 82.4985C73.8464 78.1496 76.9844 74.8032 81.0469 72.4595C85.1354 70.0897 89.9531 68.9048 95.5 68.9048C101.073 68.9048 105.891 70.0897 109.953 72.4595C114.016 74.8293 117.154 78.1886 119.367 82.5376C121.581 86.8605 122.688 92.0168 122.688 98.0063V98.0845C122.688 104.048 121.581 109.217 119.367 113.592C117.154 117.941 114.016 121.301 109.953 123.67C105.917 126.04 101.099 127.225 95.5 127.225ZM95.5 117.225C98.625 117.225 101.307 116.444 103.547 114.881C105.812 113.293 107.557 111.066 108.781 108.202C110.005 105.337 110.617 101.965 110.617 98.0845V98.0063C110.617 94.0741 109.992 90.6886 108.742 87.8501C107.518 84.9855 105.773 82.785 103.508 81.2485C101.242 79.686 98.5729 78.9048 95.5 78.9048C92.4271 78.9048 89.7578 79.673 87.4922 81.2095C85.2266 82.7459 83.4688 84.9465 82.2188 87.811C80.9688 90.6496 80.3438 94.048 80.3438 98.0063V98.0845C80.3438 101.991 80.9557 105.376 82.1797 108.241C83.4297 111.105 85.1875 113.319 87.4531 114.881C89.7188 116.444 92.401 117.225 95.5 117.225ZM109.562 131.522L92.1406 106.913H103.352L120.773 131.522H109.562Z" fill="#F3322C"/>
<path d="M252.5 386.474C246.927 386.474 242.096 385.289 238.008 382.919C233.945 380.549 230.807 377.19 228.594 372.841C226.406 368.466 225.312 363.297 225.312 357.333V357.255C225.312 351.265 226.419 346.096 228.633 341.747C230.846 337.398 233.984 334.052 238.047 331.708C242.135 329.338 246.953 328.153 252.5 328.153C258.073 328.153 262.891 329.338 266.953 331.708C271.016 334.078 274.154 337.437 276.367 341.786C278.581 346.109 279.688 351.265 279.688 357.255V357.333C279.688 363.297 278.581 368.466 276.367 372.841C274.154 377.19 271.016 380.549 266.953 382.919C262.917 385.289 258.099 386.474 252.5 386.474ZM252.5 376.474C255.625 376.474 258.307 375.692 260.547 374.13C262.812 372.541 264.557 370.315 265.781 367.45C267.005 364.586 267.617 361.213 267.617 357.333V357.255C267.617 353.323 266.992 349.937 265.742 347.099C264.518 344.234 262.773 342.034 260.508 340.497C258.242 338.935 255.573 338.153 252.5 338.153C249.427 338.153 246.758 338.922 244.492 340.458C242.227 341.994 240.469 344.195 239.219 347.06C237.969 349.898 237.344 353.297 237.344 357.255V357.333C237.344 361.239 237.956 364.625 239.18 367.489C240.43 370.354 242.188 372.567 244.453 374.13C246.719 375.692 249.401 376.474 252.5 376.474ZM266.562 390.771L249.141 366.161H260.352L277.773 390.771H266.562Z" fill="#F3322C"/>
<path d="M125.312 164.436H101.219V172.467H125.312V164.436Z" fill="#D22209"/>
<path d="M133.344 172.467H93.1875V180.499H133.344V172.467Z" fill="#D22209"/>
<path d="M141.375 180.499H93.1875V188.53H141.375V180.499Z" fill="#D22209"/>
<path d="M149.406 188.53H85.1562V196.561H149.406V188.53Z" fill="#D22209"/>
<path d="M149.406 196.561H85.1562V204.592H149.406V196.561Z" fill="#D22209"/>
<path d="M149.406 204.592H85.1562V212.624H149.406V204.592Z" fill="#D22209"/>
<path d="M149.406 212.624H85.1562V220.655H149.406V212.624Z" fill="#D22209"/>
<path d="M157.438 220.655H85.1562V228.686H157.438V220.655Z" fill="#D22209"/>
<path d="M173.5 228.686H85.1562V236.717H173.5V228.686Z" fill="#D22209"/>
<path d="M189.562 236.717H93.1875V244.749H189.562V236.717Z" fill="#D22209"/>
<path d="M133.344 244.749H101.219V252.78H133.344V244.749Z" fill="#D22209"/>
<path d="M213.656 244.749H149.406V252.78H213.656V244.749Z" fill="#D22209"/>
<path d="M125.312 252.78H109.25V260.811H125.312V252.78Z" fill="#D22209"/>
<path d="M229.719 252.78H157.438V260.811H229.719V252.78Z" fill="#D22209"/>
<path d="M125.312 260.811H109.25V268.842H125.312V260.811Z" fill="#D22209"/>
<path d="M245.781 260.811H165.469V268.842H245.781V260.811Z" fill="#D22209"/>
<path d="M125.312 268.842H109.25V276.874H125.312V268.842Z" fill="#D22209"/>
<path d="M197.594 268.842H173.5V276.874H197.594V268.842Z" fill="#D22209"/>
<path d="M229.719 268.842H197.594V276.874H229.719V268.842Z" fill="black"/>
<path d="M261.844 268.842H229.719V276.874H261.844V268.842Z" fill="#D22209"/>
<path d="M125.312 276.874H109.25V284.905H125.312V276.874Z" fill="#EAB118"/>
<path d="M261.844 276.874H181.531V284.905H261.844V276.874Z" fill="#EAB118"/>
<defs>
<filter id="filter0_d_18_21795" x="0" y="0.248535" width="348" height="462" filterUnits="userSpaceOnUse" color-interpolation-filters="sRGB">
<feFlood flood-opacity="0" result="BackgroundImageFix"/>
<feColorMatrix in="SourceAlpha" type="matrix" values="0 0 0 0 0 0 0 0 0 0 0 0 0 0 0 0 0 0 127 0" result="hardAlpha"/>
<feOffset dy="5"/>
<feGaussianBlur stdDeviation="17"/>
<feColorMatrix type="matrix" values="0 0 0 0 0 0 0 0 0 0 0 0 0 0 0 0 0 0 0.1 0"/>
<feBlend mode="normal" in2="BackgroundImageFix" result="effect1_dropShadow_18_21795"/>
<feBlend mode="normal" in="SourceGraphic" in2="effect1_dropShadow_18_21795" result="shape"/>
</filter>
</defs>
</svg>
